<svg xmlns="http://www.w3.org/2000/svg" viewBox="1 1 275.42 297.26"><!-- Source: https://football-logos.cc --><defs data-source="https://football-logos.cc"><clipPath id="a"><path d="M179.883 262.338c-.043.573-10.7 1.742-10.733 2.281-.125 1.81 2.628 28.764 2.628 28.764 48.55-25.798 86.883-61.927 116.527-63.563l-9.646-17.26c0-.294 3.38-22.979 4.352-25.11-48.32 19.488-62.827 48.8-103.128 74.888"></path></clipPath><clipPath id="b"><path d="M-84-91.667h2019.267v2865.176H-84z"></path></clipPath><clipPath id="c"><path d="m22.535 212.56-9.655 17.26c29.65 1.637 67.986 37.765 116.532 63.563 0 0 2.758-26.954 2.633-28.764-.039-.539-10.69-1.708-10.733-2.281-40.306-26.088-54.813-55.4-103.133-74.888.972 2.132 4.356 24.817 4.356 25.11"></path></clipPath><clipPath id="d"><path d="M150.595 236.703c-42.346 0-74.152-22.776-93.222-43.959l-8.086 43.838c31.002 14.445 66.321 39.493 101.289 39.493 34.987 0 70.277-25.034 101.288-39.483l-8.052-43.848c-19.065 21.183-50.856 43.959-93.217 43.959"></path></clipPath></defs><path d="M283.01 187.449c-.972 2.132-4.351 24.812-4.351 25.11l9.65 17.265c-29.649 1.632-67.98 37.755-116.527 63.558 0 0-2.758-26.954-2.633-28.763.034-.54 10.69-1.704 10.734-2.282 40.3-26.087 54.808-55.4 103.127-74.888" style="fill:#df0024;fill-rule:evenodd" transform="translate(-11.888 .935)"></path><g clip-path="url(#a)" transform="translate(-11.888 .935)"><path d="m247.993 195.253 8.047 43.849c-23.473 10.94-45.388 31.96-71.779 39.579.655-.578-2.743-5.305-2.175-6.147 1.482-2.19 1.747-4.216 1.872-6.026.058-.794.082-1.627.178-2.522.087-.765.226-1.598.5-2.513a13.4 13.4 0 0 1 1.093-2.382c.448-.78.91-1.468 1.334-2.142.967-1.535 1.94-3.335 2.03-5.978.068-1.94-.312-3.576-.976-4.91a34 34 0 0 0 1.497-1.155c1.357-1.097 3.066-2.97 2.349-5.217-.713-2.291-3.235-2.806-4.987-2.893a31 31 0 0 0-1.892-.053 9 9 0 0 0-.375-1.463c27.618-7.427 49.017-24.172 63.284-40.027" style="fill:#c80024;fill-rule:evenodd"></path></g><g clip-path="url(#b)" transform="translate(-11.888 .935)"><path d="M18.187 187.45c.972 2.132 4.351 24.812 4.351 25.11l-9.65 17.266c29.649 1.63 67.981 37.754 116.527 63.557 0 0 2.758-26.953 2.633-28.763-.039-.54-10.69-1.704-10.734-2.281-40.3-26.088-54.807-55.4-103.127-74.89" style="fill:#df0024;fill-rule:evenodd"></path></g><g clip-path="url(#c)" transform="translate(-11.888 .935)"><path d="m53.202 195.254-8.047 43.848c23.474 10.941 45.388 31.96 71.779 39.58-.65-.578 2.743-5.305 2.175-6.147-1.477-2.19-1.747-4.216-1.872-6.026-.058-.794-.082-1.627-.178-2.522a13.3 13.3 0 0 0-.5-2.513 13.4 13.4 0 0 0-1.088-2.382c-.453-.78-.915-1.468-1.338-2.142-.963-1.535-1.94-3.336-2.032-5.978-.067-1.94.313-3.576.978-4.91a31 31 0 0 1-1.493-1.155c-1.357-1.097-3.07-2.97-2.353-5.217.712-2.291 3.234-2.806 4.987-2.893a31 31 0 0 1 1.89-.053c.078-.48.208-.972.376-1.463-27.618-7.427-49.012-24.172-63.284-40.027" style="fill:#c80024;fill-rule:evenodd"></path></g><path d="M145.3 129.314a5.304 5.304 0 0 1-5.299 5.304H35.454a117 117 0 0 1-1.386-18.03C34.068 55.744 80.607 5.784 139.992.422a.4.4 0 0 1 .197.033 5.304 5.304 0 0 1 5.112 5.3zm-25.423-14.844a5.297 5.297 0 0 0 5.295-5.304v-18.04a5.3 5.3 0 0 0-5.295-5.285H59.785a95.3 95.3 0 0 0-5.088 28.63zm0-48.777a5.297 5.297 0 0 0 5.295-5.304V24.584c-23.32 6.281-43.107 21.197-55.727 41.11zm56.141 43.473a5.3 5.3 0 0 0 5.3 5.304h19.594V11.352a116.3 116.3 0 0 1 20.129 12.317v85.723a5.296 5.296 0 0 0 5.29 5.078h18.992a95.3 95.3 0 0 0-4.688-27.44V42.547c16.548 20.138 26.487 45.932 26.487 74.041 0 6.132-.476 12.153-1.386 18.03H161.19a5.3 5.3 0 0 1-5.295-5.304L155.89.065a116.4 116.4 0 0 1 20.128 2.667zm-105.91 67.753h75.22v14.848h-61.57c17.188 15.956 37.958 24.199 61.543 25.426v15.922c-52.142-2.33-95.36-38.962-107.695-87.893H140a5.3 5.3 0 0 1 5.3 5.304v9.54H59.79a100.6 100.6 0 0 0 10.29 16.966m193.505-31.81a115 115 0 0 1-4.828 14.843h-88.033v55.251c17.164-3.49 32.744-11.35 45.523-22.377h22.449c-20.293 23.44-49.759 38.698-82.806 40.176v-82.59a5.3 5.3 0 0 1 5.299-5.304z" style="fill:#263c7e;fill-rule:nonzero" transform="translate(-11.888 .935)"></path><path d="m124.513 262.556 7.182 4.977c.043.106-1.199 21.963-2.286 25.847-14.305-8.832-80.049-56.632-80.12-56.796-.044-.1 63.466 17.66 75.224 25.972M169.496 267.533c-.048.106 1.198 21.963 2.286 25.847 14.305-8.832 80.01-56.622 80.082-56.79.048-.092-82.368 30.943-82.368 30.943" style="fill:#88111e;fill-rule:evenodd" transform="translate(-11.888 .935)"></path><path d="m243.816 192.744 8.048 43.848c-31.012 14.45-66.302 39.482-101.29 39.482-34.967 0-70.286-25.047-101.288-39.492l8.091-43.838c19.065 21.183 50.87 43.959 93.217 43.959 42.361 0 74.152-22.776 93.222-43.96" style="fill:#df0024;fill-rule:evenodd" transform="translate(-11.888 .935)" data-source="https://football-logos.cc"></path><g clip-path="url(#d)" transform="translate(-11.888 .935)"><path d="M121.1 228.677c1.89-2.421 4.052-3.432 5.828-4.15.722-.288 1.487-.562 2.286-.924.674-.303 1.334-.65 2.012-1.13a11.5 11.5 0 0 0 1.608-1.502c.592-.645 1.088-1.29 1.588-1.887 1.232-1.468 2.864-3.215 5.747-4.265 1.545-.558 3.018-.798 4.404-.774l.246-.64c.616-1.608 2.247-4.944 5.838-4.891 3.528.02 5.121 3.307 5.733 4.89l.24.64c1.382-.023 2.86.217 4.4.775 2.887 1.05 4.52 2.797 5.751 4.265.496.597.996 1.237 1.584 1.887a11.6 11.6 0 0 0 1.675 1.545c.66.457 1.294.794 1.949 1.087.799.362 1.56.636 2.286.925 1.776.717 3.938 1.728 5.83 4.149 1.01 1.3 1.694 2.623 2.098 3.946l.683.034c1.709.092 5.396.602 6.46 4.043 1.063 3.355-1.555 5.887-2.879 6.96l-.534.433c.448 1.314.674 2.782.616 4.428-.106 3.066-1.256 5.16-2.277 6.782-.414.655-.866 1.329-1.304 2.09-.347.606-.683 1.28-.963 2.098a12.5 12.5 0 0 0-.423 2.16c-.092.877-.116 1.686-.173 2.465-.13 1.906-.429 4.274-2.142 6.825-.92 1.363-1.974 2.421-3.105 3.215l.183.665c.438 1.65 1.093 5.309-1.853 7.388-2.864 2.05-6.08.337-7.514-.587l-.572-.38c-1.102.832-2.44 1.506-4.02 1.959-2.95.846-5.294.4-7.152-.068-.755-.192-1.535-.414-2.392-.597a11.5 11.5 0 0 0-2.296-.264c-.813.019-1.525.13-2.18.264-.861.183-1.636.405-2.397.597-1.858.467-4.207.914-7.157.068-1.574-.453-2.912-1.127-4.014-1.96l-.573.38c-1.449.93-4.722 2.672-7.605.52-2.835-2.088-2.2-5.684-1.762-7.32l.183-.665c-1.136-.794-2.185-1.852-3.104-3.215-1.714-2.55-2.012-4.919-2.147-6.825-.048-.78-.077-1.588-.173-2.464a11.6 11.6 0 0 0-.453-2.262c-.27-.77-.597-1.416-.929-1.998-.438-.756-.895-1.43-1.304-2.089-1.02-1.622-2.17-3.716-2.277-6.782-.057-1.646.169-3.114.621-4.428l-.539-.433c-1.338-1.078-4-3.663-2.844-7.066 1.112-3.345 4.726-3.845 6.42-3.937l.689-.034c.404-1.323 1.088-2.647 2.098-3.946" style="fill:#c80024;fill-rule:nonzero"></path></g><path d="M120.283 234.23c.25-1.474.9-3.014 2.094-4.55 1.627-2.079 3.475-2.97 5.155-3.643.74-.293 1.525-.578 2.344-.948a12.7 12.7 0 0 0 2.281-1.29c.751-.558 1.343-1.14 1.877-1.728.607-.674 1.117-1.333 1.632-1.945 1.165-1.386 2.57-2.868 5.059-3.773 1.82-.67 3.49-.804 4.972-.587.207-.664.443-1.276.635-1.781.63-1.641 1.897-3.88 4.293-3.846 2.369.01 3.615 2.224 4.236 3.846.193.505.428 1.116.63 1.78 1.488-.216 3.153-.081 4.977.588 2.484.905 3.894 2.387 5.054 3.773.515.612 1.025 1.271 1.627 1.935a13 13 0 0 0 1.935 1.776c.76.535 1.502.925 2.233 1.252.819.37 1.603.654 2.34.948 1.684.674 3.528 1.564 5.16 3.644 1.193 1.535 1.843 3.075 2.093 4.548.688-.005 1.352.024 1.887.053 1.752.096 4.274.602 4.986 2.902.722 2.248-.991 4.11-2.349 5.213a29 29 0 0 1-1.501 1.155c.669 1.338 1.049 2.965.982 4.91-.092 2.642-1.064 4.438-2.027 5.978-.428.673-.89 1.357-1.338 2.141a14 14 0 0 0-1.097 2.388c-.27.91-.41 1.737-.496 2.508-.096.895-.12 1.728-.178 2.522-.125 1.805-.395 3.831-1.868 6.026-1.087 1.612-2.358 2.705-3.682 3.403.222.654.395 1.29.535 1.81.452 1.694.75 4.254-1.213 5.636-1.916 1.381-4.226.327-5.69-.621a28 28 0 0 1-1.559-1.069c-1.068 1.05-2.498 1.911-4.366 2.45-2.546.727-4.553.356-6.314-.082-.77-.197-1.57-.428-2.45-.61a13.7 13.7 0 0 0-2.61-.304c-.947.02-1.78.144-2.536.303-.885.183-1.68.414-2.46.611-1.751.434-3.768.809-6.31.082-1.867-.539-3.296-1.4-4.365-2.45-.558.414-1.112.775-1.564 1.069-1.473.958-3.812 2.017-5.733.587-1.91-1.396-1.612-3.923-1.164-5.602.14-.52.312-1.156.534-1.81-1.329-.698-2.595-1.791-3.677-3.403-1.483-2.195-1.752-4.221-1.878-6.022-.052-.798-.081-1.626-.178-2.522a13 13 0 0 0-.515-2.575c-.313-.9-.683-1.65-1.073-2.325-.448-.78-.915-1.468-1.338-2.141-.963-1.54-1.935-3.336-2.031-5.978-.068-1.945.317-3.572.982-4.91a28 28 0 0 1-1.497-1.155c-1.367-1.107-3.105-3.003-2.33-5.275.737-2.248 3.23-2.744 4.967-2.84a31 31 0 0 1 1.887-.053" style="fill:#fff;fill-rule:nonzero" transform="translate(-11.888 .935)"></path><path d="M126.586 242.417c-1.313-.385-2.339-.135-3.499.39-1.896.857-4.418-1.165-5.804-2.291-1.387-1.117-1.772-2.012-1.565-2.619.193-.61 1.025-1.102 2.802-1.193 1.78-.101 5.015-.25 6.05 1.56.625 1.097 1.309 1.906 2.594 2.363zM174.608 242.417c1.309-.385 2.334-.135 3.494.39 1.901.857 4.423-1.165 5.81-2.291 1.386-1.117 1.766-2.012 1.559-2.619-.188-.61-1.02-1.102-2.801-1.193-1.78-.101-5.01-.25-6.046 1.56-.63 1.097-1.309 1.906-2.594 2.363zM136.697 269.959c-.77 1.136-.848 2.18-.708 3.446.226 2.074-2.479 3.846-3.976 4.818-1.497.968-2.46 1.059-2.974.674h.005c-.53-.366-.737-1.31-.275-3.033.458-1.728 1.31-4.847 3.35-5.27 1.242-.255 2.22-.655 3.057-1.738zM164.497 269.959c.77 1.136.847 2.18.708 3.446-.227 2.074 2.478 3.846 3.975 4.818 1.492.968 2.455 1.059 2.975.674h-.005c.524-.366.736-1.31.274-3.033-.457-1.728-1.309-4.847-3.355-5.27-1.241-.255-2.219-.655-3.051-1.738zM149.656 224.288c-.044-1.367-.597-2.262-1.45-3.2-1.405-1.541-.254-4.569.381-6.23.645-1.67 1.367-2.305 2.012-2.3h-.005c.645-.005 1.367.63 2.007 2.3.645 1.661 1.79 4.689.385 6.23-.857.938-1.41 1.833-1.449 3.2z" style="fill:#df0024;fill-rule:nonzero" transform="translate(-11.888 .935)"></path><path d="M124.774 240.842s-6.315.877-6.079 7.533c.14 4.02 2.85 5.449 4.332 9.819v-.005c1.362 4.404.015 7.148 2.262 10.483 3.72 5.52 9.347 2.517 9.347 2.517h.005s-1.121 6.287 5.285 8.116c3.865 1.116 6.06-1.026 10.671-1.084 4.611.058 6.801 2.2 10.671 1.084 6.402-1.83 5.285-8.116 5.285-8.116s5.627 3.004 9.352-2.517c2.248-3.335.9-6.079 2.262-10.483v.005c1.483-4.37 4.193-5.8 4.332-9.819.231-6.656-6.084-7.533-6.084-7.533s4.592-4.423.491-9.669c-2.479-3.172-5.506-2.739-9.27-5.396v.005c-3.692-2.767-4.212-5.78-7.995-7.152-6.257-2.281-9.044 3.456-9.044 3.456s-2.786-5.737-9.049-3.456c-3.778 1.372-4.302 4.385-7.994 7.152l.005-.005c-3.769 2.657-6.796 2.224-9.275 5.396-4.1 5.246.49 9.67.49 9.67z" style="fill:#df0024;fill-rule:nonzero" transform="translate(-11.888 .935)"></path><path d="M134.236 243.93s-4.067-.144-5.294 2.282c-.809 1.603-.55 4.4 1.29 5.771 1.174.876 1.8 1.752 2.271 3.129.424 1.386.434 2.46 0 3.855-.678 2.2.751 4.616 2.344 5.43 2.426 1.241 5.632-1.266 5.632-1.266l.024.024s-1.396 3.816.534 5.737c1.266 1.266 4.01 1.877 5.887.553 1.198-.837 2.223-1.164 3.672-1.189 1.449.025 2.479.352 3.672 1.19 1.878 1.323 4.621.712 5.892-.554 1.925-1.92.534-5.737.534-5.737l.02-.024s3.205 2.507 5.626 1.265c1.593-.813 3.028-3.23 2.349-5.429-.433-1.396-.424-2.469 0-3.855.472-1.377 1.102-2.253 2.267-3.129 1.843-1.372 2.103-4.168 1.295-5.77-1.228-2.427-5.3-2.282-5.3-2.282l-.005-.024s3.374-2.282 2.941-4.963c-.284-1.771-2.142-3.88-4.442-3.908-1.459-.024-2.48-.366-3.668-1.198h.005c-1.165-.872-1.8-1.738-2.272-3.124-.741-2.171-3.321-3.288-5.092-3.008-2.686.414-3.808 4.331-3.808 4.331h-.028s-1.122-3.917-3.808-4.331c-1.77-.28-4.35.837-5.092 3.008-.467 1.386-1.112 2.252-2.267 3.124-1.189.832-2.21 1.174-3.672 1.198-2.301.029-4.154 2.137-4.438 3.908-.433 2.686 2.94 4.963 2.94 4.963zm2.243.723s.289-.944-.876-2.263c-.88-.986-1.227-2.011-1.121-2.83.163-1.352 1.684-2.56 3.412-2.873 1.03-.178 1.844-.5 2.758-1.146l-.005.005c.9-.668 1.454-1.347 1.945-2.267.828-1.55 2.45-2.627 3.787-2.363.81.154 1.676.799 2.345 1.945.89 1.511 1.882 1.53 1.882 1.53h-.02s.992-.02 1.882-1.53c.67-1.146 1.536-1.79 2.34-1.945 1.347-.264 2.97.814 3.792 2.359.491.924 1.045 1.603 1.94 2.271v-.005c.915.645 1.728.968 2.758 1.146 1.728.313 3.249 1.52 3.413 2.873.1.819-.241 1.844-1.122 2.83-1.17 1.32-.876 2.263-.876 2.263l-.005-.015s.323.934 2.04 1.314c1.29.284 2.172.91 2.571 1.627.66 1.194.145 3.066-1.073 4.337-.727.75-1.199 1.487-1.56 2.546h.005c-.337 1.064-.385 1.94-.24 2.974.24 1.738-.438 3.557-1.68 4.14-.746.341-1.82.327-3.037-.198-1.613-.702-2.426-.14-2.426-.14l.014-.004s-.79.592-.616 2.349c.125 1.314-.197 2.344-.75 2.94-.94 1.002-2.879 1.088-4.458.323-.938-.457-1.785-.679-2.902-.688-1.117.01-1.964.23-2.902.688-1.58.765-3.524.679-4.453-.323-.563-.596-.88-1.626-.755-2.94.173-1.757-.621-2.35-.621-2.35l.014.006s-.808-.563-2.426.14c-1.208.524-2.29.538-3.032.197-1.242-.583-1.92-2.402-1.68-4.14.145-1.034.092-1.91-.236-2.974-.36-1.059-.832-1.796-1.559-2.546-1.218-1.27-1.738-3.143-1.073-4.337.4-.717 1.275-1.343 2.57-1.627 1.718-.38 2.04-1.314 2.04-1.314z" style="fill:#fff;fill-rule:nonzero" transform="translate(-11.888 .935)"></path><path d="M143.458 246.93c-.36.972-1.762 1-1.742 2.002.033 1.603 1.275 1.56 1.627 2.657v-.005c.36 1.097-.674 1.79.245 3.109.573.818 1.723.02 2.585.592l.033.024c.81.64.41 1.978 1.358 2.277 1.535.472 1.882-.732 3.032-.732 1.155 0 1.492 1.204 3.032.732.953-.299.55-1.636 1.363-2.277l.029-.024c.861-.573 2.011.226 2.58-.592.923-1.319-.107-2.012.245-3.11v.006c.356-1.098 1.598-1.054 1.626-2.657.02-1.001-1.376-1.03-1.742-2.002l-.01-.034c-.279-.996.837-1.844.236-2.638-.963-1.285-1.95-.52-2.878-1.198-.934-.674-.506-1.844-2.022-2.363-.948-.328-1.405.996-2.44 1.034h-.039c-1.034-.038-1.497-1.362-2.435-1.034-1.521.52-1.098 1.689-2.031 2.363h.005c-.934.678-1.911-.087-2.879 1.198-.601.794.515 1.642.231 2.638zm10.979 2.305a3.841 3.841 0 0 1-7.682 0 3.84 3.84 0 0 1 3.841-3.84 3.84 3.84 0 0 1 3.841 3.84" style="fill:#fff;fill-rule:nonzero" transform="translate(-11.888 .935)"></path><path d="M139.74 286.239c-.37.322-.726.635-1.458.929-.722.279-1.266.327-1.795.394v.713h1.525v6.84c-.014 1.198-.404 1.4-1.636 1.42v.654h5.266v-.655c-.467-.019-1.122-.053-1.415-.53-.16-.25-.174-.591-.174-.875v-8.89zM145.705 292.293c.842.452 2.18 1.174 2.18 2.512 0 .76-.495 1.666-1.583 1.666-1.064 0-1.733-.982-1.733-1.873 0-.452.14-.856.313-1.212.279-.544.558-.828.823-1.093m1.059-1.42c-.607-.356-1.993-1.18-1.993-2.368 0-.76.481-1.506 1.4-1.506.968 0 1.45.885 1.45 1.76 0 1.074-.592 1.787-.857 2.114m.842.471c.515-.293 1.666-.967 1.666-2.459 0-1.526-1.262-2.667-2.97-2.667-1.656 0-3.167 1.108-3.167 2.792 0 1.507 1.136 2.287 1.79 2.74-.62.235-1.309.5-1.771 1.294a2.5 2.5 0 0 0-.376 1.324c0 1.573 1.416 2.926 3.442 2.926 1.916 0 3.49-1.232 3.49-2.941 0-1.545-1.17-2.368-2.104-3.009M150.393 289.588h.713c.298-1.093.597-1.483 1.81-1.53.322-.015.625-.015 1.044-.015h1.848l-3.345 6.136c-.731 1.372-.977 1.854-.977 2.32 0 .535.51.828.977.828.67 0 .857-.486 1.107-1.15.125-.298.592-1.574.684-1.843.452-1.165 1.184-3.047 1.636-4.236l1.449-3.644h-5.343c-.062 0-.154 0-.216-.029-.068-.033-.125-.115-.145-.24h-.65zM157.867 289.588h.713c.298-1.093.592-1.483 1.81-1.53.327-.015.625-.015 1.044-.015h1.853l-3.345 6.136c-.737 1.372-.982 1.854-.982 2.32 0 .535.51.828.982.828.669 0 .852-.486 1.102-1.15.125-.298.592-1.574.684-1.843.452-1.165 1.184-3.047 1.636-4.236l1.449-3.644h-5.343c-.062 0-.154 0-.216-.029-.063-.033-.125-.115-.14-.24h-.655z" style="fill:#263c7e;fill-rule:evenodd" transform="translate(-11.888 .935)" data-source="https://football-logos.cc"></path><!-- source: https://football-logos.cc --></svg>