<svg xmlns="http://www.w3.org/2000/svg" xml:space="preserve" overflow="visible" viewBox="0 -0.13 121.42 174.14"><!-- Source: https://football-logos.cc --><path fill="#FFF" d="M53.233 61.816c-.882-1.026 0-2.125.586-2.418-1.026.293-.925-.345-1.782.45-.123-1.403-.039-1.696 1.311-1.916 1.351-.22 3.842-.514 4.869-.368s1.458.148 1.833.294l-.439-2.492c.22-1.247-.293-6.157-.293-6.157-2.126-.513-4.618-2.565-5.791-4.179-1.172-1.612 0-.805-2.419-1.245s-5.057-.22-7.916-1.76c-2.858-1.539-5.204-2.638-5.277-8.868s.22-7.476 1.027-8.282c.073-2.711 1.172-6.523 1.612-7.256.439-.732 1.465-1.832 2.272-2.711-1.906.439-4.324.293-4.178-1.685.146-1.979.66-3.299 1.76-4.032-1.393-.293-2.249-.464-3.152.147.195-1.076 1.026-2.175 1.71-2.37.098-1.172.782-2.443 1.758-2.834-.782-1.075-1.27-2.932.098-3.323s.904-.342 1.637.025c.733.366 1.299.379 1.712.116.413-.262.779-.262 1.146-.116s.711-.034 1.246-.367c.656-.408 1.157-.583 1.539-.601h.124c1.072.053 1.083 1.483.976 2.287 1.246.293 1.319 1.246 1.246 2.126 1.247 1.245.586 2.858-.514 1.832-.218.44-.585.953-.146 1.613.88 1.319 1.026 5.277.953 7.549s1.795 6.193 2.932 7.329c1.612 1.613 5.203 1.833 7.988 1.686 2.785-.146 5.204-.953 7.036-3.811 1.833-2.859 2.931-4.471 3.885-6.084s4.437-6.268 6.45-7.623c3.591-2.418 11.117-2.612 15.967 3.458-.576-.014-.355.28-1.455-.306.22 1.465-.587 2.565-1.833 2.125s-2.338-.63-1.756 1.004c-2.495-.857-4.034-1.077-3.155.682.78 1.559 1.101 2.199.954 3.592 7.036 4.617 6.742 13.046.659 16.857-.953-1.025-1.722-1.406-2.289.25-1.01-.542-1.487-.501-2.018-.302.716 2.618-1.012 5.013-2.823 6.051-.199-1.454-1.104-1.757-1.715-2.118-.903 1.471-2.003 2.423-2.736 3.009-.731.587-1.243 1.291-.806 2.2-1.173-.806-1.173-1.026-1.393-1.393-1.172.586-2.253.951-2.629 1.832-.521-.073-.744.383-1.513-.101-.987 1.274-1.58 1.55-2.421 1.815l-.906-.605c-.887 1.383-1.912 2.189-4.038 2.482.293 2.711.366 6.01.22 7.183 1.026-.807 1.759-1.319 2.565-.732-.88.878-2.907 3.361-3.664 5.129-.22.514-.953.514-1.686.514s-2.786.953-4.911.66c-.66.586-1.246.88-1.979 1.32-.732.438-.438.145-.438.438" data-source="https://football-logos.cc"></path><path fill="#F9B021" d="M60.709 161.705c31.061 0 40.34-5.043 43.163-6.051 1.412-1.412-1.008-2.421-3.025-3.632v-11.496c0-4.639 12.506-2.218 19.968-6.857.001 0-3.025 4.841-6.454 7.261 2.621 2.421 6.453 7.864 7.06 9.076v.001c-.017-.01-7.87-4.235-11.093-3.228 2.017.807 4.84 2.823 4.84 4.438v11.094c-7.865 7.058-29.446 11.697-54.458 11.697-25.01 0-46.591-4.64-54.458-11.697v-11.094c0-1.614 2.824-3.631 4.841-4.438C7.866 145.771 0 150.007 0 150.007c.604-1.211 4.437-6.656 7.059-9.077-3.429-2.42-6.455-7.261-6.455-7.261 7.462 4.64 19.968 2.219 19.968 6.857v11.496c-2.017 1.211-4.437 2.22-3.025 3.632 2.824 1.008 12.102 6.051 43.162 6.051"></path><path fill="#292420" d="M20.572 152.022c-2.017 1.21-4.437 2.22-3.025 3.631l.908.403c-4.639-1.614-11.094-3.832-12.203-4.841 0-1.614 2.824-3.631 4.841-4.438 2.421-1.209 9.479-3.933 9.479-6.856zM100.847 152.022c2.018 1.21 4.438 2.22 3.025 3.631l-.907.403c4.64-1.614 11.093-3.832 12.202-4.841 0-1.614-2.823-3.631-4.84-4.438-2.42-1.209-9.48-3.933-9.48-6.856zM21.456 166.885l-1.382-.401 1.582-5.446-1.999-.581.34-1.169 5.381 1.563-.339 1.17-2-.581zM28.345 165.387l-.596 3.032-1.413-.278 1.33-6.761 1.413.278-.504 2.562 2.637.518.504-2.562 1.412.277-1.33 6.763-1.412-.279.596-3.033zM40.96 164.775l-3.626-.469-.187 1.435 3.331.434-.156 1.206-3.332-.43-.229 1.77 3.788.492-.157 1.208-5.186-.674.885-6.831 5.026.651zM47.959 171.086l.356-6.881 1.318 1.26-.078 1.505 1.687.087c.566.029 1.027-.168 1.056-.715.029-.565-.365-.758-1.016-.792l-1.648-.085-1.318-1.26 3.344.173c1.687.088 2.064 1.163 2.027 1.872-.051.987-.621 1.236-.916 1.365.827.36 1.012 1.043.978 1.724a2 2 0 0 1-.668 1.387c-.413.363-.798.584-2.208.511zl1.442-1.118 1.763.092c.699.036 1.118-.25 1.154-.949.03-.604-.475-.861-.993-.888l-1.83-.094-.095 1.839zM58.653 168.867l1.756.011-.837-2.732h-.019zl-.392 1.186-.489 1.418-1.516-.011 2.501-6.873 1.66.011 2.384 6.906-1.564-.011-.433-1.423-2.543-.017zM69.589 164.399l1.343-.05.264 6.883-1.438.057-2.998-4.802-.02.001.189 4.909-1.343.052-.265-6.885 1.516-.059 2.917 4.691.02-.002zM77.42 170.777l-1.434.119-.474-5.65-2.075.173-.103-1.212 5.584-.471.103 1.215-2.076.174zM83.763 167.462l1.74-.238-1.216-2.584-.019.003zl-.219 1.23-.283 1.473-1.502.205 1.499-7.159 1.645-.225 3.34 6.497-1.55.212-.63-1.347-2.519.344zM97.636 167.607l-1.314.28-1.204-5.628-.018.004-.054 5.897-1.379.296-2.434-5.368-.018.005 1.204 5.63-1.314.281-1.441-6.737 2.056-.44 2.355 5.049.019-.004.065-5.567 2.035-.434zM101.434 164.315c.129.36.542.992 1.735.596.646-.215 1.314-.608 1.084-1.301-.17-.51-.707-.482-1.453-.416l-.756.068c-1.137.104-2.236.207-2.715-1.232-.241-.728-.276-2.143 1.846-2.846 2.004-.667 2.977.467 3.251 1.264l-1.311.437c-.134-.28-.473-.935-1.665-.539-.521.173-1.076.569-.879 1.161.17.51.624.481.919.454l1.724-.138c.965-.079 1.905.013 2.296 1.188.654 1.967-1.292 2.805-1.866 2.995-2.387.793-3.253-.445-3.521-1.257zM80.88 64.083l22.791 18.355c-5.243 6.252-9.479 13.916-9.479 24.203s4.236 18.96 10.085 25.011l-8.068 14.925c-7.866 0-23.8 5.043-35.499 17.347-11.698-12.304-27.632-17.347-35.499-17.347l-8.067-14.925c5.85-6.051 10.084-14.725 10.084-25.011 0-10.287-4.235-17.951-9.479-24.203l22.792-18.355z"></path><path fill="#FFFEDD" d="M41.739 69.105 24.126 83.486c4.465 5.988 8.072 14.245 8.072 23.185s-4.067 19.343-9.119 25.191l5.04 9.896c7.22 0 22.793 5.304 32.587 15.419 9.651-10.115 25.367-15.419 32.588-15.419l5.038-9.896c-5.052-5.849-9.118-16.251-9.118-25.191.001-8.939 3.606-17.195 8.072-23.185L79.675 69.105z"></path><path fill="#F9B021" d="M87.319 106.683c0-8.427 3.367-16.908 7.535-22.796L79.216 71.02H42.195L26.556 83.885c4.168 5.888 7.536 14.371 7.536 22.797s-4.003 19.487-8.751 25.262l3.886 7.978c6.975 0 22.411 5.403 31.479 14.686 8.872-9.282 24.504-14.686 31.479-14.686l3.885-7.978c-4.749-5.774-8.751-16.835-8.751-25.261"></path><path fill="#850033" d="M96.069 131.943c-4.748-5.774-8.75-16.835-8.75-25.262s3.367-16.908 7.535-22.796L82.393 73.632v68.204c3.877-1.245 7.364-1.914 9.792-1.914zM53.443 71.02v77.716c2.642 1.732 5.132 3.69 7.262 5.872 2.09-2.187 4.562-4.148 7.199-5.885V71.02zM26.556 83.885c4.168 5.888 7.536 14.371 7.536 22.797s-4.003 19.487-8.751 25.262l3.886 7.978c2.42 0 5.87.665 9.708 1.902V73.702z"></path><path fill="#FFF" d="M51.432 99.18c0 1.916-1.008 2.219-3.833 2.219V80.624c2.824 0 3.833.302 3.833 2.219zm0 24.807c0 1.917-1.008 2.219-3.833 2.219v-23.195c2.824 0 3.833.304 3.833 2.22zm1.009-22.186c4.437-2.219 8.269-4.235 8.269-11.295 0-10.286-8.47-11.295-13.11-11.295H35.498v1.413h3.025v45.583h-3.025v1.211H47.6c6.252 0 13.715-4.034 13.715-13.11-.001-6.859-4.235-10.49-8.874-12.507M73.215 81.026c0-.806.604-1.16 1.312-1.16 4.51-.001 7.699 7.379 8.811 17.389h1.576V78.506H83.4l-2.859 3.252c-1.751-2.339-3.812-3.688-6.015-3.688-7.456 0-11.553 11.303-11.553 25.244s4.097 25.243 11.553 25.243c6.72 0 10.206-9.138 10.929-21.158h-1.81c-.664 10.98-3.515 19.361-9.119 19.361-.707 0-1.312-.555-1.312-1.462z"></path><path fill="#292420" d="M85.721 140.93v-10.516H35.7v10.516z"></path><path fill="#FFF" d="m47.789 136.63 1.032-3.182h.023l.997 3.182zm2.029-4.999h-1.939l-2.87 8.049h1.771l.561-1.659h2.97l.515 1.659h1.827zM60.793 139.68h-1.682v-8.049h5.728v1.424h-4.046v1.815h3.541v1.425h-3.541zM76.473 134.267c-.134-.482-.393-1.39-1.782-1.39-.808 0-1.995.537-1.995 2.813 0 1.447.572 2.747 1.995 2.747.931-.001 1.58-.527 1.782-1.514l1.681-.001c-.336 1.75-1.479 2.971-3.496 2.971-2.142 0-3.678-1.445-3.678-4.226.001-2.813 1.626-4.247 3.699-4.247 2.41 0 3.386 1.658 3.475 2.847z"></path><path fill="#292420" d="M40.238 4.684c.605-.604 1.815-.807 3.53-.807 2.42 0 7.059 1.917 7.059 9.48 0 2.42-.907 5.144 3.43 10.186-.302.605-1.815-.101-3.126-1.916-.303 1.311-.404 2.622.907 3.832-1.311 0-2.722-.1-3.53-1.412-.807.706-2.218.909-3.125.101-.606.504-2.219 2.925-2.32-.202-.102-2.016-2.924-1.312-2.924-3.934 0-3.831 4.235-5.244 4.235-7.462 0-.504-.807-.806-.807-1.311 0-2.219 1.917-.807 1.917-3.529 0-2.219-1.815-2.319-4.941-2.521-.405-.001-.709-.202-.305-.505"></path><path fill="#292420" d="M41.146 8.113s-.404-1.108-1.512-1.108c-.908.201-1.917.504-2.018 2.017.958-1.01 2.218.1 3.53-.909M42.86 7.747a.642.642 0 1 0 0-1.284.642.642 0 0 0 0 1.284M41.347 9.021c-.907 0-2.42 1.412-2.42 4.136 0 1.108.907 1.815 1.917.302.805-1.513 2.319-4.438.503-4.438"></path><path fill="#6C7068" d="M38.725 25.359c-.807 1.714-.706 4.941-.706 8.672 0 10.589 13.513 8.875 15.127 10.286 1.312 1.412 2.622 4.034 5.547 4.236-1.11-1.513-3.328-5.647-5.95-6.051-6.757-1.008-13.211-3.227-13.211-8.571 0-1.715-.202-5.547.201-8.372.202-1.108-.706-.603-1.008-.2"></path><path fill="#292420" d="M55.81 24.798c.007-.211-.032-.487-.142-.852 3.832.504 8.774 1.009 10.791-.807 5.749-4.841 8.269-17.85 17.85-17.85 3.43 0 7.362 1.109 10.691 4.942-1.816 0-6.052-3.631-10.59-3.631-8.472 0-12.304 15.53-17.346 17.749-1.815.908-7.765 1.816-10.287 1.11z"></path><path fill="#F9B021" d="M40.439 1.255c2.219-1.21 2.017.403 3.731-.302 1.311-.505 1.008.605 2.924-.605.908-.504 2.42-.907 2.016 2.018 1.11-.102 1.313.807 1.313 2.118.706.604 1.008 2.823-.908 1.108-1.108-1.108-2.016-2.823-8.37-2.823-.807 0-1.714-.908-.706-1.514M40.944 24.552c-.403 2.823-.504 8.27-.202 9.581 1.614 5.546 7.463 4.638 8.673 6.151.504.807 2.824 1.311 2.117-.303-2.218-4.336-6.15-1.008-7.967-5.95-1.009-2.824.102-4.639.102-6.354s-1.715 0-1.715-2.722c-.303-.303-1.008-.908-1.008-.403M55.563 25.372c-.3.245-.76.193-.703.591.605 1.513 3.53 1.312 4.235 4.135.505 1.209 2.117 3.127 3.329 2.32-1.009-1.614-.707-3.631 1.613-3.631 1.008 0 3.227 2.219 3.126.505-.101-1.414 2.421.504 2.319-1.009-.101-1.815 2.018-.705 2.219-2.118s2.219-2.521 3.632-2.42c-2.221-2.421-7.162 3.026-13.313 3.026-1.513 0-3.653-.236-4.83-.984.001-.001-1.134-.095-1.627-.415M71.602 22.333C73.719 18.097 78.56 8.617 83.2 7.912c.604 1.108-.102 1.815-2.117 3.025-2.623 1.714-5.851 5.647-8.37 10.589-.001 0-.506.404-1.111.807"></path><path fill="#292420" d="M75.736 18.601c2.118-3.528 7.361-11.798 17.85-7.865-.202 1.009-.604 1.917-2.823 1.009-.706-.302-1.312.505-.808 1.31-.504.203-3.933-1.714-3.429.102.505 1.108 1.815 3.327.706 5.445-2.42-1.714-3.731-1.614-6.857-1.614-1.411-.001-3.126 1.613-4.639 1.613M50.424 33.526c.101 2.824 2.117 3.429 3.53 4.035 2.218 1.108 7.966 3.63 7.966 5.849 0 1.11.202 3.53.202 3.833.402.202 3.328.202 5.042-2.42l.907.605s1.815-.605 2.421-1.815l1.513.101c.202-.707 1.916-1.917 2.824-1.815 0 0 .101.604.907.908 0-1.615 3.429-3.429 3.832-4.74.706.201 2.318 1.108 1.715 2.118.807-.505 3.731-3.026 2.823-6.051 0 0 1.614-.606 2.018.302 0 0 .504-1.009.806-1.109 0 0 1.412.1 1.312.807 1.312-.807 1.613-2.723 1.613-5.85.001-2.824-2.521-7.765-11.295-7.462-.201.605.504 1.11 1.614 1.21 1.109.1 3.429 1.008 4.437 2.722-2.724-1.412-8.572-1.714-9.58.807.706-.101 3.328.202 4.437 1.917.001 0-1.915-.302-2.318-.605 0 0-.203 1.11.706 1.917-.909-.102-1.715-.706-2.925-1.412-.303-.202-.706.707 0 1.311 1.109.908 2.925 2.926 3.529 4.841 0 0-.403 1.21-1.21 0-.101-.403-2.622-3.327-3.731-4.134s-1.815.403-.706 1.311c.505.404 3.025 2.723 2.925 4.135 0 0-.102 1.815-1.412.102-1.109-1.514-2.925-2.925-3.934-3.429-1.512-.807-1.311.404-.504 1.211 0 0 2.219 2.52 2.622 3.73.303.605-.706 1.109-1.512.202-1.01-1.311-3.833-3.932-5.244-4.841-1.514-.908-2.018.102-.908 1.209 1.009 1.11 3.227 3.833 3.227 4.64 0 .705-1.916 1.21-3.227 1.21-3.731 0-9.177-2.32-12.605-4.74-.507-.307-1.112-.61-1.817-.61M89.855 19.206c-1.109.605-.908 1.413-.202 2.219.907 1.109 2.621 4.235 1.513 9.984 2.319-2.219 2.522-8.875-1.311-12.203M59.499 49.36c0 1.209.606 4.235.404 5.345-.404.604-.302 1.311 1.11.907 0 0 .201-3.629-.303-6.454z"></path><path fill="#292420" d="M61.416 49.057s.604 6.455.302 7.866l-1.31 1.01c-2.32-.505-4.841 0-7.06 0-1.008 0-1.815.907-1.311 1.916 0 0 1.11-.907 2.018-.403-.403.201-1.613 1.008-.807 2.219.303-.707 1.109-.404 2.118-1.614 1.916-.001 4.538-.807 5.949-.705.706-.001 1.312-1.312 1.412-1.815 0 0 1.613-2.623 2.622-3.329 1.109-.605-.504-.503-1.109-.201l-1.108.908c.201-1.209 0-4.336-.304-6.051-.001-.003-1.715-.708-1.412.199M100.847 152.022c2.018 1.21 4.438 2.22 3.025 3.631l-.907.403c4.64-1.614 11.093-3.832 12.202-4.841 0-1.614-2.823-3.631-4.84-4.438-2.42-1.209-9.48-3.933-9.48-6.856z" data-source="https://football-logos.cc"></path><path fill="#6C7068" d="M53.146 44.317c-1.614-1.412-15.127.303-15.127-10.286 0-3.731-.101-6.958.706-8.672.302-.403 1.209-.908 1.008.201-.403 2.825-.201 6.657-.201 8.372 0 5.344 6.454 7.563 13.211 8.571 2.622.404 4.84 4.539 5.95 6.051-2.924-.203-4.235-2.825-5.547-4.237"></path><path fill="#6C7068" d="M52.743 42.502c-6.757-1.008-13.211-3.227-13.211-8.571 0-1.715-.202-5.547.201-8.372.201-1.109-.706-.604-1.008-.201-.807 1.714-.706 4.941-.706 8.672 0 10.589 13.513 8.875 15.127 10.286 1.312 1.412 2.622 4.034 5.547 4.236-1.11-1.511-3.328-5.646-5.95-6.05"></path><path fill="#676962" d="M53.146 44.317c-1.614-1.412-15.127.303-15.127-10.286 0-3.731-.101-6.958.706-8.672.302-.403 1.209-.908 1.008.201-.403 2.825-.201 6.657-.201 8.372 0 5.344 6.454 7.563 13.211 8.571 2.622.404 4.84 4.539 5.95 6.051-2.924-.203-4.235-2.825-5.547-4.237"></path><path fill="#676962" d="M52.743 42.502c-6.757-1.008-13.211-3.227-13.211-8.571 0-1.715-.202-5.547.201-8.372.201-1.109-.706-.604-1.008-.201-.807 1.714-.706 4.941-.706 8.672 0 10.589 13.513 8.875 15.127 10.286 1.312 1.412 2.622 4.034 5.547 4.236-1.11-1.511-3.328-5.646-5.95-6.05"></path><path fill="#61635B" d="M53.146 44.317c-1.614-1.412-15.127.303-15.127-10.286 0-3.731-.101-6.958.706-8.672.302-.403 1.209-.908 1.008.201-.403 2.825-.201 6.657-.201 8.372 0 5.344 6.454 7.563 13.211 8.571 2.622.404 4.84 4.539 5.95 6.051-2.924-.203-4.235-2.825-5.547-4.237"></path><path fill="#61635B" d="M52.743 42.502c-6.757-1.008-13.211-3.227-13.211-8.571 0-1.715-.202-5.547.201-8.372.201-1.109-.706-.604-1.008-.201-.807 1.714-.706 4.941-.706 8.672 0 10.589 13.513 8.875 15.127 10.286 1.312 1.412 2.622 4.034 5.547 4.236-1.11-1.511-3.328-5.646-5.95-6.05"></path><path fill="#5C5D56" d="M53.146 44.317c-1.614-1.412-15.127.303-15.127-10.286 0-3.731-.101-6.958.706-8.672.302-.403 1.209-.908 1.008.201-.403 2.825-.201 6.657-.201 8.372 0 5.344 6.454 7.563 13.211 8.571 2.622.404 4.84 4.539 5.95 6.051-2.924-.203-4.235-2.825-5.547-4.237"></path><path fill="#5C5D56" d="M52.743 42.502c-6.757-1.008-13.211-3.227-13.211-8.571 0-1.715-.202-5.547.201-8.372.201-1.109-.706-.604-1.008-.201-.807 1.714-.706 4.941-.706 8.672 0 10.589 13.513 8.875 15.127 10.286 1.312 1.412 2.622 4.034 5.547 4.236-1.11-1.511-3.328-5.646-5.95-6.05"></path><path fill="#56554E" d="M52.743 42.502c2.622.404 4.84 4.539 5.95 6.051-2.925-.202-4.235-2.824-5.547-4.236-1.614-1.412-15.127.303-15.127-10.286 0-3.731-.101-6.958.706-8.672.302-.403 1.209-.908 1.008.201-.403 2.825-.201 6.657-.201 8.372 0 5.343 6.454 7.562 13.211 8.57"></path><path fill="#292420" d="M39.532 33.931c0-1.715-.202-5.547.201-8.372.201-1.109-.706-.604-1.008-.201-.807 1.714-.706 4.941-.706 8.672 0 10.589 13.513 8.875 15.127 10.286 1.312 1.412 2.622 4.034 5.547 4.236-1.11-1.513-3.328-5.647-5.95-6.051-6.757-1.007-13.211-3.226-13.211-8.57"></path><path fill="#47453F" d="M39.532 33.931c0-1.715-.202-5.547.201-8.372.201-1.109-.706-.604-1.008-.201-.807 1.714-.706 4.941-.706 8.672 0 7.326 6.465 8.761 10.985 9.42a59 59 0 0 1 1.593-1.319c-5.914-1.15-11.065-3.426-11.065-8.2"></path><path fill="#3D3A35" d="M39.532 33.931c0-1.715-.202-5.547.201-8.372.201-1.109-.706-.604-1.008-.201-.807 1.714-.706 4.941-.706 8.672 0 4.398 2.34 6.658 5.182 7.917q.81-.748 1.629-1.513c-3.131-1.369-5.298-3.411-5.298-6.503"></path><path fill="#332F2A" d="M39.733 25.56c.201-1.109-.706-.604-1.008-.201-.807 1.714-.706 4.941-.706 8.672 0 1.863.435 3.328 1.133 4.512q.7-.646 1.405-1.305a5.7 5.7 0 0 1-1.024-3.307c-.001-1.715-.202-5.547.2-8.371"></path><path fill="#292420" d="M39.733 25.56c.201-1.109-.706-.604-1.008-.201-.672 1.428-.713 3.913-.708 6.858q.735-.717 1.469-1.436c-.014-1.685.017-3.612.247-5.221"></path><path fill="#5C5D56" d="M63.131 54.907c.201-1.209 0-4.336-.304-6.051z" data-source="https://football-logos.cc"></path><!-- source: https://football-logos.cc --></svg>