<svg xmlns="http://www.w3.org/2000/svg" width="316.228" height="316.228" viewBox="0 0 85 85.002"><!-- Source: https://football-logos.cc --><path d="M42.5.5C19.341.5.5 19.341.5 42.502s18.841 42 42 42 42-18.841 42-42S65.659.5 42.5.5" data-source="https://football-logos.cc"></path><path fill="#fff" d="M44.052 82.025c-.514.02-1.032.034-1.552.034s-1.018-.014-1.523-.034A39.55 39.55 0 0 1 2.943 42.528v-.025a39.556 39.556 0 0 1 79.099-1.059c0 .353.014.706.014 1.061s0 .75-.019 1.132a39.554 39.554 0 0 1-37.986 38.389z"></path><path fill="#e21a23" d="M42.502 4.436a38.065 38.065 0 1 0 38.063 38.063A38.065 38.065 0 0 0 42.502 4.436"></path><path fill="#fff" d="M42.421 16.379a26.125 26.125 0 0 1 26.211 26.12 26.125 26.125 0 0 1-26.13 26.13 26.125 26.125 0 0 1-.082-52.25z" data-source="https://football-logos.cc"></path><path d="M33.454 65.383a25 25 0 0 0 2.4.81 7.14 7.14 0 0 1 2.32-6.14l-1.584-1.748a9.5 9.5 0 0 0-3.136 7.078m20.767-36.497c.308-.249 2.745-1.683 2.745-1.683L53.2 26.63a8.67 8.67 0 0 0-6.908-3.919h-.028c-5.475-.156-7.95 4.388-8.503 6.84-.194.702-4.313 15.477-10.257 25.265a31 31 0 0 1-2.106 3.057h2.918c.412-.59.815-1.201 1.2-1.835 6.229-10.259 10.35-25.26 10.522-25.894l.013-.054c.048-.21 1.195-5.16 6.134-5.028a6.34 6.34 0 0 1 3.82 1.482 8 8 0 0 0-2.44.679c-1.708.679-2.844 1.756-3.375 3.18-1 2.671.531 5.656 1.036 6.638 3.342 6.505-2.905 11.863-8.736 15.212l-1.095.679 1.104 1.443 2.826 3.8.523.678.812-.278a7.19 7.19 0 0 1 9.487 7.3 24 24 0 0 0 2.358-.906 9.6 9.6 0 0 0-.502-2.674 9.53 9.53 0 0 0-11.277-6.178l-1.448-1.945c3.249-.808 9.804-2.863 12.91-6.827 4.372-5.577 2.116-10.38.625-13.558-.43-.916-.502-1.724-.226-2.473.559-1.489 1.197-2.075 1.633-2.428zm-1.858 12.366a7.4 7.4 0 0 1-.192 1.097 8 8 0 0 1-.385 1.132 7 7 0 0 1-.375.783q-.106.196-.227.398a12 12 0 0 1-.846 1.224c-1.645 2.098-4.575 3.609-7.277 4.634q.788-.679 1.46-1.358.452-.452.848-.923a16 16 0 0 0 1.086-1.407q.325-.472.598-.95a11.4 11.4 0 0 0 1.19-2.913 10 10 0 0 0 .226-1.28c0-.104.023-.206.03-.306q.037-.455.03-.88v-.28c0-.186-.021-.367-.04-.541 0-.089-.02-.175-.029-.26a10 10 0 0 0-.545-2.18c-.043-.117-.09-.226-.134-.337-.11-.264-.226-.49-.307-.678l-.147-.29a15 15 0 0 1-.356-.738c-.106-.24-.226-.53-.316-.783a7 7 0 0 1-.421-1.755 3.4 3.4 0 0 1 .165-1.464 3 3 0 0 1 .129-.288 3 3 0 0 1 .165-.271 3 3 0 0 1 .441-.473 4.6 4.6 0 0 1 1.33-.78h.023a7 7 0 0 1 .399-.152 8.1 8.1 0 0 1 2.516-.426 6 6 0 0 0-.564.77 5 5 0 0 0-.622 1.477 5 5 0 0 0-.124.724 5.3 5.3 0 0 0 .178 1.896 7 7 0 0 0 .414 1.118c.166.355.335.713.498 1.08.034.076.07.155.104.226q.278.63.514 1.29.053.154.104.31a11 11 0 0 1 .36 1.404 8 8 0 0 1 .133 1.44c0 .24-.011.484-.034.71"></path><path fill="#fff" d="M30.517 74.427c.774.296 1.555.08 2.138-.595l1.131 1.072c-1.054 1.15-2.473 1.548-4.002.962-2.145-.821-2.575-2.844-1.944-4.494.659-1.724 2.471-3.036 4.709-2.179 1.29.494 1.993 1.417 2.188 2.623l-1.584.38a1.9 1.9 0 0 0-1.249-1.536c-1.172-.453-2.095.255-2.45 1.185-.356.93-.11 2.138 1.052 2.582zm8.397 3.46-1.663-.215.88-6.845 1.66.213zm8.478-.118-1.668.183-.576-5.274-2.037.226-.172-1.584 5.725-.626.174 1.584-2.036.226zm8.675-2.292-1.158-2.693-3.965-2.62 1.858-.799 2.276 1.693.333-2.817 1.858-.801-.82 4.681 1.16 2.69zM67.543 17.39l-3.77 3.772 1.851 1.85-1.131 1.132-3.048-3.032 4.906-4.908zM47.552 7.35l5.657 1.272-.353 1.568-2.003-.453-1.17 5.204-1.642-.369 1.172-5.204-2.003-.452zm-6.464 4.032c-.96-.226-2.102-.584-2.152-2.01-.05-1.474 1.17-2.35 2.489-2.395a3 3 0 0 1 2.387 1.038L42.77 9.192a1.75 1.75 0 0 0-1.39-.598c-.436.014-.785.195-.773.553.016.484.615.583 1.294.74.968.226 2.13.51 2.18 1.957.051 1.495-1.15 2.34-2.49 2.387a3.4 3.4 0 0 1-2.715-1.188l1.088-1.227a2.1 2.1 0 0 0 1.672.777c.453-.016.767-.206.756-.523-.01-.44-.606-.527-1.306-.688m-6.422-3.394 1.683 6.732-1.635.41-1.684-6.732zm23.362 2.949a3.53 3.53 0 0 0-3.105 1.911c-1 1.806-.411 3.92 1.376 4.908 1.788.989 3.892.36 4.89-1.446s.41-3.919-1.378-4.907a3.53 3.53 0 0 0-1.783-.466m.071 1.638a1.9 1.9 0 0 1 .925.245c.97.534 1.249 1.652.679 2.684s-1.666 1.391-2.628.857c-.964-.543-1.253-1.65-.68-2.681.393-.71 1.03-1.102 1.704-1.105m-30.092-2.097c-.375-.008-.79.085-1.235.309l-2.44 1.226 3.118 6.198 1.499-.76-1.132-2.25.398-.198 2.378 1.617 1.745-.878-2.851-1.87a1.95 1.95 0 0 0 .319-2.191c-.34-.677-.973-1.185-1.799-1.203m-.228 1.641c.226.01.415.135.534.373.205.407.04.8-.396 1.02l-.76.383-.634-1.258.814-.41a.9.9 0 0 1 .442-.108m-7.396 3.352c-.465-.015-.974.155-1.44.579l-2.15 1.948 4.684 5.13 2.023-1.842c1.097-1.002 1.01-2.437.31-3.206-.469-.514-1.238-.706-2.107-.254a1.47 1.47 0 0 0-.14-1.83 1.7 1.7 0 0 0-1.18-.525m-.207 1.756a.53.53 0 0 1 .382.184.636.636 0 0 1-.07.907l-.631.575-.795-.871.646-.588c.161-.147.322-.21.468-.207m1.805 1.692a.7.7 0 0 1 .51.228.73.73 0 0 1-.107 1.06l-.73.668-.956-1.047.763-.695a.7.7 0 0 1 .52-.214"></path><path fill="#e21a23" d="M31.549 34.291h-.876l-1.783 2.46v.757h1.79v.872h.869v-.872h.679v-.812h-.679zm-.869 2.405h-.948l.948-1.314zm-3.774-2.46c-.86 0-1.5.578-1.5 1.447a1.26 1.26 0 0 0 1.256 1.335 1.2 1.2 0 0 0 .995-.505c-.154.853-.808 1.109-1.584 1.109l-.011.798c1.701 0 2.489-1.025 2.489-2.274-.005-1.126-.65-1.91-1.645-1.91m0 2.024a.61.61 0 1 1 0-1.222.61.61 0 1 1 0 1.222m-5.815 1.423h3.84v.683h-3.84zm3.378-1.994a.68.68 0 0 0 .416-.61c0-.474-.391-.743-.936-.743-.546 0-.978.283-.978.747a.64.64 0 0 0 .4.597.68.68 0 0 0-.502.68c0 .492.432.836 1.06.836.626 0 1.045-.348 1.045-.837a.66.66 0 0 0-.505-.67m-.532-.75c.177 0 .279.096.279.225a.32.32 0 0 1-.227.27l-.115-.037c-.158-.047-.24-.13-.24-.226.007-.15.134-.233.303-.233m.012 1.646c-.242 0-.403-.093-.403-.278a.35.35 0 0 1 .274-.32l.14.042q.34.094.34.31c0 .144-.14.246-.351.246m-1.804-2.208h-1.061v.629h.382v2.156h.68zm29.641 9.117a8 8 0 0 0 .385-1.131 7.4 7.4 0 0 0 .192-1.098q.034-.36.034-.71a8 8 0 0 0-.134-1.44 11 11 0 0 0-.36-1.405l-.103-.31q-.237-.657-.514-1.29a4 4 0 0 0-.104-.225c-.163-.367-.333-.724-.498-1.08a7 7 0 0 1-.414-1.117 5.3 5.3 0 0 1-.179-1.897 5 5 0 0 1 .125-.724 5 5 0 0 1 .622-1.477 6 6 0 0 1 .563-.77 8.1 8.1 0 0 0-2.516.412q-.204.072-.398.152h-.023a4.6 4.6 0 0 0-1.33.78 3 3 0 0 0-.439.487 3 3 0 0 0-.165.272 3 3 0 0 0-.13.287 3.4 3.4 0 0 0-.164 1.464 7 7 0 0 0 .42 1.756q.137.379.317.783c.12.269.227.484.356.737l.147.29c.09.185.196.412.307.679l.134.337c.045.11.086.24.129.37q.098.29.183.619a11 11 0 0 1 .233 1.19c0 .086.02.172.03.26q.027.262.038.54v.281c0 .283 0 .577-.03.88 0 .1-.017.202-.029.306a10 10 0 0 1-.226 1.28 11.4 11.4 0 0 1-1.19 2.913 14 14 0 0 1-.598.95 16 16 0 0 1-1.086 1.408q-.396.466-.848.923-.679.679-1.46 1.357c2.702-1.025 5.632-2.536 7.277-4.634a12 12 0 0 0 .846-1.224q.121-.2.227-.398.21-.397.373-.783" data-source="https://football-logos.cc"></path><!-- source: https://football-logos.cc --></svg>