<svg xmlns="http://www.w3.org/2000/svg" width="295" height="339" fill="none"><!-- Source: https://football-logos.cc --><path fill="#5f0041" d="M49.204 96.906c-10.718-1.989-20.774-7.514-28.287-15.47C13.293 73.315 8.983 63.314 8.928 53.37V2.873h81.989V53.37c-.11 10-4.365 19.945-11.989 28.066-7.514 7.956-17.514 13.481-28.287 15.47l-.718.11z" clip-path="url(#a)" transform="translate(-30.607 -8.967)scale(3.5736)" data-source="https://football-logos.cc"></path><g fill="#fff" data-source="https://football-logos.cc"><path d="M11.47 5.414V53.37c.11 9.337 4.144 18.674 11.326 26.354 7.127 7.57 16.685 12.818 26.906 14.751l.22.056.222-.056c10.22-1.933 19.779-7.127 26.906-14.75 7.182-7.68 11.216-17.018 11.326-26.41v-47.9zm74.365 47.901c-.166 17.845-15.967 34.751-35.912 38.62-20-3.813-35.746-20.774-35.912-38.565V7.956h71.878v45.36z" clip-path="url(#b)" transform="translate(-30.607 -8.967)scale(3.5736)"></path><path d="M27.436 69.171c.276-.055.442-.11.553-.387.11-.276.11-.773-.608-1.05l-1.547-.607-1.105 2.817 1.602.608c.497.221 1.105.11 1.326-.442.166-.497 0-.773-.221-.939m-.608.442c-.11.22-.276.22-.442.11l-.497-.22.221-.498.552.221c.166.11.221.221.166.387m.276-1.05c-.055.166-.22.166-.386.11l-.442-.165.166-.442.441.166c.221.11.277.22.221.331" clip-path="url(#c)" transform="translate(-30.607 -8.967)scale(3.5736)"></path><path d="m29.536 68.564-.829-.387-.773 1.658c-.332.773-.11 1.326.718 1.712.829.387 1.436.221 1.768-.552l.774-1.658-.83-.386-.718 1.492c-.11.276-.276.607-.718.441-.386-.165-.22-.552-.11-.828z" clip-path="url(#d)" transform="translate(-30.607 -8.967)scale(3.5736)"></path><path d="m30.862 72.652.552-.94.442.222c.332.166.166.442.056.718-.056.166-.11.276-.166.442l.829.442c0-.166.165-.497.22-.608.166-.331.166-.663 0-.884.332.056.608-.165.774-.442.276-.497.055-.994-.442-1.215l-1.547-.884-1.492 2.597zm1.16-1.989.387.221c.331.166.331.332.22.497-.11.221-.33.166-.496.056l-.442-.221z" clip-path="url(#e)" transform="translate(-30.607 -8.967)scale(3.5736)"></path><path d="m33.293 74.199 1.05-1.27-.332 1.822.718.608 1.879-2.375-.663-.553-1.05 1.27.332-1.822-.718-.608-1.934 2.375z" clip-path="url(#f)" transform="translate(-30.607 -8.967)scale(3.5736)"></path><path d="m36.773 76.961.497-.608-1.05-.773 1.382-1.823-.774-.553-1.823 2.376z" clip-path="url(#g)" transform="translate(-30.607 -8.967)scale(3.5736)"></path><path d="m39.149 78.619.442-.663-1.381-.884.22-.331 1.216.773.387-.552-1.16-.83.165-.275 1.326.828.277-.331v1.823l-.553.94.774.496.552-.994 1.879-1.16-.884-.498-.995.719.11-1.216-.717-.386-2.1-1.382-1.657 2.486z" clip-path="url(#h)" transform="translate(-30.607 -8.967)scale(3.5736)"></path><path d="m44.011 80.994.387-1.105 1.16.387.22-.663-1.16-.387.166-.387 1.326.497.221-.718-2.154-.773-1.05 2.818z" clip-path="url(#i)" transform="translate(-30.607 -8.967)scale(3.5736)"></path><path d="M45.945 80.055c-.166.884.276 1.658 1.216 1.823.883.166 1.602-.331 1.823-1.27.165-.884-.277-1.658-1.216-1.824-.939-.165-1.657.387-1.823 1.271m.884.221c.11-.663.497-.718.774-.718.22.055.552.276.441.939-.11.663-.497.718-.773.718-.221-.055-.552-.276-.442-.939" clip-path="url(#j)" transform="translate(-30.607 -8.967)scale(3.5736)"></path><path d="M50.586 82.32c.94 0 1.547-.608 1.547-1.547 0-.94-.608-1.602-1.492-1.602-.939 0-1.547.608-1.547 1.547-.055.884.553 1.547 1.492 1.602m.055-2.43c.221 0 .608.165.608.828s-.387.828-.608.828-.607-.165-.607-.828.331-.829.607-.829" clip-path="url(#k)" transform="translate(-30.607 -8.967)scale(3.5736)"></path><path d="m52.961 79.834.387 2.265.884-.166-.332-2.21.829-.165-.11-.774-2.597.442.11.774z" clip-path="url(#l)" transform="translate(-30.607 -8.967)scale(3.5736)"></path><path d="M57.326 81.05c.497-.166.884-.663.663-1.215-.166-.443-.442-.553-.773-.553.165-.166.276-.387.165-.663-.11-.276-.387-.663-1.16-.387l-1.547.553.994 2.817zm-.221-.994c.055.22-.055.331-.221.386l-.497.166-.166-.552.553-.221c.11 0 .276.055.331.22m-.829-1.106c.166-.055.332-.055.387.111s-.055.276-.221.331l-.442.166-.166-.442z" clip-path="url(#m)" transform="translate(-30.607 -8.967)scale(3.5736)"></path><path d="m59.149 80.276-.055-.442.829-.442.331.332.829-.442-2.376-2.155-.829.442.442 3.204zm-.387-2.1.663.719-.497.276z" clip-path="url(#n)" transform="translate(-30.607 -8.967)scale(3.5736)"></path><path d="m63.072 77.845-.387-.608-1.16.719-1.215-1.879-.774.497 1.658 2.542z" clip-path="url(#o)" transform="translate(-30.607 -8.967)scale(3.5736)"></path><path d="m65.116 76.354-.442-.663-1.05.829-1.381-1.823-.718.552 1.823 2.431z" clip-path="url(#p)" transform="translate(-30.607 -8.967)scale(3.5736)"></path><path d="M67.381 74.641c.663-.552.663-1.381.276-1.823l-.718.552c.11.277.166.498-.055.718-.332.277-.718 0-.94-.276-.276-.331-.386-.718-.055-.994.277-.221.553-.055.663.055l.718-.552c-.552-.553-1.16-.608-1.823-.11-.718.552-.828 1.436-.22 2.209.552.608 1.436.829 2.154.221" clip-path="url(#q)" transform="translate(-30.607 -8.967)scale(3.5736)"></path><path d="m70.365 72.21-.497-.608-1.05.829-1.326-1.823-.773.552 1.823 2.431z" clip-path="url(#r)" transform="translate(-30.607 -8.967)scale(3.5736)"></path><path d="M71.635 71.492c.774-.497.995-1.05.553-1.768l-.94-1.602-.773.497.829 1.437c.165.276.331.607 0 .828-.387.221-.608-.11-.719-.386l-.828-1.437-.774.497.94 1.603c.33.663.939.773 1.712.331" clip-path="url(#s)" transform="translate(-30.607 -8.967)scale(3.5736)"></path><path d="M74.508 70.11c.497-.166.884-.663.663-1.215-.166-.443-.442-.553-.774-.553.166-.166.277-.387.166-.663-.11-.276-.442-.663-1.16-.387l-1.547.553.995 2.817zm-.221-.994c.055.22-.055.331-.221.386l-.497.166-.166-.552.552-.221c.166 0 .277.055.332.22m-.829-1.106c.166-.055.332-.055.387.111s-.055.276-.221.332l-.442.165-.166-.442z" clip-path="url(#t)" transform="translate(-30.607 -8.967)scale(3.5736)"></path><path d="m79.094 63.425-.166-.166h-.055c1.657-2.873 1.16-5.58 1.16-5.746-.055-.22-.166-.718-.663-1.16-.608-.552-1.602-.773-2.928-.608-1.436.166-2.486.663-2.873 1.437l-.055.055a2.36 2.36 0 0 0-.221 1.27c.055.443.22.995.331 1.437-.828.11-1.602.221-2.32.498-.718.276-1.105.607-1.216 1.05a.47.47 0 0 0 0 .386s-.165 2.376.111 4.586c-3.48 1.547-5.47 3.425-5.47 3.425-7.624 7.072-13.702 7.293-14.42 7.293h-.055c-.055 0-6.409.11-14.42-7.293 0 0-1.934-1.657-5.249-3.15.332-2.32.166-5.137.111-5.303-.11-.442-.497-.829-1.216-1.05-.718-.276-1.491-.386-2.32-.497.166-.442.276-.994.332-1.436.055-.608-.056-.995-.221-1.271 0-.055-.056-.055-.056-.11-.442-.774-1.436-1.327-2.873-1.437-1.326-.11-2.32.055-2.928.608-.497.442-.608.939-.663 1.16 0 .11-.497 2.652 1.381 5.58 0 0-.055 0-.11.055 0 0-.055.056-.11.056a.43.43 0 0 0-.222.22c-.165.166-.386.498-.552.885-.387.883-.608 2.762 1.105 6.685l.055.11.11.055c.056 0 4.807 1.326 9.89 5.304 3.591 2.818 7.9 5.857 12.486 7.183l.387.11c.608.166 1.27.332 1.934.387l.442.055c.055 0 .165 0 .276.055h.22c.72.056 1.437.11 2.156.11.386 0 .718 0 1.104-.054a18.5 18.5 0 0 0 2.929-.387c.718-.166 1.215-.276 1.436-.387 4.2-1.215 8.619-3.812 12.431-7.182 5.028-4.475 9.78-5.249 9.834-5.249h.166l.055-.166c1.382-3.701 1.547-5.58 1.382-6.519.055-.276-.277-.663-.442-.884m-5.028-6.077c.387-.608 1.216-.995 2.431-1.105.221 0 .442-.056.663-.056.829 0 1.437.166 1.823.553.387.331.442.718.498.829v.276c-.166.994-.94 1.436-2.266 1.657l-.386-1.768-.276.056c-1.99.552-2.431.22-2.542.11-.166-.166.055-.552.055-.552m-.055 1.215c.497.221 1.326.166 2.431-.11l.276 1.215q-.663.082-1.491.166h-.056a.7.7 0 0 0-.331.055c-.11 0-.276 0-.387.055h-.22c0-.055-.056-.165-.111-.276a9 9 0 0 1-.166-.608 2 2 0 0 1-.11-.552c.055 0 .11.055.165.055m-3.37 3.094c.055-.276.387-.497.884-.718.718-.276 1.492-.387 2.32-.497.11 0 .166 0 .277-.056.331-.055.607-.055.939-.11h.387c.11 0 .22 0 .331-.055.553-.056 1.105-.11 1.602-.221a4.4 4.4 0 0 0 1.216-.332c.276-.11.497-.22.718-.387.11-.11.276-.22.387-.331v.331a8.2 8.2 0 0 1-1.105 3.647c-.166-.11-.387-.166-.663-.221-.774-.221-2.155-.276-3.48-.332-.94-.055-1.935-.055-2.653-.165-.663-.111-.884-.221-.939-.277-.221-.055-.221-.165-.221-.276m-.055.94v-.111c.386.166 1.05.276 1.878.331.387 0 .774.055 1.216.055h.552c1.27.056 2.597.111 3.37.277.221.055.387.11.553.165.11.056.165.056.22.111.277.166.277.276.277.276 0 .11-.11.276-.442.442-.166.11-.387.166-.663.276-.442.166-1.05.277-1.878.387-1.879.277-3.536.829-4.973 1.381-.11-1.325-.11-2.762-.11-3.59M27.05 58.452c0 .165-.056.331-.11.552s-.111.387-.167.608c-.055.11-.055.166-.11.276h-.221c-.11 0-.276 0-.387-.055-.11 0-.22 0-.331-.055h-.056q-.829-.083-1.491-.166l.276-1.216c1.16.277 1.934.332 2.431.11.11 0 .166 0 .166-.054m-5.194-1.768c.498-.442 1.381-.608 2.542-.498 1.215.11 2.1.498 2.43 1.105.056.056.166.442.056.608-.11.11-.553.442-2.542-.11l-.276-.056-.387 1.768c-1.325-.22-2.154-.663-2.265-1.657v-.276c0-.11.056-.553.442-.884m-.442 2.652c0-.11-.055-.221-.055-.332.11.11.221.221.332.276.22.166.442.277.718.387.331.166.773.276 1.16.332.497.11 1.05.165 1.602.22.11 0 .221 0 .332.056h.386c.332 0 .608.055.94.11.11 0 .165 0 .276.056.829.11 1.602.22 2.32.497.498.22.83.442.884.718.056.11 0 .221-.055.332-.055.055-.331.165-.94.276-.717.11-1.712.11-2.651.165-1.326.056-2.707.111-3.48.332-.167.055-.277.11-.443.166-.828-1.382-1.215-2.652-1.326-3.591m.83 4.475v-.11c.054-.056.165-.167.275-.222.056-.055.166-.055.221-.11.056-.056.166-.056.276-.11.056 0 .166-.056.277-.056.718-.221 2.044-.276 3.37-.276.276 0 .552 0 .829-.056.442 0 .828-.055 1.16-.055.718-.055 1.326-.166 1.657-.331v.11c0 .884.056 2.486-.165 3.978a24 24 0 0 0-5.194-1.657 12 12 0 0 1-1.326-.332c-.11-.055-.22-.055-.331-.11-1.05-.387-1.05-.608-1.05-.663m55.58 6.85c-.885.166-5.25 1.216-9.946 5.36-3.757 3.315-8.121 5.856-12.265 7.071-.22.056-.718.221-1.38.332-.94.221-1.88.332-2.819.387-1.05.055-2.154.055-3.204-.11h-.221c-.055 0-.166 0-.221-.056l-.442-.055a7.2 7.2 0 0 1-1.492-.332l-.331-.11c-4.641-1.271-9.006-4.365-12.652-7.183-4.696-3.646-9.172-5.082-9.945-5.359-1.657-3.978-1.326-5.635-.994-6.243 0-.055.055-.055.055-.11.11.11.22.22.442.331.11.056.276.166.442.221.442.166 1.16.387 2.1.608 1.215.276 2.32.608 3.314.94.387.165.774.275 1.16.441.332.11.663.276.995.442 3.315 1.492 5.193 3.094 5.193 3.094 8.122 7.514 14.475 7.459 14.751 7.459h.055c.719 0 6.962-.221 14.751-7.404 0 0 1.879-1.823 5.194-3.315.055-.055.166-.055.276-.11.276-.11.553-.221.884-.332 1.27-.497 2.707-.884 4.365-1.16 1.105-.166 1.878-.387 2.375-.608.166-.055.332-.165.442-.22.221-.111.332-.222.442-.332 0 .055.056.11.056.166.055.663 0 2.43-1.382 6.188z" clip-path="url(#u)" transform="translate(-30.607 -8.967)scale(3.5736)"></path><path d="M49.867 64.309c.332-.608-.221-1.16-.221-1.05.055.166-.276.221-.276.221-.332.055-1.05-.166-1.05-.166-2.43-.442-1.657 2.597-1.492 3.26.11.387-.166 1.27-1.547 1.16-1.05-.11-1.105.442-1.105.442.498-.386.83-.11.83-.11-.553.055-.72.663-.72.663.553-.497 1.05-.166 1.05-.166-.441.11-.441.718-.441.718.331-.442.663-.22.663-.22s.663.276.828-.443c.056-.22.442.11.442.11-.055-.275.055-.552.11-.662.056-.11.498.331.498.331.221-.22.11-.497.11-.552 0-.11-.165-.497-.055-.718.332-.442.774.331.774.331.11-.608-.498-1.768-.553-1.823-.276-.332-.387-1.105.829-.166.442.387.994.166.994.166-.165-.608.332-1.326.332-1.326" clip-path="url(#v)" transform="translate(-30.607 -8.967)scale(3.5736)"></path><path d="M48.32 57.569s.221.276 0 .663c0 0 .663.166.995-.166 0 0-.166.442.11.94 0 0 .497-.277.608-.608 0 0 .22.055.387.442.165.386.331.442.331.442s0-.553.387-.663c0 0 .442.552 1.05.331 0 0-.995-.552 0-.773 0 0-.719-.221-.664-.553 0 0-.386.608-1.215.442 0 0 .221-.276.11-.608 0 0-.662.387-1.215.111 0 0 0-.608.387-.829 0 0-.884-.11-1.16.166 0 0-.166-.387.11-.718 0 0-.829.276-1.05 1.602-.055.055.553.11.829-.221" clip-path="url(#w)" transform="translate(-30.607 -8.967)scale(3.5736)"></path><path d="M42.851 60.884s-.773.608-.166 1.27c0 0 .055-.828.553-.607 0 0-.829.608 0 1.105 0 0-.055-.829.608-.663.386.11.662-.387.662-.387s.442-.276.719.11c.276.443.663.498.718.553 0 0-.276-.387 0-.552 0 0 .442.442.773.442 0 0-.386-.442 0-.498 0 0 .221 0 .277.221.055.277.718.387.773.387 0 0-.387-.331-.166-.663v-.055c.221-.332.442-.221.442-.221.83-.221.774-1.105.774-1.326.055 0 .11.055.11.11.11.277.166.94-.773 1.492 0 0 .055.774 1.326 1.326 0 0-.166-.994.608.442 0 0 .276.553-.056 1.105-.276.553-.607 1.492.442 2.1 1.05.663 1.713 1.38 1.216 3.26 0 0-.332.662-.995.497s-.939-.442-1.491.276c0 0 .663-.332 1.05.11 0 0-.774-.22-1.05.774 0 0 .773-.442 1.105-.11 0 0-.442.11-.442.662 0 0 .442-.331.773-.166.553.221.663-.11.829-.386.166-.277.552.11 1.105 0 0 0-.774-.608-.332-.884.277-.166.774.166.995-.11 0 0-.995-.387-.497-1.05.22-.277.607.055.828-.111 0 0-.663-.221-.552-.829.055-.386.22-.331.331-.276.11.055.387.11.553 0 0 0-.276-.055-.332-.387-.055-.331 0-.773-.386-1.05-.221-.165-.387-.165-.387-.718 0-.663.276-.718.442-.773.166 0 .552-.055.773-.221 0 0 1.437-.884.663-2.707s-1.16-1.934-1.05-3.37.442-2.1.774-2.597c.22-.387.718-.663 1.05-.718 0 0 .828-.166.718.828 0 0 0 .277-.497.663-.498.442-.663.884-.663.884s.552-.387.663-.276.055.276-.166.552c-.221.221-.497.774-.442 1.216 0 0 .166-.276.387-.276 0 0-.11.884.442 1.215 0 0-.166-.994.22-1.547.277-.387.94-1.657.553-2.541 0 0 0-1.16-.718-1.27 0 0 .11.22.055.165s-2.265-.221-2.707 3.26c0 .165-.11.662-.11.662s-.056.884-.608.221c0 0-.055.719.663 1.16.718.498-.663.443-.94-.055 0 0 0 .553.719.884.718.277.608.663-.553.387 0 0 .332.497 1.271.497.94 0 .994 1.437.663 1.768-.497.442-.773.387-.994.332-.277-.055-.387 0-.387 0s-.553-.553-.663-1.05c-.055-.387-.829-1.05-.829-1.05s-.442-.552-.276-1.657.22-1.436.166-1.602c0 0-.277-.056-.387-.221 0 0-.166.442-.166.718 0 0-.552-.11-.773-.552-.166-.443-.332-.332-.332-.332s-.331.442-.718.553c0 0-.166-.056-.166-.498v-.442s-.608.166-.994 0c0 0 .11-.276 0-.442 0 0-.277.166-.83.056 0 0-.11-.498.388-1.271 0 0 .055-.221-.221-.718-.277-.442-.719-1.437-.332-2.1.276-.442.166-1.05-.22-1.27-.332-.222-.553-.222-1.05-.056 0 0 .662-.055.662.497 0 0-.718-.718-1.326 0 0 0 .83-.11.663.553 0 0-.607-.829-1.215.166 0 0 .829-.11.829.607-.056.498.607.663.607.663s.166 1.437-.663 1.382c0 0 .498.331.719.276 0 0 .055.552-.442.608 0 0 .276.276.663.276 0 0 .055.166-.166.276-.276.166-.276.608-.276.663 0 0 .276-.221.718 0s.994.055 1.105 0c0 0 .11-.055.22-.055-.054.055-.11.166-.22.331-.166.221-.387.498-.608.774-.608.608-1.657 1.215-3.204.497-.387-.166-1.05-.221-1.326.055-.276.277-.387.608-.11.995.11.331.11-.276.607-.166" clip-path="url(#x)" transform="translate(-30.607 -8.967)scale(3.5736)"></path><path d="M50.088 56.63c-.497.221-.442.718-.442.718.774-.055.94-.386.94-.386.441.11.165.718.11.773h.11c.166 0 .498-.166.829-.608 0 .11.11.829 1.216.774 0 0-.719-.332-.553-.774v-.055c.442.442 1.05-.11 1.05-.11-.608 0-.663-.332-.663-.498.718.442 1.105-.276.994-.386 0 0-1.27.497-.22-1.768.11-.277.496-.719.11-1.105-.387-.387-.553-1.05-.11-1.382 0 0-.498-.22-1.161.221-.331.221-.608.11-.608.11s-.552-.275-1.05-.054c-.386.165-.497.386-.552.497-.276-.11-.773.22-.829.22s0 .222-.055.332-.11.498.387.498c.497-.056.829-.166.829-.166s.11.11.165.387c.056.331.221.828-.442.884l.166.165c.166.11.718.11.774-.22.11-.277.276-.332.276-.332s.276.773-.829.884-1.768.497-1.989 1.326c1.326-.332 1.547.055 1.547.055m1.05-3.812c-.221.166-.442.11-.718-.166.276-.331.662-.442 1.215-.055 0 0-.276.055-.497.22" clip-path="url(#y)" transform="translate(-30.607 -8.967)scale(3.5736)"></path><path d="m39.315 45.249-1.768-2.983-1.823 3.038 1.823 3.426z" clip-path="url(#z)" transform="translate(-30.607 -8.967)scale(3.5736)"></path><path d="m64.95 45.249-1.823-2.983-1.823 3.038 1.878 3.426z" clip-path="url(#A)" transform="translate(-30.607 -8.967)scale(3.5736)"></path><path d="M49.978 75.028h.221c10.387-2.044 18.619-11.381 18.729-21.271V29.282h-8.784c.552-.221.994-.773.994-1.436 0-.83-.663-1.547-1.547-1.547h-2.155c-.884-.11-1.05-.995-1.05-.995-1.05 1.105-2.099-.608-2.099-.608l-1.823.608-.442-.829c.22-.442.497-.884.773-1.105.498-.442.663-.497.663-.497-.22-.497-.331-.94-.331-1.105.055-.055.442-.22.829-.387l.497-.165h.276l-.22-.221c.054 0 .165.11.22.11.11.055.221.11.332.11s.276 0 .22-.11c.056 0 .166.055.222.055h.22c.056-.055.111-.055.166-.11s.11-.055.166-.11c0-.056.055-.056.055-.111s0-.11-.055-.11c-.11-.111-.22-.111-.331-.166l-.387-.11c-.11-.056-.166-.056-.276-.111-.277-.11 0 0 .11 0h.276c.11 0 .166-.055.277-.055l.276-.111s-.276.11-.884-.331c-.221-.166-.332-.387-.497-.553-.332-.387-.663-.773-1.05-1.105s-.774-.663-1.216-.884c-.386-.22-.828-.387-1.326-.387h-.055c0-.055-.11-.939.387-2.044.276-.608.331-1.215.055-1.713a1.52 1.52 0 0 0-.939-.718c-.055 0-.718-.11-1.492.442l-.663.332c.663-.774 2.1-1.547 2.376-1.603v-.055c-.055 0-.994.055-1.602.442.11-.22.22-.608.11-1.215v-.055h-.055s-1.436.331-1.436 2.32c0 0 0 .276-.11.608a.66.66 0 0 0-.222.22c.055-.055.11-.055.166-.055-.055.11-.11.277-.221.387-.332.442-.608 1.216-.608 1.879v.055l.055-.055s.553-.387.663-.884c.056-.221.221-.387.277-.498.055.221.11.719.11.83v.054h.055c.11-.11.553-.718.11-1.547-.054-.11-.054-.276-.054-.442.718-.165 1.215.11 1.436.221.11.11.221.221.276.387.11.332.056.718-.165 1.105-.166.387-.387.663-.553.94-.442.718-.773 1.215-.663 2.32.166 1.27.995 1.878 1.492 2.1.276.276.442.717.552.938.166.332 0 .277 0 .277-.939.055-1.27-.442-1.933-.719-.166-.055-.332-.11-.498-.11-.386-.166-.939-.166-1.436 0-.94.276-1.547 1.05-1.326 1.713a.82.82 0 0 0 .497.552q.331.166.829.166c.22 0 .497-.055.773-.11.774-.277 1.326-.83 1.382-1.382.331.11 1.27.829 1.989 1.105.773.332 1.05-.552 1.05-.552.22.386-.332 1.657-.664 2.375l-.331.221-.166-.828-.773 1.05c-.277-.111-1.105-1.106-1.105-1.106-.111 1.05-.442 1.326-.553 1.382l-1.823-1.216c0 .829-.829 1.326-1.27 1.326l-1.216-.608c.11.884-.608 1.05-.83 1.05h-2.098c-.83 0-1.547.663-1.547 1.547 0 .663.386 1.216.994 1.437h-9.005v24.475c.11 10 8.342 19.337 18.729 21.38zm8.343-48.066h.055c.994-.221 1.657.11 1.657.11.332.166.442.387.387.608-.055.442-.663.94-.718.663-.11-.608-.774-.884-.774-.884s-.884-.442-.607-.497m1.491 6.52c0-.056.056-.166.056-.222-.332-.607-.608-1.105-.719-1.27l-.11-.11c-.166-.222-.276-.332-.166-.388.055-.055.166 0 .276 0 0 0 .387.221.829.995.055.055.055.11.11.22.277-.607.608-.994.995-.994s.718.387.995.995c.055-.11.11-.221.165-.276.442-.774.829-.995.829-.995.055-.055.166-.11.276 0 .056.11 0 .166-.165.387l-.111.11c-.166.166-.442.663-.773 1.326.055.056.055.056.11.166 1.768-.331 3.15-.276 3.26.166.11.331-.884.829-1.768 1.326.884.497 1.878.994 1.768 1.326-.166.497-1.437.552-3.205.22l-.055.387v.111l.11.166s.498.884.83 1.215c.11.11.055.166.055.166 0 .055-.056.055-.111.055s-.166-.055-.331-.11c-.111-.056-.332-.387-.663-.94-.056.11-.056.277-.111.387-.276.718-.608 1.105-1.05 1.105s-.884-.552-1.105-1.436c-.276.497-.497.828-.607.884-.166.11-.277.11-.332.11s-.055 0-.11-.055c0 0-.056-.11.055-.166.331-.387.829-1.215.829-1.27 0 0 .055-.056.055-.166 0 0-.055-.387-.055-.498-1.713.332-3.04.277-3.15-.22-.11-.332.774-.885 1.713-1.382-.276-.11-.497-.276-.718-.387-.608-.331-1.05-.663-.995-.884-.055-.331 1.271-.386 3.094-.055m-10.11-20.498s.221-.331.829 0c0 0-.221.442-.829 0m.332 4.475c0 2.045 1.878 2.763 1.934 2.818a.4.4 0 0 1-.111-.22c.221.11.442.22.663.275.11.056.221.056.331.11h.056a.4.4 0 0 1-.11-.22q.247.166.496.166c.056 0 .166 0 .221-.056l.11-.055c.056 0 .111-.055.167-.055 0 .055-.056.11-.056.166l-.11.11c-.11.055-.221.11-.332.11-.055 0-.11 0-.165-.055-.056.056-.166.056-.277.056s-.276 0-.386-.056c-.11-.055-.166-.055-.277-.11-.552.055-2.707-.718-2.154-2.984m.884 8.895c1.657-.607 3.701.277 3.701.277a5 5 0 0 1 1.382.828l.22.221c.222.221.608.553.94.608.276.055-.221.608-.995.221-.055-.055-.165-.11-.276-.22-.773-.609-1.436-.609-1.436-.609-.719-.055-.553.387-.553.387.387.774-.608.553-1.105 0-.773-.829-1.492-1.105-1.934-1.326-.497-.166-.165-.331.056-.387m.276 11.602c.055.056.221.387-.055 1.05 0 0-.884.497-2.155.055 0-.055 0-.939-.055-1.105-.055-.165-.553-.497-.553-.497 0-.055-.497-3.094-.11-4.31 0 0 0-.994.331-1.104.221-.055.166 1.05.166 1.05v1.27c-.442.332-.11.387-.11.387 1.38-.221 2.099-.276 2.43-.221h.111c.221.055.221.166.221.166s.055.276-.94.442c0 0-.552.11-.662.331s-.166.94.11 1.381c0 0 .166-.055.11-.276-.055-.22 0-.773.166-.884.166-.166 1.603-.331 1.603-.718 0 0-.166-.663.166-1.381.276-.497.607.165.552 1.05 0 0-.055 1.38-.055 1.657 0 .276-.166 1.16-1.105 1.326 0 0-.332.11-.387.276-.055 0 .166 0 .221.055m-1.492-4.309c0 .276 0 .442-.055.553-.22 0-.387.055-.552.055-.11-.497-.11-1.105-.11-1.105l.054-1.05c0-.055 0-.663.332-.663.276 0 .276.718.276.718s0 .774.055 1.492m1.271-.94c0-.496 0-1.16.332-1.16.22 0 .22.443.22.719v1.16c-.11.166-.165.663-.165.774-.11-.056-.221-.056-.387-.056-.055-.11 0-.939 0-1.436m-.718-1.657h.055c.442.11.387 2.708.276 3.039-.166 0-.331 0-.497.055-.055-.11-.055-.22-.055-.386 0-.277 0-1.99.055-2.376-.055-.276.11-.332.166-.332m-5.304-4.475c1.492-.552 3.315.277 3.315.277 1.492.662 1.713 1.38 1.713 1.38s.22.774-.608.166c-.663-.497-1.16-.386-1.16-.386-.498 0-.608 1.215-1.658.165-.718-.718-1.381-.994-1.768-1.215s-.055-.276.166-.387m-4.199.498c.663-.442 1.492-.166 1.823.33.718 1.05 1.658 1.216 1.216 1.272-.277.055-1.105-.221-1.492-.553-.497-.442-1.27-.11-.718.332.055.055-.056.11-.166.11-1.05 0-1.381-.994-.663-1.491m-5.69 6.63c.165-.498 1.491-.553 3.314-.166 0-.056.056-.166.056-.221-.332-.608-.608-1.105-.719-1.271l-.11-.11c-.166-.222-.276-.332-.166-.387.055-.056.166 0 .276 0 0 0 .387.22.83.994.054.055.054.11.11.221.276-.608.607-.994.994-.994s.718.386.995.994c.055-.11.11-.22.165-.276.442-.774.829-.995.829-.995.055-.055.166-.11.276 0 .055.11 0 .166-.166.387l-.11.11c-.166.166-.442.664-.774 1.327.056.055.056.055.111.165 1.768-.331 3.15-.276 3.26.166.11.332-.884.829-1.768 1.326.884.497 1.878.995 1.768 1.326-.166.497-1.437.553-3.205.221l-.055.387v.11l.11.166s.498.884.83 1.215c.11.11.055.166.055.166 0 .055-.056.055-.111.055s-.166-.055-.331-.11c-.111-.055-.332-.387-.664-.94-.055.111-.055.277-.11.387-.276.719-.608 1.105-1.05 1.105s-.884-.552-1.105-1.436c-.276.497-.497.829-.607.884-.166.11-.277.11-.332.11s-.055 0-.11-.055c0 0-.056-.11.055-.166.331-.386.829-1.215.829-1.27 0 0 .055-.055.055-.166 0 0-.055-.387-.055-.497-1.713.331-3.04.276-3.15-.221-.11-.332.774-.884 1.713-1.381-.276-.111-.497-.277-.718-.387-.829-.221-1.326-.553-1.216-.774m-2.1 23.314c-.055-.165-.055-.386-.11-.552 0-.11 0-.166-.056-.276-.055-.221-.055-.442-.11-.663v-.166c0-.221-.056-.497-.056-.718v-.056c0-.276 0-.552-.055-.828v-13.15h35.028v14.089c0 .22-.055.442-.055.663 0 .11 0 .165-.055.276 0 .166-.056.331-.056.442 0 .166-.055.331-.11.552 0 .11-.055.166-.055.277-.056.276-.11.607-.221.884h-.94v-2.708h-2.486v-2.21H61.25v-2.596h-2.155v-2.32h-2.32v-1.99h-2.431l-.056-2.596h-2.43l-1.492-1.99-1.271 1.99h-2.707v2.43h-2.873v2.321h-2.486v2.21h-2.431v2.486H36.11v2.155h-1.767v2.265h-1.216c-.11-.055-.11-.11-.166-.221m3.48 7.68c-.055-.055-.055-.11-.11-.166a3 3 0 0 0-.331-.442s0-.055-.056-.055a23 23 0 0 1-.939-1.547c0-.055-.055-.055-.055-.11-.276-.553-.553-1.106-.829-1.713h2.265v-2.431h2.32v-2.486h2.653V53.26h2.43v-2.43h2.597v-2.487h2.487v-2.32h2.762v2.43h2.21v2.432h2.376v2.43h2.43v2.376h2.376v2.542h3.039v2.818H66c-.11.165-.166.386-.277.552v.055c-.276.553-.552 1.105-.884 1.602 0 0 0 .056-.055.056l-.331.497c-.332.497-.719 1.05-1.05 1.492l-.11.11-1.106 1.326c-.055.055-.055.11-.11.11-.11.111-.221.277-.332.387l-.165.166c-.387.387-.774.718-1.16 1.105-.111.055-.166.166-.277.221-.11.11-.22.166-.331.276-.11.056-.221.166-.276.221-.166.11-.277.221-.442.332-.166.11-.277.22-.442.331-.11.056-.221.166-.277.221-.11.11-.276.166-.386.277a1.2 1.2 0 0 0-.277.165c-.165.11-.386.221-.552.332-.11.055-.166.11-.276.166-.166.11-.332.22-.553.276-.11.055-.166.11-.276.165-.166.11-.332.166-.497.277-.056.055-.166.055-.221.11-.221.11-.498.221-.719.332-.055.055-.11.055-.165.055-.166.055-.387.166-.553.22-.055.056-.166.056-.22.111-.222.056-.388.166-.609.221-.055 0-.11.056-.165.056-.277.11-.498.165-.774.276-.055 0-.166.055-.22.055-.222.055-.388.11-.609.166-.055 0-.165.055-.22.055l-.83.166-.828-.166c-.055 0-.166-.055-.22-.055-.222-.055-.388-.11-.609-.166-.055 0-.165-.055-.22-.055-.277-.055-.498-.166-.774-.276-.055 0-.055 0-.11-.056-.222-.055-.443-.165-.664-.276-.055-.055-.165-.055-.22-.11-.166-.056-.387-.166-.553-.221-.055-.056-.166-.056-.221-.11-.221-.111-.497-.222-.718-.332-.056-.056-.11-.056-.166-.11-.166-.111-.387-.167-.553-.277-.11-.055-.165-.11-.276-.166-.166-.11-.331-.166-.442-.276-.11-.055-.166-.11-.276-.166-.221-.11-.442-.276-.663-.386-.11-.056-.166-.111-.276-.166-.11-.11-.277-.166-.387-.276-.315-.265-.638-.451-.94-.719-1.59-1.466-3.55-2.932-4.695-4.53" clip-path="url(#B)" transform="translate(-30.607 -8.967)scale(3.5736)"></path><path d="M40.475 36.74c0-.11.055-.276.055-.276-.331-.055-.607-.166-.939-.221-.331.11-.663.166-.994.22 0 0 0 .167.055.277.11.055.829.276 1.823 0" clip-path="url(#C)" transform="translate(-30.607 -8.967)scale(3.5736)"></path><path d="M40.254 33.204c0-.055 0-.11-.055-.11-.166-.553-.442-.774-.663-.774s-.498.221-.663.774c0 .055-.055.11-.055.165.607-.276 1.104-.166 1.436-.055" clip-path="url(#D)" transform="translate(-30.607 -8.967)scale(3.5736)"></path><path d="M38.652 37.017c.055.332.055.332.166.497.11.055.663.221 1.491 0a1.3 1.3 0 0 0 .11-.497c-.33.11-.662.11-.938.11a2.7 2.7 0 0 1-.829-.11" clip-path="url(#E)" transform="translate(-30.607 -8.967)scale(3.5736)"></path><path d="M60.365 37.845c.055.166.166.332.221.387.387.11.442.11.884 0 .11-.11.11-.221.221-.442-.276.055-.442.055-.663.055-.276.055-.552.055-.663 0" clip-path="url(#F)" transform="translate(-30.607 -8.967)scale(3.5736)"></path><path d="M38.928 37.845c.055.166.166.332.221.387.387.11.442.11.884 0 .11-.11.11-.221.221-.442-.276.055-.442.055-.663.055-.276.055-.553.055-.663 0" clip-path="url(#G)" transform="translate(-30.607 -8.967)scale(3.5736)"></path><path d="M61.912 36.74c0-.11.055-.276.055-.276-.331-.055-.608-.166-.939-.221-.331.11-.663.166-.994.22 0 0 0 .167.055.277.11.055.829.276 1.823 0" clip-path="url(#H)" transform="translate(-30.607 -8.967)scale(3.5736)"></path><path d="M60.088 37.017c.055.332.055.332.166.497.11.055.663.221 1.491 0a1.3 1.3 0 0 0 .11-.497c-.33.11-.662.11-.938.11-.332 0-.608-.055-.829-.11" clip-path="url(#I)" transform="translate(-30.607 -8.967)scale(3.5736)"></path><path d="M61.691 33.204c0-.055 0-.11-.055-.11-.166-.553-.442-.774-.663-.774s-.497.221-.663.774c0 .055-.055.11-.055.165a1.86 1.86 0 0 1 1.436-.055" clip-path="url(#J)" transform="translate(-30.607 -8.967)scale(3.5736)"></path></g><defs data-source="https://football-logos.cc"><clipPath id="J"><path fill="#fff" d="M6 0h87.845v100H6z"></path></clipPath><clipPath id="I"><path fill="#fff" d="M6 0h87.845v100H6z"></path></clipPath><clipPath id="H"><path fill="#fff" d="M6 0h87.845v100H6z"></path></clipPath><clipPath id="G"><path fill="#fff" d="M6 0h87.845v100H6z"></path></clipPath><clipPath id="F"><path fill="#fff" d="M6 0h87.845v100H6z"></path></clipPath><clipPath id="E"><path fill="#fff" d="M6 0h87.845v100H6z"></path></clipPath><clipPath id="D"><path fill="#fff" d="M6 0h87.845v100H6z"></path></clipPath><clipPath id="C"><path fill="#fff" d="M6 0h87.845v100H6z"></path></clipPath><clipPath id="B"><path fill="#fff" d="M6 0h87.845v100H6z"></path></clipPath><clipPath id="A"><path fill="#fff" d="M6 0h87.845v100H6z"></path></clipPath><clipPath id="z"><path fill="#fff" d="M6 0h87.845v100H6z"></path></clipPath><clipPath id="y"><path fill="#fff" d="M6 0h87.845v100H6z"></path></clipPath><clipPath id="x"><path fill="#fff" d="M6 0h87.845v100H6z"></path></clipPath><clipPath id="w"><path fill="#fff" d="M6 0h87.845v100H6z"></path></clipPath><clipPath id="v"><path fill="#fff" d="M6 0h87.845v100H6z"></path></clipPath><clipPath id="u"><path fill="#fff" d="M6 0h87.845v100H6z"></path></clipPath><clipPath id="t"><path fill="#fff" d="M6 0h87.845v100H6z"></path></clipPath><clipPath id="s"><path fill="#fff" d="M6 0h87.845v100H6z"></path></clipPath><clipPath id="r"><path fill="#fff" d="M6 0h87.845v100H6z"></path></clipPath><clipPath id="q"><path fill="#fff" d="M6 0h87.845v100H6z"></path></clipPath><clipPath id="p"><path fill="#fff" d="M6 0h87.845v100H6z"></path></clipPath><clipPath id="o"><path fill="#fff" d="M6 0h87.845v100H6z"></path></clipPath><clipPath id="n"><path fill="#fff" d="M6 0h87.845v100H6z"></path></clipPath><clipPath id="m"><path fill="#fff" d="M6 0h87.845v100H6z"></path></clipPath><clipPath id="l"><path fill="#fff" d="M6 0h87.845v100H6z"></path></clipPath><clipPath id="k"><path fill="#fff" d="M6 0h87.845v100H6z"></path></clipPath><clipPath id="j"><path fill="#fff" d="M6 0h87.845v100H6z"></path></clipPath><clipPath id="i"><path fill="#fff" d="M6 0h87.845v100H6z"></path></clipPath><clipPath id="h"><path fill="#fff" d="M6 0h87.845v100H6z"></path></clipPath><clipPath id="g"><path fill="#fff" d="M6 0h87.845v100H6z"></path></clipPath><clipPath id="f"><path fill="#fff" d="M6 0h87.845v100H6z"></path></clipPath><clipPath id="e"><path fill="#fff" d="M6 0h87.845v100H6z"></path></clipPath><clipPath id="d"><path fill="#fff" d="M6 0h87.845v100H6z"></path></clipPath><clipPath id="c"><path fill="#fff" d="M6 0h87.845v100H6z"></path></clipPath><clipPath id="b"><path fill="#fff" d="M6 0h87.845v100H6z"></path></clipPath><clipPath id="a"><path fill="#fff" d="M6 0h87.845v100H6z"></path></clipPath></defs><!-- source: https://football-logos.cc --></svg>