<svg xmlns="http://www.w3.org/2000/svg" id="Layer_1" width="386" height="259" viewBox="0 0 100 67"><!-- Source: https://football-logos.cc --><style data-source="https://football-logos.cc">.st0{fill:#11100c}</style><path d="M2.1 29s4-.2 4-3.9C6.1 20.2 0 20 0 13.4c0-4.9 5.4-6.2 5.4-6.2.1 0 .1 0 .1.1 0 0 0 .1-.1.1 0 0-3.7 1.1-3.7 5.6 0 4.9 5.7 6.1 5.9 11 .1 5-3.5 5.5-4.3 5.5s-1.2-.2-1.2-.2c-.1-.1-.1-.2-.1-.2 0-.1.1-.1.1-.1M87 62.1c1.1-1.1 1.6-1.9 1.9-2.3v-.2c-.6-1.6-1.3-3.2-2.1-4.4-1.5-1.1-3-2.1-4.6-2.9h-.1c-.1 0-.1 0-.1.1v.1c.1.1.2.3.3.5.4.5.9 1.3 1.5 2.3 1 1.7 2.1 4.2 2.9 6.8.1 0 .2.1.3 0-.1.1 0 0 0 0" class="st0" data-source="https://football-logos.cc"></path><path d="M99.3 40.4s-.1-.1-.1-.2c-.1-.1-.2-.3-.4-.5-.4-.4-.9-1.1-1.4-1.8-1.1-1.5-2.5-3.5-3.6-5.4-1.7-2.9-3.4-6.7-4.2-8.3 1.7-1.7 2.5-3 2.6-3.2v-.1c0-.1 0-.1-.1-.1l-.5-.6c-2-2.7-3.4-5.2-4.1-6.4l-.3-.6c0-.1-.1-.1-.2-.1h-.7c-3.3 0-12.6-.2-23.9-1.4-12.6-1.4-22.8-4-24.8-4.6-.2-.3-.4-.7-.7-1-1.2-.1-2.3-.4-3-.8 3.4 3.6 5.3 9 5.3 14.3 0 2.1-.3 4.2-1 6.4-.9 3.2-2.7 5.8-5 7.8-1.2 1-2.6 1.9-4.1 2.4-1.6-3.3-3.2-6-4.3-7.8.7-.1 1.5-.2 2.5-.5 1.9-.5 4.2-1.5 6.1-3.5 1.3-1.3 2.4-3.1 3.1-5.3.4-1.3.6-2.5.6-3.8 0-3.6-1.6-6.8-3.9-9.3S27.9 1.7 24.6.7C23.1.2 21.4 0 19.7 0c-3.1 0-6.4.7-9.1 2.4C7.9 4 5.6 6.7 5 10.2c-.2 1.2-.3 2.2-.3 3.2 0 1.4.2 2.7.7 3.8s1.2 2 2.2 2.6c.6.3 1.2.5 1.9.6v.2c0 .2.1.6.2 1 .1.6.2 1.4.2 2.1 0 .6-.1 1.3-.1 1.8 0 .3-.1.6-.1.7h-.8c-.9 0-1.9.4-1.9.4s2.8 1.7 6 4.8c2.8 2.7 3.8 4.8 4.1 5.2 0 .1.1.1.1.1.3 0 1.3-.1 2.6 0 1.2.1 2.2.4 2.5.5 0 0 .1 0 .1-.1 0-.3.1-1.3-.2-2.1-.6-1.6-1.8-1.9-2.1-1.9 0 0-.1 0-.1.1l-.1 1.1s0 .1.1.1c.2 0 .6 0 1.1.3.8.4.7 1.2.7 1.2s-.8-.3-2-.5-2.2-.1-2.2-.1-.9-1.9-2.8-4.5c-1.6-2.2-3.2-3.9-3.6-4.3 0-.1.1-.4.2-.9v-.2c.7-.4 1.2-1.1 1.2-1.8s-.5-1.3-1.2-1.8c0-.2-.1-.4-.1-.6-.1-.5-.2-.9-.2-1.1q.6-.15 1.2-.6c.7-.5 1.2-1.2 1.6-1.8.7-1.3 1.3-2.7 2.1-4.5.6-1.5 1.4-2.6 2.3-3.2s2.2-1 3.4-1c1 0 2 .2 3 .7 1.4.6 2 1.4 2.5 2.2s.6 1.8.6 2.7c0 .6-.1 1.1-.2 1.5-.1.2-.1.4-.2.6-.9-2.1-2.9-3.6-5.5-3.6-3.7 0-6.5 2.5-6.5 6.6 0 3.7 2.9 6.1 3.5 6.6h.2c.1 0 .3-.1.4-.1.5-.2 1.1-.4 1.5-.7l.1-.1v-.1c-.6-.5-3-3-3-5.6 0-3.3 2.4-4.3 4-4.3 1.5 0 3.9 1.1 3.9 4.2 0 3-2.9 6-6 7.1s-6.4.6-6.4.6c-.1 0-.1 0-.1.1 0 0 0 .1.1.1 0 0 2.7 1.4 7.3.2.3-.1.5-.2.8-.2 0 .7-.1 2.2.3 4.2.4 2.3 1.3 4.2 1.5 4.4h.2l.8-1.2v-.2c-.2-.5-.7-2.3-.8-4.4.2.3.4.7.7 1.1.8 1.4 1.8 3.2 2.9 5.2-.3 0-.6.1-.9.1.4.7.7 1.4 1.1 2.2.3 0 .6-.1.9-.1q.75 1.5 1.5 3.3c3 7.1 4.5 12.8 4.7 13.4v.1l.3 1.2c0 .1.1.2.2.2h.1l1.1-.4c.9-.3 1.8-.5 2.8-.5 1.2 0 2.4.3 3.6.8 1.4.7 2.5 1.7 3.2 3.1s1.1 3.1 1.1 5c0 .5 0 1.1-.1 1.6 0 .1.1.1.1.1h.1c1.5-.8 2.1-1.3 2.4-1.6 0 0 .1-.1.1-.2v-.1c0-2.2-.4-4.4-1.4-6.2-.9-1.8-2.4-3.4-4.4-4.3-1.5-.7-3.1-1.1-4.7-1.1-.8 0-1.5.1-2.3.2-.6-2.2-2.1-6.9-4.5-12.6-.4-1-.9-2-1.3-3 1.7-.7 3.2-1.6 4.5-2.8 2.7-2.3 4.7-5.5 5.6-9.1.6-2.3.9-4.7.9-7 0-3.1-.7-6.2-1.9-9 3.7.9 12.2 2.9 22.9 4s19.5 1.4 23.4 1.4c.7 1.3 1.8 3.1 3.3 5.3-.4.5-1 1.2-2 2.1l-.5.5s-.1.1-.1.2v.1l.3.7s2.4 5.4 4.7 9.3c1.7 3 4.1 6 5.2 7.5-.4.5-.8 1.2-1.3 2-1 1.8-2 4.3-2 7.3 0 2.4.3 4.7.6 6.7-1.2-1.4-2.7-2.7-4.4-4.1-7.7-5.9-16.8-8.6-26.1-8.6-3.5 0-6.5.5-8.9 1.2-2.4.8-4.3 1.8-5.5 2.9-.8.8-1.4 1.6-1.7 2.6-.1.5-.2 1-.2 1.5 0 1.4.4 2.7.9 4s1.1 2.6 1.5 4.1c.9 3.1 1.3 5.8 1.5 6.6 0 .1.1.1.1.1h.1q1.65-1.05 2.1-1.5s.1-.1.1-.2c-.2-1.3-.7-3.4-1.3-5.6-.5-1.7-1.1-3.1-1.6-4.3s-.8-2.2-.8-3c0-.3 0-.6.1-.9s.4-.8.9-1.3c.6-.5 1.5-1.1 2.6-1.6 2.3-1 5.7-1.8 10.1-1.8 8.8 0 17.4 2.5 24.5 8 4.6 3.5 7 7.4 8.2 9.7.6 1.1.8 1.7 1 2l.1.1h.1c1.1-1.1 1.5-1.7 1.7-2.1v-.2c-.1-.3-.2-.4-.3-.8q-.45-1.05-.9-2.4c-.9-2.8-1.8-6.7-1.8-10.9 0-2.3.8-4.3 1.6-5.8s1.7-2.5 1.7-2.5l.8-.8zM12.1 23.8c-.1 1.2-1.4 1.3-1.6 1.3 0-.2 0-.4.1-.6.3 0 .9-.1.9-.8s-.7-1-1-1.1c0-.2-.1-.4-.1-.6.2 0 1.8.4 1.7 1.8m15.7-4.1c.1-.2.2-.3.3-.4.4-.5.9-1.4 1.3-2.5.2-.6.3-1.4.3-2.2 0-1.1-.2-2.5-.9-3.7-.7-1.1-1.7-2.3-3.4-3.1q-1.95-.9-3.9-.9c-1.6 0-3.3.5-4.6 1.4s-2.3 2.4-3 4.2-1.3 3.1-1.9 4.2c-.3.5-.6.9-1 1.2-.3.3-.8.4-1.3.4-.4 0-.8-.1-1.1-.3-.5-.3-1-.8-1.3-1.6s-.5-1.7-.5-3c0-.8.1-1.8.3-2.8.5-2.9 2.3-5 4.7-6.4 2.3-1.4 5.2-2.1 8-2.1 1.5 0 3 .2 4.3.6 2.9.8 5.6 2.5 7.6 4.7s3.3 4.9 3.3 7.9c0 1-.1 2.1-.5 3.1-.6 1.9-1.5 3.4-2.6 4.5-1.6 1.6-3.5 2.5-5.1 3-1.3.4-2.5.5-3 .5 2.4-1.7 4-4.1 4-6.7" class="st0" data-source="https://football-logos.cc"></path><!-- source: https://football-logos.cc --></svg>