<svg xmlns="http://www.w3.org/2000/svg" width="158" height="200"><!-- Source: https://football-logos.cc --><style data-source="https://football-logos.cc">.shp0{fill:#fff}.shp1{fill:#101920}.shp2{fill:#f18a01}.shp3{fill:#e0730f}</style><path d="M70.18.08c-.88.04-2.28.11-3.11.16S64.6.4 63.44.48c-1.16.09-2.82.21-3.67.28-.86.07-2.49.23-3.63.36l-3.51.4c-.79.09-2.05.26-2.8.37l-2.71.4c-.75.11-2.56.41-4.03.67s-3.48.64-4.47.84-2.35.49-3.03.65c-.68.15-2.13.5-3.23.76s-2.54.62-3.19.8c-.66.18-1.9.52-2.76.77-.85.24-2.29.66-3.19.94s-2.46.79-3.47 1.12c-1.01.34-2.43.83-3.15 1.1-.73.26-1.79.66-2.36.87-.57.22-1.39.55-1.83.73-.44.17-1.23.5-1.76.72-.52.22-1.37.58-1.87.8-.51.22-1.49.66-2.2.98-.7.32-1.45.67-1.67.78l-.4.2c-.41 2.47-.7 4.35-.92 5.78s-.56 3.81-.75 5.28c-.2 1.47-.54 4.23-.76 6.12s-.42 3.67-.44 3.96c-.03.29-.06.7-.08.92s-.08.76-.12 1.2c-.05.44-.17 1.77-.28 2.96S.93 43.9.88 44.52c-.04.62-.1 1.5-.12 1.96-.03.46-.08 1.29-.12 1.84-.05.55-.15 2.35-.24 4-.08 1.65-.2 4.03-.26 5.28-.06 1.51-.1 5.12-.1 10.68 0 5.64.04 9.12.1 10.6.06 1.21.18 3.46.26 5 .09 1.54.19 3.23.23 3.76.05.53.1 1.3.13 1.72.02.42.08 1.21.12 1.76.05.55.15 1.72.24 2.6s.27 2.61.4 3.84.34 3.03.48 4c.13.97.29 2.17.36 2.68.06.51.28 1.93.48 3.16s.54 3.19.76 4.36.58 2.97.8 4 .64 2.8.92 3.92.64 2.51.8 3.08c.15.57.5 1.74.76 2.6.27.86.62 1.97.8 2.48.17.51.51 1.44.75 2.08s.62 1.61.84 2.16.62 1.5.88 2.12c.27.62.79 1.77 1.18 2.56.38.79 1.01 2.03 1.39 2.76.39.73 1.14 2.04 1.67 2.92s1.36 2.21 1.85 2.96 1.37 2.04 1.95 2.88c.59.84 1.52 2.11 2.07 2.84s1.63 2.11 2.41 3.08 1.89 2.32 2.47 3c.59.68 1.73 1.98 2.55 2.88.81.9 1.82 2 2.23 2.44s1.81 1.86 3.11 3.16 3.06 3.01 3.92 3.8c.85.8 2.06 1.89 2.67 2.44s1.73 1.53 2.47 2.17c.75.64 1.99 1.68 2.76 2.32.76.64 2.09 1.72 2.95 2.4.85.68 1.9 1.5 2.31 1.82.42.32 1.52 1.15 2.44 1.84a246 246 0 0 0 4.86 3.58l1.68 1.19c.31.21 1.19.83 1.96 1.36.76.53 2.34 1.6 3.51 2.37 1.16.77 2.72 1.8 3.47 2.28.74.49 2.32 1.49 3.51 2.23 1.18.73 2.24 1.4 2.35 1.47s1.3.78 2.64 1.59c1.33.8 2.48 1.46 2.55 1.46s1-.53 2.07-1.17c1.08-.64 2.26-1.36 2.64-1.59.37-.23 1.36-.84 2.19-1.36.84-.52 2.38-1.51 3.43-2.19 1.06-.68 2.83-1.85 3.95-2.6 1.12-.76 2.6-1.77 3.3-2.25.69-.48 2.16-1.53 3.27-2.32s2.8-2.03 3.77-2.76c.96-.72 2.45-1.85 3.31-2.51.85-.66 2.27-1.78 3.15-2.48s2.44-1.98 3.47-2.84 2.27-1.91 2.76-2.33c.48-.41 1.5-1.32 2.27-2 .76-.68 2.16-1.96 3.11-2.84.94-.88 2.67-2.55 3.83-3.72 1.17-1.16 2.78-2.84 3.59-3.72.8-.88 1.61-1.76 1.79-1.96s.69-.77 1.13-1.28 1.18-1.37 1.64-1.92 1.34-1.63 1.96-2.4 1.56-1.99 2.11-2.72c.54-.73 1.36-1.84 1.81-2.48.46-.64 1.27-1.83 1.81-2.64.53-.81 1.26-1.95 1.62-2.52.35-.57.93-1.54 1.28-2.16s.8-1.43 1.01-1.8c.2-.37.72-1.4 1.15-2.28.44-.88.99-2.09 1.25-2.68.25-.59.63-1.53.85-2.08s.59-1.54.83-2.2.63-1.79.87-2.52.58-1.81.76-2.4.54-1.85.79-2.8c.26-.95.67-2.53.91-3.52.25-.99.59-2.45.77-3.24a272 272 0 0 0 1.32-6.6c.03-.2.18-1.08.33-1.96s.43-2.72.62-4.08c.2-1.36.39-2.77.44-3.12a267 267 0 0 0 .45-4c.19-1.85.45-4.57.56-6.04.1-1.47.26-3.89.35-5.36.08-1.47.2-3.62.26-4.76.06-1.4.1-4.81.1-10.4 0-5.39-.04-9.11-.1-10.56l-.22-4.52c-.07-1.25-.21-3.74-.32-5.52s-.26-3.89-.32-4.68l-.44-4.92c-.17-1.91-.42-4.43-.55-5.6-.14-1.17-.3-2.62-.37-3.24-.06-.62-.26-2.24-.43-3.6-.18-1.36-.49-3.63-.69-5.04s-.42-2.94-.48-3.4-.2-1.4-.31-2.08c-.12-.68-.21-1.24-.22-1.24-.01-.01-.68-.32-1.49-.7-.82-.38-1.79-.82-2.16-.99-.37-.16-1.05-.45-1.52-.65-.46-.19-1.48-.61-2.27-.93s-1.92-.77-2.51-.99c-.6-.23-1.57-.59-2.16-.81s-1.83-.65-2.75-.95c-.92-.31-2.43-.8-3.35-1.09-.92-.28-2.5-.75-3.51-1.04-1.01-.28-2.47-.68-3.24-.88-.76-.2-2.06-.52-2.87-.72s-2.21-.53-3.11-.73c-.9-.19-2.55-.54-3.67-.77a239 239 0 0 0-3.59-.68c-.86-.15-2.2-.37-2.99-.5s-2.3-.37-3.36-.52c-1.05-.16-2.97-.41-4.27-.56-1.29-.16-3.01-.35-3.83-.44-.81-.09-2.37-.24-3.47-.33C96.3.64 94.63.51 93.68.44c-.94-.07-2.65-.18-3.79-.25C88.28.09 86.03.06 79.8.04c-4.41-.01-8.74.01-9.62.04" class="shp0"></path><path d="M74.29 2.77a216 216 0 0 0-8.62.36c-1.38.08-3.39.22-4.46.31-1.08.09-2.52.22-3.2.29-.68.06-2.17.22-3.31.36-1.14.13-2.99.36-4.11.52-1.12.15-2.82.4-3.79.55-.96.16-2.67.45-3.79.65s-2.99.56-4.15.8-2.97.64-4.03.88c-1.05.24-2.6.62-3.43.83-.83.22-2.13.56-2.87.76-.75.2-2.2.62-3.23.93-1.04.31-3.1.97-4.59 1.47s-3.29 1.12-3.99 1.38c-.7.27-1.76.67-2.36.9-.59.23-1.85.74-2.79 1.14-.94.39-2.35 1.01-3.13 1.37-1.22.56-1.43.68-1.46.85-.02.11-.22 1.35-.43 2.76-.22 1.41-.58 3.87-.8 5.48s-.54 4.13-.72 5.6c-.17 1.47-.35 3.02-.4 3.44-.04.42-.15 1.46-.24 2.32-.08.86-.23 2.35-.32 3.32-.08.97-.21 2.43-.28 3.24-.06.81-.17 2.27-.24 3.24-.06.97-.17 2.62-.23 3.68-.07 1.06-.18 3.14-.24 4.64-.07 1.5-.16 3.94-.21 5.44-.04 1.5-.08 5.13-.08 8.08s.04 6.57.08 8.04c.05 1.47.14 3.83.2 5.24.07 1.41.2 3.64.29 4.96.08 1.32.21 3.08.28 3.92.06.84.22 2.6.36 3.92.13 1.32.32 3.17.43 4.12s.35 2.78.52 4.08c.18 1.3.5 3.46.72 4.8s.6 3.45.83 4.68c.24 1.23.62 3.05.84 4.04s.62 2.65.89 3.68c.26 1.03.62 2.38.8 3 .17.62.5 1.7.72 2.4s.65 1.95.94 2.76c.3.81.8 2.13 1.12 2.92.31.79.84 2.05 1.17 2.8s.93 2.01 1.32 2.8c.4.79.97 1.89 1.28 2.44s.91 1.58 1.33 2.28 1.25 2.02 1.85 2.92c.59.9 1.54 2.29 2.1 3.08.57.79 1.37 1.89 1.79 2.44s1.11 1.43 1.52 1.96c.42.53 1.2 1.5 1.75 2.16s1.47 1.74 2.04 2.4 1.55 1.76 2.17 2.44 1.95 2.1 2.96 3.16 2.8 2.84 3.98 3.97c1.18 1.12 2.56 2.42 3.07 2.88.5.46 1.49 1.34 2.19 1.96.71.62 2 1.73 2.88 2.47.87.74 2.65 2.2 3.95 3.24 1.29 1.03 3.36 2.64 4.58 3.57 1.23.92 2.96 2.2 3.83 2.84.88.64 2.39 1.71 3.36 2.39.96.68 2.88 1.99 4.26 2.92 1.39.93 3.27 2.18 4.19 2.77.93.6 2.42 1.55 3.32 2.11s2.49 1.55 3.55 2.2c1.05.64 2.12 1.28 2.37 1.42l.46.26c1.02-.58 2.34-1.38 3.59-2.15s3.17-1.97 4.27-2.68c1.1-.7 2.96-1.93 4.15-2.72 1.18-.79 3.02-2.04 4.09-2.78 1.06-.74 2.64-1.86 3.51-2.48.87-.63 2.47-1.81 3.57-2.63s2.88-2.17 3.95-3.01c1.08-.84 2.66-2.09 3.51-2.79.86-.7 2.24-1.85 3.07-2.55.84-.71 2.1-1.79 2.8-2.4.7-.62 1.85-1.64 2.55-2.28s1.91-1.76 2.67-2.49c.77-.72 2.01-1.93 2.76-2.68.74-.76 2-2.05 2.79-2.89.79-.83 2.03-2.18 2.75-3 .73-.81 1.86-2.12 2.52-2.91s1.56-1.89 2-2.44a122 122 0 0 0 3.6-4.76c.44-.62 1.23-1.77 1.75-2.56.53-.79 1.19-1.82 1.48-2.28s.83-1.36 1.2-2 1-1.77 1.4-2.52 1.02-1.99 1.38-2.76.9-2.01 1.21-2.76.78-1.97 1.06-2.72c.27-.75.74-2.1 1.03-3 .3-.9.77-2.45 1.05-3.44s.75-2.72 1.03-3.84.66-2.71.84-3.52.49-2.25.69-3.2c.19-.95.55-2.82.78-4.16.24-1.34.58-3.41.75-4.6.18-1.19.42-2.86.53-3.72s.27-2.21.36-3 .23-2.14.32-3c.08-.86.21-2.23.28-3.04.06-.81.19-2.51.27-3.76.09-1.25.22-3.4.28-4.76.07-1.36.16-3.63.21-5.04.04-1.41.08-5.06.08-8.12s-.04-6.64-.08-7.96-.1-2.96-.12-3.64c-.03-.68-.1-2.3-.17-3.6-.06-1.3-.17-3.21-.23-4.24-.07-1.03-.18-2.64-.24-3.56-.07-.92-.14-1.91-.16-2.2-.03-.29-.15-1.73-.28-3.2s-.31-3.42-.4-4.32-.33-3.06-.52-4.8c-.2-1.74-.51-4.26-.68-5.6-.18-1.34-.52-3.83-.76-5.52-.25-1.69-.47-3.24-.5-3.43s-.09-.37-.13-.41c-.05-.03-.6-.29-1.24-.58s-1.64-.73-2.23-.98c-.6-.25-1.42-.6-1.84-.78-.42-.17-1.35-.54-2.07-.82a152 152 0 0 0-5.39-1.96c-1.05-.35-2.6-.86-3.43-1.12s-2.07-.63-2.75-.83-1.85-.53-2.6-.73c-.74-.2-2.2-.58-3.23-.84s-2.84-.68-4.03-.95c-1.18-.26-2.89-.62-3.79-.8s-2.23-.43-2.95-.57c-.73-.13-2.2-.38-3.27-.56a229 229 0 0 0-8.22-1.16c-1.3-.15-3.29-.37-4.43-.48s-2.76-.25-3.59-.32c-.84-.06-2.34-.17-3.35-.24-1.01-.06-3.08-.17-4.59-.24-1.52-.07-4.95-.13-7.62-.15-2.68-.01-5.39-.02-6.03 0" class="shp1"></path><path d="M67.35 7.44c-.64.03-1.17.06-1.18.07-.01 0 0 .65.03 1.43.02.78.09 2.7.15 4.26.07 1.56.15 3.85.2 5.08s.12 3.14.16 4.24.1 2.52.13 3.16l.05 1.16c.88-.03 2.14-.07 3.37-.12 1.23-.04 2.88-.1 3.67-.12.79-.03 1.56-.07 1.72-.09l.28-.04c-.1-2.19-.15-2.85-.17-2.87s-1.07.01-2.33.06c-1.26.06-2.52.11-2.81.12-.51.02-.51.02-.57-.22-.03-.13-.1-1.48-.15-3s-.12-3.5-.16-4.4-.12-3.25-.19-5.22l-.12-3.58c-.72.02-1.44.05-2.08.08m25.04.28c-.34.07-.81.19-1.04.29-.23.09-.58.26-.78.37-.2.12-.48.32-.63.46-.15.13-.43.46-.63.72-.21.3-.42.71-.54 1.1-.14.46-.22 1.01-.31 2.08l-.2 2.66-.29 3.84c-.1 1.45-.19 2.98-.19 3.4s.05.96.12 1.2c.06.24.21.64.33.88s.45.68.74.96c.38.39.71.62 1.2.86.37.19.97.41 1.32.5s1 .19 1.43.23c.44.04 1.11.04 1.48 0 .37-.03.97-.15 1.32-.26s.85-.34 1.11-.51c.27-.17.65-.49.85-.71.19-.21.43-.52.53-.67.09-.15.23-.44.3-.64.08-.2.18-.88.25-1.52.08-.92.09-1.17.01-1.21-.06-.03-.78-.1-1.62-.15-.83-.04-1.52-.08-1.53-.06-.01.01-.06.41-.1.88-.05.56-.14.97-.24 1.18-.09.18-.26.39-.38.47s-.35.19-.5.24-.6.09-1 .09-.9-.05-1.13-.12a1.7 1.7 0 0 1-.77-.46c-.26-.24-.37-.43-.42-.66-.03-.18.02-1.36.12-2.72.1-1.32.28-3.8.41-5.52s.28-3.25.33-3.4.18-.38.3-.51c.11-.12.31-.28.45-.35.13-.06.43-.15.67-.19.27-.04.68-.03 1.04.02.33.04.74.15.92.22.17.08.43.28.58.44.14.16.28.42.31.59.03.16.03.67.02 1.12-.03.77-.02.83.13.86.08.02.8.07 1.59.12s1.45.08 1.46.06c.01-.01.06-.43.11-.94.04-.51.06-1.12.04-1.36-.03-.24-.11-.62-.18-.84s-.3-.65-.5-.96c-.21-.3-.57-.71-.81-.9a6.5 6.5 0 0 0-1-.62c-.3-.16-.84-.35-1.19-.45-.45-.11-.98-.17-1.76-.19-.78-.03-1.3 0-1.73.08m-38.05.95-1.47.17c.04.5.19 1.95.36 3.56.18 1.61.46 4.25.64 5.88.17 1.63.42 3.93.55 5.12s.3 2.72.37 3.4.14 1.25.14 1.26c.01.01 1.21-.11 2.68-.26 1.47-.16 3.49-.37 4.47-.48.99-.11 1.81-.21 1.82-.22s-.03-.58-.1-1.26-.15-1.33-.17-1.44c-.04-.2-.04-.2-.66-.13-.33.03-1.6.17-2.82.32-1.93.22-2.22.23-2.25.13-.02-.07-.22-1.79-.44-3.84-.23-2.05-.59-5.38-.81-7.4-.21-2.02-.41-3.88-.44-4.12-.02-.24-.06-.54-.08-.66-.02-.15-.08-.22-.17-.21-.08 0-.81.08-1.62.18m50.2.15c0 .01-.22 1.71-.48 3.78s-.8 6.39-1.2 9.6-.72 5.84-.7 5.85c.01.01.72.1 1.58.21.85.11 1.58.17 1.61.15.03-.03.41-2.95.86-6.49.44-3.54.98-7.86 1.2-9.6.21-1.74.38-3.17.37-3.17-.01-.01-.65-.09-1.43-.18s-1.51-.17-1.62-.17c-.1 0-.19.01-.19.02M46.28 9.86c-.86.16-1.56.31-1.57.32s.23 1.28.53 2.82c.31 1.54.97 4.92 1.48 7.52.67 3.4.91 4.8.87 5-.03.15-.1.37-.15.48s-.2.29-.33.4c-.13.12-.43.28-.67.37-.24.1-.71.21-1.03.27-.47.07-.69.07-.96 0-.2-.05-.48-.16-.62-.25-.14-.08-.33-.29-.41-.45-.09-.18-.6-2.57-1.28-6.02-.62-3.15-1.29-6.51-1.48-7.48-.2-.97-.38-1.78-.4-1.8-.03-.02-.74.1-1.58.26-.84.17-1.54.31-1.55.32s.08.56.21 1.22.72 3.72 1.32 6.8 1.14 5.89 1.21 6.24c.06.35.19.86.27 1.12s.29.7.46.96.5.65.74.87c.24.21.65.49.91.62.27.13.75.29 1.08.36.46.1.84.12 1.68.09.66-.03 1.32-.11 1.71-.21.35-.09.91-.27 1.24-.41.33-.13.79-.37 1.02-.52s.55-.42.72-.58c.16-.16.42-.48.57-.7s.35-.6.43-.84c.13-.33.17-.63.17-1.24 0-.71-.17-1.64-1.47-8.28-.8-4.11-1.49-7.5-1.52-7.52-.03-.03-.75.09-1.6.26m65.17 1.44c-.17.89-.29 1.62-.27 1.63.01 0 .75.15 1.63.32.89.17 1.63.35 1.65.39s-.12.87-.31 1.84-.55 2.79-.79 4.04-.64 3.32-.88 4.6c-.25 1.28-.58 2.97-.73 3.76s-.27 1.47-.26 1.51c.02.04.73.21 1.58.38.86.16 1.57.29 1.58.28.01 0 .14-.64.29-1.41.16-.77.41-2.05.56-2.84s.72-3.69 1.25-6.44 1.01-5.03 1.06-5.06.13-.06.17-.06c.05 0 .73.14 1.53.3.8.17 1.49.27 1.52.23s.19-.76.36-1.6c.16-.84.28-1.54.27-1.55 0-.01-.46-.1-1.01-.21-.54-.11-2.5-.49-4.34-.85-1.85-.35-3.63-.7-3.95-.76-.33-.07-.61-.12-.61-.12s-.14.73-.3 1.62m13.2 1.19c0 .06.17 1.69.39 3.63s.51 4.58.65 5.88l.26 2.36c-1.74 6.14-2.22 7.94-2.2 7.96s.72.23 1.56.45c.84.23 1.54.41 1.54.4.01 0 .52-1.81 1.14-4.01.92-3.25 1.17-4.05 1.35-4.28.12-.15 1.24-1.61 2.49-3.24 1.24-1.63 2.75-3.59 3.34-4.36s1.08-1.44 1.1-1.5c.01-.06-.1-.13-.27-.18-.17-.04-.86-.24-1.54-.43-.91-.26-1.25-.33-1.29-.27-.03.06-1.06 1.49-2.29 3.18-1.22 1.69-2.27 3.09-2.33 3.1-.09.02-.13-.11-.17-.48-.03-.27-.17-2.03-.31-3.9-.15-2.03-.29-3.44-.35-3.49-.04-.05-.69-.26-1.44-.46-.75-.21-1.42-.4-1.49-.42s-.13.01-.14.06m-93.61.55c-1.01.27-1.39.41-1.38.49.01.06.47 1.76 1.02 3.77s1 3.71 1 3.78-.12.15-.26.2c-.14.04-.99.27-1.87.52-.89.24-1.68.44-1.76.44-.12 0-.31-.62-1.17-3.78-.56-2.08-1.05-3.82-1.09-3.86-.05-.05-.56.05-1.49.31-.78.21-1.47.41-1.54.45-.1.06-.05.31.35 1.77.26.94.65 2.38.87 3.19.21.81.58 2.18.81 3.04s.97 3.61 1.64 6.12c.68 2.51 1.25 4.59 1.27 4.62.03.04.74-.13 1.59-.36.84-.23 1.54-.46 1.54-.5-.01-.04-.47-1.83-1.05-3.96-.57-2.13-1.01-3.91-.97-3.94.03-.03.92-.29 1.97-.58 1.06-.28 1.95-.49 1.98-.46s.53 1.81 1.11 3.94c.57 2.13 1.06 3.9 1.09 3.93s.72-.13 1.54-.36 1.51-.43 1.54-.45-.36-1.57-.87-3.44c-.5-1.87-1.04-3.87-1.19-4.44s-.82-3.06-1.49-5.52c-.66-2.46-1.25-4.67-1.32-4.9-.09-.35-.14-.42-.29-.41-.1 0-.81.18-1.58.39" class="shp0"></path><path d="M76.61 30.88c-.55.04-1.16.06-1.36.03-.2-.02-1.44 0-2.75.05-1.32.05-3.26.14-4.31.2-1.06.06-2.64.17-3.51.24-.88.07-2.37.19-3.32.28-.94.09-2.48.25-3.43.37-.94.11-2.38.29-3.19.4s-2.3.32-3.31.48a167 167 0 0 0-8.5 1.56c-1.03.22-2.61.58-3.51.8-.9.21-2.37.58-3.27.82a159 159 0 0 0-3.43.96c-.99.28-2.93.89-4.31 1.35s-3.31 1.13-4.27 1.5c-.97.36-2.46.94-3.31 1.29-.86.36-2.33.99-3.27 1.4-.95.42-2.76 1.28-4.03 1.92-1.28.63-2.82 1.43-3.44 1.77l-1.11.62c-.09 1.12-.19 2.74-.28 4.32s-.18 3.47-.2 4.2c-.03.73-.09 2.36-.14 3.64s-.09 5.43-.09 9.24c0 3.85.04 7.93.09 9.2.05 1.25.11 2.84.14 3.52.02.68.09 2.18.16 3.32s.18 2.8.24 3.68c.07.88.17 2.27.24 3.08s.21 2.36.32 3.44.27 2.55.36 3.28.21 1.77.28 2.32.28 2.08.48 3.4.52 3.34.72 4.48.5 2.8.68 3.68c.17.88.44 2.18.6 2.88.15.7.51 2.22.79 3.36s.67 2.66.87 3.36c.21.7.54 1.78.74 2.4s.59 1.75.88 2.52c.28.77.73 1.94.99 2.6s.71 1.74 1 2.4.88 1.92 1.32 2.8 1.1 2.14 1.48 2.8a80 80 0 0 0 3.05 4.92c.51.77 1.27 1.87 1.68 2.44.4.57 1.01 1.4 1.34 1.84s1 1.3 1.48 1.92 1.4 1.75 2.04 2.52a132 132 0 0 0 2.28 2.68c.61.7 1.54 1.74 2.07 2.32.52.57 1.56 1.68 2.31 2.47s2.23 2.27 3.28 3.28c1.06 1.02 2.66 2.52 3.56 3.33s2.24 2 2.99 2.65c.74.64 1.87 1.59 2.51 2.12.63.53 1.69 1.39 2.35 1.92s1.9 1.5 2.75 2.16c.86.66 2.19 1.67 2.95 2.24a313 313 0 0 0 6.11 4.39c.75.51 2.36 1.61 3.59 2.44 1.23.82 3.06 2.03 4.07 2.68s2.82 1.8 4.03 2.56c1.21.75 2.59 1.62 3.07 1.92l.88.54c.62-.35 1.75-1.04 2.91-1.77 1.17-.72 2.87-1.8 3.79-2.4.92-.59 2.65-1.72 3.83-2.51 1.19-.8 2.79-1.88 3.55-2.41.77-.53 2.28-1.59 3.36-2.36 1.07-.77 2.72-1.98 3.67-2.68.94-.7 2.57-1.95 3.63-2.77 1.05-.82 2.63-2.08 3.51-2.8s2.19-1.81 2.91-2.43c.73-.62 1.95-1.68 2.71-2.36.77-.69 2.1-1.9 2.96-2.69.85-.79 2.3-2.18 3.22-3.08.91-.9 2.39-2.41 3.28-3.36s2-2.15 2.48-2.68c.47-.53 1.41-1.61 2.09-2.4s1.78-2.12 2.45-2.96c.66-.84 1.53-1.95 1.93-2.48.39-.53 1.04-1.41 1.44-1.96.39-.55 1.11-1.59 1.59-2.32s1.17-1.79 1.53-2.36c.35-.57.95-1.58 1.33-2.24s1.11-2.05 1.63-3.08a85 85 0 0 0 1.55-3.32c.33-.79.85-2.11 1.16-2.92.3-.81.77-2.15 1.03-2.96.27-.81.73-2.31 1.02-3.32s.79-2.92 1.12-4.24c.32-1.32.82-3.52 1.1-4.88.29-1.36.7-3.49.92-4.72s.54-3.18.72-4.32.41-2.78.52-3.64.31-2.5.44-3.64.31-2.89.4-3.88.18-2 .2-2.24.08-.91.12-1.48.14-1.87.2-2.88c.07-1.01.14-2.33.17-2.92.02-.59.09-2.48.16-4.2.09-2.44.11-4.72.08-10.44-.02-4.03-.08-8.09-.12-9.04-.05-.95-.1-2.24-.13-2.88-.02-.64-.11-2.4-.2-3.92s-.21-3.31-.26-3.99l-.1-1.23c-1.67-.93-2.91-1.58-3.83-2.06-.92-.47-2.37-1.18-3.23-1.58s-1.84-.85-2.19-1c-.35-.16-1.23-.54-1.96-.84-.72-.31-1.94-.8-2.71-1.1-.77-.29-2.08-.78-2.91-1.08-.84-.3-2.3-.8-3.26-1.11-.95-.31-2.51-.8-3.47-1.09-.95-.28-2.42-.7-3.25-.92-.83-.23-2.31-.61-3.27-.84-.97-.24-2.67-.63-3.79-.87s-3.01-.62-4.19-.85c-1.19-.22-3.18-.56-4.43-.76s-3.4-.5-4.79-.68c-1.38-.17-3.43-.4-4.55-.52-1.12-.11-2.71-.25-3.55-.32-.83-.06-2.37-.17-3.43-.24-1.05-.06-2.99-.15-4.31-.19-1.31-.04-2.61-.07-2.87-.07-.26.01-1.57-.01-2.91-.04s-2.89-.02-3.43.02" class="shp2"></path><path d="M74.57 42.16c-.32.03-.84.18-1.24.34-.37.16-.96.37-1.31.49-.35.11-.98.27-1.4.35-.74.15-.78.17-1.75.88l-1 .73c.43.26.9.44 1.31.58.67.22.9.26 1.88.29l1.12.04c2.19-.72 2.39-.76 3.03-.76.54-.01.83.04 1.16.16.24.1.76.38 1.15.64.4.26.87.64 1.06.85.19.2.41.51.49.67.09.17.21.52.29.78.09.34.15.92.18 1.96.03 1.23.06 1.53.19 1.78.08.17.32.47.53.67s.63.49.93.64c.31.15.78.33 1.04.4.29.08.82.13 1.33.14l.84.01c1.47 1.41 2.28 2.12 2.74 2.49s1.12.87 1.48 1.1c.35.24.89.56 1.21.72.35.18.7.29.88.29.16 0 .55.09.86.2s.67.2.82.2c.19 0 .28-.05.34-.18.07-.14.06-.25-.06-.5-.08-.17-.29-.44-.48-.6-.3-.25-.33-.31-.29-.56.03-.16-.03-.56-.12-.96-.1-.37-.38-1.11-.64-1.64l-.46-.96c-2.34-.85-3.88-1.4-4.93-1.79-1.04-.38-1.91-.73-1.93-.79-.02-.05.01-.16.07-.23.08-.11.2-.12.78-.08.37.03 1.73.16 3.02.27 1.28.12 2.35.2 2.37.18.01-.02-.15-.3-.37-.62s-.6-.79-.85-1.06l-.46-.47c-3.59-1.19-5-1.71-5.46-1.91-.46-.21-.83-.42-.83-.46-.01-.04.22-.27.51-.5.28-.23.83-.59 1.23-.78.39-.2 1-.44 1.35-.53.45-.11 1.01-.18 1.84-.21.74-.02 1.47 0 1.91.06.4.05 1.3.22 2 .38.75.16 1.6.3 2.07.32.56.03.82.02.86-.05.04-.06-.12-.22-.44-.44-.32-.23-.62-.37-.85-.41-.2-.03-.72-.14-1.16-.25s-1.54-.41-2.44-.67c-.89-.26-1.99-.56-2.43-.67-.6-.15-1.12-.21-2.11-.25-.73-.03-2.04-.1-2.92-.17-.87-.06-2.67-.13-3.99-.15-1.31-.02-2.64 0-2.95.04" class="shp1"></path><path d="M72.06 42.4c-.89.03-1.46.08-1.56.14-.09.05-.41.18-.72.29-.3.1-.77.3-1.03.43-.27.13-.6.34-.75.47s-.33.34-.39.47c-.07.13-.31.4-.53.61-.22.2-.47.49-.55.66-.12.25-.12.31-.03.43.06.08.4.24.74.36.35.11 1.06.27 1.59.34.6.09 1.57.14 2.66.15 1.6.01 1.7.02 1.81.17.07.09.12.19.12.22-.01.03-.12.1-.27.14-.14.04-.92.24-1.73.44-.81.21-1.9.44-2.41.53l-.94.15c-.71-.39-1.14-.62-1.4-.76-.26-.15-.68-.3-.92-.35-.27-.05-.62-.05-.91-.01-.27.04-.88.16-1.36.28-.48.11-1.35.33-1.92.49s-1.7.5-2.51.77c-.81.26-2.07.71-2.79 1-.73.28-1.89.8-2.6 1.14-.7.34-1.65.85-2.11 1.13s-1.13.73-1.48 1-.97.79-1.37 1.16c-.41.37-.96.92-1.23 1.23-.28.31-.77.92-1.09 1.36-.33.44-.67.94-.75 1.12-.11.22-.15.42-.13.64.03.24.27.66.98 1.72.51.77.98 1.41 1.03 1.42.05.02.16-.05.25-.14.13-.14.25-.16.78-.16.51 0 .62.02.66.14.03.08.17.39.31.7.19.39.4.68.69.95.24.21.51.4.61.42.1.01.18.07.18.11s-.18.58-.4 1.18c-.29.79-.46 1.15-.62 1.29-.16.13-.27.17-.42.13a2.4 2.4 0 0 1-.49-.24c-.17-.11-.6-.57-.96-1.02s-.86-1.02-1.1-1.26a4.8 4.8 0 0 0-.96-.74c-.28-.16-.84-.4-1.23-.54-.47-.16-.94-.27-1.36-.29-.45-.03-.8-.01-1.2.09-.3.07-.88.28-1.27.47-.4.19-.99.56-1.32.83-.33.26-.78.69-1.01.95-.22.26-.61.76-.86 1.11-.26.35-.72 1.08-1.03 1.62-.32.54-.6.95-.63.92s-.07.03-.09.14l-.29 1.52c-.15.73-.24 1.36-.21 1.42.03.05.2-.32.38-.84s.48-1.28.66-1.7c.19-.42.47-.99.64-1.28.16-.29.39-.64.49-.78.11-.14.23-.25.28-.24s.24-.12.42-.3c.19-.18.53-.42.77-.55s.58-.25.76-.26c.17-.01.68-.11 1.12-.23.45-.11 1.01-.2 1.29-.2s.87.07 1.32.16 1.3.33 1.89.53c.6.2 1.41.53 1.8.73.4.2.87.47 1.07.61.19.14.39.38.46.53.06.15.19.57.27.92s.18.96.21 1.36c.05.69.04.74-.19 1.24-.13.29-.39.75-.58 1.04s-.67.84-1.07 1.24-.99.9-1.31 1.12c-.31.22-.55.43-.53.46s.16.06.31.06c.16 0 .45-.06.66-.14s.51-.24.66-.36.32-.22.36-.22c.05 0 .06.16.02.46-.04.25-.15.69-.25.98-.09.29-.33.75-.52 1.04s-.58.78-.86 1.1c-.36.41-.46.58-.37.58.08 0 .36-.09.62-.2.27-.11.62-.3.79-.42s.49-.51.72-.85l.41-.64c.07-2.07.1-2.21.26-2.46.11-.15.44-.47.75-.71s1.16-.94 1.89-1.54l1.33-1.11c.74.08 1.04.14 1.15.18l.2.08c-.26.21-.71.56-1.16.92-.46.36-.96.76-1.11.9s-.26.27-.24.3c.02.02.4-.1.84-.26s1.26-.54 1.83-.85 1.15-.62 1.28-.69.4-.14.6-.16c.22-.02.51.02.76.1.22.08.77.38 1.23.69.46.3 1 .61 1.2.68s.52.12.72.12c.22 0 .61-.11 1.04-.29.37-.15.99-.39 1.37-.52.39-.12 1-.26 1.36-.3s.68-.06.7-.04c.02.03-.21.28-.52.57-.31.28-.85.73-1.2.98s-.96.66-1.35.9c-.4.24-1.17.68-1.72.97s-1.16.58-1.36.65c-.19.07-1 .27-1.79.45s-1.74.43-2.12.56c-.37.13-1.21.51-1.87.83s-1.44.75-1.74.95c-.29.2-.55.33-.58.29-.02-.04.1-.31.26-.58.2-.34.72-.92 1.61-1.8.73-.72 1.5-1.44 1.72-1.62.22-.17.69-.45 1.04-.62s.88-.4 1.18-.51c.3-.1.54-.22.54-.25s-.1-.06-.22-.06-.49.07-.82.15-.87.26-1.2.4-.88.44-1.23.67-.91.67-1.23.98-.83.87-1.13 1.24c-.29.37-.83 1.13-1.19 1.68-.35.55-.65 1.02-.64 1.04 0 .02-.23.07-.5.1a7.2 7.2 0 0 0-2 .55c-.18.09-.48.28-.66.43-.17.14-.41.45-.53.69s-.25.57-.29.75c-.06.24-.2.42-.54.72-.26.22-.56.56-.69.76-.16.26-.22.46-.22.72 0 .25.08.49.23.76l.23.4c-.55.74-.86 1.11-1.04 1.3-.23.23-.31.37-.26.42.06.06.24.05.6-.04.29-.07.84-.28 1.24-.47.39-.19 1.24-.68 1.87-1.09.69-.45 1.52-.91 2.04-1.13.48-.2 1.68-.64 2.67-.98s2.5-.83 3.35-1.09a273 273 0 0 1 5.69-1.64c.13-.04.13-.06-.02-.36-.09-.18-.24-.36-.34-.42-.13-.07-.82-.1-2.61-.1-1.6 0-2.7.04-3.2.11-.41.06-1.17.19-1.67.3-.51.1-1.25.29-1.66.41-.4.12-.75.21-.76.2s0-.11.02-.23c.03-.12.17-.31.32-.43.16-.12.59-.41.96-.65.37-.23 1.15-.64 1.72-.91.57-.28 1.29-.58 1.59-.68.31-.1.83-.23 1.16-.29s.98-.11 1.44-.11c.59 0 1.13.06 1.83.2.56.11 1.26.2 1.6.2.43 0 .7-.05.96-.17.19-.09.47-.25.61-.36l.26-.19.04-1.7c.68-.18 1.03-.32 1.22-.42.2-.12.5-.42.74-.74.21-.3.72-1.19 1.12-1.98.41-.79.89-1.67 1.08-1.96.18-.29.51-.68.72-.88.21-.19.55-.42.75-.51.24-.1.45-.13.64-.1.15.03.44.16.64.29.23.15.46.24.65.24.17 0 .42-.05.56-.11s.6-.31 1.02-.56.94-.51 1.16-.58c.26-.09.56-.12.87-.1.32.03.61.11.86.26.21.11.4.27.42.35s.18.24.36.36c.17.12.53.41.79.64.36.33.45.45.4.56-.04.08-.06.16-.05.18s.93.45 2.05.97c1.68.76 2.08.92 2.28.87.13-.02.47-.14.75-.26.29-.11.72-.34.96-.5s.62-.47.84-.69.53-.59.69-.83.36-.62.45-.84.18-.52.21-.66c.04-.24 0-.31-.55-.9-.4-.43-.62-.73-.65-.9s0-.35.08-.52.25-.31.47-.41c.18-.09.53-.19.76-.22.25-.04.43-.12.46-.19.02-.07-.3-.68-.71-1.36-.42-.68-.93-1.6-1.15-2.04s-.47-1.02-.57-1.3c-.09-.28-.19-.65-.22-.84l-.06-.34 2.15.24c.61.07 1.73.15 2.49.18l1.38.06c0 .37-.06.8-.12 1.2-.07.4-.21 1.13-.32 1.62s-.2 1.06-.2 1.26.1.67.23 1.06.28.82.34.96c.06.16.15.26.23.24.08-.01.13-.18.18-.52.03-.28.11-.62.19-.76.07-.14.35-.58.62-.98.28-.4.73-1.01 1.01-1.36.28-.36.89-1.09 1.35-1.63s.91-1 1-1.02c.08-.02.33 0 .55.06.24.07.44.19.53.31.08.11.32.79.54 1.52l.4 1.32c-.08 2.03-.07 2.46 0 2.58.05.1.16.18.25.18s.71-.16 1.38-.35c1.13-.33 1.3-.36 2.49-.4.7-.03 1.51-.09 1.8-.13.28-.04.55-.12.59-.16.06-.06.05-.13 0-.22-.05-.08-.27-.19-.48-.24-.23-.06-1.19-.13-2.26-.16l-1.87-.06c-.22-.56-.46-1.21-.68-1.8s-.66-1.78-.97-2.64-.7-1.9-.85-2.32l-.28-.76c.41-.41.7-.62.91-.73.21-.1.57-.23.8-.27.3-.06.56-.06.94 0 .28.05.68.15.87.21.2.07 1.03.43 1.84.81s1.74.86 2.07 1.08c.36.23.65.37.72.34s.37-.22.68-.43c.3-.2.83-.63 1.17-.95.35-.32.63-.62.63-.68 0-.05-.21-.27-.46-.48l-.46-.39c-1.7.01-2.03-.02-2.1-.09-.05-.05-.1-.24-.1-.42s.06-.81.14-1.4c.1-.88.11-1.19.04-1.68-.07-.45-.16-.72-.39-1.08-.16-.26-.53-.79-.81-1.16-.29-.37-.94-1.1-1.45-1.6-.5-.51-1.3-1.24-1.76-1.61-.46-.38-1.19-.95-1.63-1.26-.44-.32-.85-.65-.92-.73-.09-.11-.53-.23-1.64-.47-.83-.18-2-.39-2.59-.48s-1.49-.2-1.99-.25c-.51-.04-1.06-.1-1.24-.12s-.37 0-.44.03c-.09.06-.07.08.1.12.12.03.28.03.36 0s.11-.03.07.02c-.03.04.51.23 1.28.45.74.21 1.88.53 2.54.7s1.36.33 1.56.36c.23.04.53.18.85.41.32.22.48.38.44.44-.04.07-.3.08-.86.05-.47-.02-1.32-.16-2.07-.32-.7-.16-1.6-.33-2-.38-.44-.06-1.17-.08-1.91-.06-.83.03-1.39.1-1.84.21-.35.09-.96.33-1.35.53-.4.19-.95.55-1.23.78-.29.23-.52.46-.51.5 0 .04.37.25.83.46.46.2 1.87.72 3.14 1.14l2.32.77c.71.74 1.09 1.21 1.31 1.53s.38.6.37.62c-.02.02-1.09-.06-2.37-.18-1.29-.11-2.65-.24-3.02-.27-.58-.04-.7-.03-.78.08-.06.07-.09.18-.07.23.02.06.89.41 1.93.79 1.05.39 2.59.94 3.42 1.24l1.51.55c.72 1.49 1 2.23 1.1 2.6.09.4.15.8.12.96-.04.25-.01.31.29.56.19.16.4.43.48.6.12.25.13.36.06.5-.06.13-.15.18-.34.18-.15 0-.51-.09-.82-.2s-.7-.2-.86-.2c-.18 0-.53-.11-.88-.29-.32-.16-.86-.48-1.21-.72-.36-.23-1.02-.73-1.48-1.1s-1.27-1.08-1.79-1.58l-.95-.91c-1.35-.02-1.88-.07-2.17-.15-.26-.07-.73-.25-1.04-.4-.3-.15-.72-.44-.93-.64s-.45-.5-.53-.67c-.13-.25-.16-.55-.19-1.78-.03-1.04-.09-1.62-.18-1.96-.08-.26-.2-.61-.29-.78-.08-.16-.3-.47-.49-.67-.19-.21-.66-.59-1.06-.85-.39-.26-.91-.54-1.15-.64-.33-.12-.62-.17-1.16-.16-.64 0-.84.04-1.88.38l-1.15.38c-2.1-.07-2.33-.11-3-.33-.41-.14-.88-.32-1.03-.41l-.28-.17c1.97-1.44 2.01-1.46 2.75-1.61.42-.08 1.19-.29 1.72-.47.52-.17 1.01-.35 1.07-.39.07-.04.11-.08.08-.1-.02-.01-.66 0-1.43.02" class="shp3"></path><path fill-rule="evenodd" d="M70.31 42.49c.15-.01.24.01.19.05-.04.04-.33.15-.64.26-.3.1-.79.3-1.07.44-.29.14-.64.36-.79.49s-.33.34-.39.47c-.07.13-.31.4-.53.61-.22.2-.47.49-.55.66-.12.25-.12.31-.03.43.06.08.4.24.74.36.35.11 1.06.27 1.59.34.6.09 1.57.14 2.66.15 1.58.01 1.71.02 1.82.17.06.08.11.18.11.22 0 .03-.12.1-.27.14-.14.04-.92.24-1.73.44-.81.21-1.9.44-3.35.68l-.46-.25c-.25-.14-.68-.37-.94-.51-.26-.15-.68-.3-.92-.35-.27-.05-.62-.05-.91-.01-.27.04-.88.16-1.36.28-.48.11-1.35.33-1.92.49s-1.7.5-2.51.77c-.81.26-2.07.71-2.79 1-.73.28-1.89.8-2.6 1.14-.7.34-1.65.85-2.11 1.13s-1.13.73-1.48 1-.97.79-1.37 1.16c-.41.37-.96.92-1.23 1.23-.28.31-.77.92-1.09 1.36-.33.44-.67.94-.75 1.12-.11.22-.15.42-.13.64.03.24.27.66.98 1.72.51.77.98 1.41 1.03 1.42.05.02.16-.05.25-.14.13-.14.25-.16.78-.16.51 0 .62.02.66.14.03.08.17.39.31.7.19.39.4.68.69.95.24.21.51.4.61.42.1.01.18.07.18.11s-.18.58-.4 1.18c-.29.79-.46 1.15-.62 1.29-.16.13-.27.17-.42.13a2.4 2.4 0 0 1-.49-.24c-.17-.11-.6-.57-.96-1.02s-.86-1.02-1.1-1.26a4.8 4.8 0 0 0-.96-.74c-.28-.16-.84-.4-1.23-.54-.47-.16-.94-.27-1.36-.29-.45-.03-.8-.01-1.2.09-.3.07-.88.28-1.27.47-.4.19-.99.56-1.32.83-.33.26-.78.69-1.01.95-.22.26-.61.76-.86 1.11-.26.35-.73 1.08-1.05 1.62-.33.54-.61.94-.63.9a.2.2 0 0 1 .02-.18c.03-.06.06-.15.06-.22.01-.07.06-.28.11-.48.06-.2.26-.76.46-1.24s.47-1.06.61-1.28.43-.65.66-.96c.22-.31.79-.97 1.27-1.48.47-.51 1.75-1.91 2.83-3.12s2.59-2.82 3.35-3.59c.77-.76 1.9-1.8 2.52-2.3.61-.5 1.57-1.25 2.13-1.65.56-.41 1.49-1.04 2.07-1.42.59-.37 1.64-1.01 2.34-1.43.7-.41 2.09-1.17 3.07-1.67.99-.51 2.21-1.15 2.72-1.42.5-.28 1.31-.68 1.79-.9.49-.22 1.35-.58 1.92-.8.57-.23 1.52-.56 2.11-.73.6-.18 1.53-.42 2.08-.54.55-.11 1.18-.21 1.41-.22.23 0 .41-.03.41-.05-.01-.03.1-.06.26-.07m24.4 1.38c.07.03.4.1.73.17s.96.22 1.39.33c.44.11 1.27.35 1.84.52.57.18 1.52.51 2.11.72.6.22 1.73.67 2.52 1s1.9.83 2.47 1.11 1.35.73 1.72 1.01.95.64 1.28.79c.52.24.7.28 1.43.32.58.03.96.1 1.24.22.22.09.79.33 1.27.54.49.2 1.44.63 2.12.94.68.32 1.94.92 2.79 1.35.86.42 1.65.85 1.76.94.13.12.16.17.08.17-.07 0-.61-.09-1.2-.2s-1.53-.27-2.07-.35a53 53 0 0 0-3.69-.43c-.26-.01-.46 0-.47.02 0 .02.05.08.1.13.06.05.45.22.86.38.42.15 1.09.37 1.48.49.4.11 1.06.27 1.48.35.41.09 1.13.2 1.59.26.49.05 1.32.07 3.15.01l1.16-.52c.64-.29 1.79-.73 2.56-.98.76-.25 2.13-.66 3.03-.92.9-.25 2.06-.56 2.59-.68.54-.12 1.32-.24 1.8-.26s1.02 0 1.27.05c.24.05.68.2.96.35.37.18.74.48 1.28 1.02.66.65.82.87 1.14 1.52.31.63.4.93.54 1.72.08.53.18 1.54.2 2.24.03.71.01 1.87-.04 2.6s-.18 2.2-.29 3.28-.22 2.34-.31 3.64l.85 1.36c.46.75 1.12 1.85 1.45 2.44.34.59.86 1.58 1.16 2.2s.66 1.39.79 1.72.29.82.36 1.08c.06.26.14.77.17 1.12.05.56.04.63-.06.52-.06-.07-.28-.57-.49-1.12-.2-.55-.37-1.04-.37-1.1 0-.05-.03-.11-.06-.12-.04-.01-.15-.2-.25-.42-.09-.22-.45-.91-.79-1.54-.33-.63-.66-1.14-.71-1.14-.07 0-.08.07-.05.22.03.12.3.95 1.15 3.46l-.2.22c-.1.12-.26.39-.36.6-.09.21-.19.36-.22.33s-.18-.47-.33-.98c-.14-.51-.45-1.43-.69-2.05s-.75-1.84-1.14-2.72-.75-1.61-.78-1.62c-.04-.01-.29.27-.55.64-.26.36-.76 1.02-1.12 1.46s-.95 1.08-1.31 1.42c-.35.34-.87.79-1.14.99-.28.2-.72.49-.98.63-.26.15-.74.37-1.06.48s-.82.24-1.12.29c-.42.08-.61.08-.89-.01-.2-.05-.6-.12-.88-.13-.29-.02-.6-.05-.7-.07-.11-.03-.23-.15-.3-.32-.06-.15-.12-.32-.12-.36s.05-.08.1-.08c.06 0 .37.11 1.3.49l.6-.13c.33-.07.85-.25 1.15-.39.31-.15.85-.49 1.2-.75s.89-.74 1.19-1.07c.3-.32.71-.81.92-1.07.2-.26.58-.84.84-1.28.27-.44.64-1.2.83-1.68.2-.48.49-1.42.65-2.08s.37-1.72.46-2.36c.1-.64.21-1.72.26-2.4.06-.72.08-1.95.05-2.92-.03-1.23-.08-1.88-.2-2.44-.09-.42-.25-1.03-.37-1.36s-.33-.8-.47-1.04-.45-.65-.69-.91c-.3-.32-.62-.55-1.03-.76-.57-.28-.63-.29-1.44-.29-.61 0-.96.04-1.28.15-.24.08-.73.29-1.08.45-.35.17-1.07.59-1.59.94-.53.35-1.34.93-1.8 1.3s-1.42 1.25-2.14 1.96c-.72.7-1.64 1.66-2.04 2.12-.41.46-1.07 1.25-1.48 1.76-.4.51-.81 1.08-.9 1.28s-.18.59-.2.88c-.03.36-.01.6.07.79.06.15.19.3.29.34s.33.07.52.07c.18 0 .57-.06.86-.13.28-.06.68-.21.87-.33.2-.12.86-.7 1.48-1.3.61-.6 1.31-1.22 1.56-1.39.3-.2.59-.32.95-.38.29-.05 1.02-.09 1.64-.1.86-.01 1.22.02 1.57.13.26.08.55.22.86.5l-1.77 1.33c-.98.73-2.42 1.79-3.2 2.36-.79.57-1.66 1.22-2.45 1.87l.05.38c.02.21.1.69.16 1.06s.17.88.24 1.12.13.51.14.6.04.2.07.26c.03.05.04.1.02.1s-.09-.05-.14-.1c-.06-.06-.6-.93-1.21-1.94s-1.14-1.87-1.19-1.9-.74-.06-2.97-.06l-1.15-.8c-.64-.44-1.21-.78-1.28-.77-.07.02-.35.06-1.16.14l-2.17-1.65-2.38-.13-1.03 1.03-1.04.05c-.57.03-1.14.08-1.26.11s-.22.1-.22.14c-.01.04.28.14.63.22.58.12.65.16.65.32 0 .1-.2.59-.45 1.1-.24.51-.53 1.14-.63 1.4-.16.41-.19.74-.27 2.24-.07 1.51-.07 1.82.03 2.16.07.22.1.43.06.46-.03.03-.54-.41-2.21-1.99l-1.28-.5c-.7-.28-1.56-.66-1.91-.85s-.88-.43-1.16-.53c-.47-.16-.65-.18-1.9-.16-.82 0-1.44.05-1.55.1-.17.08-.14.11.42.37.33.15 1.46.63 2.51 1.06s2.28.95 2.71 1.16c.44.22 1.61.93 2.6 1.59.99.67 1.86 1.25 1.94 1.29.12.07.12.15.04.8-.05.4-.08.77-.05.84.02.07.4.34.84.6.75.45.84.53 1.43 1.32.34.46.91 1.2 1.26 1.64s1.2 1.47 1.91 2.28c.7.81 1.34 1.55 1.41 1.64.13.15.14.27.06 1.48-.04.73-.13 1.57-.19 1.88-.07.31-.13.58-.15.6s-.23-.11-.46-.3-.78-.6-1.22-.92-1.19-.81-1.67-1.08c-.49-.28-1.15-.59-1.48-.7-.38-.13-.78-.2-1.1-.2-.28 0-.6.05-.74.12-.13.07-.29.22-.35.34s-.13.35-.16.5-.02.44.02.64.16.67.26 1.05c.19.68.19.7.05 1.08-.07.22-.14.53-.14.69 0 .17.08.53.16.8.09.27.16.63.16.78s-.07.41-.17.56c-.09.15-.31.46-.5.67-.18.22-.42.44-.54.5s-.34.11-.48.11c-.15 0-.41-.09-.62-.23-.2-.12-.7-.59-1.12-1.02-.42-.44-.89-.96-1.06-1.17-.16-.21-.39-.44-.5-.52-.19-.14-.2-.13-.4.06-.11.11-.29.38-.4.6-.19.39-.2.41-.07.72.07.18.21.41.3.51.1.11.46.38.81.61.51.32.83.63 1.52 1.43.48.57 1.08 1.18 1.32 1.36.24.19.58.38.76.44.3.1.34.09.79-.14.27-.13.67-.43 1.32-1.09l.42-3.93c.23-2.17.44-3.97.48-4 .03-.04 1.35.79 2.94 1.85 1.58 1.06 2.9 1.97 2.91 2.02.02.06-.17.49-.41.96-.25.47-.65 1.17-.89 1.54s-.69.99-.98 1.36c-.3.37-.9 1.02-1.33 1.44s-1 .93-1.26 1.13c-.27.2-.77.56-1.12.78-.35.23-1.01.61-1.46.84-.45.22-.83.46-.86.53-.02.07.04.2.14.29s1.14.63 2.3 1.18c1.16.56 2.15 1.05 2.19 1.1.06.05.03.12-.08.22-.11.11-.91.29-2.95.69-1.54.29-2.81.55-2.83.57s-.01.06.03.09c.03.03 1.02.25 2.19.48s2.13.43 2.13.44.14.72.31 1.58.58 2.68.93 4.04c.34 1.36.77 2.97.95 3.56s.43 1.41.56 1.82c.15.47.27.73.34.71.05-.01.09-.11.08-.22-.01-.1-.31-2.51-1.31-10.51l.69-.92c.37-.51.82-1.19.99-1.52.18-.33.37-.84.44-1.14.09-.38.1-.59.05-.7-.05-.09-.92-.62-1.98-1.21-1.04-.58-1.94-1.09-2-1.14-.08-.07-.02-.14.28-.32.27-.17.5-.24.78-.25.22 0 .92-.09 1.56-.19.84-.14 1.35-.17 1.88-.15.39.03.87.1 1.05.17.31.12.34.15.34.41 0 .15.03.29.07.3s.76.6 3.14 2.58l-.04.36c-.03.2-.8 2.31-1.71 4.7-1.02 2.66-1.62 4.34-1.56 4.34s.51-.37 1-.83c.49-.45 1.58-1.53 2.41-2.38.84-.86 1.73-1.79 2.44-2.59l-.28-2.32c-.16-1.28-.4-3.24-.54-4.36s-.29-2.07-.34-2.1c-.04-.03-.24-.04-.44-.02-.2.03-1.81.19-3.59.36s-3.38.33-3.57.34c-.18.01-.37-.02-.41-.06-.05-.05.68-.7 2.15-1.88 2.12-1.71 2.23-1.81 2.2-2.04-.02-.13-.09-.6-.17-1.04-.09-.54-.12-1.03-.1-1.52.03-.4.1-.88.17-1.08s.25-.51.41-.7c.15-.19.3-.34.34-.34.03-.01.23.22.43.5.21.27.53.6.72.72s.51.24.7.27c.2.03.52.02.72-.01s.54-.12.76-.21c.22-.08.57-.25.78-.39.21-.13.4-.24.44-.24.03 0 .2.29.37.66.17.36.44.97.6 1.34.17.37.35.9.4 1.16s.07.59.03.72c-.03.13-.18.38-.34.55s-.52.48-.8.68-.59.47-.7.59c-.1.12-.18.28-.18.36s.25 1.33.56 2.78.67 3.16.8 3.8.26 1.22.28 1.3.06.14.09.14c.04 0 .13-.62.21-1.38s.2-1.87.26-2.46c.07-.59.17-1.39.23-1.76.07-.37.17-.87.24-1.1s.16-.42.2-.42.17.19.27.42c.11.23.25.67.32.98.06.31.18 1.1.25 1.76s.18 1.7.25 2.32.21 1.43.32 1.8.28.88.37 1.12c.1.24.21.42.26.4.04-.02.07-.2.06-.4s-.06-.92-.2-2.84l.25-.32c.13-.18.3-.42.36-.54.11-.19.11-.25 0-.44-.06-.12-.22-.36-.6-.86l.06-.93c.04-.52.09-.97.12-1 .04-.04.18-.02.32.05s.33.23.43.36.27.44.38.68.37 1.02.57 1.72c.21.7.64 2.34.97 3.64.32 1.3.59 2.45.59 2.56s-.08.29-.18.4c-.1.1-.44.31-.76.46-.32.14-.63.34-.7.44s-.12.36-.12.62c0 .33.04.5.18.7.1.14.31.41.77.94l-1.12 4.44c-.62 2.44-1.15 4.47-1.18 4.51-.02.03-.31-.16-.62-.42-.55-.46-.61-.55-1.03-1.43-.24-.52-.48-1.1-.53-1.3-.04-.2-.06-.59-.04-.88s.17-.91.33-1.38c.28-.84.29-.88.28-2.04-.01-.65-.03-1.71-.11-3.55l-.44.58c-.24.32-.47.63-.5.69-.03.05-.11.52-.18 1.04s-.14.95-.16.96-.32-.33-.67-.76c-.44-.54-.67-.88-.72-1.12-.08-.32-.1-.34-.34-.32-.25.02-.27.04-.33.42-.03.22-.22 1.26-.41 2.32-.2 1.06-.39 2.21-.44 2.56s-.1 1.18-.13 1.84c-.03.97-.08 1.35-.25 1.98-.12.43-.24.78-.26.78s-.34-.77-.72-1.72c-.37-.94-.7-1.72-.74-1.72-.03 0-.05.4-.05 1.8l-.42.33c-.23.18-.66.45-.94.61-.29.15-.98.46-2.56 1.06l-.11.36c-.07.2-.16.56-.2.8s-.14.93-.2 1.52c-.07.59-.2 1.37-.29 1.72s-.31.98-.49 1.4c-.17.42-.49 1.11-.71 1.54-.21.43-.5 1.11-.64 1.52-.21.62-.26.89-.29 1.7-.02.68 0 1.13.09 1.52.06.31.19.76.28 1s.45.89.79 1.44.7 1.24.79 1.52c.1.29.2.79.23 1.12.04.37.02.82-.04 1.16-.05.31-.29 1.17-.54 1.92-.24.75-.45 1.4-.46 1.44s-.21.19-.45.33c-.23.14-.56.39-.71.56-.2.21-.31.42-.34.65-.05.27-.09.34-.22.34-.1 0-.23-.12-.37-.34-.12-.19-.33-.66-.47-1.06s-.39-1.3-.55-2-.42-1.8-.84-3.6l-.2-8.07-.96-.7c-.52-.39-.98-.68-1.02-.65-.03.03.03 1 .15 2.14.11 1.14.29 2.75.4 3.56s.32 2.25.48 3.2c.15.95.29 1.8.31 1.9s.01.18-.04.18c-.04 0-.42-.68-.84-1.52-.41-.84-1.02-2.1-1.34-2.82s-.85-1.97-1.17-2.78-.62-1.52-.65-1.56c-.04-.05-.07.01-.07.14 0 .12.14 1.6.32 3.28.17 1.68.34 3.33.37 3.66.05.58.08.63.65 1.48.33.48.8 1.13 1.05 1.44s.85.97 2.2 2.37l-.55 1.5c-.3.82-.62 1.63-.72 1.81-.09.17-.29.4-.45.5-.15.1-.4.21-.55.23-.16.03-.42.01-.58-.04-.17-.05-.51-.28-.76-.52-.25-.23-1.04-1.07-1.74-1.86-.71-.79-1.89-2.1-3.95-4.43l.09-1.02c.04-.56.15-1.59.24-2.28.08-.69.15-1.3.15-1.36s-.15-.13-.34-.16c-.18-.03-.43-.12-.54-.2-.1-.09-.28-.28-.38-.43s-.24-.54-.32-.87c-.1-.45-.13-.93-.13-1.92.01-.88.07-1.76.19-2.64.1-.73.18-1.66.21-2.84l-.62-1.24c-.33-.68-.81-1.56-1.06-1.96s-.58-.87-.72-1.06c-.19-.24-.34-.34-.48-.34-.11 0-.2.01-.2.02s.08.69.17 1.5c.12 1.1.17 1.98.17 3.44 0 1.28-.04 2.03-.09 2.16-.05.11-.15.29-.21.4-.09.14-.11.35-.09.72.03.45.13.73.72 2.04.69 1.51.7 1.52.64 2-.03.26-.13.84-.23 1.28s-.25.96-.34 1.16-.25.46-.37.58c-.11.12-.27.22-.35.22-.07 0-.21-.08-.31-.18-.09-.1-.28-.38-.41-.62a2.5 2.5 0 0 1-.29-.88c-.04-.4-.09-.49-.51-.96-.27-.29-.69-.65-.98-.82-.28-.17-.55-.3-.61-.3-.07 0-.08.1-.04.38.04.32.32.78 1.77 2.97 1.65 2.47 1.73 2.58 1.95 2.56.22-.03.26-.1.88-1.7.54-1.38.67-1.65.75-1.56.09.09.08.53-.06 2.41-.15 2.14-.15 2.32-.03 2.56.07.14.24.42.37.62.14.2.41.55.61.79s.65.68 1 .99c.35.3.92.74 1.26.97.34.22.61.46.62.51 0 .06-.01.1-.02.1s-.79-.27-1.74-.61c-.94-.33-1.96-.69-2.27-.8-.42-.14-.94-.46-2.12-1.27-.85-.6-1.87-1.3-2.95-2l-.12-.56c-.06-.31-.15-.75-.19-.98-.05-.23-.32-.93-.61-1.56s-.72-1.52-.97-1.98c-.24-.46-.63-1.13-.86-1.48s-.7-.94-1.05-1.31c-.34-.37-.88-.88-1.19-1.12-.3-.25-.86-.63-1.23-.85s-.82-.54-1-.72-.46-.55-.62-.84a8 8 0 0 1-.41-.9c-.07-.21-.17-.84-.21-1.4-.07-.83-.13-1.11-.31-1.5q-.21-.48-.63-.84c-.22-.2-.89-.64-1.47-.98-.58-.33-1.07-.6-1.08-.6-.01.01.02.38.06.82.05.44.13 1.03.17 1.32s.18.74.3 1 .42.77.67 1.12c.24.35.53.83.65 1.06.11.23.28.68.37 1s.2.81.24 1.1c.06.39.05.85-.04 1.84-.07.73-.15 1.68-.18 2.12-.06.78-.07.8-.46.8l-.2-3.12-.26-.27c-.14-.14-.64-.49-1.1-.77s-.93-.61-1.05-.73c-.11-.13-.25-.32-.31-.43s-.1-.45-.1-.76.05-.72.1-.92c.06-.2.22-.67.37-1.06.18-.47.25-.76.22-.88-.03-.1-.29-.43-.56-.74-.28-.31-.61-.72-.72-.92-.17-.3-.22-.51-.27-1.2-.04-.46-.09-.95-.12-1.08s-.12-.38-.21-.56-.21-.37-.26-.44c-.06-.07-.13-.28-.16-.48-.05-.34-.02-.41.37-1.06.24-.38.65-.99.91-1.36.48-.64.5-.69.82-1.94.17-.7.4-1.8.5-2.44.15-.91.19-1.49.19-2.72 0-.86-.02-1.69-.06-1.86-.03-.17-.09-.28-.14-.26-.04.02-.22.28-.39.58-.18.3-.55 1.1-.83 1.78s-.61 1.44-.73 1.68c-.13.24-.31.57-.41.72-.15.24-.17.39-.17.96 0 .49-.05.82-.17 1.18-.09.28-.38.92-.64 1.44s-.74 1.41-1.06 1.98c-.33.57-.76 1.29-.96 1.6-.29.44-.47.63-.91.92-.3.19-.57.37-.59.38-.02.02-.03.27-.02.57.02.29-.01.73-.06.97s-.17.62-.27.84-.36.57-.57.79c-.22.21-.64.5-.96.65-.3.15-.84.34-1.19.44-.35.09-.95.2-2 .33l-.06.38c-.03.2-.06.64-.06.97q0 .6-.12.78c-.06.1-.23.22-.38.26-.19.07-.38.06-.77-.04-.29-.07-.72-.24-.96-.37-.24-.14-.84-.55-1.34-.92-.49-.37-.92-.67-.96-.67-.03 0-.12.13-.2.3a3.2 3.2 0 0 0-.22.7c-.04.27-.03.57.04.92.06.29.22.75.36 1.04.15.29.49.85.77 1.26.43.62.5.76.41.86-.08.1-.29.13-1.1.12-.54 0-1.32-.05-1.71-.12-.4-.06-1.11-.21-1.6-.32-.48-.12-1.25-.32-1.71-.45s-1.34-.44-1.96-.68c-.61-.25-1.56-.68-2.11-.96-.55-.29-1.36-.76-1.8-1.05-.44-.3-1.03-.77-1.32-1.06-.32-.32-.62-.72-.78-1.04-.18-.37-.25-.63-.25-.9 0-.21.06-.51.14-.67.07-.17.27-.45.43-.62.15-.18.41-.59.57-.91s.38-.84.48-1.16c.11-.32.26-.96.34-1.42.1-.62.12-1.06.09-1.68-.03-.46-.13-1.15-.22-1.52-.1-.37-.3-.95-.45-1.28s-.48-.91-.72-1.28c-.28-.42-.85-1.07-1.48-1.7-1-1-1.02-1.02-1.38-1.02-.19 0-.51.04-.69.08-.19.05-.48.19-.64.32-.21.17-.35.38-.47.7-.13.35-.16.57-.12.94.02.26.15.82.28 1.24.12.42.41 1.27.64 1.9.22.63.41 1.27.41 1.42 0 .21-.05.3-.18.37-.12.06-.35.07-.62.03-.24-.03-.66-.11-.92-.17a8 8 0 0 1-1.12-.43c-.35-.17-.92-.5-1.27-.73-.35-.24-.82-.61-1.04-.83-.21-.22-.49-.62-.61-.88-.15-.32-.28-.83-.39-1.52-.16-.98-.19-1.05-.43-1.28-.15-.13-.41-.32-.58-.43-.17-.1-.43-.37-.59-.59-.15-.22-.36-.47-.47-.55s-.42-.22-.68-.32a5.6 5.6 0 0 0-1-.21c-.38-.03-.58-.01-.76.08-.13.06-.48.38-.77.71-.29.32-.75.91-1.03 1.31s-.89 1.33-1.35 2.06c-.46.74-.86 1.34-.9 1.34-.03 0-.06-.07-.06-.16s.12-.48.27-.86.39-.95.53-1.26.47-.94.74-1.4c.26-.46.73-1.21 1.03-1.66s.54-.84.54-.86-.18-.35-.41-.73-.47-.71-.52-.72c-.06-.02-.26.06-.46.17s-.69.53-1.09.94-1.15 1.26-1.66 1.9-1.16 1.49-1.44 1.9c-.29.4-.56.73-.62.74-.05 0-.1-.06-.1-.14s.17-.45.37-.82c.21-.37.55-.95.77-1.28s.63-.89.9-1.24c.28-.35.97-1.2 1.55-1.88.57-.68 1.04-1.29 1.04-1.36s-.08-.26-.18-.44c-.1-.17-.3-.38-.44-.46-.16-.09-.33-.12-.44-.09-.1.03-.54.33-.98.66-.43.34-1.24 1.06-1.79 1.61s-1.38 1.45-1.83 2c-.46.55-1.25 1.56-1.76 2.24s-1.17 1.59-1.46 2.02c-.3.43-.57.78-.62.78-.04 0-.07.03-.06.06 0 .03-.02.12-.04.2-.03.08-.09.12-.14.1-.04-.02.03-.25.17-.54.14-.28.49-.88.77-1.34.29-.46.79-1.22 1.12-1.68.34-.46 1.01-1.34 1.49-1.96.49-.62 1.17-1.44 1.51-1.84s1.21-1.31 1.93-2.04c.84-.86 1.35-1.43 1.43-1.64.08-.18.14-.5.14-.72.01-.22-.07-.81-.16-1.32-.1-.51-.26-1.46-.37-2.12s-.28-1.45-.37-1.76-.17-.56-.18-.57c-.01 0-.63-.16-1.37-.34-.75-.18-2.02-.47-2.83-.64-.82-.18-2.47-.5-3.68-.72-1.2-.22-3.01-.54-4.01-.7-.99-.17-1.81-.34-1.81-.37s.22-.06.5-.06c.27 0 1.18.04 2.01.08.84.05 2.18.14 3 .2.81.07 1.99.18 2.63.24a124 124 0 0 1 4.75.6c.26.04.5.05.53.02.02-.03.09-.25.14-.48.04-.23.08-.58.08-.78 0-.27-.04-.41-.17-.54-.1-.11-.74-.41-1.42-.68a38 38 0 0 0-2.16-.78 47 47 0 0 0-1.95-.56c-.57-.15-1.49-.36-2.04-.47-.54-.11-1.59-.3-2.31-.4-.72-.11-1.96-.26-2.75-.33s-1.59-.14-1.78-.16c-.18-.02-.34-.08-.34-.12s.21-.1.46-.13 1.36-.03 2.46-.01c1.15.03 2.41.1 2.99.18a40 40 0 0 1 4.43.88c.57.16 1.72.51 4.1 1.28l.22-.17c.15-.11.25-.28.3-.52.05-.23.04-.51-.02-.83-.06-.3-.18-.58-.31-.75-.13-.15-.33-.35-.45-.44-.19-.15-.32-.17-.88-.15-.36.01-1.33.08-2.17.14-.83.07-1.68.14-1.89.16-.3.03-.38.02-.38-.08 0-.07.12-.15.3-.2.16-.04.96-.25 1.77-.45.82-.21 1.52-.41 1.56-.45.05-.05.02-.11-.08-.18-.09-.07-.64-.21-1.24-.32-.59-.11-1.56-.25-2.15-.32a78 78 0 0 0-2.63-.2c-.86-.04-3.09-.09-4.97-.12-2.15-.02-3.43-.07-3.45-.12-.02-.04.04-.08.14-.08s.73-.05 1.41-.12 2.14-.16 3.24-.21c1.46-.06 2.86-.06 5.26.01 2.25.06 3.3.07 3.35.01.06-.06.05-.12-.01-.19-.05-.05-.48-.3-.95-.55-.48-.25-1.37-.67-1.99-.93-.61-.26-1.94-.78-2.95-1.16s-2.61-.96-3.55-1.3c-.95-.35-1.74-.66-1.77-.71s-.04-.12-.02-.15.35.03.73.13c.38.11 1.33.38 2.09.6.77.22 2.89.89 4.71 1.49s3.91 1.27 4.63 1.49c.73.22 2 .58 2.83.8.84.21 1.58.39 1.66.39s.21-.07.3-.16.16-.27.16-.4c0-.17-.1-.35-.34-.61-.19-.2-.64-.61-1.02-.91-.37-.29-1-.75-1.39-1.02-.4-.26-1.3-.83-2-1.26s-1.59-.97-1.97-1.21c-.39-.24-.7-.46-.7-.49s.21-.03.46 0c.25.04.78.15 1.17.27.4.11.97.31 1.28.45s.83.41 1.16.59.9.56 1.27.84c.38.27 1.08.89 2.44 2.22l1.15-.86c.64-.48 1.43-1.13 1.76-1.46.34-.32.73-.77.88-.99s.35-.6.45-.84.18-.53.18-.64c0-.14-.17-.36-.59-.76-.51-.49-.6-.62-.74-1.08-.09-.29-.21-.92-.26-1.4-.06-.56-.08-1.37-.05-2.2.04-1.1.08-1.48.28-2.24.13-.51.39-1.33.57-1.84s.55-1.35.81-1.88.59-1.13.75-1.34c.15-.21.31-.38.35-.38.05 0 .08.08.08.18s-.16.54-.35.98-.4.98-.47 1.2-.17.63-.22.92-.06.75-.04 1.04c.03.29.13.78.21 1.1.09.32.28.82.43 1.12s.43.76.64 1.02c.2.26.49.57.63.69.14.11.38.27.53.35s.42.19.6.24c.28.09.32.13.34.37.01.15-.03.45-.09.67-.07.22-.3.67-.53 1-.32.47-.4.65-.36.82.02.12.07.22.1.22.03.01.26-.27.5-.62.24-.34.64-.87.88-1.18.25-.31.64-.68.86-.82.41-.26.41-.26.45-1.17l.6-.1c.33-.05.73-.14.88-.2.15-.07.37-.24.49-.4.12-.15.25-.41.3-.59s.09-.48.08-1.04l.64-.42c.46-.3.75-.57 1.01-.92.21-.27.49-.75.64-1.06.14-.31.28-.72.31-.92s.04-.48.01-.62-.09-.26-.13-.26-.08.05-.08.1-.11.33-.25.62c-.13.29-.37.71-.53.95-.18.26-.48.56-.73.73-.25.16-.55.42-.67.57-.13.15-.29.4-.37.55-.1.19-.24.32-.47.42-.2.08-.53.14-.83.14-.27 0-.71-.06-.98-.12a5.6 5.6 0 0 1-.87-.34c-.21-.12-.51-.36-.65-.54a2.3 2.3 0 0 1-.37-.68c-.05-.2-.1-.58-.09-.84 0-.26.06-.66.13-.88.08-.22.25-.54.4-.71.14-.18.4-.38.58-.46.17-.08.47-.15.65-.15.19 0 .44.05.56.11s.32.22.44.34c.11.13.28.39.37.59s.17.48.17.62c0 .19.04.26.14.26.08 0 .34-.14.58-.31s.52-.42.62-.56c.12-.17.16-.31.13-.43-.03-.1-.13-.29-.22-.42s-.3-.4-.48-.6c-.17-.2-.47-.48-.68-.63-.36-.26-.39-.26-.97-.22-.33.02-.99.15-1.47.29-.49.14-1.1.28-1.36.3-.26.03-.54.02-.62-.01-.12-.04-.12-.08-.05-.23.06-.1.3-.4.56-.66.25-.26.5-.49.56-.49.06-.01.47-.11.91-.22.45-.12 1.01-.21 1.29-.21s.87.07 1.32.16 1.3.33 1.89.53c.6.2 1.41.53 1.8.73.4.2.87.47 1.07.61.19.14.39.38.46.53.06.15.19.57.27.92s.18.96.21 1.36c.05.69.04.74-.19 1.24-.13.29-.39.75-.58 1.04s-.67.84-1.07 1.24-.99.9-1.31 1.12c-.31.22-.55.43-.53.46s.16.06.31.06c.16 0 .45-.06.66-.14s.51-.24.66-.36.32-.22.36-.22c.05 0 .06.16.02.46-.04.25-.15.69-.25.98-.09.29-.33.75-.52 1.04s-.58.78-.86 1.1c-.36.41-.46.58-.37.58.08 0 .36-.09.62-.2.27-.11.62-.3.79-.42s.49-.51 1.13-1.49l.04-1.09c.03-.98.06-1.12.22-1.37.11-.15.44-.47.75-.71s1.16-.94 3.22-2.65l.48.06c.26.02.56.08.87.2l-.17.14c-.09.07-.54.42-.99.78-.46.36-.96.76-1.11.9s-.26.27-.24.3c.02.02.4-.1.84-.26s1.26-.54 1.83-.85 1.15-.62 1.28-.69.4-.14.6-.16c.22-.02.51.02.76.1.22.08.77.38 1.23.69.46.3 1 .61 1.2.68s.52.12.72.12c.22 0 .61-.11 1.04-.29.37-.15.99-.39 1.37-.52.39-.12 1-.26 1.36-.3s.68-.06.7-.04c.02.03-.21.28-.52.57-.31.28-.85.73-1.2.98s-.96.66-1.35.9c-.4.24-1.17.68-1.72.97s-1.16.58-1.36.65c-.19.07-1 .27-1.79.45s-1.74.43-2.12.56c-.37.13-1.21.51-1.87.83s-1.44.75-1.74.95c-.29.2-.55.33-.58.29-.02-.04.1-.31.26-.58.2-.34.72-.92 1.61-1.8.73-.72 1.5-1.44 1.72-1.62.22-.17.69-.45 1.04-.62s.88-.4 1.18-.51c.3-.1.54-.22.54-.25s-.1-.06-.22-.06-.49.07-.82.15-.87.26-1.2.4-.88.44-1.23.67-.91.67-1.23.98-.83.87-1.13 1.24c-.29.37-.83 1.13-1.19 1.68-.35.55-.65 1.02-.64 1.04 0 .02-.23.07-.5.1a7.2 7.2 0 0 0-2 .55c-.18.09-.48.28-.66.43-.17.14-.41.45-.53.69s-.25.57-.29.75c-.06.24-.2.42-.54.72-.26.22-.56.56-.69.76-.16.26-.22.46-.22.72 0 .25.08.49.46 1.16l-.35.48c-.2.26-.51.63-.69.82-.23.23-.31.37-.26.42.06.06.24.05.6-.04.29-.07.84-.28 1.24-.47.39-.19 1.24-.68 1.87-1.09.69-.45 1.52-.91 2.04-1.13.48-.2 1.68-.64 2.67-.98s2.5-.83 3.35-1.09a273 273 0 0 1 5.69-1.64c.13-.04.13-.06-.02-.36-.09-.18-.24-.36-.34-.42-.13-.07-.82-.1-2.61-.1-1.6 0-2.7.04-3.2.11-.41.06-1.17.19-1.67.3-.51.1-1.25.29-1.66.41-.4.12-.75.21-.76.2s0-.11.02-.23c.03-.12.17-.31.32-.43.16-.12.59-.41.96-.65.37-.23 1.15-.64 1.72-.91.57-.28 1.29-.58 1.59-.68.31-.1.83-.23 1.16-.29s.98-.11 1.44-.11c.59 0 1.13.06 1.83.2.56.11 1.26.2 1.6.2.43 0 .7-.05.96-.17.19-.09.47-.25.87-.55l.04-1.7.44-.11c.24-.07.59-.21.78-.31.2-.12.5-.42.74-.74.21-.3.72-1.19 1.12-1.98.41-.79.89-1.67 1.08-1.96.18-.29.51-.68.72-.88.21-.19.55-.42.75-.51.24-.1.45-.13.64-.1.15.03.44.16.64.29.23.15.46.24.65.24.17 0 .42-.05.56-.11s.6-.31 1.02-.56.94-.51 1.16-.58c.26-.09.56-.12.87-.1.32.03.61.11.86.26.21.11.38.26.38.33 0 .08-.05.1-.14.07-.08-.03-.29-.1-.82-.27l-.42.37c-.23.21-.67.5-.97.64-.54.26-.56.28-.62.61-.02.19-.05.54-.06.78 0 .38.03.49.26.8.15.2.5.56.78.8.28.25.6.48.71.51.15.05.26.02.4-.09.11-.09.29-.28.39-.43s.24-.47.31-.71c.07-.27.11-.59.08-.84-.02-.22-.06-.45-.07-.52-.02-.1.1-.12.79-.12.57 0 .84.03.88.1.03.05.97.51 2.09 1.03 1.68.76 2.08.92 2.28.87.13-.02.47-.14.75-.26.29-.11.72-.34.96-.5s.62-.47.84-.69.53-.59.69-.83.36-.62.45-.84.18-.52.21-.66c.04-.24 0-.31-.55-.9-.4-.43-.62-.73-.65-.9s0-.35.08-.52.25-.31.47-.41c.18-.09.53-.19.76-.22.25-.04.43-.12.46-.19.02-.07-.3-.68-.71-1.36-.42-.68-.93-1.6-1.15-2.04s-.47-1.02-.57-1.3c-.09-.28-.19-.65-.28-1.18l.52.06c.28.03 1.01.11 1.63.18.61.07 1.73.15 3.87.24v.24c0 .13-.06.56-.12.96-.07.4-.21 1.13-.32 1.62s-.2 1.06-.2 1.26.1.67.23 1.06.28.82.34.96c.06.16.15.26.23.24.08-.01.13-.18.18-.52.03-.28.11-.62.19-.76.07-.14.35-.58.62-.98.28-.4.73-1.01 1.01-1.36.28-.36.89-1.09 1.35-1.63s.91-1 1-1.02c.08-.02.33 0 .55.06.24.07.44.19.53.31.08.11.32.79.94 2.84l-.05 1.2c-.03.83-.02 1.26.05 1.38.05.1.16.18.25.18s.71-.16 1.38-.35c1.13-.33 1.3-.36 2.49-.4.7-.03 1.51-.09 1.8-.13.28-.04.55-.12.59-.16.06-.06.05-.13 0-.22-.05-.08-.27-.19-.48-.24-.23-.06-1.19-.13-4.13-.22l-.14-.36c-.08-.2-.32-.85-.54-1.44s-.66-1.78-.97-2.64-.7-1.9-1.13-3.08l.27-.27c.14-.14.43-.35.64-.46.21-.1.57-.23.8-.27.3-.06.56-.06.94 0 .28.05.68.15.87.21.2.07 1.03.43 1.84.81s1.74.86 2.07 1.08c.36.23.65.37.72.34s.37-.22.68-.43c.3-.2.83-.63 1.17-.95.35-.32.63-.62.63-.68 0-.05-.21-.27-.92-.87l-1 .01c-.7 0-1.03-.03-1.1-.1-.05-.05-.1-.24-.1-.42s.06-.81.14-1.4c.1-.88.11-1.19.04-1.68-.07-.45-.16-.72-.39-1.08-.16-.26-.53-.79-.81-1.16-.29-.37-.94-1.1-1.45-1.6-.5-.51-1.33-1.27-1.84-1.68-.5-.41-1.26-.99-1.69-1.29s-.78-.59-.77-.64c0-.04.06-.06.14-.04m-6.17 1.81c.13 0 1.19.16 2.35.36l2.33.4c.22.04.22.05.22 1.24h3.04l.33.23c.19.12.48.38.64.58.16.19.35.48.41.63.07.15.21.78.33 1.4s.26 1.28.31 1.48c.06.2.17.48.24.62s.33.43.57.64.44.42.44.46c0 .05-.15.06-.42.02-.23-.03-1.28-.29-2.34-.58-1.05-.29-2.01-.52-2.13-.52s-.22.04-.22.1.23.32.52.6c.36.35.5.53.45.6-.04.06-.28.2-.54.32s-.72.27-1.03.34c-.31.06-.7.12-.88.12-.17 0-.39-.02-.47-.04-.12-.04-.34-.44-.83-1.58-.55-1.27-.66-1.58-.61-1.78.03-.13.17-.34.31-.47.13-.13.57-.42.97-.65.39-.24.78-.48.87-.53.14-.11.14-.12 0-.42-.09-.18-.25-.39-.36-.47s-.59-.26-1.07-.41c-.49-.15-1.53-.48-2.32-.73s-1.91-.61-2.49-.79-1.05-.37-1.03-.41c.01-.04.51-.23 1.1-.42.58-.18 1.17-.33 1.31-.34m-11.5 1.2c.05 0 .18.13.29.3.12.16.28.5.37.74s.18.56.21.7c.05.23.02.3-.33.62-.2.2-.57.47-.81.59-.25.13-.7.29-1.02.36s-.7.13-.84.13c-.19 0-.42.13-1.5.96l-2.51.37-1.91 1.07a77 77 0 0 1-3.04 1.61c-.61.29-1.27.57-1.45.62-.19.05-.51.07-1.1 0l-.26.5c-.14.28-.41.69-.59.9-.19.22-.51.5-.71.64-.19.13-.61.33-.91.43-.31.11-.91.25-1.34.33-.52.09-.8.1-.86.05-.04-.04-.14-.31-.23-.6-.08-.29-.2-.93-.27-1.44s-.14-1.15-.15-1.42c-.03-.49-.02-.51.25-.7.16-.11.44-.26.64-.33.24-.09.81-.15 1.76-.19 1.2-.05 1.49-.09 2.07-.28.37-.12.98-.36 1.36-.53.58-.28.72-.38 1-.77.17-.24.46-.56.63-.71.18-.14.54-.36.8-.47.26-.12 1.47-.47 2.67-.77 1.27-.32 2.4-.65 2.68-.79.26-.13.68-.41.94-.64.44-.39.46-.4.75-.32.17.04.48.08.7.08s.63-.07.92-.16c.28-.08.79-.32 1.12-.51.33-.2.63-.37.67-.37" class="shp1"></path><path d="M102.33 48.37c.01.08.74 1.28 1.6 2.67.87 1.39 2.24 3.56 3.04 4.84l1.46 2.32c2.55 1.95 3.33 2.52 3.39 2.52.07 0 .08-.08.04-.32-.04-.21-.03-.39.04-.52.05-.11.2-.25.34-.3.13-.05.39-.09.57-.08.19.01.68.16 1.08.34.41.17.94.36 1.18.41.37.08.54.07 1.04-.04.36-.08.83-.27 1.2-.47.33-.19 1.06-.61 1.61-.94.56-.33 1.01-.64 1.01-.7.01-.05-.04-.09-.09-.07-.06.02-.41.1-.78.18-.52.11-1 .15-2.04.15-1.15 0-1.45-.03-2.03-.18-.37-.1-1.02-.35-1.44-.55-.41-.2-1.02-.55-1.35-.78-.33-.22-.95-.75-1.39-1.17-.43-.42-1.08-1.12-1.43-1.56-.36-.44-.9-1.19-1.21-1.67l-.56-.87-1.72-.86-.68-1.35c-2.04-.81-2.69-1.07-2.77-1.1-.11-.04-.13-.02-.11.1" class="shp3"></path><path d="M61.56 49.08c-.39.1-1.41.42-2.27.72-.86.29-2.15.71-2.87.93-.73.22-1.53.51-1.8.64-.26.13-.65.37-.85.53-.21.17-.6.5-.88.75-.46.41-.61.48-1.73.88-1.05.37-1.24.46-1.3.63-.04.11-.16.43-.27.72-.19.49-.24.54-.82.93-.33.23-.79.59-1.02.8-.22.22-.49.55-.59.75s-.2.54-.22.76c-.03.33.03.59.33 1.44.19.57.4 1.15.44 1.28l.09.24c1.78-.25 2.32-.34 2.35-.36s-.09-.5-.27-1.06c-.28-.89-.36-1.05-.6-1.24-.16-.12-.29-.26-.29-.3s.16-.43.36-.86c.34-.72.38-.78.62-.82.15-.02.42-.05.62-.08.25-.03.53-.16.9-.42.32-.23.59-.49.68-.66.12-.24.18-.28.44-.3.28-.02.31 0 .48.34l.18.36c.74 0 1.25.03 1.6.06l.65.06c.06-2.09.09-2.29.24-2.58.1-.19.33-.51.52-.71.18-.21.59-.55.9-.76.3-.22.73-.46.95-.55.22-.08.83-.2 1.36-.28.53-.07 1.44-.27 2.03-.45.6-.17 1.76-.45 2.6-.63.83-.18 1.64-.35 1.79-.39.16-.05.34-.14.4-.21.07-.07.1-.14.08-.15-.02-.02-.81-.07-1.75-.12-.95-.05-1.86-.09-2.04-.09-.17.01-.64.09-1.04.2m12.37 3.5c-1.67.79-4.03 1.91-5.25 2.49-1.23.58-2.22 1.09-2.21 1.13 0 .04.07.08.14.07.08 0 .66-.07 1.3-.15.8-.1 1.43-.12 2.07-.09.51.02 1.22.12 1.6.21.37.09.95.29 1.28.45l.59.27c4.81 0 4.97.01 5.21.16.14.09.33.28.42.42s.21.51.28.82.15.96.18 1.44c.04.83.06.89.27 1.1.13.12.3.22.39.22.08 0 .25-.04.36-.1.15-.07.2-.16.2-.34 0-.13-.09-.92-.2-1.76s-.27-1.72-.36-1.96-.16-.54-.16-.66.03-.24.08-.26c.04-.02.3.2.58.49.27.29.72.67.99.84.28.17.65.35.84.39s.57.08.86.08c.34 0 .63-.06.84-.15a2 2 0 0 0 .52-.36c.11-.11.18-.22.16-.24-.03-.02-.83-.57-1.8-1.23-.97-.65-1.99-1.32-2.27-1.48-.29-.16-.9-.45-1.36-.64-.64-.28-.98-.37-1.44-.41-.55-.05-.62-.07-.86-.33-.15-.17-.26-.37-.26-.5-.01-.12 0-.36.01-.54s.05-.42.08-.54c.04-.12.05-.23.01-.25-.04-.01-1.43.62-3.09 1.41" class="shp1"></path><path d="M130.15 52.77c-.24.06-.69.23-1 .36-.3.13-.77.37-1.03.53-.27.16-.79.49-1.16.74s-1.06.76-1.52 1.13c-.46.36-1.42 1.24-2.14 1.95-.72.7-1.64 1.66-2.04 2.12-.41.46-1.07 1.25-1.48 1.76-.4.51-.81 1.08-.9 1.28s-.18.59-.2.88c-.03.36-.01.6.07.79.06.15.19.3.29.34s.33.07.52.07c.18 0 .57-.06.86-.13.28-.06.68-.21.87-.33.2-.12.86-.7 1.48-1.3.61-.6 1.31-1.22 1.56-1.39.3-.2.59-.32.95-.38.29-.05 1.02-.09 1.64-.1.86-.01 1.22.02 1.57.13.26.08.55.22.66.32l.2.18c-2.75 2.06-4.19 3.12-4.97 3.69-.79.57-1.66 1.22-1.94 1.45l-.51.42c.07.59.15 1.07.21 1.44s.17.88.24 1.12.14.53.15.64c.02.11.03.2.04.2s.03.05.04.12c.02.07.15.45.3.86.25.72.27.75 1.39 1.96.62.67 1.25 1.28 1.39 1.35.15.07.56.25.91.39l.64.25c.93-.2 1.45-.38 1.75-.52.31-.15.85-.49 1.2-.75s.89-.74 1.19-1.07c.3-.32.71-.81.92-1.07.2-.26.58-.84.84-1.28.27-.44.64-1.2.83-1.68.2-.48.49-1.42.65-2.08s.37-1.72.46-2.36c.1-.64.21-1.72.26-2.4.06-.72.08-1.95.05-2.92-.03-1.23-.08-1.88-.2-2.44-.09-.42-.25-1.03-.37-1.36s-.33-.8-.47-1.04-.45-.65-.69-.91c-.3-.32-.62-.56-1.03-.76-.54-.26-.67-.29-1.32-.31-.46-.01-.88.03-1.16.11" class="shp0"></path><path d="M112.02 53.03c.01.03.06.09.11.14.06.05.45.22.86.37.42.16 1.01.36 1.32.45s.86.23 1.24.32c.37.09 1.1.22 1.61.29.52.06 1.34.12 1.84.12.49 0 1.08-.03 1.31-.06.22-.03.39-.1.38-.14-.02-.04-.2-.16-.41-.26-.22-.1-.89-.27-1.54-.38-.64-.11-1.7-.29-2.35-.4-.66-.1-1.7-.25-2.32-.31-.61-.07-1.33-.14-1.59-.16-.25-.01-.46-.01-.46.02" class="shp3"></path><path d="M54.02 57.21c-.41.04-1.02.14-1.35.22s-.87.26-1.2.4c-.33.13-.66.29-.74.35-.13.09-.13.2-.07 1.46.07 1.16.11 1.45.3 1.96.12.33.29.73.39.88s.29.39.43.52.26.22.27.2c.02-.02.33-.58.69-1.24.37-.66.68-1.22.7-1.24s.12.07.23.2c.1.13.3.46.43.72.14.26.33.73.43 1.04.11.31.22.57.26.58s.12-.08.18-.2.12-.33.13-.46c.02-.13.05-.73.08-1.32.02-.59.07-1.28.1-1.52.04-.33.11-.5.27-.68.22-.23.23-.28.25-1.1l.02-.86c-.8.02-1.38.05-1.8.09m8.74.15c-.31.13-1.1.44-1.75.69-.66.25-1.6.63-2.08.86s-1.19.62-1.58.87c-.55.37-.72.53-.85.8-.09.19-.16.46-.16.6s.05.38.1.52c.06.14.17.31.24.36.11.08.24.06.73-.1.33-.11.88-.34 1.22-.51s.94-.53 1.34-.79c.39-.26.99-.7 1.31-.97.46-.38.64-.48.76-.44.09.03.19.09.22.14.04.05.46.78.94 1.63s.89 1.54.9 1.54.41-.23.9-.52c.48-.29 1.3-.7 1.83-.93.53-.22 1.23-.49 1.56-.6.57-.19.63-.2 1.55-.12.53.05 1.46.18 2.08.29.61.12 2.23.45 3.59.75s2.48.53 2.49.52c.01-.02-.05-.15-.13-.29s-.42-.52-.76-.84c-.33-.32-.85-.74-1.14-.93-.3-.19-.85-.5-1.22-.69s-1.07-.49-1.56-.68c-.48-.19-1.09-.4-1.35-.48-.27-.08-.8-.22-1.2-.32l-.72-.18c-4.91 1.07-5.97 1.27-6.02 1.22-.03-.04-.17-.43-.29-.86-.13-.43-.27-.78-.31-.78s-.33.11-.64.24m-2.03 4.63c-.33.13-1.04.45-1.58.72-.91.45-1.02.49-1.52.49-.29 0-.84.03-1.21.06l-.67.06c-.35.77-.45 1.18-.49 1.52-.03.31-.08.65-.12.76s-.25.33-.45.48c-.21.15-.48.34-.6.42-.13.08-.29.28-.38.44-.08.17-.76.89-1.5 1.62s-1.34 1.36-1.32 1.42c.01.06.1.08.2.06s.95-.22 1.9-.44c1.03-.24 1.9-.49 2.19-.64.26-.12.64-.37.84-.54s.44-.47.54-.67c.15-.3.17-.48.18-1.29 0-.66.03-1.02.12-1.22.09-.21.22-.33.53-.47.24-.11 1.05-.38 1.82-.61s1.54-.49 1.71-.59c.18-.09.4-.3.5-.45.13-.19.19-.39.19-.64-.01-.2-.03-.44-.05-.54s-.08-.18-.14-.18c-.05.01-.36.11-.69.23m6.4.62c-.23.06-.55.18-.72.26-.16.08-.58.36-.94.61-.35.25-.77.53-.93.61-.24.12-.48.15-1.16.15-.49 0-1.08.06-1.38.13-.28.06-.73.23-.99.37-.31.18-.71.52-1.22 1.06-.42.44-.97 1.12-1.24 1.52-.26.4-.57.92-.7 1.16-.12.24-.31.7-.43 1.02-.19.54-.19.58-.07.63.09.03.42-.09.86-.31.4-.2 1.04-.59 1.44-.85.39-.26.96-.68 1.26-.93.38-.31.63-.6.85-1 .18-.31.43-.63.56-.72.14-.09.37-.16.54-.16s.53.07.82.16c.28.09.62.16.74.16s.35-.05.52-.12c.22-.09.4-.26.69-.7.22-.32.66-.88.97-1.26.32-.37.83-.93 1.14-1.24s.54-.59.52-.62-.19-.06-.37-.05c-.19 0-.53.05-.76.12m5.37.48c-.44.06-1.07.17-1.4.26-.33.08-.81.26-1.08.39-.26.13-.63.41-.82.61-.19.21-.36.48-.38.63a.8.8 0 0 0 .07.5c.06.13.3.45.52.7l.41.46c1.15-.55 1.86-.84 2.32-.99.46-.16 1.16-.34 1.55-.41.4-.07 1-.12 1.34-.12s.81.04 1.04.09.54.15.7.23c.15.08.45.33.66.57.22.24.54.68.72.99s.55 1.06.82 1.68c.34.78.55 1.15.68 1.22.12.07.34.09.63.06.24-.03.6-.12.79-.21.2-.09.51-.28.68-.42.18-.14.4-.38.5-.52l.18-.25c-.63-1.64-1.02-2.55-1.28-3.08s-.61-1.18-.78-1.44l-.3-.48c-2.47-.34-3.51-.48-3.9-.52-.4-.04-1.21-.08-1.8-.07-.59 0-1.43.06-1.87.12" class="shp1"></path><path d="m108.47 64.09-.5.51c-1.64.09-2.23.15-2.36.19-.13.03-.23.09-.22.14.01.04.3.13.66.21.57.12.64.16.64.32 0 .1-.2.59-.45 1.1-.24.51-.53 1.14-.63 1.4-.16.41-.19.74-.27 2.24-.07 1.51-.07 1.82.03 2.16.07.22.1.43.06.46-.03.03-.54-.41-1.13-.97l-1.08-1.02c-1.98-.78-2.84-1.16-3.19-1.35s-.88-.43-1.16-.53c-.47-.16-.65-.18-1.9-.16-.82 0-1.44.05-1.55.1-.17.08-.14.11.42.37.33.15 1.46.63 2.51 1.06s2.28.95 2.71 1.16c.44.22 1.61.93 2.6 1.59.99.67 1.86 1.25 1.94 1.29.12.07.12.15.04.8-.05.4-.08.77-.05.84.02.07.4.34.84.6.75.45.84.53 1.43 1.32.34.46.91 1.2 1.26 1.64s1.2 1.47 1.91 2.28c.7.81 1.34 1.55 1.41 1.64.13.15.14.27.06 1.48-.04.73-.13 1.57-.19 1.88-.07.31-.13.58-.15.6s-.23-.11-.46-.3-.78-.6-1.22-.92-1.19-.81-1.67-1.08c-.49-.28-1.15-.59-1.48-.7-.38-.13-.78-.2-1.1-.2-.28 0-.6.05-.74.12-.13.07-.29.22-.35.34s-.13.35-.16.5-.02.44.02.64.16.67.26 1.05c.19.68.19.7.05 1.08-.07.22-.14.53-.14.69 0 .17.08.53.16.8.09.27.16.63.16.78s-.07.41-.17.56c-.09.15-.31.46-.5.67-.18.22-.42.44-.54.5s-.34.11-.48.11c-.15 0-.41-.09-.62-.23-.2-.12-.7-.59-1.12-1.02-.42-.44-.89-.96-1.06-1.17-.16-.21-.39-.44-.5-.52-.19-.14-.2-.13-.4.06-.11.11-.29.38-.4.6-.19.39-.2.41-.07.72.07.18.21.41.3.51.1.11.46.38.81.61.51.32.83.63 1.52 1.43.48.57 1.08 1.18 1.32 1.36.24.19.58.38.76.44.3.1.34.09.79-.14.27-.13.67-.43.9-.67l.42-.42c.65-6.1.86-7.9.9-7.93.03-.04 1.35.79 2.94 1.85 1.58 1.06 2.9 1.97 2.91 2.02.02.06-.17.49-.41.96-.25.47-.65 1.17-.89 1.54s-.69.99-.98 1.36c-.3.37-.9 1.02-1.33 1.44s-1 .93-1.26 1.13c-.27.2-.77.56-1.12.78-.35.23-1.01.61-1.46.84-.45.22-.83.46-.86.53-.02.07.04.2.14.29s1.14.63 2.3 1.18c1.16.56 2.15 1.05 2.19 1.1.06.05.03.12-.08.22-.11.11-.91.29-2.95.69-1.54.29-2.81.55-2.83.57s-.01.06.03.09c.03.03 1.02.25 2.19.48s2.13.43 2.13.44.14.72.31 1.58.58 2.68.93 4.04c.34 1.36.77 2.97.95 3.56s.43 1.41.56 1.82c.15.47.27.73.34.71.05-.01.09-.11.08-.22-.01-.1-.31-2.51-.66-5.35l-.65-5.16c1.06-1.43 1.51-2.11 1.68-2.44.18-.33.37-.84.44-1.14.09-.38.1-.59.05-.7-.05-.09-.92-.62-1.98-1.21-1.04-.58-1.94-1.09-2-1.14-.08-.07-.02-.14.28-.32.27-.17.5-.24.78-.25.22 0 .92-.09 1.56-.19.84-.14 1.35-.17 1.88-.15.39.03.87.1 1.05.17.31.12.34.15.34.41 0 .15.03.29.07.3s.76.6 1.61 1.3l1.53 1.28c-.07.56-.84 2.67-1.75 5.06-1.02 2.66-1.62 4.34-1.56 4.34s.51-.37 1-.83c.49-.45 1.58-1.53 2.41-2.38.84-.86 1.73-1.79 1.98-2.07l.46-.52c-.44-3.6-.68-5.56-.82-6.68s-.29-2.07-.34-2.1c-.04-.03-.24-.04-.44-.02-.2.03-1.81.19-3.59.36s-3.38.33-3.57.34c-.18.01-.37-.02-.41-.06-.05-.05.68-.7 2.15-1.88 2.12-1.71 2.23-1.81 2.2-2.04-.02-.13-.09-.6-.17-1.04-.09-.54-.12-1.03-.1-1.52.03-.4.1-.88.17-1.08s.25-.51.41-.7c.15-.19.3-.34.34-.34.03-.01.23.22.43.5.21.27.53.6.72.72s.49.24.66.27c.18.03.5.02.72-.01s.58-.12.8-.21c.22-.08.57-.25.78-.39.21-.13.4-.24.44-.24.03 0 .2.29.37.66.17.36.44.97.6 1.34.17.37.35.9.4 1.16s.07.59.03.72c-.03.13-.18.38-.34.55s-.52.48-.8.68-.59.47-.7.59c-.1.12-.18.28-.18.36s.25 1.33.56 2.78.67 3.16.8 3.8.26 1.22.28 1.3.06.14.09.14c.04 0 .13-.62.21-1.38s.2-1.87.26-2.46c.07-.59.17-1.39.23-1.76.07-.37.17-.87.24-1.1s.16-.42.2-.42.17.19.27.42c.11.23.25.67.32.98.06.31.18 1.1.25 1.76s.18 1.7.25 2.32.21 1.43.32 1.8.28.88.37 1.12c.1.24.21.43.26.42.04-.02.07-.2.06-.4-.01-.21-.06-.94-.11-1.62l-.09-1.24c.38-.5.55-.74.61-.86.11-.19.11-.25 0-.44-.06-.12-.22-.36-.36-.54l-.24-.32c.1-1.45.15-1.9.18-1.93.04-.04.18-.02.32.05s.33.23.43.36.27.44.38.68.37 1.02.57 1.72c.21.7.64 2.34.97 3.64.32 1.3.59 2.45.59 2.56s-.08.29-.18.4c-.1.1-.44.31-.76.46-.32.14-.63.34-.7.44s-.12.36-.12.62c0 .33.04.5.18.7.1.14.31.41.48.6l.29.34c-1.74 6.88-2.27 8.91-2.3 8.95-.02.03-.31-.16-.62-.42-.55-.46-.61-.55-1.03-1.43-.24-.52-.48-1.1-.53-1.3-.04-.2-.06-.59-.04-.88s.17-.91.33-1.38c.28-.84.29-.88.28-2.04-.01-.65-.03-1.71-.06-2.36l-.05-1.19c-.68.9-.91 1.21-.94 1.27-.03.05-.11.52-.18 1.04s-.14.95-.16.96-.32-.33-.67-.76c-.44-.54-.67-.88-.72-1.12-.08-.32-.1-.34-.34-.32-.25.02-.27.04-.33.42-.03.22-.22 1.26-.41 2.32-.2 1.06-.39 2.21-.44 2.56s-.1 1.18-.13 1.84c-.03.97-.08 1.35-.25 1.98-.12.43-.24.78-.26.78s-.34-.77-.72-1.72c-.37-.94-.7-1.72-.74-1.72-.03 0-.05.4-.05.9v.9c-.65.51-1.08.78-1.36.94-.29.15-.98.46-1.54.67l-1.02.39c-.18.56-.27.92-.31 1.16s-.14.93-.2 1.52c-.07.59-.2 1.37-.29 1.72s-.31.98-.49 1.4c-.17.42-.49 1.11-.71 1.54-.21.43-.5 1.11-.64 1.52-.21.62-.26.89-.29 1.7-.02.68 0 1.13.09 1.52.06.31.19.76.28 1s.45.89.79 1.44.7 1.24.79 1.52c.1.29.2.79.23 1.12.04.37.02.82-.04 1.16-.05.31-.29 1.17-.54 1.92-.24.75-.45 1.4-.46 1.44s-.21.19-.45.33c-.23.14-.56.39-.71.56-.2.21-.31.42-.34.65-.05.27-.09.34-.22.34-.1 0-.23-.12-.37-.34-.12-.19-.33-.66-.47-1.06s-.39-1.3-.55-2-.42-1.8-.57-2.44l-.27-1.16-.2-8.07c-1.48-1.09-1.94-1.38-1.98-1.35-.03.03.03 1 .15 2.14.11 1.14.29 2.75.4 3.56s.32 2.25.48 3.2c.15.95.29 1.8.31 1.9s.01.18-.04.18c-.04 0-.42-.68-.84-1.52-.41-.84-1.02-2.1-1.34-2.82s-.85-1.97-1.17-2.78-.62-1.52-.65-1.56c-.04-.05-.07.01-.07.14 0 .12.14 1.6.32 3.28.17 1.68.34 3.33.37 3.66.05.58.08.63.65 1.48.33.48.8 1.13 1.05 1.44s.85.97 1.33 1.47l.87.9c-.85 2.32-1.17 3.13-1.27 3.31-.09.17-.29.4-.45.5-.15.1-.4.21-.55.23-.16.03-.42.01-.58-.04-.17-.05-.51-.28-.76-.52-.25-.23-1.04-1.07-1.74-1.86-.71-.79-1.89-2.1-2.62-2.93l-1.33-1.5c.13-1.58.24-2.61.33-3.3.08-.69.15-1.3.15-1.36s-.15-.13-.34-.16c-.18-.03-.43-.12-.54-.2-.1-.09-.28-.28-.38-.43s-.24-.54-.32-.87c-.1-.45-.13-.93-.13-1.92.01-.88.07-1.76.19-2.64.1-.73.18-1.66.19-2.08l.02-.76c-.95-1.92-1.43-2.8-1.68-3.2s-.58-.87-.72-1.06c-.19-.24-.34-.34-.48-.34-.11 0-.2.01-.2.02s.08.69.17 1.5c.12 1.1.17 1.98.17 3.44 0 1.28-.04 2.03-.09 2.16-.05.11-.15.29-.21.4-.09.14-.11.35-.09.72.03.45.13.73.72 2.04.69 1.51.7 1.52.64 2-.03.26-.13.84-.23 1.28s-.25.96-.34 1.16-.25.46-.37.58c-.11.12-.27.22-.35.22-.07 0-.21-.08-.31-.18-.09-.1-.28-.38-.41-.62a2.5 2.5 0 0 1-.29-.88c-.04-.4-.09-.49-.51-.96-.27-.29-.69-.65-.98-.82-.28-.17-.55-.3-.61-.3-.07 0-.08.1-.04.38.04.32.32.78 1.77 2.97 1.65 2.47 1.73 2.58 1.95 2.56.22-.03.26-.1.88-1.7.54-1.38.67-1.65.75-1.56.09.09.08.53-.06 2.41-.15 2.14-.15 2.32-.03 2.56.07.14.24.42.37.62.14.2.41.55.61.79s.65.68 1 .99c.35.3.92.74 1.26.97.34.22.61.46.62.51 0 .06-.06.12-.14.15-.08.02-.11.01-.08-.02.04-.04-.21-.17-.56-.29-.34-.12-.64-.2-.66-.18s.21.15.52.29.99.45 1.52.7c.86.4 1.01.5 1.51 1.04.31.32.81.74 1.12.94.31.19.79.41 1.08.48.5.14.53.14.92-.01.21-.09.57-.29.77-.46.21-.16.55-.52.75-.8.21-.28.54-.84.74-1.26.21-.42.4-.85.43-.96.05-.19.08-.16.44.36.22.31.47.63.57.72l.17.16c.52-.28.87-.39 1.11-.43s.5-.05.56-.03c.07.01.22-.07.34-.2.11-.12.52-.76.9-1.42s.86-1.43 1.06-1.72.73-.89 1.17-1.35 1.32-1.27 1.96-1.81c.63-.53 1.35-1.19 1.59-1.45.23-.26.56-.67.72-.91s.46-.71.66-1.04a40 40 0 0 0 .91-1.64c.31-.57.72-1.4.92-1.84.21-.44.59-1.29.85-1.88s.83-1.85 1.27-2.8.95-2.1 1.13-2.56c.26-.7.44-1 1.05-1.8.4-.53.94-1.27 1.19-1.64s.54-.84.64-1.04.23-.5.3-.68c.06-.18.21-.99.34-1.8s.31-1.71.4-2 .23-.86.32-1.28c.08-.42.31-1.32.51-2 .21-.68.55-1.94.77-2.8.21-.86.55-2.37.75-3.36.19-.99.52-2.79.72-4s.38-2.27.4-2.36c.03-.14.29-.23 1.77-.6 1.55-.39 1.77-.47 1.97-.68.12-.13.34-.49.49-.8s.38-.96.53-1.44c.24-.79.31-.94.74-1.44.25-.31.65-.85.89-1.2.23-.35.51-.87.62-1.16.12-.29.28-.81.37-1.16s.2-.91.25-1.24c.09-.58.11-.62.64-1.24.39-.45.69-.9.99-1.52.23-.48.5-1.15.59-1.48s.22-.94.29-1.36.17-1.3.23-1.96c.09-1.11.09-1.22-.04-1.48-.08-.15-.29-.68-.47-1.16s-.33-.92-.33-.98c0-.05-.03-.11-.06-.12-.04-.01-.15-.2-.25-.42-.09-.22-.45-.91-.79-1.54-.33-.63-.66-1.14-.71-1.14-.07 0-.08.07-.05.22.03.12.3.95.6 1.84l.55 1.62c-.3.34-.46.61-.56.82-.09.21-.19.36-.22.33s-.18-.47-.33-.98c-.14-.51-.45-1.43-.69-2.05s-.75-1.84-1.14-2.72-.75-1.61-.78-1.62c-.04-.01-.29.27-.55.64-.26.36-.76 1.02-1.12 1.46s-.95 1.08-1.31 1.42c-.35.34-.87.79-1.14.99-.28.2-.72.49-.98.63-.26.15-.74.37-1.06.48s-.82.24-1.12.29c-.42.08-.61.08-.89-.01-.2-.05-.66-.12-1.03-.15-.54-.04-.68-.08-.78-.21-.06-.09-.13-.28-.15-.42-.03-.18-.1-.29-.26-.37-.12-.06-.72-.66-1.33-1.32-1.04-1.12-1.14-1.26-1.32-1.79-.11-.32-.27-.71-.35-.86s-.18-.3-.21-.32-.55-.87-1.15-1.88c-.61-1.01-1.14-1.87-1.19-1.9s-.74-.06-1.53-.06h-1.44c-1.79-1.24-2.36-1.58-2.43-1.57-.07.02-.35.06-.64.09l-.52.05c-2.19-1.66-2.25-1.69-2.63-1.69-.22 0-.74-.02-1.16-.05l-.76-.05z" class="shp3"></path><path d="M53.78 64.09c-.2.12-.53.27-.73.33-.31.08-.46.08-.76 0-.34-.09-.39-.09-.48.04-.05.08-.24.43-.41.78-.18.35-.36.8-.41 1-.06.2-.07.46-.05.58.03.12.13.26.23.31.15.08.26.06.62-.11.29-.14.63-.41 1.04-.83.33-.35.7-.79.81-.99.12-.2.31-.57.42-.82s.17-.47.14-.49c-.04-.01-.23.08-.42.2m56.12 1.16c-.05.03-.19.23-.31.46-.11.22-.56.95-.99 1.61s-.92 1.47-1.1 1.8c-.17.33-.4.87-.5 1.2-.14.48-.17.72-.13 1.24.03.52.11.82.42 1.6.25.64.4 1.12.42 1.44.04.47.06.51.88 1.56.46.59 1.35 1.59 1.96 2.21.85.84 1.21 1.15 1.45 1.23.17.05.57.23.87.39.37.18.76.48 1.12.85.44.43.65.73.94 1.32.2.42.55 1.35.77 2.08s.47 1.48.55 1.68c.09.2.27.51.41.7.16.22.39.41.66.54.23.11.5.2.6.2.14 0 .21-.08.3-.32.07-.18.12-.47.12-.66s-.07-.65-.17-1.02c-.09-.37-.43-1.36-.76-2.2s-.58-1.57-.55-1.64c.03-.08.2.09.55.56.28.37.82 1.15 1.21 1.72s.74 1.04.79 1.04.17-.39.27-.86l.18-.86c-.36-.53-.8-1.04-1.2-1.48-.41-.44-1.01-1.14-1.35-1.56s-.71-.92-.82-1.12c-.17-.3-.3-.4-.76-.61-.3-.14-1.04-.41-1.66-.61-.61-.2-1.49-.45-1.95-.55-.63-.15-.84-.23-.9-.35a.36.36 0 0 1 0-.32c.04-.09.29-.27.55-.41.25-.14.77-.35 1.14-.46.38-.1 1.04-.25 1.48-.32.44-.06 1.14-.14 1.56-.17l.75-.05c2.86 2.49 3.37 2.89 3.52 2.89.18 0 .2-.04.27-.54.05-.3.12-.83.16-1.18s.1-1.05.12-1.56c.03-.51.02-1.17-.01-1.48-.06-.54-.08-.56-.34-.69-.16-.08-.82-.27-1.48-.43s-1.72-.42-2.36-.57c-.63-.16-1.62-.44-2.19-.63s-1.35-.49-1.74-.67l-.69-.33c0-.93.03-1.22.08-1.24.04-.02.34.07.65.2.32.14 1.1.41 1.74.61s2.22.63 3.51.96c1.3.32 2.39.59 2.44.59.04 0 .06-.15.03-.38-.03-.21-.11-.52-.2-.7-.08-.18-.38-.56-.67-.85s-.77-.66-1.08-.83c-.31-.18-.94-.49-1.4-.69-.46-.21-1.97-.75-3.35-1.21s-2.7-.92-2.93-1.01-.5-.17-.6-.16c-.1 0-.22.02-.28.04" class="shp1"></path><path d="M39.29 65.6c-.26.13-.62.36-.81.52-.24.2-.36.38-.43.62-.05.19-.2.59-.34.9s-.33.79-.43 1.08c-.09.29-.21.75-.26 1.04s-.06.75-.04 1.04c.03.29.13.78.21 1.1.09.32.28.82.43 1.12s.43.76.64 1.02c.2.26.49.57.63.69.14.11.38.27.53.35s.42.19.6.24c.28.09.32.13.34.37.01.15-.03.45-.09.67-.07.22-.3.67-.53 1-.32.47-.4.65-.36.82.02.12.07.22.1.22.03.01.26-.27.5-.62.24-.34.64-.87.88-1.18.25-.31.64-.68.86-.82.41-.26.41-.26.43-.72l.02-.45c.93-.15 1.33-.24 1.48-.3.15-.07.37-.24.49-.4.12-.15.25-.41.3-.59s.09-.48.08-.68v-.36c1.1-.72 1.39-.99 1.65-1.34.21-.27.49-.75.64-1.06.14-.31.28-.72.31-.92s.04-.48.01-.62-.09-.26-.13-.26-.08.05-.08.1-.11.33-.25.62c-.13.29-.37.71-.53.95-.18.26-.48.56-.73.73-.25.16-.55.42-.67.57-.13.15-.29.4-.37.55-.1.19-.24.32-.47.42-.2.08-.53.14-.83.14-.27 0-.71-.06-.98-.12a5.6 5.6 0 0 1-.87-.34c-.21-.12-.51-.36-.65-.54a2.3 2.3 0 0 1-.37-.68c-.05-.2-.1-.58-.09-.84 0-.26.06-.66.13-.88.08-.22.25-.54.4-.71.14-.18.4-.38.58-.46.17-.08.47-.15.65-.15.19 0 .44.05.56.11s.32.22.44.34c.11.13.28.39.37.59s.17.48.17.62c0 .19.04.26.14.26.08 0 .34-.14.58-.31s.52-.42.62-.56c.12-.17.16-.31.13-.43-.03-.1-.13-.29-.22-.42s-.3-.4-.48-.6c-.17-.2-.47-.48-.68-.63-.36-.26-.39-.26-.97-.22-.33.02-.99.15-1.47.29-.49.14-1.1.28-1.36.3-.26.03-.54.02-.62-.01-.12-.04-.12-.08-.05-.23.06-.1.3-.4.54-.66.32-.35.41-.49.32-.5-.08 0-.35.09-.6.22m33.86 2.94c-.23.2-.67.49-.97.63-.54.26-.56.28-.62.61-.02.19-.05.54-.06.78 0 .38.03.49.26.8.15.2.5.56.78.8.28.25.6.48.71.51.15.05.26.02.4-.09.11-.09.29-.28.39-.43s.24-.47.31-.71c.07-.27.11-.59.08-.84-.02-.22-.06-.45-.07-.52-.02-.1.11-.12.85-.11.55 0 .9-.03.93-.08.02-.05-.16-.28-.42-.51s-.62-.52-.79-.64c-.18-.12-.32-.24-.32-.26s-.06-.05-.14-.05c-.08-.01-.31-.07-.52-.14l-.38-.12z" class="shp0"></path><path d="M38.81 70.6c-.03.09-.02.48.02.88.05.4.15.86.24 1.03.08.18.24.39.35.47.15.11.44.17 1.2.23.81.07 1.03.07 1.17-.02.1-.06.16-.14.14-.17s-.11-.06-.2-.06c-.08 0-.38-.08-.65-.17-.28-.09-.7-.3-.93-.46-.24-.16-.53-.45-.66-.65s-.28-.5-.33-.68c-.04-.18-.13-.37-.19-.44-.09-.11-.11-.1-.16.04" class="shp1"></path><path d="M67.11 71.22c-.09.14-.23.44-.31.66-.09.22-.2.65-.25.96-.07.43-.07.68 0 1.08.05.29.19.7.31.91.11.21.39.56.61.77.22.2.59.47.82.59.23.11.66.26.95.33.3.07.62.14.72.16s.18.09.18.16-.12.15-.3.2c-.16.04-.58.16-.93.27-.62.18-.67.18-1.32.08-.37-.06-1.04-.13-1.48-.16-.57-.03-.98-.01-1.43.08-.43.09-.94.28-1.52.56-.48.24-.95.49-1.04.56-.09.06-.14.14-.12.16.02.03.47-.05 1-.17.79-.17 1.15-.21 2.04-.21.68.01 1.69.09 2.75.22 1.03.14 2.25.24 3.19.26 1.13.04 1.76.02 2.47-.08.53-.07 1.39-.24 1.92-.37.53-.14 1.28-.4 1.67-.59.4-.19.9-.46 1.12-.61s.61-.47.87-.72c.26-.24.65-.71.86-1.04.22-.33.39-.64.39-.68s-.13-.21-.3-.37c-.17-.15-.45-.33-.62-.39-.19-.06-.47-.08-.68-.06-.2.03-.57.16-.84.29-.26.13-.91.59-1.43 1.02-.53.42-1.14.89-1.36 1.03-.22.15-.62.34-.9.43-.27.09-.63.17-.8.17-.17.01-.37-.05-.47-.14-.1-.08-.19-.2-.2-.28-.02-.12.16-.23.85-.52.49-.21 1.13-.55 1.44-.76.31-.2.76-.57 1-.81.24-.25.42-.46.4-.49-.03-.02-.46.15-.96.37-.51.23-1.26.5-1.68.61-.62.16-.95.2-1.83.2-.91.01-1.16-.02-1.58-.17-.27-.09-.63-.25-.8-.36-.16-.1-.47-.38-.68-.62-.23-.26-.43-.59-.51-.83-.07-.22-.14-.65-.15-.96-.02-.31-.07-.61-.13-.67a1.4 1.4 0 0 0-.36-.22c-.14-.06-.3-.11-.34-.11-.05 0-.15.12-.24.26" class="shp0"></path><path d="M88.46 71.16c-.53.1-1.32.27-1.76.39-.44.11-1.19.34-1.68.52-.48.17-1.04.38-1.25.46s-.39.19-.41.23c-.02.05.61.07 1.81.05 1.02-.01 2.07 0 2.35.02.33.03.52.09.56.17s-.01.2-.14.33c-.11.12-.56.48-1 .82-.44.33-1.04.84-1.34 1.13-.51.49-.55.55-.62 1-.04.26-.07.61-.07.78 0 .29-.03.32-.66.73-.37.24-.98.62-1.38.84-.39.23-.74.41-.78.41-.03 0-.06.07-.06.16s.04.23.08.32c.06.12.19.17.5.21.23.03.67.01.98-.05.31-.05.77-.18 1.04-.29.26-.11.53-.23.59-.26.09-.04.1.07.07.71-.04.55-.13 1.03-.34 1.72-.27.9-.28.96-.15 1.04.08.04.32.23.53.44.22.2.46.49.54.66.09.19.15.47.15.74 0 .3-.06.56-.19.82-.1.21-.36.6-.58.86s-.6.65-.85.86l-.45.38c-.47-.23-1.09-.5-1.68-.75s-1.16-.45-1.26-.45c-.09 0-.42.13-.71.29-.44.24-.6.28-.86.25-.18-.03-.73-.11-1.24-.18-.59-.09-1.41-.14-2.31-.15-1.14 0-1.58.04-2.36.19-.52.1-.98.2-1.02.23-.03.03.02.23.11.45s.42 1.07.72 1.88c.31.81.77 1.91 1.02 2.44s.65 1.25.89 1.6c.23.35.56.8.73 1 .16.2.29.43.28.51-.01.11.31.31 1.42.9.79.42 1.52.84 1.62.93.1.1.18.26.18.36s-.07.37-.16.6c-.08.23-.31.65-.5.93-.18.28-.46.58-.6.66-.22.13-.35.14-.84.1-.44-.05-.62-.03-.77.06-.11.07-.28.28-.38.48-.1.19-.18.49-.18.67-.01.21.04.37.13.46.08.07.31.2.51.27.29.12.59.14 1.75.14.99-.01 1.75-.06 2.59-.18.66-.1 1.42-.2 1.68-.22.4-.03.54-.01.83.14.2.11.46.32.58.47s.28.51.35.8c.11.45.12.62.04 1.24-.05.4-.24 1.39-.41 2.2-.18.81-.34 1.75-.37 2.08-.03.41-.01.72.06.99.07.22.2.48.3.58.1.11.2.19.24.19.03 0 .16-.19.29-.42.12-.23.52-.89.87-1.46s.7-1.09.76-1.14c.07-.06.32-.1.55-.1.33 0 .46-.04.59-.18.16-.16.17-.23.12-.74-.03-.31-.08-.83-.1-1.16-.05-.57-.04-.61.16-.82.14-.14.29-.22.45-.22.17 0 .32.09.57.34.18.19.68.88 1.12 1.54.43.66.82 1.33.86 1.48s.13.95.19 1.76c.07.81.15 2.16.19 2.98.04.99.03 1.5-.02 1.5-.04 0-.22-.1-.4-.21-.17-.12-.46-.28-.64-.36-.17-.08-.48-.15-.68-.15-.22 0-.45.06-.61.16-.18.11-.34.32-.5.66-.12.27-.35.84-.51 1.26-.2.53-.39.88-.63 1.15-.22.26-.51.48-.82.62-.37.18-.6.23-1 .23-.44 0-.6-.04-1.11-.3-.45-.22-.79-.48-1.34-1.02l-.73-.72c-1.07-5.21-1.49-7.13-1.61-7.64-.13-.51-.32-1.06-.42-1.24-.11-.18-.33-.45-.5-.6-.17-.16-.51-.37-.75-.46s-.69-.2-1-.24c-.3-.05-.56-.07-.58-.05-.01.02.21.28.48.58.28.3.64.77.8 1.06.17.28.41.79.54 1.13s.33.97.44 1.4c.1.43.27 1.23.35 1.78.09.55.22 1.47.28 2.04.07.57.18 1.63.25 2.36.11 1.22.15 1.42.55 2.6.23.7.56 1.62.72 2.04.17.42.5 1.21.74 1.76s.66 1.42.93 1.94c.27.51.55.95.63.98.07.02.17 0 .22-.06.04-.05.06-.12.04-.14s-.06-1.13-.08-2.46l-.04-2.42c.65-.2 1.18-.28 1.59-.3.56-.04.83-.02 1.03.07.15.06.38.23.5.37.13.14.35.5.5.8s.36.83.47 1.18.29 1.05.4 1.56c.12.51.27 1.29.35 1.74s.17.82.2.82c.04 0 .16-.3.27-.66.12-.36.26-.77.33-.9s.21-.36.31-.5l.19-.26c-.44-2.08-.69-3.29-.84-4.04-.22-1.04-.28-1.55-.29-2.2 0-.46.04-1 .09-1.2s.15-.43.22-.51c.11-.11.21-.13.42-.09.18.02.56.26 1.02.6.46.35.81.56.94.56.14 0 .21-.05.23-.18.02-.1.06-.76.08-1.46.02-.72.1-1.5.17-1.78.06-.27.2-.69.31-.92s.23-.47.27-.54c.07-.1.2-.02.75.46.36.31 1.22 1.08 1.9 1.69.68.62 1.27 1.13 1.32 1.13.04 0 .14-.04.21-.1.13-.09.11-.18-.32-1.1-.26-.55-.72-1.47-1.03-2.04a74 74 0 0 1-.98-1.88c-.27-.55-.43-.97-.45-1.2-.01-.2-.14-.59-.27-.88-.14-.29-.33-.59-.43-.68-.11-.09-.56-.47-1.02-.85-.45-.38-1.23-.99-1.74-1.35-.5-.36-1.47-.99-2.15-1.4-.68-.4-1.91-1.1-2.72-1.54s-2.12-1.13-2.91-1.54-1.54-.82-1.67-.91c-.13-.1-.32-.35-.42-.57s-.21-.6-.24-.84c-.04-.35-.01-.58.16-1.14.15-.48.19-.74.14-.84a.9.9 0 0 0-.22-.27c-.08-.07-.68-.34-1.34-.59s-1.4-.56-1.64-.69c-.24-.12-.58-.35-.75-.49s-.4-.44-.5-.66c-.11-.24-.18-.55-.18-.78 0-.21.02-.38.04-.38s.35.13.74.28c.38.16.94.36 1.25.45.31.08.83.18 1.16.2.41.03.76.01 1.14-.08.29-.07.74-.23.99-.36.26-.13.73-.43 1.06-.68s.65-.45.72-.45c.07-.01.31.31.56.71l.44.72c1.33.69 2.1 1.13 2.57 1.42s1.29.82 1.82 1.18c.52.36 1.73 1.23 2.67 1.94s2.14 1.64 2.65 2.06c.58.48.98.87 1.06 1.03.11.26.11.26-.18.5-.15.13-.31.32-.35.42s-.04.26 0 .36.19.31.33.46l.27.28c.09 2.04.14 2.39.25 2.6.08.15.25.44.38.64s.7.94 1.26 1.64c.55.7 1.2 1.55 1.45 1.88.24.33.7 1 1.02 1.48s.59.9.61.92.07 0 .11-.04c.06-.06-.07-.54-.41-1.56-.27-.81-.71-2.11-.99-2.88s-.94-2.57-1.47-4c-.54-1.43-1.06-2.73-1.16-2.88-.13-.18-.21-.46-.25-.8l-.06-.52c.93.12 1.11.19 1.5.46l.47.34c1.09 2.91 1.54 4.03 1.71 4.36s.47.92.68 1.32c.2.4.55 1.24.78 1.88.22.64.94 2.74 1.59 4.68.68 2.01 1.33 4.1 1.52 4.88.18.75.36 1.37.4 1.38s.06.06.04.1c-.03.04 0 .08.06.08.07 0 .08-.22.03-1.02-.03-.56-.09-2.14-.14-3.5-.08-2.2-.11-2.5-.24-2.68-.08-.12-.38-1.15-.69-2.44l-.55-2.24c-1.98-3.04-2.62-4.04-2.69-4.18s-.13-.31-.13-.38.06-.15.14-.19c.07-.04.51-.13.97-.21s1.02-.21 1.23-.31c.22-.09.44-.24.5-.33.09-.14.05-.22-.44-.76-.3-.33-.77-.89-1.05-1.24s-.79-1.07-1.13-1.6c-.35-.53-.89-1.46-1.19-2.08-.31-.62-.69-1.55-.86-2.08s-.35-1.16-.4-1.4c-.06-.33-.15-.5-.34-.68-.15-.14-.57-.36-.94-.51-.38-.14-.8-.31-.94-.37-.15-.07-.3-.19-.34-.28-.07-.13-.04-.19.18-.32.14-.09.36-.2.5-.24.13-.04.63-.17 1.11-.28.49-.11.93-.25.99-.3.05-.06.17-.32.25-.58s.17-.64.2-.84.1-1.15.15-2.12l.09-1.76c5.26.07 6.34.05 6.35 0 0-.04-.37-.49-.82-1s-1.97-2.23-3.37-3.84-3.02-3.45-3.59-4.1c-.57-.64-1.12-1.19-1.2-1.22-.09-.02-.81-.4-1.6-.84s-1.46-.8-1.5-.8c-.03 0-.04.06-.03.14.02.08.49.86 1.05 1.74s1.47 2.3 2.01 3.16l.98 1.56 5.04 4.24c-.5.04-.97-.06-1.64-.28-.58-.18-1.47-.44-2-.57s-1.3-.26-1.72-.29c-.61-.03-.8-.02-1.01.09-.17.08-.26.19-.26.29 0 .09.41.76.9 1.5.5.74.95 1.42 1 1.52.09.17.08.17-.09.09-.1-.06-.97-.68-1.93-1.39-.97-.7-1.88-1.37-2.04-1.47l-.28-.2c-.86.21-1.17.31-1.23.34-.1.06.01.26.56 1.06.37.54.95 1.4 1.28 1.91.34.51.78 1.23.98 1.6.21.37.45.88.54 1.12.1.27.15.52.12.66-.04.17-.12.24-.35.31-.17.05-.48.07-.72.04-.23-.03-.57-.1-.76-.17-.18-.06-.59-.26-.89-.43-.31-.18-.67-.35-.8-.38-.13-.02-.35-.02-.48.01l-.24.05c.27.27.48.64.64.99.23.52.41.76.94 1.29.47.46.8.71 1.17.89.29.13.84.32 1.24.41.52.12.78.23.95.39l.24.22c-.1 4.64-.1 4.64-.29 4.78-.13.11-.25.13-.42.1-.13-.03-.4-.14-.6-.25s-.68-.43-1.08-.73c-.39-.3-1.31-1.12-2.03-1.83l-1.32-1.3c-1.3-.2-1.89-.32-2.15-.39-.33-.09-.57-.22-.77-.42a1.45 1.45 0 0 1-.37-.66c-.06-.21-.1-.51-.1-.66 0-.17.04-.28.1-.28.05 0 1.07.2 2.25.45 1.19.24 2.21.45 2.27.46.06 0 .12-.03.14-.07s-.14-.16-.35-.25c-.21-.1-.87-.41-1.46-.69-.59-.29-1.4-.67-1.79-.86-.4-.19-.98-.46-1.3-.61s-.59-.3-.61-.33c-.01-.03.01-.49.04-1.02.04-.53.13-1.36.19-1.84.07-.48.28-1.46.45-2.16l.33-1.28c-.34-.62-.51-1-.59-1.24-.1-.28-.15-.66-.15-1.04 0-.33.06-.81.14-1.07l.14-.47c.99.08 1.67.16 2.15.23.66.09.9.1.96.03.05-.05.09-.58.09-1.18.01-.61-.04-1.55-.1-2.1-.05-.55-.18-1.54-.27-2.2-.1-.66-.21-1.28-.25-1.38-.03-.1-.09-.18-.13-.17-.03 0-.49.09-1.01.19" class="shp3"></path><path d="M121.9 71.78c-.02.19-.08.97-.13 1.74-.04.77-.12 1.89-.16 2.48s-.19 2.66-.32 4.6-.27 4.01-.32 4.6c-.04.59-.11 1.09-.16 1.1-.04.01-.08.11-.08.22 0 .13.16.38.42.69.23.27.75.76 1.14 1.09.4.33 1.02.81 1.4 1.06.37.25.85.55 1.07.68.22.12.48.27.58.33l.18.11c-.49 1.88-.54 2.23-.59 3.26l-.05 1.22c.61.71.93 1.15 1.12 1.44.18.29.48.84.67 1.24s.49 1.13.67 1.64.42 1.24.53 1.62c.12.4.25.7.31.7.07 0 .08-.58.03-2.82-.03-1.55-.08-3.15-.12-3.56-.05-.73-.05-.74.13-.74.1 0 .19.06.2.14.02.1.22.19.78.32.41.11.76.18.76.16.01-.01-.07-.63-.18-1.38-.1-.75-.31-1.86-.46-2.48s-.39-1.46-.53-1.88-.41-1.1-.6-1.52c-.19-.43-.41-.79-.5-.84-.09-.04-.33-.33-.55-.64-.21-.31-.62-.87-.9-1.24s-.87-1.09-1.31-1.6l-.79-.92c.08-1.18.16-1.81.23-2.16s.28-1.11.47-1.68l.33-1.04c-.57-.74-.91-1.28-1.12-1.68-.22-.4-.66-1.37-.99-2.16-.32-.79-.69-1.66-.82-1.94-.12-.27-.24-.5-.26-.5s-.06.15-.08.34m14.09 1.15c-.06.13-.38 1.08-.71 2.11-.55 1.74-.59 1.92-.56 2.4.02.29.12.74.22 1 .11.26.41.77.68 1.12.26.35.55.77.64.92s.23.44.31.64c.07.2.33 1.06.57 1.92s.49 1.64.55 1.74c.07.1.16.18.2.18s.1-.13.12-.3c.02-.16.09-.86.15-1.54.07-.68.15-1.76.18-2.4l.05-1.16c-.74-1.05-1.11-1.63-1.28-1.96-.18-.33-.38-.8-.45-1.04-.06-.24-.19-1.18-.29-2.08s-.2-1.67-.23-1.71c-.02-.04-.09.03-.15.16m-2.41 2.25c0 .03-.26.32-.58.64-.31.32-.79.73-1.05.9-.27.18-.75.41-1.08.51-.33.11-.92.24-1.32.29-.39.05-1.18.08-1.75.07-.57-.02-1.05 0-1.06.03s1.64 1.6 3.67 3.48c2.02 1.88 4.3 3.99 5.04 4.68.75.69 1.39 1.26 1.42 1.26.04 0 .06-.08.06-.18s-.71-1.51-1.59-3.14c-1.05-1.96-1.64-3.14-1.73-3.48-.1-.37-.14-.8-.13-1.52 0-.55.06-1.43.13-1.96s.13-1.11.13-1.3-.03-.34-.08-.34c-.04 0-.08.03-.08.06" class="shp1" data-source="https://football-logos.cc"></path><path d="M44.48 76.19c-.22.19-.5.56-.64.82s-.31.72-.38 1.03c-.08.31-.25 1.23-.39 2.06-.14.82-.23 1.5-.2 1.5s.13-.13.21-.3c.08-.16.21-.48.28-.7s.24-.94.37-1.6c.14-.66.35-1.45.48-1.76s.35-.73.49-.94c.15-.21.25-.4.22-.43-.03-.02-.22.12-.44.32" class="shp3"></path><path d="M139.57 77.46c-.09.27-.21.73-.28 1.02-.08.35-.12.92-.11 1.76 0 .68-.03 1.68-.06 2.22-.05.65-.04.98.01.98.04 0 .16-.26.26-.58s.38-1.26.62-2.1l.44-1.52c-.32-1.3-.44-1.82-.49-1.98-.04-.17-.11-.3-.15-.3s-.15.23-.24.5m-13.44 1.86c-.03.02.02.21.1.42s.37.99.65 1.74c.27.75.57 1.44.67 1.53.09.1.93.73 1.85 1.4l1.69 1.23c1.76 2.23 2.3 2.92 2.34 2.96s.26.8.5 1.68.47 1.75.52 1.94.12.34.15.34.2-.19.37-.42c.29-.39.31-.44.23-.7-.04-.15-.51-1.48-1.03-2.95l-.95-2.66c-4.6-3.73-4.64-3.77-5.8-5.15-.64-.77-1.18-1.4-1.2-1.4s-.06.02-.09.04m-78.77 1.46c-.08.02-.2.11-.26.19-.06.1-.19.15-.38.15a.64.64 0 0 0-.47.18c-.11.11-.2.32-.24.54-.02.2-.05.49-.07.64l-.02.28-.83-.04c-.58.9-.64 1.07-.64 1.38 0 .24.04.39.1.41.05.02.33-.06.62-.16.28-.11.79-.36 1.13-.55.55-.32.68-.36 1.1-.36.38 0 .67-.08 1.42-.37.51-.2 1.22-.51 1.57-.69.35-.17.85-.46 1.1-.63s.49-.38.54-.47c.07-.15.05-.16-.6-.16-.37 0-.96.06-1.3.13s-.72.17-.85.22c-.14.06-.59.33-1 .6-.42.27-.83.52-.92.54-.09.03-.18 0-.22-.06-.03-.06-.06-.27-.06-.47 0-.27.05-.44.22-.68.13-.18.29-.37.37-.42.07-.06.11-.14.09-.18s-.09-.08-.14-.07c-.06 0-.17.03-.26.05" class="shp1"></path><path d="M65.06 83.66c-.18.3-.56.79-.84 1.09-.27.31-.72.72-.98.92s-.78.52-1.14.71-.71.34-.78.34c-.06 0-.14-.05-.16-.1-.03-.06.15-.68.4-1.38.33-.91.45-1.34.41-1.5-.02-.12-.1-.24-.17-.26-.06-.02-.81-.04-1.65-.04-.97-.01-1.92.04-2.58.12-.57.07-1.45.22-1.95.33-.51.11-1.3.33-1.76.48-.46.16-1.3.51-1.87.79-.57.29-1.36.75-1.76 1.04-.39.28-1.04.82-1.43 1.18-.4.37-1.02 1.05-1.39 1.5-.37.46-.94 1.24-1.25 1.72-.32.48-.86 1.37-1.19 1.96-.34.59-.64 1.1-.67 1.13s-.93.1-2.01.15c-1.07.05-1.99.13-2.03.16-.05.04.2.16.56.27.35.11.9.26 1.23.33s.96.15 1.4.17c.46.03 1.1.01 1.52-.05.39-.05.76-.13.82-.19.06-.05.33-.43.61-.85.27-.42.89-1.43 1.36-2.24s1.08-1.8 1.34-2.2c.27-.4.78-1.01 1.13-1.37.35-.35.93-.83 1.28-1.06s1.03-.62 1.52-.85c.48-.24 1.27-.56 1.75-.72.48-.15 1.31-.37 1.84-.48.52-.1 1.37-.23 1.87-.28.51-.04 1.22-.08 1.58-.08.45 0 .67.03.7.1.02.06-.24.75-.59 1.54-.59 1.36-.64 1.44-.86 1.46-.13.01-.36.06-.51.11s-.37.07-.48.04c-.11-.02-.45-.22-.76-.45-.51-.37-.59-.4-1.01-.4-.26 0-.72.05-1.04.11s-.7.17-.86.24c-.15.07-.59.36-.97.63-.38.28-1.08.82-1.56 1.22-.47.39-1.4 1.26-2.06 1.92s-1.57 1.67-2.03 2.24c-.45.57-1.03 1.35-1.27 1.72l-.44.68c.03 2.34.01 2.92-.09 3.44-.07.4-.22 1.01-.34 1.36s-.38.91-.57 1.24c-.2.33-.61.87-.92 1.19s-.87.79-1.24 1.04-.87.54-1.1.65l-.42.2v1.16c.41.07 1.76.38 3.28.73 1.51.35 3.77.87 5.02 1.16 1.25.28 3.1.67 4.11.87 1.01.19 2.36.42 3 .51.63.09 1.64.2 2.23.26.62.05 1.63.07 2.39.05.75-.03 1.56-.1 1.88-.18.31-.07.79-.23 1.08-.37.28-.13.65-.37.82-.53.17-.17.36-.4.42-.52s.15-.38.19-.58c.05-.2.06-.5.02-.67l-.06-.32-2.33.11c-.08-.56-.08-.79-.04-.87.03-.09.44-.34.92-.58.47-.24 1.24-.66 1.71-.94s1.09-.68 1.38-.89c.28-.21.94-.82 1.46-1.35.92-.95.94-.98.93-1.33 0-.36 0-.36-.38-.5-.2-.07-.52-.25-.69-.4-.18-.15-.39-.42-.46-.61-.08-.18-.2-.66-.26-1.07-.07-.41-.14-.84-.16-.96-.03-.17-.01-.22.1-.22.07 0 .39.12.7.28.3.15.76.44 1.01.64.26.2.62.57.82.82s.38.54.4.64.08.18.12.18.15-.19.23-.42.21-.62.29-.86.23-.62.34-.84.29-.5.4-.63c.12-.12.31-.28.44-.34.12-.06.33-.11.47-.11.15 0 .9.25 1.68.56 1.21.48 1.46.55 1.7.5.16-.03.3-.08.32-.1.01-.02-.46-.43-1.05-.9s-1.15-.89-1.25-.93-.5-.11-.9-.16c-.39-.06-.86-.17-1.03-.25-.18-.08-.4-.23-.48-.33-.1-.1-.18-.32-.2-.54-.02-.32 0-.38.16-.48.12-.07.3-.09.46-.06.14.03.55.27.91.54.37.28.77.56.9.64.16.09.45.15.89.17.36.01.68-.01.72-.04s-.08-.23-.26-.44-.52-.67-.75-1.02c-.24-.35-.64-1.07-.89-1.6s-.71-1.63-1.01-2.44c-.31-.81-.66-1.7-.77-1.96-.12-.26-.42-.73-.68-1.04-.25-.31-.69-.78-.97-1.04s-.74-.66-1.03-.88c-.28-.22-.78-.55-1.11-.74l-.6-.34-2.8.01zm-28.81 1c-.09.06-.36.35-.59.66-.24.31-.93 1.08-1.55 1.72-.92.95-1.15 1.24-1.29 1.6-.09.24-.26.93-.38 1.52s-.34 1.57-.5 2.16c-.21.8-.29 1.26-.29 1.76-.01.67 0 .7.43 1.59.31.66.44 1.01.44 1.24-.01.18-.05.67-.11 1.09-.07.58-.08.9-.01 1.36.05.33.33 1.3.61 2.16.29.86.64 1.81.78 2.12s.64 1.14 1.12 1.84c.47.7 1.07 1.55 1.32 1.88s.57.71.71.84c.24.23.29.24.87.23.47 0 .71-.05 1.04-.2.24-.1.55-.32.7-.49.15-.16.29-.42.32-.56.02-.14 0-.4-.05-.58-.06-.18-.19-.5-.3-.72s-.43-.74-.72-1.16-.85-1.17-1.25-1.68-.79-1.02-.87-1.14q-.135-.225-.06-.36c.03-.08.17-.17.3-.2.13-.04.46-.03.78.03.51.09.59.08.88-.06.17-.08.36-.25.42-.39q.12-.24.06-.48c-.03-.13-.15-.33-.27-.44-.11-.11-.33-.23-.49-.26-.15-.04-.4-.03-.55 0-.19.04-.41.21-.76.6-.26.3-.55.57-.62.58-.08.02-.29-.05-.48-.15-.19-.11-.56-.42-.83-.7-.34-.35-.59-.72-.82-1.19-.19-.41-.36-.9-.41-1.24-.06-.32-.08-.98-.06-1.56.03-.62.11-1.27.22-1.72.09-.4.3-.99.47-1.32.16-.33.39-.67.52-.76.17-.12.33-.16.72-.15.27.01.78.11 1.13.22s.65.19.68.17c.02-.02.02-.05 0-.06-.03-.02-.28-.19-.56-.4-.29-.2-.71-.55-.93-.79-.32-.34-.43-.52-.51-.87-.08-.34-.08-.55-.01-.92.05-.3.26-.81.54-1.36.25-.48.62-1.19.81-1.56.25-.49.36-.81.39-1.16.03-.29.01-.55-.04-.66-.08-.14-.16-.18-.43-.18-.19 0-.42.05-.52.1" class="shp0"></path><path d="M66.27 85.9c-.15.02-.47.24-.91.65-.38.34-.88.77-1.12.97-.25.2-.72.54-1.06.76s-.62.45-.62.5c0 .07.15.1.48.1s.64-.06.98-.2c.27-.12 1.01-.55 1.63-.96l1.14-.76c1.58.01 2.56.04 3.19.07.82.05 1.18.04 1.22-.02.04-.05-.08-.21-.28-.4-.19-.17-.52-.41-.74-.53l-.4-.24c-2.53.02-3.38.04-3.51.06m62.92.6c-.06.05-.1.2-.09.34.01.13.1.58.22 1 .11.42.34 1.21.51 1.76s.39 1.36.48 1.8c.11.56.24.93.42 1.22.14.24.44.6.66.82.22.21.66.56.97.78l.58.38c1.08-.1 1.42-.15 1.45-.18s.02-.26-.02-.5c-.06-.29-.21-.64-.47-1.04-.21-.33-.64-1.12-.96-1.76-.41-.83-.73-1.34-1.11-1.8-.29-.35-.79-1.03-1.11-1.5-.31-.47-.7-.99-.85-1.14s-.34-.28-.42-.28-.2.04-.26.1m-53.42.94c-.31.04-.81.13-1.12.2s-.64.18-.74.24q-.18.12-.18.36c0 .18.08.3.3.49.17.14.7.45 1.18.67.48.23 1.22.53 1.64.66.41.14 1.04.3 1.39.38.35.07.84.13 1.08.13.28 0 .62-.07.96-.19.28-.11.87-.39 1.31-.62.78-.41.82-.42 1.32-.38.3.02.73.13 1.02.25.31.13.64.21.9.21.21 0 .48-.04.59-.08s.23-.13.26-.2c.04-.08-.01-.19-.14-.32-.11-.11-.54-.38-.95-.59-.42-.22-1.12-.5-1.56-.64s-1.23-.32-1.76-.42c-.77-.14-1.34-.17-2.95-.19-1.1-.02-2.24 0-2.55.04m-15.56 1.53c-.31.08-1.14.44-1.84.78-.7.35-1.53.82-1.85 1.04l-.58.41c0 1.04-.01 1.04-.49 1.66-.27.34-.63.83-.8 1.08-.23.34-.29.5-.24.6.04.08.22.27.4.44.22.2.41.3.55.3.12 0 .36-.09.54-.19.17-.11.45-.37.61-.58.15-.22.39-.58.51-.82.13-.24.32-.49.43-.57s.55-.25.96-.37l.76-.24c1.78-2.11 1.96-2.38 2.03-2.69.05-.21.08-.51.08-.66 0-.23-.03-.29-.17-.32a1 1 0 0 0-.26-.03c-.05 0-.34.07-.64.16" class="shp1"></path><path d="M13.92 89.35c-.14.06-.14.07.06.12.13.03.26.03.3.01.05-.02.07-.08.04-.12a.14.14 0 0 0-.14-.07c-.05 0-.17.03-.26.06" class="shp3"></path><path d="M66.67 94.69c-.13.06-.32.2-.42.3a.6.6 0 0 0-.18.37c0 .11.05.25.1.3.06.06.21.1.34.1s.35-.07.48-.16.28-.24.34-.34c.05-.1.09-.23.1-.28 0-.06-.07-.17-.16-.26s-.2-.16-.26-.16c-.05 0-.21.06-.34.13m-13.34.71c-.15.11-.34.34-.42.52-.09.18-.16.47-.16.66s.05.42.12.52c.07.11.2.18.34.18.12 0 .32-.07.45-.15.14-.07.31-.27.38-.43.08-.17.14-.43.14-.58s-.03-.36-.07-.46a.9.9 0 0 0-.2-.32c-.07-.08-.17-.14-.23-.14-.05 0-.21.09-.35.2m9.55 1.03c-.2.1-.47.33-.62.52-.14.18-.26.42-.26.53 0 .12.1.3.24.44.17.17.32.24.5.24.15 0 .42-.09.62-.22s.45-.35.55-.5c.11-.16.23-.41.27-.56.05-.21.03-.33-.06-.46-.1-.14-.2-.18-.5-.18-.25 0-.51.07-.74.19m-11.22.99c-.22.21-.35.42-.41.68-.06.23-.08.5-.04.67.03.16.11.31.18.33s.21.01.32-.02.33-.19.49-.35c.26-.25.3-.34.3-.65.01-.2-.06-.49-.13-.64-.08-.15-.2-.29-.27-.3-.07-.02-.27.11-.44.28m7.19.81c-.13.04-.36.12-.5.2-.14.07-.29.2-.34.29-.04.09-.08.29-.08.44s.05.4.11.54c.07.17.21.31.4.4.16.08.48.14.71.14q.42 0 .78-.18c.28-.14.39-.26.51-.54.11-.26.13-.46.1-.74-.05-.34-.08-.39-.33-.5-.16-.07-.47-.12-.7-.11-.23 0-.53.03-.66.06m6.62 1.58c-.13.07-.34.28-.45.46-.12.18-.25.49-.3.69-.07.33-.06.37.1.5.12.1.31.15.59.14.23 0 .6-.04.82-.08.32-.06.43-.13.57-.34.13-.21.15-.35.13-.74-.03-.39-.07-.51-.23-.62-.13-.1-.32-.15-.59-.14-.22 0-.51.06-.64.13m-9.9.19c-.13.03-.37.14-.54.24-.18.11-.4.31-.5.44s-.22.35-.26.48a.8.8 0 0 0-.05.38c.02.08.15.19.28.26s.31.12.4.12.37-.07.62-.16.57-.25.72-.36c.18-.14.27-.29.3-.5.03-.18.01-.39-.06-.53-.05-.13-.14-.25-.18-.27-.05-.03-.18-.07-.29-.1-.12-.03-.32-.03-.44 0" class="shp1"></path><path d="M41.2 100.31c-.1.04-.28.2-.39.34-.18.23-.21.33-.18.72.02.36.08.52.27.76.16.19.36.34.52.38.2.05.35.03.57-.06.17-.07.37-.23.44-.35.09-.13.14-.37.14-.63 0-.3-.05-.48-.17-.64-.09-.13-.25-.29-.36-.37-.1-.08-.29-.16-.43-.18-.13-.02-.31 0-.41.03" class="shp0"></path><path d="M51.58 101.28c-.09.04-.21.16-.27.26-.08.14-.08.23-.01.42.05.13.18.29.29.34.11.06.32.1.48.1.15 0 .36-.04.46-.09s.2-.13.24-.18c.03-.05.06-.16.06-.25s-.08-.24-.18-.33-.31-.21-.46-.26a2 2 0 0 0-.36-.09c-.05.01-.16.04-.25.08m9.74.36c-.17.07-.4.2-.5.3s-.27.36-.38.58-.19.46-.19.54.07.18.16.22c.08.04.41.08.72.08.3 0 .69-.05.85-.12.18-.07.41-.26.56-.46.13-.19.3-.47.37-.64.13-.3.13-.3-.09-.44-.13-.08-.4-.15-.69-.16s-.62.03-.81.1m-4.9 2.03c-.17.18-.23.32-.24.56 0 .18.03.4.08.49.04.09.19.21.32.28s.33.12.46.12c.12 0 .36-.07.53-.16.18-.08.48-.31.66-.51.19-.21.34-.42.34-.49s-.09-.21-.2-.32c-.18-.19-.25-.2-.96-.2-.74 0-.77.01-.99.23m-3.49.09c-.09.04-.23.15-.3.25-.07.11-.13.3-.13.43s.07.34.16.46.27.27.41.34c.13.07.37.12.53.12.17 0 .47-.08.66-.18.31-.16.37-.22.39-.46.02-.21-.03-.34-.2-.55-.13-.15-.34-.32-.49-.38-.14-.06-.39-.11-.56-.1-.16 0-.37.03-.47.07" class="shp1"></path><path d="M77.71 106.16c-.16.24-.36.58-.44.76-.09.18-.35.79-.58 1.36s-.53 1.26-.66 1.52c-.14.26-.33.61-.42.76-.16.24-.18.39-.18.96 0 .49-.05.82-.17 1.18-.09.28-.38.92-.64 1.44s-.74 1.41-1.06 1.98c-.33.57-.76 1.29-.96 1.6-.29.44-.47.63-.91.92-.3.19-.57.37-.59.38-.02.02-.03.27-.02.57.02.29-.01.73-.06.97s-.17.62-.27.84-.36.57-.57.79c-.22.21-.64.5-.96.65-.3.15-.84.34-1.19.44-.35.09-.95.2-1.32.25l-.68.08a9 9 0 0 0-.12 1.35q0 .6-.12.78c-.06.1-.23.22-.38.26-.19.07-.38.06-.77-.04-.29-.07-.72-.24-.96-.37-.24-.14-.84-.55-1.34-.92-.49-.37-.92-.67-.96-.67-.03 0-.12.13-.2.3a3.2 3.2 0 0 0-.22.7c-.04.27-.03.57.04.92.06.29.22.75.36 1.04.15.29.49.85.77 1.26.43.62.5.76.41.86-.08.1-.29.13-1.1.12-.54 0-1.32-.05-1.71-.12-.4-.06-1.11-.21-1.6-.32-.48-.12-1.25-.32-1.71-.45s-1.34-.44-1.96-.68c-.61-.25-1.56-.68-2.11-.96-.55-.29-1.36-.76-1.8-1.05-.44-.3-1.03-.77-1.32-1.06-.32-.32-.62-.72-.78-1.04-.18-.37-.25-.63-.25-.9 0-.21.05-.5.12-.64.06-.14.24-.41.39-.6l.29-.34c-.53-.02-.72-.02-.76-.02-.05.01-.23.05-.4.1-.21.05-.42.2-.62.42-.16.19-.38.5-.47.7-.15.28-.18.49-.18 1 0 .35.04.78.09.96s.23.54.4.82c.16.27.47.68.68.92.2.23.44.49.52.57.07.08.47.38.87.68.4.29 1.11.76 1.56 1.04.45.29 1.2.72 1.66.96.46.25 1.37.69 2.03.99.66.31 1.63.71 2.16.9.52.19 1.37.44 1.87.55.51.11 1.31.25 1.8.3.66.06 1.07.06 1.67-.01.44-.05 1.03-.17 1.32-.26.29-.08.86-.33 1.28-.55.41-.22 1.08-.64 1.47-.93.4-.29 1.17-.99 1.72-1.54.56-.55 1.29-1.36 1.64-1.79.35-.44.89-1.16 1.21-1.6.31-.45.89-1.33 1.28-1.97s1.32-2.25 2.06-3.58 1.38-2.4 1.41-2.38.08-.06.09-.18c.02-.12.24-.54.49-.94s.65-.97.88-1.28c.39-.53.43-.63.74-1.84.18-.7.4-1.8.51-2.44.15-.95.18-1.46.18-2.84-.01-.99-.04-1.76-.09-1.88-.08-.2-.09-.19-.36.24" class="shp0"></path><path d="M60.98 106.49c-.15.04-.36.18-.46.31-.12.15-.19.35-.19.52 0 .26.02.28.3.33.16.03.44.03.61 0 .18-.03.39-.12.47-.19.09-.09.14-.26.14-.46s-.05-.37-.14-.46a.56.56 0 0 0-.31-.13c-.08 0-.28.04-.42.08" class="shp1"></path><path d="M51.88 109.71c-.01.13.07.3.21.46.12.13.33.27.46.31s.56.13.95.21c.4.08.78.2.85.27.06.06.22.55.34 1.08.13.53.37 1.34.54 1.8s.45 1.07.62 1.36.46.7.65.92.51.54.73.7c.21.16.46.3.54.3.09 0 .17-.04.17-.1.01-.05.01-.42 0-.82s.02-1.03.07-1.4.22-1.06.37-1.52.43-1.12.63-1.46.33-.64.3-.65c-.03-.02-.51-.1-1.06-.17s-1.5-.24-2.11-.37c-.62-.12-1.77-.41-2.56-.62-.79-.22-1.49-.42-1.56-.45-.1-.04-.13-.01-.14.15m-11.89.62c-.05.15-.09.43-.09.63 0 .25.08.53.25.88.17.33.45.71.78 1.04.29.29.83.72 1.2.98.38.25.87.53 1.1.64.23.1.45.15.48.12.03-.04.01-.18-.05-.32s-.27-.71-.46-1.26c-.18-.55-.38-1.27-.42-1.6-.05-.35-.14-.68-.23-.8-.09-.11-.28-.27-.43-.36-.21-.13-.45-.17-1.15-.19l-.88-.03z" class="shp0"></path><path d="M120.72 111.54c-.07.05-.21.23-.3.38-.15.27-.16.39-.16 2.4v2.12c-.41.81-.66 1.15-.84 1.3s-.52.34-.76.43-.67.22-.96.28c-.28.06-.95.14-1.47.16l-.96.05.02 5.7c.62 1.8.87 2.64.94 3.04.09.43.14 1.09.14 1.64s-.06 1.18-.14 1.56c-.08.35-.19.78-.25.96s-.24.5-.4.72c-.15.22-.3.55-.33.74-.05.29-.04.34.1.39.09.03.3.01.48-.05.17-.05.44-.18.6-.28.15-.11.35-.33.45-.5.1-.18.2-.56.25-.94.05-.35.11-1.16.14-1.8.03-.79.1-1.31.2-1.64.08-.26.27-.68.41-.92l.25-.44c.01-2.68.02-2.78.17-2.89.12-.09.29-.11.64-.09.26.03.66.12.88.22.32.13.52.16 1.03.14l.64-.02c.04-.56-.01-1.09-.07-1.54-.07-.45-.13-1.04-.13-1.32 0-.36.05-.57.16-.76.09-.14.26-.31.38-.37s.44-.14.7-.17.54-.09.62-.13.21-.19.3-.33c.12-.2.16-.4.16-.84v-.58c-1.28-1.33-1.78-1.92-1.93-2.16a8 8 0 0 1-.38-.68c-.06-.13-.13-.6-.15-1.04-.05-.77-.04-.81.16-1.08l.2-.28c-.21-.62-.35-.95-.44-1.14-.1-.19-.19-.34-.2-.34s-.08.04-.15.1" class="shp1"></path><path d="M73.85 119.7c-.73 1.33-1.66 2.94-2.05 3.58s-.97 1.52-1.28 1.97c-.32.44-.86 1.16-1.21 1.6-.35.43-1.08 1.24-1.64 1.79-.55.55-1.32 1.25-1.72 1.54-.39.29-1.06.71-1.47.93-.42.22-.99.47-1.28.55-.29.09-.88.21-1.32.26-.6.07-1.01.07-1.67.01-.49-.05-1.29-.19-1.8-.3-.5-.11-1.36-.37-1.91-.57s-1.5-.59-2.12-.87c-.61-.29-1.16-.5-1.21-.47-.08.03-.1.37-.08 1.38.01 1.21.03 1.38.2 1.74.12.25.44.65.84 1.05.36.36.92.82 1.25 1.03.33.22.97.56 1.42.78.63.29.81.42.81.54 0 .09-.03.24-.06.34-.04.1-.14.25-.22.33-.12.11-.21.13-.39.08-.14-.03-.49-.16-.8-.28-.31-.13-.64-.23-.74-.23-.12 0-.26.11-.42.34-.14.19-.34.59-.45.9-.2.54-.2.56-.06.66.08.06.87.51 1.75 1 .87.5 1.73 1.03 1.89 1.18s.3.32.3.36-.19.22-.42.38c-.39.29-.45.31-.97.3-.31 0-.78-.05-1.04-.12-.27-.07-.76-.29-1.1-.5-.35-.22-1.06-.8-1.65-1.36-.57-.54-1.04-1.01-1.04-1.04s.17-.24.38-.46.48-.62.61-.88c.12-.26.24-.68.27-.92.02-.24 0-.57-.05-.72s-.36-.66-.7-1.12-.68-.98-.76-1.16-.15-.48-.15-.68.09-.67.2-1.04.22-.88.25-1.12l.05-.44c-.73-.65-1.33-1.08-1.82-1.38-.48-.3-1.11-.76-1.39-1.03-.29-.27-.58-.59-.64-.72-.07-.12-.19-.31-.28-.42-.09-.1-.16-.21-.16-.24 0-.04-.15-.21-.32-.4-.18-.18-.46-.56-.62-.83-.17-.28-.35-.64-.4-.82s-.09-.61-.09-.96c0-.39.05-.75.12-.92.07-.15.25-.43.42-.62.16-.19.28-.38.27-.43-.01-.04-.16.02-.34.15-.17.13-.46.44-.64.7-.19.27-.37.66-.42.9-.05.23-.1.61-.1.84.01.23.05.6.11.82s.21.6.33.84.37.66.55.92.62.84.99 1.28c.36.44.66.83.66.86s-.31.54-.69 1.12-.74 1.16-.8 1.28-.11.29-.11.38.3.8.67 1.58c.43.92.71 1.64.8 2.06.08.35.3 1.14.48 1.76.19.62.42 1.51.53 1.98l.19.85c1.55.74 2.36 1.1 2.8 1.28.44.17 1.26.46 1.83.63.57.18 1.45.42 1.96.53.5.11 1.27.26 1.71.33s1.3.16 1.92.2c.78.06 1.49.06 2.35 0 .68-.04 1.53-.13 1.88-.19s.8-.16 1-.21c.19-.05.51-.18.69-.29.19-.1.34-.21.34-.23s-.04-.02-.1 0c-.05.02-.12.01-.15-.02-.04-.03.45-.45 1.07-.92.63-.47 1.35-1.05 1.61-1.28s.65-.65.86-.94c.22-.29.52-.79.68-1.12.23-.49.29-.72.33-1.24.03-.56 0-.75-.23-1.52-.18-.6-.27-1.04-.27-1.4 0-.47.05-.62.45-1.48.25-.53.48-1.09.51-1.24.02-.15.03-.42 0-.58-.04-.22-.17-.43-.48-.76-.36-.37-.44-.51-.45-.74 0-.19.07-.38.23-.6.13-.18.33-.41.45-.52s.37-.4.56-.64c.18-.24.5-.73.7-1.08.21-.35.51-1 .69-1.44s.41-1.16.53-1.6c.11-.44.23-.83.26-.87.03-.03.2.17.37.44.17.28.45.82.61 1.19s.42 1.09.59 1.6c.16.51.36 1.21.45 1.56.08.35.2.69.26.76s.5.34.97.6c.56.31.96.61 1.17.84.18.21.36.53.43.76.06.22.11.58.11.8s-.12.83-.28 1.36c-.15.53-.28 1.1-.28 1.26 0 .29-.01.31-.46.48-.25.1-.66.31-.91.48-.26.16-.47.28-.48.26s.02-.26.08-.54c.06-.27.07-.53.04-.56-.03-.04-.51.55-1.05 1.32-.55.76-1.3 1.72-1.68 2.14-.37.42-.69.78-.7.8s-.04.01-.06-.02c-.03-.03.34-.99.81-2.12s.99-2.44 1.16-2.9c.18-.46.39-1.07.47-1.36s.15-.67.15-.86-.05-.45-.12-.58-.32-.37-.56-.52-.49-.28-.56-.28c-.09 0-.12.12-.11.58 0 .35-.06.78-.16 1.1-.09.31-.26.64-.42.82-.15.16-.47.42-.72.58l-.46.28c-.05 3.1-.1 3.87-.2 4.4-.08.42-.21.95-.29 1.18s-.13.46-.11.5-.01.1-.06.12c-.06.02-.03.03.06.01.09-.01 1.06-.59 2.15-1.29 1.1-.69 3-1.92 4.21-2.73l2.22-1.47c.71.19 1.35.39 1.87.56.53.17 1.22.42 1.54.56.32.13.61.22.66.2.04-.02-.13-.14-.37-.26l-.45-.22c.02-1.86-.01-2.65-.06-2.96s-.21-.8-.35-1.1-.22-.57-.18-.6.36.25.71.62.89 1.06 1.19 1.52c.31.46.9 1.53 1.33 2.37.63 1.25.75 1.56.67 1.64-.08.09-.07.13.08.24.1.07.41.25.7.39.28.15 1.03.56 1.65.93.63.37 1.16.66 1.17.65.02-.01-.05-.43-.15-.94-.15-.73-.29-1.16-.71-2.08-.3-.64-.73-1.54-.98-2-.24-.46-.63-1.13-.86-1.48s-.7-.94-1.05-1.31c-.34-.37-.88-.88-1.19-1.12-.3-.25-.86-.63-1.23-.85s-.82-.54-1-.72-.46-.55-.62-.84a8 8 0 0 1-.41-.9c-.07-.21-.17-.84-.21-1.4-.07-.83-.13-1.11-.31-1.5q-.21-.48-.63-.84c-.22-.2-.89-.64-1.47-.98-.58-.33-1.07-.6-1.08-.6-.01.01.02.38.06.82.05.44.13 1.03.17 1.32s.18.74.3 1 .42.77.67 1.12c.24.35.53.83.65 1.06.11.23.28.68.37 1s.2.81.24 1.1c.06.39.05.85-.04 1.84-.07.73-.15 1.68-.18 2.12-.06.78-.07.8-.26.8H80l-.2-3.12c-.4-.41-.9-.76-1.36-1.04s-.93-.61-1.05-.73c-.11-.13-.25-.32-.31-.43s-.1-.45-.1-.76.05-.72.1-.92c.06-.2.22-.67.37-1.06.18-.47.25-.76.22-.88-.03-.1-.29-.43-.56-.74-.28-.31-.61-.72-.72-.92-.17-.3-.22-.51-.27-1.2-.04-.46-.09-.95-.12-1.08s-.14-.41-.24-.62c-.11-.21-.23-.4-.27-.42s-.07-.13-.06-.23-.04-.23-.11-.28c-.11-.08-.32.26-1.47 2.33" class="shp3"></path><path d="M113.56 120.3c-.03.08-.51 1.54-1.05 3.26-.53 1.72-1.09 3.5-1.23 3.96s-.24.88-.23.92c.02.04.15.8.3 1.68.22 1.27.34 1.74.57 2.28.24.55.43.84 1.02 1.5.4.46.77.81.81.8.05-.02.22-.66.38-1.43.16-.76.46-2.15.66-3.07.33-1.54.36-1.76.34-2.6l-.02-.91-.88-.22c-.09-3.18-.12-4.52-.12-5.03s-.02-1-.04-1.1c-.03-.13-.1-.18-.24-.18-.1 0-.23.06-.27.14m-66.6.81c-.26.13-.62.39-.79.58-.18.19-.4.53-.5.75s-.21.63-.26.92c-.04.32-.04.73 0 1.08.04.31.15.77.23 1.02l.16.46c-.35.71-.55 1.21-.66 1.56s-.25.98-.33 1.4c-.07.46-.12 1.22-.12 1.9q0 1.14.15 2.04c.09.49.27 1.24.4 1.66.14.42.4 1.03.58 1.36.17.33.49.83.7 1.12s.67.79 1.01 1.12c.35.33.93.79 1.31 1.02.37.23.69.41.7.4s-.07-.43-.19-.94c-.11-.51-.34-1.37-.51-1.92s-.37-1.29-.45-1.64c-.09-.42-.37-1.14-.8-2.06-.37-.78-.67-1.49-.67-1.58s.05-.26.11-.38.42-.7.8-1.28.69-1.09.69-1.12-.3-.42-.66-.86c-.37-.44-.81-1.02-.99-1.28s-.43-.68-.55-.92-.27-.62-.33-.84-.1-.59-.11-.82c0-.23.05-.61.1-.84.05-.24.23-.63.42-.9.18-.26.47-.57.64-.69.18-.13.35-.21.38-.19s.08 0 .1-.04.13-.08.24-.08.25-.02.32-.04c.06-.02.12-.08.12-.12s-.17-.08-.38-.08c-.26 0-.54.07-.86.23m26.35.53c-.02.04-.13.44-.25.88s-.35 1.16-.53 1.6-.48 1.09-.69 1.44c-.2.35-.52.84-.7 1.08-.19.24-.44.53-.56.64s-.32.34-.45.52c-.16.22-.23.41-.23.6.01.23.09.37.45.74.27.29.45.56.48.72.03.14.02.4 0 .58-.03.18-.26.75-.51 1.28-.4.86-.45 1.01-.45 1.48 0 .36.09.8.27 1.4.23.77.26.96.23 1.52-.04.52-.1.75-.33 1.24-.16.33-.46.83-.68 1.12-.21.29-.6.71-.86.94s-.98.82-1.61 1.3c-.62.48-1.11.89-1.08.91.04.01.94-.34 2.02-.78 1.88-.79 1.97-.83 2.44-1.29.27-.27.6-.68.74-.92.13-.24.34-.71.45-1.04s.25-.92.33-1.32c.09-.49.14-1.31.16-2.54l.03-1.82c.71-.44 1.03-.7 1.18-.86.16-.18.33-.51.42-.82.1-.32.16-.75.16-1.1-.01-.46.02-.58.11-.58.07 0 .32.13.56.28s.49.39.56.52.12.39.12.58-.07.57-.15.86-.29.9-.47 1.36c-.17.46-.69 1.77-1.16 2.9s-.84 2.09-.81 2.12c.02.03.05.04.06.02s.33-.38.7-.8c.38-.42 1.13-1.38 1.68-2.14.54-.77 1.02-1.36 1.05-1.32.03.03.02.29-.04.56-.06.28-.09.52-.08.54s.22-.1.48-.26c.25-.17.66-.38.91-.48.45-.17.46-.19.46-.48 0-.16.13-.73.28-1.26.16-.53.28-1.14.28-1.36s-.05-.58-.11-.8c-.07-.23-.25-.55-.43-.76-.21-.23-.61-.53-1.17-.84-.47-.26-.9-.53-.96-.6s-.22-.53-.35-1.04-.37-1.3-.53-1.76-.47-1.2-.68-1.64c-.22-.44-.46-.89-.54-1-.09-.11-.17-.16-.2-.12m-24.93 5.13c-.01.09.23.39.6.75.38.38.95.81 1.49 1.15.48.29 1.09.72 1.35.95l.47.42c-.08.68-.19 1.19-.3 1.56s-.2.84-.2 1.04.07.5.15.68.42.7.76 1.16.65.97.7 1.12.07.48.05.72c-.03.24-.15.66-.27.92-.13.26-.4.66-.61.88s-.38.43-.38.46.47.5 1.04 1.04c.59.56 1.3 1.14 1.65 1.36.34.21.83.43 1.1.5.26.07.73.12 1.04.12.52.01.58-.01.97-.3.23-.16.42-.34.42-.38s-.14-.21-.3-.36-1.02-.68-1.89-1.18c-.88-.49-1.67-.94-1.75-1-.14-.1-.14-.12.06-.66.11-.31.31-.71.45-.9.16-.23.3-.34.42-.34.1 0 .43.1.74.23.31.12.66.25.8.28.18.05.27.03.39-.08.08-.08.18-.23.22-.33.03-.1.06-.25.06-.34 0-.12-.18-.25-.81-.54-.45-.22-1.09-.56-1.42-.78-.33-.21-.89-.67-1.25-1.03-.4-.4-.72-.8-.84-1.05-.17-.37-.19-.52-.2-1.84l-.02-1.44c-1.21-.63-1.93-1.04-2.38-1.33-.46-.28-1.09-.7-1.4-.94-.32-.24-.65-.49-.74-.55-.14-.11-.16-.1-.17.03m34.21 2.11c0 .04.09.27.21.5.11.23.26.69.32 1.02.08.39.11 1.04.1 1.84l-.01 1.24c1.65.78 2.39 1.12 2.69 1.27.35.17.59.25.64.2s-.19-.61-.69-1.61c-.43-.85-1.02-1.92-1.33-2.38-.3-.46-.82-1.14-1.16-1.5s-.65-.66-.69-.66-.08.04-.08.08m-14.2.58c-.24.23-.64.53-.88.66-.29.16-.45.31-.49.44-.03.11-.06.43-.06.72 0 .42-.04.57-.19.75-.1.13-.52.44-.94.7-.41.25-.83.54-.93.64-.1.11-.31.48-.47.83s-.4.79-.52.98c-.13.19-.43.49-.67.68s-.47.31-.5.27c-.03-.03-.08-.23-.1-.44l-.04-.38-3.15-2.59c-1.52-.25-2.55-.42-3.27-.55-.73-.13-1.35-.21-1.39-.18s-.06.25-.04.5c.02.34.09.51.27.75.13.17.37.36.52.42.15.07.62.15 1.04.19.41.04.91.13 1.09.19.19.07.4.2.46.3.07.1.12.29.12.42 0 .16.35.84 1.07 2.08.97 1.69 1.09 1.86 1.45 2.09.22.14.54.36.71.49.18.13.39.37.47.55.14.29.14.33.02.57-.07.14-.3.4-.51.58-.2.18-.57.44-.81.58-.23.14-.44.3-.46.36-.02.07.21.11.84.15.47.03 1.14.03 1.49 0 .37-.03.79-.12 1-.22.2-.09.65-.35 1-.59.35-.23.85-.65 1.12-.93s.57-.66.66-.85.17-.38.17-.42-.13-.36-.28-.7c-.16-.34-.27-.65-.26-.68s.42-.3.9-.61l.88-.54c.04-.55.01-1.27-.05-1.95-.07-.96-.08-1.37-.01-1.8.08-.43.19-.7.49-1.2.22-.35.47-.86.55-1.12.09-.26.19-.72.21-1.02.03-.3.02-.54-.01-.54-.04 0-.26.19-.5.42m-19.19.87c-.58.27-1.1.53-1.16.59-.07.06-.17.24-.22.41s-.1.41-.1.53c0 .18.19.41.98 1.17.84.82.99 1.01 1.12 1.38.08.24.19.77.25 1.19s.17 1.26.24 1.88c.08.62.19 1.38.27 1.71.12.55.15.6.49.81.2.13.53.31.74.4s.43.15.5.14c.08-.01-.01-.2-.31-.66-.24-.35-.53-.89-.65-1.2-.17-.41-.23-.71-.23-1.12 0-.31.03-.83.06-1.16.06-.51.04-.69-.1-1.2-.13-.47-.19-.97-.24-2.28-.05-1.15-.12-1.9-.23-2.38-.1-.48-.19-.7-.27-.69-.06 0-.57.22-1.14.48" class="shp1"></path><path d="M84.87 134.38c.13.07.35.17.49.23.15.06.26.08.26.05.01-.03-.18-.14-.41-.24-.24-.1-.46-.18-.5-.18-.05.01.02.06.16.14" class="shp3"></path><path d="M71.58 153.62c-.24.06-.61.19-.83.3-.21.11-.54.37-.74.58-.19.21-.44.59-.55.84s-.23.66-.28.9c-.04.24-.08 1.36-.07 2.48 0 1.12.03 2.27.08 2.56s.17.7.28.92c.1.22.32.56.49.75s.5.44.74.56c.38.18.54.21 1.2.21.63 0 .81-.03 1.1-.18l.33-.18c-.04 3.8-.06 4.17-.18 4.42-.07.16-.22.34-.31.39-.12.06-.28.07-.46.02a.7.7 0 0 1-.42-.31c-.11-.19-.16-.49-.2-1.34l-.06-1.1h-2.59c0 1.33.03 1.94.08 2.2.04.26.17.67.28.9.1.23.36.6.57.83.21.22.54.49.74.59s.59.23.88.28c.31.06.79.09 1.2.06s.86-.11 1.15-.22c.34-.13.61-.32.93-.63.26-.27.53-.65.66-.93.14-.31.25-.71.3-1.12.03-.35.07-2.88.07-5.62 0-4.15-.02-5.08-.12-5.6-.07-.34-.24-.83-.38-1.1-.16-.29-.42-.6-.66-.8-.22-.18-.61-.41-.88-.51-.32-.13-.7-.19-1.19-.22-.42-.01-.91.02-1.16.07m9.65-.01c-.24.04-.58.14-.75.22-.18.07-.5.3-.71.49-.21.2-.49.54-.61.76s-.3.65-.39.96c-.17.55-.17.69-.17 5.88 0 4.56.02 5.39.13 5.8.07.26.24.69.38.95s.39.62.57.79c.17.18.5.41.72.51s.59.23.83.28c.25.05.78.07 1.2.06.67-.03.83-.07 1.36-.32.39-.19.7-.41.9-.64.17-.19.42-.57.55-.83s.29-.71.35-1c.09-.41.11-1.63.11-5.6 0-4.87 0-5.11-.16-5.72-.09-.35-.26-.82-.38-1.03s-.38-.55-.57-.75c-.2-.2-.51-.43-.68-.52-.18-.09-.56-.21-.84-.27-.29-.06-.72-.1-.96-.1-.24.01-.63.04-.88.08m-16.82.51c-.18.24-.48.55-.67.69-.19.13-.45.3-.58.37s-.47.21-.76.3l-.52.18c-.03.79-.02 1.1 0 1.2.04.17.08.18.88.18h.84v13.12h2.63v-16.48h-1.5zm27.51-.22c-.05.12-.78 2.16-1.63 4.54s-1.67 4.68-1.83 5.12c-.28.77-.29.84-.29 1.9l.01 1.1 4.03.04.04 3.56h2.39v-3.6l1.16-.04v-2.08l-1.16-.04c0-8.12-.02-10.53-.04-10.6-.03-.1-.25-.12-1.32-.12H92z" class="shp1"></path><path d="m94.64 159.06.04 5.3c.03-8.12.01-10.51-.02-10.54s-.04 2.33-.02 5.24" class="shp3"></path><path d="M72.26 155.71c-.13.06-.31.2-.38.32-.13.19-.14.47-.14 2.77v2.56c.42.43.55.48.8.48.22 0 .38-.06.54-.19l.21-.2c.04-4.71.02-5.17-.08-5.37-.06-.14-.24-.29-.39-.36-.16-.07-.29-.12-.3-.12s-.13.05-.26.11m9.63.22c-.13.04-.33.19-.43.33l-.19.26c-.03 8.06-.02 10.52 0 10.66s.13.37.24.5c.18.21.26.24.6.24.31 0 .45-.04.62-.19l.22-.2c.04-9.74.02-10.98-.06-11.16-.05-.13-.14-.26-.18-.3-.04-.03-.19-.1-.33-.13-.13-.04-.35-.04-.49-.01m10.09 3.25c-.02.03-.36 1.18-.76 2.54s-.73 2.53-.73 2.58c0 .08.21.1.86.08l.86-.02c.03-3.78.02-4.96 0-5.06s-.08-.18-.12-.18-.09.03-.11.06" class="shp2"></path><path d="M94.67 168.36c0 .97.02 1.35.03.84s.01-1.3 0-1.76-.03-.05-.03.92" class="shp3" data-source="https://football-logos.cc"></path><!-- source: https://football-logos.cc --></svg>