<svg xmlns="http://www.w3.org/2000/svg" version="1.0" viewBox="1.28 0.07 977.52 1790.69"><!-- Source: https://football-logos.cc --><path fill="#e51c25" d="M919.5 1c-.3.5-.8 5.2-1 10.4-.8 17.8-5.7 44.7-12.1 66.6-15 51-24.3 75.1-45 116-31.9 63.4-82.7 131-133 177.1C686 410 650.9 436.7 565.5 495c-13.2 9.1-29.8 20.9-37 26.5-17.5 13.5-35.7 31.6-42.9 42.7-8.7 13.4-18.9 36.5-29.6 67.3-10.2 29-21.1 48.4-36.2 64.1-13.3 13.8-31.1 24.3-44.1 25.9-7.7 1-9.9.1-9.5-3.8.3-2.8 1.2-3.6 7.6-7.2 10-5.5 16-10.6 23.8-20 9.5-11.7 15.9-25.4 24.4-53 3.9-12.7 9.4-30 12.2-38.5C456.6 530.8 484 491.8 550 434.4c13.2-11.5 53.1-45.3 63-53.4 37.7-30.8 78.3-71.3 105.6-105.5 34.6-43.2 55.7-83.5 62-118 2.5-13.7 2.5-38.4.1-47.5-2.8-10.3-8.1-20.5-13.9-26.6-5.7-6-18.6-15.5-25.2-18.5-5.1-2.3-12.4-2.5-13.2-.4-.3.8 1.4 5.6 3.9 10.7 7 14.2 8.2 19.6 8.1 37.8 0 15.1-.1 15.8-3.8 27.5-15.4 49-40 91.2-84.4 144.6-30.9 37.1-50 55.7-113.2 109.8-61.9 53-78.5 69.2-98 95.4-14.5 19.5-29 49.5-37.5 77.2-2 6.6-8.3 30.4-14 53-11.7 46.3-14.9 55-23.6 63.7-4.1 4.1-5.4 4.8-8.6 4.8-8.1 0-14.7-8.9-18-24.1-2.8-12.9-2.5-45.8.5-59.1 3.2-14.7 8.7-30.3 15.6-44.5 14.2-29.1 28-47.9 70.3-95.3 49.9-56.1 62.2-77.5 62.3-107.9 0-12.1-2-20.3-7.9-31.5-5.2-10.2-11.4-16.9-19.9-21.9-7.9-4.6-7.6-6.2 1.3-6.2 3.9 0 10.5.6 14.8 1.3 35.3 5.5 75-7.6 85.4-28.2 3-5.9 4.3-16.7 2.3-19.1-1.6-1.9-5-2-5-.1 0 2.3-4.8 7.4-9.6 10.2-19.3 11.3-41.8 8.7-108.4-12.6-42.1-13.4-47.2-15-59.3-17.9-16-3.9-31.4-5.4-47.9-4.9-15.3.6-21.6 2.4-29.6 8.8-7.7 6-9.6 12.1-6.7 21.6.7 2.1.4 2.1-18.7 2.9-10.6.4-19.5.8-19.7.9-.2 0-1.7-3.7-3.3-8.4-4.3-12.9-6.9-19-8.2-19-.6.1-4 .7-7.6 1.5s-8.2 1.4-10.2 1.5c-2.1 0-3.8.3-3.8.6s1.1 2 2.4 3.7c3.3 4.3 8.6 15.6 9.2 19.9l.6 3.3-8.9 2.9c-23.4 7.4-36.6 16.9-43.5 31-3.7 7.7-4.7 11.6-3 11.6.5 0 5.6-1.8 11.5-4 13.1-4.9 28.7-8.8 39.1-9.7l7.9-.6-.6 7.4c-.5 6.4-4.1 22.6-5.2 23.8-1 1-9.8 2-17.2 2.1-7.4 0-8.2.2-8.8 2.1-1.6 5.1 2.9 9.7 12.7 12.8 2.1.7 4 1.6 4.3 2.1 1.1 1.8-7.3 15.9-15.2 25.8l-3.4 4.2-4.3-3.5c-7.3-6-14.9-8.8-24.8-9.3-11.1-.6-19.1 1.7-34.3 9.8-6 3.2-13.8 6.7-17.2 7.9-5.6 1.9-6.5 1.9-10.9.6-5.6-1.7-6.7-.9-5.3 3.8 2.7 9.3 17.2 15.6 33.2 14.4 8.5-.6 12.8-2.2 25.9-9.4 13.9-7.7 30.8-11.6 30.8-7.2 0 2.7-11.4 10.8-32.1 22.9-12.8 7.4-23.3 16.6-27.2 23.7-3.3 6.2-4.3 14.1-2.7 21.7 2.2 10.7 13.6 19.6 25.1 19.6 3.6 0 4-.2 3.3-1.8-1.7-3.8-1.6-11 .2-14.9 1-2.1 6.8-8.8 13-14.8 9-8.9 11.4-11.9 12.7-15.9 1.9-5.6 2.2-11.2.7-15-.9-2.4-.4-3 7.3-8.9 4.5-3.5 8.7-6.7 9.4-7.1.8-.4 2.6 2 5.4 7.6 12.9 25.7 36.9 33.9 57.5 19.7 10.8-7.4 18.7-18.9 20.1-29.4l.6-5-3.6 3.2c-4.9 4.3-11.1 7.8-17.5 9.8l-5.3 1.8-6.2-6c-3.4-3.2-7.7-6.9-9.5-8.2-5-3.5-14.5-6.1-22.2-6.1h-6.9l5.2-7c2.9-3.8 8.1-11.7 11.6-17.5 4.3-7.1 7.1-10.7 8.5-10.9 1.2-.2 8.2-1.4 15.6-2.5 7.4-1.2 18.5-3.2 24.5-4.6 32.8-7.5 53-4.3 67 10.6 2.5 2.7 6.1 8 7.8 11.7 3 6.3 3.2 7.3 3.2 18.2 0 13.1-1.5 18.4-8.6 30.2-11.9 20.1-31.9 38.9-96.9 90.9-40.8 32.6-55.6 45.4-73.5 63.3-20.3 20.3-38.8 43.4-51.6 64.3-5.1 8.2-16.6 32.1-21.9 45.3-19.1 47.9-20.9 106.1-4.8 155 4.7 14.1 16.5 38.1 25.3 51.5 11 16.7 29.8 36.7 48.7 52s49 33.6 73.1 44.6c55.3 25.3 115.8 43 178.7 52.2l15.5 2.3 3.7 11.2c12.2 36.5 13.4 75.6 3.3 105.9-1.4 4.2-2.4 7.8-2.1 8 .2.2 3.1-.9 6.4-2.6 8.1-4.1 20.6-14.3 26.1-21.3 3.5-4.6 4.7-5.6 5.6-4.6.7.7 2.2 8 3.4 16.3 3.9 25.8 10.3 56.2 17.8 84 9.6 35.9 29.7 88.9 42.4 112.1 5.4 9.8 5.6 14.5 1 18.6-3.1 2.8-3.7 3-9 2.3-7.1-.8-13.8-2.7-27.1-7.7-15.1-5.6-37.3-10.1-47.5-9.6-8.5.5-14.2 2.6-18 6.8-1.6 1.7-2 3.6-2 8.6v6.4h-10c-5.5 0-11.7.5-13.7 1-4.5 1.3-11 6.1-15.1 11.3-5.8 7.2-4.5 20.7 2.4 24.2 4.2 2.2 5.4 1.9 7.3-2.5 3.7-8.4 14.3-13.9 28.7-14.7 6.3-.4 8.8-.2 9.4.7.5.8.1 1.6-.8 2.2-15 8.3-19.9 21.8-11.5 31.4 3.8 4.3 6.9 6 12.6 6.7 4.2.5 4.2.5 4.2-2.7 0-3.3 3.6-9.3 7.6-12.8 4-3.4 15.2-8.8 23.4-11.1 19.9-5.8 46.3-8.2 90-8.2 57.7 0 85 5.1 96.9 18 2.1 2.3 4 4.7 4.2 5.4 1.6 4.8 16.8-6.9 21.5-16.5 6.7-13.6-.8-24.5-20.2-29.4-7-1.8-10.7-2-31.9-1.9-25.4.2-29.9-.3-38.5-4.7-2.5-1.2-6.5-4.3-8.8-6.8-18.7-20.3-43.9-120.8-51.3-204.9-.6-7.5-.9-14-.6-14.3.3-.4 3 .9 5.9 2.8 13.2 8.8 27.9 13.8 42.3 14.5 8.4.4 10.6.1 13.4-1.4 1.9-1 3.6-2.3 3.8-2.9s-4.7-5.1-10.8-10c-29.7-23.5-48.9-59.4-55.3-103.5-2.4-16.4-1.9-49.3 1-59 .3-1.1-3.5-5-12.3-12.5-34.5-29.4-64.5-59.3-85.2-85.1-28.1-35.1-43.8-68.5-47.1-100.6-.8-8-.7-10.4.5-13.2 2.6-6.3 3.6-5.2 10 11.5 5.8 15.3 17.3 39.1 25.3 52.5 15.6 26.2 34.7 47.4 82.2 91.5 40.9 37.9 63.5 62.4 75.1 81.6 19 31.1 27.4 62.9 26.8 100.8-.3 14.9-.1 17.1 1.3 18 3.9 2.4 7.8-5.5 11.8-24.4 5.6-26.1 4-60.4-4.1-88.5-8.1-27.9-22.5-55.7-39-75-10-11.8-33.4-34.5-50-48.6-8-6.8-21.9-18.7-31-26.4-19-16.1-46.8-43.5-55.9-55-8.8-11.1-21.3-30.4-23-35.4-1.5-4.5-.3-9.1 2.4-9.1.7 0 5 3.8 9.4 8.5 36.7 38.8 81.8 65.7 124.9 74.4 13.3 2.7 35 4.3 43.4 3.1 25.7-3.7 52.7-17 74.9-36.9 7-6.2 8.9-10.2 5.6-11.4-.8-.3-9.1-.6-18.6-.6-18.2-.1-33.6-1.2-48.8-3.6-17-2.7-45.2-9.3-60.2-14-16.7-5.2-45.8-18-52.3-22.9-2.8-2.1-1.8-5 1.8-5.4 20.5-1.9 37.3-6.3 50.9-13.5 13.5-7.1 31.3-25.8 29.4-30.9-.5-1.3-3.6-1.4-22.6-1-28.2.6-55.6-2-56.9-5.5-1.1-2.8 1.7-4 10.4-4.7 4.9-.3 14.2-1.8 20.9-3.1 34.9-7.1 61-22.9 71.9-43.7 2.5-4.7 3.4-11.8 1.5-11.8-.5 0-10.3 1.8-21.7 4.1-31.1 6-45.1 7.9-62.8 8.5-16.9.6-20 0-17.9-3.3.7-1.2 6.8-3.2 19.5-6.4 17.9-4.6 35.9-10.8 50.5-17.4 17.8-8.1 32.7-20.9 39.2-33.4 4.5-8.9 4.3-17.1-.6-17.1-.8 0-6.4 2-12.5 4.4-22.8 9-48.6 16.6-72.7 21.5-14.5 2.9-21.4 3.5-22.7 1.9-2-2.4.8-4.4 11.2-7.8 51-16.8 85.4-37.4 96.8-58 6-11 8.2-21.6 5.5-27.4-.6-1.4-1.8-2.8-2.7-3.1s-9.5 3.1-19 7.6c-29.6 13.7-62.1 25.9-65.7 24.5-5.1-2 2-7.1 77.1-56.1 23.7-15.5 37.3-25.1 58.5-41.4 43.1-33.2 58.3-46.3 87.5-75.6 51-50.9 96.5-110.4 125.5-164 24.5-45.1 36.8-74.1 44.2-104 3.2-13.1 3-31.4-.5-44.6-4.4-16.8-13.8-34.1-23.2-42.8-4.4-4-6.8-5-8-3.1M346 268.6c21.6 3.8 36 7.4 36 8.8 0 .8-3 2-7.7 3-4.3.9-13 2.7-19.3 4.1s-12.5 2.5-13.7 2.5c-4.2 0-10.3-3.2-11.8-6.1-2.6-5-1.6-14.9 1.5-14.9.3 0 7.1 1.2 15 2.6m-55.1 27.5c7.6 1.2 11.7 3.1 12.6 6 2.7 8.5-9.7 16.4-33.4 21.1-6.1 1.2-11.3 1.9-11.6 1.7-.2-.3.6-5 1.9-10.5 1.4-5.4 2.7-12 3.1-14.7l.6-4.7h10.2c5.6 0 13.1.5 16.6 1.1M301 554.9c0 1.1-2.2 5.5-4.8 9.8-20.8 33.7-35.2 74.3-39.1 110.5-4.6 41.7 5.5 89.7 28 133.8 17.9 35.2 47.9 67.2 90.3 96.5 6.9 4.7 12.6 9.3 12.6 10.1 0 2.3-5.3 1.7-15.8-2-39.9-14-68.3-31.1-96.1-58.1-16.9-16.5-27.7-30.2-37.8-48.5-10.9-19.8-19.5-47.8-22.4-73-1.5-13.2-.7-41.6 1.6-53 5.2-26.9 15.9-51.7 34.2-79.2 17-25.6 49.3-56.3 49.3-46.9" data-source="https://football-logos.cc"></path><path fill="#e51c25" d="M969.3 106.8c-.5.4-3.8 8.1-7.2 17.2-15.2 39.8-50.3 103.1-76.9 138.2-27.7 36.7-29.9 39.3-65.1 76.6-14.6 15.6-27.2 29.4-28 30.6-1.8 3-.8 5.6 2.3 5.6 2.7 0 10.2-5.8 31.6-24.5 47.3-41.2 87.4-82.2 114.8-117.4 29.5-37.9 36.8-53.8 37.9-83.1.9-24-4-46.7-9.4-43.2m-165 17.4c-.4.7-.8 7.1-.8 14.3-.1 10.5-.6 15.2-2.8 24.6-9.8 41.4-27.1 75.6-62.6 123.3-10.7 14.4-26 31.6-45.1 50.6-23.5 23.6-38.4 36.8-88 78.1-40.2 33.5-56.4 47.6-73 63.4-22.1 21.1-27 27.4-24 31 2.8 3.4 6.7 1.8 17.8-7.4 22-18.1 48.7-37.7 99.7-73.1 50-34.7 97.1-77 131-117.5 18.7-22.4 31-40 45.8-65.5 16.6-28.8 22.4-45.8 23.4-68 .7-16.1-1.1-26-7.1-38.6-6.1-12.8-11.9-18.9-14.3-15.2" data-source="https://football-logos.cc"></path><path fill="#e51c25" d="M954.2 239.7c-1.1 1-6.9 7.9-12.8 15.3-47.7 60-109.8 117.9-183.4 171.2-24.6 17.8-75.2 50.9-92.8 60.8-4.9 2.8-5 3.2-1.3 13 4 10.7 2.4 25.3-4 36.7-3.2 5.8-3.3 6.3-2 6.3 2.8 0 53.6-30.8 81.5-49.3 54-36 93.5-68.4 134.6-110.3 21.2-21.6 32.4-34.7 45.7-53.7 27.2-38.9 47.8-86.2 39.4-90.7-2.5-1.3-2.5-1.3-4.9.7m-80.4 170.5c-57.5 57.4-125.7 106.1-201.7 144.3-6.1 3-11.1 5.9-11.1 6.3s.5 3.6 1.1 7.2c2 12.4-2.4 29.5-10.1 39.2-3.7 4.5-4 7.2-.7 6.2 4.8-1.4 28.1-12.3 46.2-21.4 57.2-29 100.1-59.3 138-97.4 35.8-35.9 56.3-67.4 60.6-92.9 1.1-6.8 1.1-8-.1-8.7-.8-.6-2-1-2.7-1s-9.4 8.2-19.5 18.2M844 516.7c-1.9 1.5-7.5 6.3-12.5 10.8-4.9 4.4-10.6 9.2-12.5 10.6s-7.8 5.7-13 9.6c-29.4 21.6-60.8 40-97 56.9-16.9 7.8-41.5 17.9-51.1 20.9l-5.6 1.8-.7 8.1c-1.4 17-6.5 29-17.4 40.7-3.5 3.8-6.2 7.3-5.8 7.6 1.7 1.7 32.5-7.1 52.1-14.9 15.1-6 38.9-17.3 48.5-23.1 31.5-18.9 55.4-37 77.1-58.7 17.1-17.1 27.2-29.5 35.8-43.9 5.9-10 11-24.5 9.4-27s-3.5-2.4-7.3.6m-46.1 110.1c-3 2.1-7.5 5.4-10.1 7.4-12.1 9.3-40.3 25-63.8 35.6-29.1 13.1-56.9 22.3-84.6 28l-13.1 2.6-.6 8.3c-.6 9.5-3.8 17.5-10.5 26-4.7 5.9-15 14.4-23.4 19.3-3.1 1.9-5.4 3.8-5.1 4.3 1.6 2.6 39.1-4.3 57.8-10.6 25.7-8.7 52.5-20.8 72.6-32.7 34.5-20.4 75-57.4 87.7-80.1 3.4-6 3.9-8.8 2-10.7-1.8-1.8-3-1.5-8.9 2.6m-70.4 105.3c-36.3 19.1-68.6 30.3-103.2 35.9-10.3 1.7-9.5 3.3 2.5 5.4 20 3.6 58 4.4 77.1 1.6 5.6-.8 7-1.4 10.8-5.2 5.6-5.4 21.1-25.4 26.4-33.9 3.8-6.1 4.8-10.9 2.4-11.5-.5-.1-7.7 3.3-16 7.7M523.6 832.8c-.3.3-.6 1.1-.6 1.8 0 1.7 24.7 22.2 49 40.9 43 32.8 57.6 45.2 76.6 64.7 15.4 15.9 25.7 28.8 40.3 50.8 25.4 38 34.8 57.2 45 92.2 14.9 51.1 15.7 95.2 2.5 142-2.6 9.5-2.9 12.4-1.4 13.3 3.3 2 9-5.7 23-30.9 37.3-67.1 45.3-131.9 24.1-195.6-16.1-48.2-50.3-88.1-99.1-115.5-16.9-9.5-42.8-20.3-87.7-36.6-36.8-13.3-41.9-15.3-55.3-21.4-12-5.4-15.5-6.7-16.4-5.7m-228.1 180.9c-3.1 37.7-12.5 78-25.5 109.9l-3.8 9.4h2.7c5.7 0 18.6-4.1 27.2-8.7 4.9-2.5 13.4-8.2 18.9-12.5 5.6-4.3 10.3-7.8 10.5-7.8s-.7 3.9-2 8.7c-9.1 33.7-39.6 102.3-65.2 146.8-15.5 27-45.7 76.1-49.9 81.2-1.9 2.4-5.6 5.5-8.2 7-4.3 2.6-5.5 2.8-15.2 2.8-9.8-.1-11.3-.3-22.5-4.4-25.7-9.2-34.6-10.6-46.8-7.2-11.8 3.2-16.5 8.1-15.5 15.9l.5 3.7H88.6c-12.3 0-18.8 1.2-25.7 4.6-12.9 6.4-14.8 22.9-3.5 31.3 2.7 2.1 2.7 2.1 3.8.1 2.2-4.1 10.7-11.3 16.9-14.3 11.7-5.7 27-8.1 31.4-4.8 1.9 1.4 1.8 1.5-1.4 3.3-8.5 4.7-13.8 9.1-16.8 14.2-6.8 11.3-4.8 20.1 5.6 25.3 3.4 1.8 7.1 2.8 9.7 2.8h4.3l-.6-3.4c-1-6.5 4.2-13.3 14.3-18.4 15-7.6 47.3-11.2 100.9-11.2 45.5-.1 70.6 2.6 84 8.9 8.5 3.9 11.5 7 11.5 11.6 0 3 .3 3.5 2.3 3.5 3 0 9.6-4.4 13.2-8.8 3.1-3.7 6.5-13.6 6.5-18.8 0-11.2-10.8-19.6-29.5-22.9-6.6-1.1-15.1-1.5-32-1.4-16.3.1-23.8-.3-25.7-1.1-3.7-1.7-5.3-5.9-3.9-10.2 1.3-3.7 12.3-19.5 33.5-48.3 39.7-53.9 66.5-92.1 74.5-106 9.3-16.3 17.3-40.2 18.8-55.9 1-11.5 1.1-11.6 7.1-6.3 12 10.6 30.4 20.7 37.9 20.7 2.4 0 4.3-.2 4.3-.4s-1.9-3.5-4.2-7.2c-14.7-24.2-24.5-59.1-27.4-97.1l-.7-9.2-9.6-1.6c-24.4-4.2-52.1-13.4-82.4-27.4-4.9-2.3-9-4.1-9.2-4.1s-.6 3.5-1 7.7m410 455.9c-35.7 2.7-50.4 6.1-73.4 17-16.9 8-29.4 16.8-41.6 29.2-18.8 19-29.4 36.4-37.4 60.9-7.3 22-8.5 30.1-8.4 52.8.1 32.8 2.3 44.9 12.7 68.9 10.4 24.2 25.1 42.8 46.2 58.7 12.8 9.6 21.7 14.5 37.1 20.7 27.5 11 42 13.7 68.8 12.8 32.2-.9 54.1-5.4 86.7-17.6 6.6-2.5 5.5 1.8 9.2-34 2.3-23 2.4-23.5.5-25.4-1.8-2-2-1.9-9.6 5.6-13.4 12.9-31.4 23.4-47.8 27.6-29.7 7.7-58.9 6.1-84.5-4.7-19.8-8.3-39-28.8-51-54.3-5.1-11-10.5-29.6-12-42.1-1.6-12.4-.7-44.5 1.4-53.7 3.2-13.9 10.9-31.6 18.9-43.4 5.4-8 17.9-20.9 25.2-26.1 6.8-4.8 21.5-12.4 29-15 18.2-6.1 40.7-5.8 66 .9 18.1 4.9 33.3 14 50.3 30.1 9.3 8.9 9.9 9.2 12.2 8 2.8-1.5 2.9.1-.1-31-2.8-30.5-3-31.5-4.8-32.4-2.2-1.2-42.2-9.7-54.1-11.5-10-1.6-31-2.6-39.5-2M8.2 1476c-1.4 2.3-1.3 2.5 3.7 9 1.9 2.5 5.1 8.1 7.2 12.5 7 15 6.8 11.3 6.9 126.1.1 90.2-.1 103.8-1.5 110.5-3.5 17-9 29.2-18.1 40.4-4.5 5.3-5.5 7.2-5 9.1l.6 2.4h167.1l1.3-3.3c.8-1.7 3.9-10.6 7.1-19.7 3.1-9.1 8.1-23.3 11-31.5l5.3-15-2.1-2.3c-1.7-1.8-2.3-2-3.7-1-.9.7-5.3 4-9.7 7.4-14.1 10.7-37.8 21.4-54.8 24.8-8.3 1.7-28 3.6-37.2 3.6H81v-223.5l2.4-9.4c3.7-14 7.6-21.4 16.3-29.8 6.9-6.8 7.2-7.3 6.1-9.7l-1.1-2.6H57.1c-46.9 0-47.6 0-48.9 2m287.3.6c-.9 1.4-1.5 2.7-1.3 2.8 10.3 7.1 17.4 18.8 21.5 35.5 1.5 5.8 1.7 17.9 2 106.6.3 63.8 0 103-.6 108.3-2.3 18.8-8 33.4-17.4 44.4-5.3 6.3-5.6 6.8-4.6 9.7l1.1 3.1h92.9l1.5-3.5c1.4-3.5 1.4-3.5-2.3-6.8-5-4.4-12.7-16.4-15.2-23.9-2-6-2.1-8-2.1-59V1641h9.3c24 0 51.2 7.9 61.8 18l4.1 3.9 3.4-1.6 3.4-1.7v-73.3l-2.4-2.2-2.5-2.3-2.9 3.3c-1.7 1.9-6.5 5.5-10.9 8.1-14.4 8.8-26.9 11.8-49 12.1l-14.8.2v-96l5-.3c7.7-.5 32.8 1.7 44.3 3.9 18.1 3.5 35 10.4 42.8 17.5 3.4 3.2 4 3.4 6.6 2.3 3.4-1.4 3.4-.1.3-28.1-1.4-12.3-2.5-24.2-2.5-26.6v-4.2H297.2zM227 1743c-10.7 2-18 10.8-18 21.7.1 13.1 9.1 22.3 22 22.3 12.8 0 22-9.2 22-22 0-14.2-12.2-24.6-26-22m226 0c-14.3 2.7-22.1 18.3-15.9 31.5 3.8 8.1 11 12.5 20.4 12.5 19.7 0 29.6-24.2 15.4-38-5.3-5.2-12.7-7.4-19.9-6m405.1.1c-16.6 3.1-23.4 24-11.9 36.5 10.1 11 27.3 9.6 35.5-2.7 3.2-4.8 4.2-13.6 2.3-19.4-3.4-10.3-14.5-16.5-25.9-14.4" data-source="https://football-logos.cc"></path><!-- source: https://football-logos.cc --></svg>