<svg xmlns="http://www.w3.org/2000/svg" width="94" height="200"><!-- Source: https://football-logos.cc --><path fill-rule="evenodd" d="M31.69.06c.03 0 .16.29.28.64l2.93 8.5 4.75.03c3.11.02 4.74.05 4.73.09s-1.73 1.31-7.64 5.62l1.51 4.8c.83 2.64 1.49 4.82 1.46 4.84-.02.03-1.83-1.2-4.02-2.73-2.18-1.52-3.99-2.77-4.02-2.77s-1.83 1.25-4.01 2.77c-2.18 1.53-3.98 2.76-4 2.73-.03-.02.62-2.18 1.44-4.8.82-2.61 1.49-4.78 1.49-4.81 0-.04-1.72-1.31-3.82-2.84s-3.81-2.8-3.79-2.84 1.67-.06 9.47-.06l.09-.27c.05-.14.74-2.15 1.55-4.47.8-2.32 1.48-4.26 1.5-4.32.03-.06.07-.11.1-.11m30.14 0c.04 0 .67 1.75 1.41 3.88.73 2.14 1.44 4.2 1.84 5.29h4.71c3.07 0 4.71.02 4.73.06s-1.69 1.32-3.79 2.86c-2.1 1.53-3.82 2.81-3.82 2.83 0 .03.67 2.19 1.49 4.8.83 2.62 1.48 4.78 1.45 4.8s-1.84-1.2-4.03-2.73c-2.18-1.52-4-2.77-4.03-2.76-.04 0-1.84 1.24-4.01 2.77-2.17 1.52-3.97 2.74-4 2.72-.02-.02.63-2.2 1.45-4.84.83-2.64 1.48-4.82 1.45-4.84-.03-.03-1.75-1.28-3.82-2.8-2.08-1.51-3.76-2.77-3.75-2.81.02-.04 1.66-.06 9.45-.06l1.57-4.54C61 2.2 61.72.13 61.74.11c.01-.03.05-.05.09-.05M46.35 33.62c.53 0 1.25.02 1.61.06.36.03.92.11 1.25.16.32.05.91.18 1.3.27.39.1 1.05.3 1.46.44s1.22.49 1.8.78c.58.28 1.41.75 1.83 1.04.43.28.99.69 1.25.89.25.2.82.72 1.26 1.15s1.04 1.08 1.33 1.44.71.94 1.35 1.9l.5-.1c.27-.06.77-.14 1.1-.17a12.5 12.5 0 0 1 2.84.02c.36.05.89.14 1.19.21a17 17 0 0 1 2.51.86c.34.16.87.43 1.18.61.31.19.8.51 1.09.73.29.21.81.67 1.15 1.02.35.34.81.87 1.02 1.16s.54.79.72 1.12.45.87.58 1.22c.14.34.32.87.41 1.18s.22.9.3 1.31c.11.64.13.98.13 2.34.01 1.22-.02 1.75-.1 2.27-.06.38-.18.99-.26 1.35s-.13.67-.11.69.27.11.54.21c.27.09.79.32 1.15.5s.9.5 1.21.7.77.54 1.02.75c.26.21.78.69 1.16 1.08.37.39.86.95 1.08 1.24s.53.74.69 1 .41.71.55 1c.15.29.36.77.48 1.07.11.3.28.84.37 1.19.13.51.17.84.19 1.64.02.74.01 1.1-.06 1.43-.05.24-.09.44-.08.44 0 .01.27.15.6.31.32.16.75.41.96.55.2.13.58.42.84.64.25.22.63.59.84.83.2.25.52.69.71.99s.45.8.58 1.1c.13.31.32.87.41 1.25.1.38.21.98.25 1.34.05.42.07 1.1.05 1.9-.02.69-.08 1.52-.13 1.84-.05.33-.12.71-.18 1.1l.49.36c.27.21.74.59 1.05.86.3.26.71.64.9.84.2.2.5.55.69.77.19.23.52.67.74 1 .21.33.54.89.72 1.25s.42.95.55 1.31c.12.36.29.99.38 1.4.12.59.16 1 .19 1.97.02.75.01 1.45-.04 1.83-.03.35-.13.95-.21 1.35-.08.39-.27 1.08-.42 1.52-.15.45-.44 1.16-.65 1.59s-.58 1.08-.82 1.44c-.23.36-.64.91-.9 1.21-.25.31-.74.83-1.08 1.16s-.92.83-1.3 1.11c-.37.28-.99.68-1.36.9-.38.21-1.04.53-1.46.71-.43.18-1.14.43-1.59.55-.44.12-1.18.28-1.64.35-.61.08-1.17.12-2.04.12-.72 0-1.48-.04-1.92-.1-.41-.05-1.04-.16-1.42-.24-.57-.13-.69-.14-.74-.07-.04.05-.25.35-.47.67s-.74.92-1.15 1.35-.98.96-1.27 1.2c-.29.23-.81.61-1.15.84s-1.06.63-1.59.89c-.53.27-1.24.59-1.58.71-.34.13-.9.31-1.24.41-.34.11-.92.25-1.28.32s-.87.16-1.15.21c-.31.05-1.09.07-2.08.07-1.39 0-1.66-.01-2.2-.13-.34-.08-.95-.24-1.34-.37-.39-.12-1.03-.36-1.43-.53-.39-.17-.89-.41-1.49-.74v18.09l.2-.12c.11-.07.65-.37 1.2-.67a120 120 0 0 1 4.97-2.51c.44-.2 1.18-.53 1.65-.73.46-.19 1.23-.51 1.7-.7a48 48 0 0 1 4.11-1.38 30 30 0 0 1 4.16-.88c.61-.09 1.49-.14 2.58-.17 1.09-.02 1.91-.01 2.45.04.44.04 1.19.15 1.65.23s1.2.25 1.64.38c.45.12 1.15.35 1.56.5.41.16 1.04.43 1.39.62.36.18.88.48 1.15.66.28.18.73.55 1.53 1.33v4.21c0 2.31-.02 4.23-.05 4.25-.03.03-.24-.14-.48-.37s-.65-.57-.9-.74c-.26-.18-.74-.47-1.06-.64s-.88-.44-1.24-.59-1.02-.39-1.46-.54c-.45-.14-1.15-.34-1.56-.44s-1.15-.25-1.64-.34c-.5-.08-1.27-.18-1.71-.22-.5-.05-1.36-.06-2.24-.04-.87.01-1.68.07-2.08.13a38 38 0 0 0-1.49.29c-.46.1-1.31.32-1.89.49-.59.17-1.48.46-1.99.64-.51.19-1.3.5-1.74.69-.45.19-1.19.52-1.65.75-.46.22-1.48.76-2.27 1.2-.78.44-2.03 1.09-2.76 1.46-.74.36-1.84.88-2.45 1.14-.62.26-1.53.63-2.02.82-.5.18-1.3.47-1.77.63-.48.16-1.32.41-1.87.57-.55.15-1.38.36-2.73.63l-.02-20.09c-.01-11.05 0-20.12.02-20.16.02-.05.28.15.67.52.35.33.94.8 1.32 1.06.37.25.97.6 1.33.79.36.18.95.45 1.31.59s.97.35 1.36.47c.4.12 1.07.29 1.49.38.43.08 1.16.2 1.62.25.46.06 1.33.1 1.93.1.59 0 1.45-.04 1.89-.1.44-.05 1.07-.15 1.4-.21.32-.07.84-.2 1.15-.28.31-.09.79-.25 1.09-.36.29-.1.79-.31 1.11-.47.33-.15.83-.42 1.12-.59s.78-.51 1.09-.74.8-.67 1.1-.97.71-.78.92-1.05c.2-.28.51-.78.68-1.12.17-.35.36-.81.43-1.03.07-.23.16-.53.19-.67.04-.15.09-.26.12-.25.03 0 .23.24.45.51.22.28.64.69.93.93.32.26.78.55 1.21.76.37.18.89.39 1.14.46.26.07.74.16 1.06.19.42.05.78.05 1.21 0 .34-.03.83-.12 1.09-.19s.69-.24.96-.36c.28-.13.68-.36.9-.51.23-.15.61-.47.86-.71.25-.25.6-.65.78-.91.17-.26.42-.69.55-.97a9 9 0 0 0 .37-1.03c.13-.46.14-.67.14-1.62 0-1-.01-1.13-.17-1.65-.09-.31-.27-.77-.39-1.03s-.36-.66-.52-.91a7.6 7.6 0 0 0-1.46-1.51c-.21-.15-.61-.4-.9-.54-.29-.15-.71-.32-.93-.4-.23-.07-.51-.14-.63-.17-.11-.02-.28-.07-.49-.15l.21-.3c.11-.16.32-.52.46-.79.13-.28.3-.68.37-.91.07-.22.17-.57.21-.78.04-.2.08-.72.07-1.15 0-.63-.03-.9-.17-1.4-.09-.35-.27-.84-.4-1.09-.13-.26-.32-.6-.42-.75-.11-.16-.34-.45-.53-.65-.18-.21-.54-.53-.8-.72-.25-.19-.67-.45-.93-.58-.25-.12-.63-.28-.84-.35-.2-.07-.59-.17-.85-.22-.27-.06-.67-.1-.9-.1s-.44-.02-.47-.05c-.02-.02.01-.12.07-.2.07-.09.22-.35.33-.59.12-.24.28-.62.35-.83.08-.21.17-.52.2-.67s.09-.53.12-.83c.03-.33.03-.79 0-1.17-.03-.34-.12-.86-.21-1.15-.08-.29-.24-.73-.35-.97-.1-.24-.35-.67-.54-.96-.19-.31-.59-.79-.94-1.13a9.5 9.5 0 0 0-1.19-.99c-.32-.21-.81-.5-1.08-.63-.28-.13-.72-.31-1-.4-.27-.1-.74-.22-1.04-.29-.3-.06-.87-.15-1.27-.18-.4-.04-.89-.05-1.07-.02-.19.02-.39.02-.45 0-.1-.04-.06-.11.23-.49.18-.25.48-.72.65-1.05.17-.32.4-.89.52-1.25s.26-.88.32-1.15c.05-.27.12-.81.15-1.18.02-.38.02-1 0-1.38-.02-.37-.09-.92-.15-1.21s-.19-.79-.29-1.09c-.1-.31-.3-.82-.45-1.13s-.45-.82-.66-1.15c-.25-.37-.66-.85-1.08-1.28-.39-.39-.92-.84-1.22-1.04-.29-.19-.72-.45-.96-.57s-.67-.3-.96-.4-.77-.24-1.06-.3c-.42-.1-.79-.12-1.74-.12-.93 0-1.33.03-1.74.11-.29.06-.78.2-1.09.3-.3.11-.71.27-.9.37-.18.1-.36.19-.39.19-.02 0-.07-.19-.11-.43-.03-.23-.16-.7-.27-1.04s-.3-.81-.41-1.03a9 9 0 0 0-.55-.93c-.19-.3-.63-.82-.97-1.16-.34-.35-.8-.76-1.02-.92-.23-.15-.63-.41-.91-.56-.27-.16-.76-.39-1.08-.51-.33-.13-.9-.31-1.28-.4-.61-.14-.81-.16-1.95-.16-1.01 0-1.39.02-1.8.11-.3.06-.78.19-1.09.29s-.83.32-1.15.48c-.33.17-.8.44-1.06.61-.25.17-.79.64-1.19 1.03-.48.48-.84.91-1.08 1.28-.2.31-.47.78-.59 1.06a8.3 8.3 0 0 0-.6 1.86c-.03.13-.07.23-.09.23-.03 0-.27-.09-.53-.19-.27-.11-.76-.27-1.11-.35-.47-.12-.85-.17-1.61-.19-.78-.03-1.14-.01-1.65.07-.36.06-.93.2-1.27.31-.34.12-.83.31-1.09.44-.25.13-.69.38-.96.56-.27.19-.68.49-.9.69-.22.19-.57.54-.77.77s-.53.67-.74.98c-.2.3-.47.78-.6 1.06-.13.27-.33.77-.43 1.1-.11.34-.24.87-.3 1.19-.06.36-.1.91-.1 1.48 0 .56.04 1.12.1 1.46.05.31.17.82.26 1.13s.29.82.44 1.15c.16.33.37.73.48.9.1.18.37.54.58.82.21.27.37.51.35.54-.03.02-.3.03-.61.01s-.89-.01-1.3.04c-.41.04-1.06.15-1.43.24-.38.1-.95.29-1.27.42-.33.14-.79.37-1.03.5-.24.14-.66.43-.93.63-.28.21-.69.57-.91.8-.23.24-.57.64-.75.9s-.45.71-.59 1-.33.77-.41 1.06c-.09.29-.19.82-.23 1.18-.06.49-.06.82-.01 1.28.04.34.13.85.2 1.12.07.28.26.78.42 1.13.17.34.45.82.62 1.06.18.24.32.45.32.48s-.2.03-.45 0-.8-.04-1.23-.04c-.51.01-.99.06-1.42.15-.36.07-.87.22-1.12.31-.26.1-.65.29-.87.42-.23.13-.65.47-.97.8-.42.42-.61.67-.79 1.03-.13.25-.29.69-.36.96-.08.33-.12.71-.12 1.11 0 .33.04.8.09 1.03s.13.56.19.73.22.57.37.87c.15.31.43.8.63 1.08s.57.73.82 1.01c.28.31.42.51.37.53-.04.02-.33.11-.64.19-.3.09-.83.3-1.18.47-.34.16-.84.46-1.11.67-.28.2-.73.61-1 .9-.27.3-.63.76-.79 1.03s-.38.68-.47.92c-.1.24-.23.64-.3.88-.09.33-.11.65-.11 1.4 0 .73.02 1.06.11 1.37.06.22.24.69.41 1.03.16.34.45.82.64 1.06.2.24.5.56.68.72.18.15.57.43.86.61s.75.41 1.02.5c.27.1.72.23 1 .29.3.07.79.11 1.27.11.43.01.99-.03 1.24-.07.26-.05.72-.17 1.03-.27.3-.1.81-.31 1.12-.48.3-.16.72-.42.93-.57.2-.15.55-.45.77-.67.23-.21.42-.39.44-.39s.12.24.23.55c.11.3.36.81.55 1.14.19.32.51.78.7 1.02s.51.6.69.79c.19.19.53.49.75.68.22.18.7.53 1.05.77.36.23 1.02.61 1.46.82.45.22 1.23.54 1.74.71.52.17 1.26.38 1.65.47s1.05.2 1.46.25c.41.06 1.18.12 1.71.14.55.02 1.34.01 1.83-.03a20 20 0 0 0 3.14-.52c.39-.1 1.02-.3 1.4-.44.37-.14.99-.4 1.36-.58.38-.19.94-.49 1.25-.69.3-.19.78-.53 1.05-.74.28-.22.77-.68 1.11-1.02.33-.35.62-.62.63-.59.02.03.04 9.1.03 40.3l-.23-.03c-.13-.03-.61-.13-1.07-.23s-1.26-.31-1.77-.46-1.44-.44-2.05-.65c-.62-.21-1.62-.59-2.24-.84-.61-.25-1.48-.62-1.92-.81-.45-.2-1.37-.65-2.05-1-.69-.35-1.74-.91-2.33-1.25-.6-.34-1.6-.86-2.21-1.16-.62-.29-1.61-.73-2.21-.97-.59-.24-1.56-.59-2.14-.78s-1.56-.48-2.17-.63c-.62-.15-1.46-.34-1.87-.41s-1.05-.16-1.43-.2c-.42-.05-1.1-.06-1.8-.04a21 21 0 0 0-3.29.36c-.38.07-1.02.21-1.43.32-.41.1-1.05.29-1.43.41-.37.12-.96.33-1.3.46-.35.14-.95.41-1.34.61-.39.19-.99.53-1.33.76-.35.23-.79.57-1 .76-.2.2-.39.33-.42.31-.03-.03-.05-1.95-.05-8.5l.39-.35c.22-.19.69-.54 1.04-.78.36-.24 1.02-.62 1.46-.83.45-.22 1.18-.53 1.62-.69s1.23-.4 1.74-.53 1.29-.3 1.74-.38c.74-.13.99-.15 2.86-.15 1.31 0 2.28.03 2.7.08.36.05.97.14 1.37.2.39.07 1.09.21 1.55.32.46.1 1.28.31 1.83.47s1.44.44 1.99.63 1.53.55 2.17.81c.65.26 1.66.68 2.24.93.58.26 1.9.89 2.92 1.4 1.03.5 2.4 1.22 3.06 1.58s1.21.66 1.23.66c.01 0 .03-4.05.03-18.02l-.67.41c-.37.22-.92.53-1.23.68-.3.15-.82.37-1.15.5-.32.12-.89.3-1.27.4-.37.1-.93.23-1.24.29-.31.05-1.05.11-1.65.13-.68.02-1.33.01-1.74-.04-.36-.04-.94-.13-1.3-.2a14.7 14.7 0 0 1-2.83-.91c-.34-.15-.97-.48-1.4-.74-.42-.25-1.08-.71-1.46-1.02-.37-.3-.96-.84-1.31-1.19-.34-.36-.85-.96-1.13-1.34-.28-.37-.64-.92-.8-1.21-.17-.28-.31-.53-.33-.54s-.3.07-.62.19c-.33.11-.88.28-1.24.37s-.98.21-1.37.27c-.48.07-1.09.1-1.86.11-.64 0-1.42-.04-1.74-.08-.33-.05-.92-.15-1.31-.24s-1.03-.27-1.43-.4a17.5 17.5 0 0 1-2.95-1.43c-.27-.18-.72-.5-.99-.71-.28-.21-.78-.65-1.11-.97-.34-.33-.83-.86-1.09-1.19-.26-.32-.63-.83-.82-1.12s-.49-.8-.66-1.12c-.18-.33-.44-.92-.6-1.31-.16-.4-.35-.99-.44-1.31-.09-.33-.22-.9-.29-1.28-.09-.48-.14-1.05-.16-1.9-.02-.74-.01-1.47.03-1.84.04-.35.13-.92.21-1.28.07-.36.25-1.03.4-1.5.15-.46.45-1.2.67-1.65s.59-1.11.83-1.47c.23-.36.6-.86.81-1.12.2-.26.7-.79 1.11-1.19.4-.4 1.02-.93 1.98-1.65l-.11-.46c-.06-.26-.14-.75-.18-1.1s-.05-.9-.03-1.27c.02-.36.08-.9.14-1.19.05-.29.18-.78.28-1.09s.32-.84.49-1.18c.18-.35.5-.89.73-1.22.23-.32.68-.86 1.01-1.19.32-.33.87-.81 1.21-1.06.34-.26.87-.6 1.17-.78.3-.17.54-.31.54-.31s-.08-.24-.18-.53-.24-.78-.31-1.09-.16-.87-.2-1.25c-.04-.4-.06-.95-.03-1.34.02-.36.08-.86.13-1.12s.16-.69.25-.97c.09-.27.26-.71.38-.96.12-.26.4-.75.63-1.09.24-.37.65-.87 1-1.22.33-.34.85-.77 1.19-.99.32-.22.8-.5 1.05-.63.26-.13.66-.31.9-.4s.76-.24 1.15-.34.91-.21 1.14-.24c.34-.04.41-.07.38-.14-.03-.06-.14-.42-.26-.81-.11-.4-.26-1.06-.33-1.47-.06-.41-.13-1.07-.15-1.47-.03-.39-.01-1.06.03-1.49.03-.43.13-1.13.22-1.55.08-.42.25-1.06.38-1.43.12-.37.36-.98.54-1.36.18-.37.48-.92.66-1.21s.48-.74.68-1c.19-.25.58-.71.87-1.02s.78-.76 1.09-1.01.81-.61 1.12-.81.92-.54 1.37-.75c.44-.22 1.13-.49 1.52-.62.39-.12.99-.28 1.33-.35.47-.1.95-.14 1.93-.16.9-.02 1.49 0 2.51.14l.41-.6c.22-.32.59-.83.82-1.12s.78-.9 1.23-1.34c.44-.45 1.05-1.01 1.34-1.24s.86-.65 1.27-.92c.41-.28 1.18-.72 1.71-.98.53-.27 1.24-.59 1.58-.71.34-.13.96-.33 1.37-.44.41-.12 1.08-.28 1.49-.35s1-.16 1.31-.19c.3-.02.99-.05 1.52-.06m-28.33 98.45c.49.01 1.28.07 1.74.12s1.13.15 1.49.22c.36.06.99.21 1.4.31s1.05.29 1.42.41c.38.12 1.08.37 1.56.56s1.34.57 1.92.86 1.37.7 1.74.92c.38.22 1.09.65 1.59.96.49.31 1.28.77 1.74 1.04.46.26 1.41.75 2.11 1.09.7.35 1.73.81 2.3 1.03.56.22 1.43.54 1.92.69.5.16 1.34.4 1.87.54.53.13 1.27.3 1.64.36.38.07.98.17 1.34.22s1.04.13 1.52.17c.54.04 1.54.06 2.64.04 1.09-.02 2.1-.07 2.61-.14.46-.05 1.22-.17 1.68-.25.46-.09 1.29-.27 1.83-.4.55-.14 1.44-.39 1.99-.57s1.48-.52 2.08-.76 1.62-.69 2.27-1.01c.65-.31 1.53-.77 1.96-1.01.42-.24 1.4-.83 2.17-1.3s1.85-1.09 2.39-1.38c.55-.28 1.4-.69 1.9-.9.49-.21 1.35-.53 1.89-.71.55-.19 1.35-.42 1.77-.53.43-.1 1.12-.24 1.53-.31s.99-.16 1.3-.19.99-.08 1.52-.1c.56-.02 1.35-.01 1.9.03.51.04 1.28.13 1.71.2.42.07 1.05.19 1.39.28.35.09.86.23 1.15.32s.82.28 1.18.42c.36.15.92.4 1.25.56.32.16.82.44 1.11.62.3.17.74.47 1 .66.25.2.65.53 1.31 1.16l-.01 8.6-.38-.38c-.22-.21-.63-.58-.92-.83s-.86-.68-1.27-.96c-.42-.27-1.17-.7-1.68-.95s-1.26-.56-1.65-.7-1.08-.33-1.52-.44c-.45-.11-1.12-.24-1.49-.29-.38-.06-1.19-.13-1.8-.16-.62-.04-1.46-.05-1.87-.03s-1.11.08-1.55.14c-.45.05-1.17.16-1.62.24-.44.09-1.17.25-1.61.37-.45.12-1.17.34-1.62.49-.44.15-1.07.38-1.39.51-.33.13-.99.42-1.46.65-.48.23-1.45.75-2.15 1.16-.7.4-1.8 1.01-2.45 1.34-.65.34-1.57.79-2.05 1s-1.32.56-1.87.78c-.54.21-1.42.53-1.95.7s-1.34.41-1.81.53c-.46.13-1.24.31-1.73.41-.5.1-1.3.24-1.78.31-.47.07-1.24.16-1.7.2-.47.04-1.51.08-2.33.08s-1.84-.04-2.27-.08-1.14-.12-1.59-.19a31 31 0 0 1-3.47-.74c-.48-.14-1.29-.4-1.81-.57-.51-.18-1.4-.53-1.98-.78-.59-.25-1.68-.76-2.43-1.14s-1.97-1.02-2.7-1.41c-.73-.4-1.77-.92-2.3-1.17-.53-.24-1.4-.62-1.92-.83-.53-.22-1.49-.56-2.12-.77s-1.61-.49-2.17-.63c-.57-.14-1.38-.31-1.8-.38-.43-.07-1.14-.15-1.59-.19-.58-.05-1.16-.05-2.08 0-.7.03-1.57.11-1.92.16-.36.06-.98.17-1.37.26s-1.05.27-1.46.41-1 .36-1.31.5c-.3.13-.78.36-1.05.51-.28.15-.79.47-1.15.71-.36.23-.84.58-1.06.75-.22.18-.6.52-.84.76s-.45.41-.48.39c-.03-.03-.05-1.96-.05-8.53l.48-.41c.27-.23.64-.52.83-.66s.53-.36.76-.51a19.5 19.5 0 0 1 2.53-1.26c.36-.14.99-.35 1.4-.47s1.08-.29 1.49-.37.98-.18 1.28-.22a18.5 18.5 0 0 1 2.98-.14m58.99 11.21c1.09.02 1.7.06 2.3.15.44.07 1.06.18 1.36.24.31.07.87.22 1.25.33.37.11 1 .32 1.39.48.4.15 1.07.46 1.51.68s1.05.56 1.37.75c.31.2.84.56 1.16.81.33.25.8.63 1.49 1.27l.01 9.51-1.05-1.03c-.57-.57-1.29-1.24-1.6-1.5-.3-.26-.78-.64-1.05-.85-.28-.21-.78-.56-1.12-.78-.34-.23-.92-.57-1.28-.76-.35-.19-.96-.47-1.33-.62-.38-.16-.95-.35-1.27-.44-.33-.09-.83-.21-1.12-.26-.29-.06-1.04-.12-1.68-.14-.69-.02-1.48 0-1.99.05-.46.04-1.24.14-1.74.22-.49.09-1.25.24-1.68.34-.42.11-1.09.29-1.49.41-.39.13-1.12.38-1.61.57-.5.19-1.29.53-1.77.76s-1.46.76-2.18 1.17a51 51 0 0 1-4.19 2.21c-.46.21-1.2.53-1.65.71a40 40 0 0 1-2.95 1.06c-.39.13-1.08.32-1.52.44-.44.11-1.23.29-1.74.4-.51.1-1.35.24-1.86.31-.52.07-1.41.16-1.99.2-.65.04-1.6.06-2.46.03-.76-.02-1.77-.08-2.23-.13s-1.23-.16-1.71-.25c-.48-.08-1.18-.22-1.55-.31-.38-.09-1.11-.29-1.62-.44s-1.39-.45-1.96-.66c-.56-.21-1.39-.54-1.83-.74s-1.3-.61-1.89-.91c-.6-.3-1.59-.82-2.21-1.15-.61-.33-1.45-.78-1.86-.98a28 28 0 0 0-1.56-.73c-.44-.2-1.25-.54-1.8-.75-.55-.22-1.36-.51-1.8-.66-.44-.14-1.28-.38-1.86-.53-.59-.15-1.49-.34-2.02-.44-.7-.12-1.28-.17-2.12-.2-.73-.02-1.4 0-1.86.05-.39.04-1.02.15-1.4.25-.37.09-.96.28-1.3.4-.34.13-.97.41-1.4.63s-1.11.62-1.52.89-1.03.71-1.37.98-.93.76-1.3 1.09c-.38.34-.98.91-1.34 1.27s-.67.64-.7.63c-.02-.02-.05-2.13-.05-9.35l.54-.47c.29-.26.76-.63 1.04-.83s.76-.52 1.07-.71c.3-.2 1-.57 1.55-.84.56-.27 1.44-.63 2.02-.83.56-.19 1.34-.42 1.74-.5a28 28 0 0 1 1.52-.29c.5-.08 1.3-.14 2.08-.16s1.6-.01 2.11.04c.46.04 1.23.14 1.71.22s1.17.22 1.52.31c.36.09 1.05.3 1.53.45.47.16 1.2.43 1.61.6s1.28.58 1.93.91 1.72.94 2.39 1.36c.67.41 1.59.96 2.05 1.22s1.38.74 2.05 1.07c.67.32 1.63.75 2.14.96.52.21 1.37.52 1.9.7.53.17 1.45.44 2.05.59s1.5.34 2.02.43c.51.09 1.32.21 1.8.26s1.44.11 2.14.13c.76.02 1.68.01 2.27-.03.55-.04 1.34-.12 1.77-.17s1.32-.2 1.99-.34c.67-.13 1.6-.35 2.08-.49s1.29-.39 1.8-.57c.51-.17 1.31-.47 1.77-.67.46-.19 1.32-.57 1.9-.85s1.47-.75 1.99-1.03c.51-.29 1.43-.84 2.05-1.22.61-.38 1.44-.88 1.83-1.09.39-.22 1.01-.54 1.37-.7a23 23 0 0 1 2.82-1.13c.38-.13.95-.3 1.28-.38.32-.09.85-.21 1.18-.28.32-.07.94-.16 1.36-.22.43-.05.89-.11 1.03-.12.14-.02.92-.02 1.74-.01m-52.53 20.68c.36 0 .9.02 1.21.06.31.03.8.12 1.09.19s.74.21.99.31c.26.11.66.32.89.47s.55.39.7.54c.16.14.41.42.56.61.14.19.38.56.51.84.14.27.32.74.41 1.03.08.29.19.79.25 1.12.05.33.12 1.01.16 1.53.03.53.06 3.74.06 7.36s-.03 6.83-.06 7.36c-.04.51-.11 1.2-.16 1.52-.06.33-.17.83-.26 1.13-.08.29-.24.72-.36.96s-.36.64-.54.88c-.19.24-.53.6-.77.8-.25.21-.69.49-1.05.67-.35.17-.89.37-1.24.46-.34.09-1 .19-1.46.23-.64.05-1.03.05-1.65 0-.44-.04-1.04-.13-1.33-.2s-.74-.22-1-.32c-.25-.1-.66-.32-.9-.47a7 7 0 0 1-.77-.61c-.18-.17-.45-.48-.59-.69-.15-.2-.35-.54-.46-.75-.1-.2-.25-.61-.34-.9a10 10 0 0 1-.26-1.09c-.05-.31-.12-.89-.15-1.28-.04-.43-.07-3.57-.07-7.7 0-4.16.03-7.29.07-7.74.03-.41.11-1.04.18-1.4s.19-.85.27-1.09.27-.67.42-.96c.18-.34.43-.7.71-1 .24-.25.6-.58.81-.73.2-.14.58-.36.84-.48.25-.12.74-.29 1.08-.38s.83-.19 1.09-.22.76-.05 1.12-.06m-.3 5.02c-.07.01-.24.12-.36.23-.15.13-.25.3-.31.51-.08.27-.09 1.56-.07 8.42l.01 8.11c.22.41.37.58.48.65.12.06.32.14.46.16.13.03.36.03.51.01.16-.03.34-.11.46-.22.11-.1.26-.3.33-.45.12-.27.12-.43.14-8.04.02-5.33 0-7.92-.05-8.26-.03-.28-.12-.59-.19-.7a.84.84 0 0 0-.35-.32 1.7 1.7 0 0 0-.45-.15 1.3 1.3 0 0 0-.34-.01c-.07.02-.19.04-.27.06m30.29-4.96c.45 0 1.1.03 1.43.06.33.04.87.14 1.2.22.32.09.88.3 1.24.47.56.28.73.4 1.22.89.48.49.61.66.85 1.16.19.39.34.84.44 1.28.11.47.18 1.04.22 1.81.04.65.06 2.85.03 9.42l-7.55.03.02 3.47c.01 3.34.02 3.49.14 3.72.07.14.21.31.31.38.14.1.28.13.6.13.33 0 .45-.03.59-.13.1-.08.23-.2.29-.28.05-.08.13-.31.17-.49.03-.19.06-1.18.06-4.06h5.4l-.02 2.36c-.02 1.29-.06 2.55-.1 2.79-.03.24-.12.64-.18.9-.07.26-.2.64-.29.84-.09.21-.27.53-.4.72s-.45.55-.72.8c-.37.35-.64.54-1.11.77-.36.17-.89.37-1.25.46-.34.08-.94.19-1.33.22-.4.04-1.11.06-1.62.04-.49-.02-1.13-.08-1.43-.13-.29-.06-.73-.17-.99-.26s-.63-.25-.84-.35a8 8 0 0 1-.62-.38 10 10 0 0 1-.52-.45c-.14-.14-.36-.38-.47-.53-.12-.16-.31-.49-.44-.75s-.3-.72-.37-1.03c-.08-.31-.18-.88-.22-1.28-.05-.52-.06-3.11-.02-17.93l.14-.62c.08-.34.22-.84.32-1.09.1-.26.29-.64.43-.85.15-.2.38-.49.52-.64s.43-.39.63-.54c.21-.15.58-.37.84-.49a7 7 0 0 1 1.06-.38c.32-.08.8-.18 1.05-.21.26-.03.84-.06 1.29-.07m-.65 5.33c-.07.1-.16.31-.2.47s-.06 1.21-.06 2.54l-.01 2.26h2.18c0-3.31-.03-4.44-.06-4.65-.04-.2-.11-.44-.17-.52s-.19-.21-.29-.28c-.11-.09-.29-.14-.5-.15-.17-.01-.41.02-.53.06-.12.05-.28.17-.36.27m15.53-5.26a9 9 0 0 1 2.35.28c.32.08.87.28 1.21.45s.81.47 1.04.66.59.56.8.83c.21.26.47.68.58.92.12.24.27.67.34.96.07.3.15.79.19 1.1.03.3.08 1.36.15 4.14h-5.49l-.02-1.79c-.02-1.65-.03-1.81-.14-2.04-.07-.14-.22-.32-.34-.4-.19-.12-.28-.14-.64-.12-.4.02-.44.03-.64.25-.12.13-.24.36-.28.5-.04.17-.06.82-.05 1.79.02 1.43.03 1.55.16 1.81.08.16.22.38.32.5s.38.38.64.57c.25.19 1 .7 1.67 1.12s1.42.9 1.68 1.07c.25.18.69.49.96.7.27.22.69.6.93.86s.53.62.64.8c.11.19.27.52.36.74.09.23.23.68.3 1 .12.55.13.79.13 3.28 0 2.36-.01 2.74-.11 3.24-.07.31-.2.78-.3 1.06-.1.27-.3.69-.44.93-.15.24-.46.65-.7.9s-.63.59-.87.75c-.24.15-.65.37-.9.48-.26.11-.71.26-1 .33s-.79.16-1.12.2c-.34.04-.93.06-1.42.04-.47-.02-1.07-.08-1.34-.13-.27-.06-.69-.17-.93-.25a8 8 0 0 1-.87-.37c-.24-.12-.61-.34-.81-.5a6 6 0 0 1-.68-.61c-.17-.19-.43-.53-.58-.77-.16-.24-.36-.66-.46-.92-.1-.27-.22-.72-.27-1-.08-.4-.11-1.06-.15-5.35h5.4l.02 2.11c.01 2.02.02 2.11.15 2.35.07.14.22.3.34.37s.33.12.52.12c.2.01.38-.04.52-.12.12-.07.29-.25.38-.4.15-.28.15-.3.17-1.93.02-1.04 0-1.81-.05-2.06-.04-.22-.13-.52-.21-.66-.08-.13-.3-.39-.48-.56-.18-.18-.76-.6-1.28-.94s-1.32-.86-1.77-1.15-1.05-.69-1.32-.9c-.27-.2-.7-.56-.96-.81-.25-.24-.57-.61-.72-.81-.15-.21-.36-.57-.46-.8-.11-.23-.25-.65-.31-.93a9 9 0 0 1-.19-1.24c-.03-.39-.06-1.36-.06-2.15s.03-1.71.06-2.05c.03-.35.12-.87.19-1.16a6.6 6.6 0 0 1 1.03-2.15c.17-.2.5-.53.74-.73.24-.21.7-.5 1.05-.68.36-.18.88-.37 1.24-.46.35-.09.83-.18 1.09-.21s.71-.06 1.01-.06m-36.16.1 4.01.03c3.34.02 4.12.04 4.61.13.33.05.76.14.97.2.2.05.55.17.77.26s.57.27.78.39c.2.13.54.42.75.63.22.24.46.58.6.87.13.26.29.69.37.96.13.48.14.6.14 3.22 0 2.61-.01 2.73-.14 3.21-.08.27-.24.71-.36.96-.17.34-.36.6-.67.92-.3.3-.59.51-.89.67-.25.12-.66.28-.9.35-.25.07-.64.14-.87.17-.24.03-.42.06-.42.08 0 .01.27.06.6.11.34.04.78.12.98.18.21.05.54.17.75.26.2.1.51.29.68.42.17.14.42.42.56.62.13.2.3.55.38.78.08.22.19.68.24 1.03.07.5.09 1.3.09 4.1 0 2.12.03 3.66.07 3.96.04.26.17.79.29 1.17.13.39.37.91.54 1.21.17.29.51.73.76.99.24.26.64.62.9.8.25.17.63.4.84.51.22.11.57.26.78.34.22.09.71.23 1.1.31.4.09 1.07.2 1.5.24.45.04 1.14.05 2.54-.01v5.62l-.26.03c-.15.01-.89.04-1.66.06-1.12.04-1.56.02-2.18-.06-.42-.06-1.1-.17-1.49-.26s-1.08-.29-1.52-.44c-.45-.16-1.09-.41-1.43-.58-.34-.16-.89-.45-1.21-.65-.33-.2-.82-.54-1.09-.74-.27-.21-.82-.7-1.21-1.1s-.87-.95-1.07-1.22c-.19-.28-.51-.8-.69-1.16-.19-.36-.44-.95-.56-1.31s-.28-1-.36-1.43c-.13-.75-.14-.94-.18-5.43-.03-3.5-.06-4.7-.12-4.89-.04-.14-.14-.36-.22-.5s-.22-.33-.32-.42-.3-.22-.46-.29c-.15-.07-.41-.14-.87-.19v12.53h-5.46zm5.45 10.43c1.24 0 1.38-.02 1.62-.14.19-.1.32-.23.42-.39.07-.14.17-.45.2-.69.05-.28.07-.95.05-1.87-.02-1.16-.05-1.49-.14-1.71-.05-.16-.16-.35-.24-.43-.07-.08-.23-.19-.34-.24-.13-.05-.44-.08-.88-.08h-.69zm-22.02-10.26.03 4.71h-4.91v5.55h4.41l-.03 4.71-4.38.03v12.41H6.27l-.01-13.68c0-7.52.02-13.7.05-13.72s2.36-.04 10.31-.01m60.05-.03h12.24v4.74h-3.42v22.7h-5.41v-22.7h-3.41z" style="fill:#d00" data-source="https://football-logos.cc"></path><!-- source: https://football-logos.cc --></svg>