<svg xmlns="http://www.w3.org/2000/svg" viewBox="283.5 35.7 355 850.6"><!-- Source: https://football-logos.cc --><path fill="#fff" d="m636.4 417-.6-3c-.1-.3-7.1-33.6-25.3-77.5-10.7-25.7-23-50-36.7-72.2-17.2-27.8-36.5-52.4-57.6-73.2-.7-.7-2.1-2.5-4.1-7-3.3-7.4-4.9-15.4-4.9-23.8v-43.8c0-11.9-3-23.7-8.6-34.1l-1.6-3c1.8-4.9 6.3-15.1 13.7-21.5l1.8-1.6 4.9-4.3-4.9-4.3-10.8-9.7-2.5-2.3-3.2 1.1-1.2.4c-.3.1-32.9 11.2-74.3 11.2-41.1 0-69.5-10.8-69.7-10.9l-1.1-.4-3.1-1.2-2.6 2-11.7 9.1-5.6 4.3 5.4 4.6 2 1.7c7.5 6.4 12.1 16.8 14 21.7l-1.6 3c-5.6 10.4-8.6 22.2-8.6 34.1v82.5c0 44.3 18.8 86.7 51.5 116.2 12.4 11.2 26.7 21.8 42.6 31.7 3.2 9.1 7.9 24.8 7.9 39.1 0 12.1-4.6 21.1-8.4 26.6-1.1 1.6-2.9 2.5-4.8 2.5-1.6 0-3-.6-4.1-1.8l-.1-.1-.9-1.1-2.6-3.3-4 1.5-1.4.6c-23.4 8.9-34.3 25-38.9 34.8-17.7 12.1-32.9 28.2-43.8 46.6-1.9 3.1-3.6 6.4-5.3 9.7-7.9 15.9-12.9 32.9-14.7 50.5q-.45 4.2-.6 8.4c-.1 2.3-.2 4.7-.2 7.1s.1 4.8.2 7.1q.15 4.2.6 8.4c1.8 17.6 6.8 34.6 14.7 50.5 1.7 3.3 3.5 6.6 5.3 9.7 11 18.4 26.1 34.5 43.9 46.6 2.4 1.7 5 3.3 7.6 4.9 8.7 5.2 18 9.5 27.6 12.8 4.2 1.4 8.5 2.7 12.9 3.8 2.4.6 4.9 1.1 7.5 1.6 2.8.5 5.7 1 8.5 1.4 6.3.8 12.7 1.2 19.1 1.2s12.8-.4 19.1-1.2c2.8-.4 5.7-.8 8.5-1.3 2.5-.5 5-1 7.5-1.6 4.3-1 8.7-2.3 12.9-3.8 9.6-3.3 18.8-7.6 27.6-12.8 2.6-1.6 5.2-3.2 7.6-4.9 17.7-12.1 32.9-28.2 43.8-46.6 1.9-3.1 3.7-6.4 5.3-9.7 7.9-15.9 12.9-32.8 14.7-50.5q.45-4.2.6-8.4c.1-2.3.2-4.7.2-7.1s-.1-4.8-.2-7.1c-.1-2.8-.3-5.6-.6-8.3-1.8-17.6-6.8-34.6-14.7-50.5-1.7-3.3-3.4-6.6-5.3-9.7-11-18.4-26.1-34.5-43.9-46.6-1-.7-2.1-1.4-3.3-2.2-5.9-6.4-9.8-13.7-11.6-17.5-1.4-2.9-3.7-5.3-6.6-6.7 2.6-6 9.4-14.1 18.8-22.5 47.8 19.7 88.3 26.3 88.8 26.4l3 .5 8.3 1.3zm-8.6.7c-.4-.1-42.2-6.9-90.7-27.4-6.5 5.5-23.1 20.4-24.6 32.1 0 .2.1.5.3.6 1 .5 2.1 1 3 1.3 2.1.7 3.9 2.3 4.9 4.4 2 4.2 6.4 12.3 13.1 19.4 1.4.9 2.6 1.7 3.8 2.5 17 11.6 31.6 27.1 42.2 44.8q2.7 4.5 5.1 9.3c7.6 15.2 12.4 31.6 14.1 48.5.3 2.7.5 5.4.6 8 .1 2.2.2 4.5.2 6.8s-.1 4.6-.2 6.8c-.1 2.7-.3 5.4-.6 8-1.8 16.9-6.5 33.2-14.1 48.5q-2.4 4.8-5.1 9.3c-10.6 17.7-25.1 33.2-42.1 44.8-2.4 1.6-4.8 3.2-7.3 4.7-8.4 5-17.3 9.2-26.5 12.3-4 1.4-8.2 2.6-12.4 3.6-2.4.6-4.8 1.1-7.2 1.6-2.7.5-5.4.9-8.2 1.3-6 .8-12.2 1.2-18.3 1.2s-12.3-.4-18.4-1.2c-2.7-.3-5.4-.8-8.1-1.3-2.5-.5-4.9-1-7.2-1.6-4.2-1-8.4-2.2-12.4-3.6-9.2-3.1-18.1-7.3-26.5-12.3-2.5-1.5-5-3.1-7.3-4.7-17-11.6-31.6-27.1-42.2-44.8q-2.7-4.5-5.1-9.3c-7.6-15.2-12.4-31.6-14.1-48.5-.3-2.7-.5-5.4-.6-8-.1-2.2-.2-4.5-.2-6.8s.1-4.6.2-6.8c.1-2.7.3-5.4.6-8 1.8-16.9 6.5-33.2 14.1-48.5q2.4-4.8 5.1-9.3c10.6-17.7 25.1-33.2 42.2-44.8.4-.3.8-.5 1.2-.8h.1c4-9 13.8-24.7 36.4-33.3l1.4-.6 1 1.2s.1.2.3.4c2.2 2.3 5.1 3.6 8.3 3.6 1.9 0 3.7-.5 5.4-1.3 1.6-.9 3.1-2.1 4.2-3.7 4.3-6.2 9.5-16.4 9.5-29.9 0-16.1-5.5-33.6-8.9-42.9-16.3-10-30.9-20.8-43.5-32.1-31.5-28.4-49.6-69.2-49.6-111.9v-82.5c0-10.9 2.7-21.7 7.9-31.3l2.9-5.3c-1.2-3.5-6.4-17.9-16.5-26.6l-2-1.7 11.7-9.1 1.1.4c.3.1 29.3 11.2 71.8 11.2 42.6 0 75.8-11.4 76.2-11.5l1.2-.4 10.8 9.7-1.8 1.6c-9.9 8.7-15 22.8-16.2 26.3l2.9 5.3c5.2 9.6 7.9 20.4 7.9 31.3v43.8c0 9.1 1.8 17.9 5.4 26.1 1.8 4.1 3.6 7 5.3 8.7 20.7 20.4 39.8 44.7 56.7 72.1 13.5 22 25.8 46 36.3 71.4 17.9 43.3 24.9 76.1 25 76.4l.6 3z" data-source="https://football-logos.cc"></path><path fill="#004a97" d="M537 390.3c48.5 20.5 90.3 27.3 90.7 27.4l3 .5-.6-3c-.1-.3-7-33.2-25-76.4-10.5-25.4-22.8-49.4-36.3-71.4-16.9-27.4-36-51.7-56.7-72.1-1.7-1.7-3.5-4.7-5.3-8.7-3.6-8.2-5.4-17-5.4-26.1v-43.8c0-10.9-2.7-21.7-7.9-31.3l-2.9-5.3c1.2-3.5 6.3-17.6 16.2-26.3l1.8-1.6-10.8-9.7-1.2.4c-.3.1-33.5 11.5-76.2 11.5-42.5 0-71.5-11.1-71.8-11.2l-1.1-.4-11.7 9.1 2 1.7c10.1 8.7 15.3 23.1 16.5 26.6l-2.9 5.3c-5.2 9.6-7.9 20.4-7.9 31.3v82.5c0 42.7 18.1 83.5 49.6 111.9 12.6 11.3 27.2 22.1 43.5 32.1 3.4 9.4 8.9 26.9 8.9 42.9 0 13.6-5.1 23.8-9.5 29.9-1.1 1.6-2.5 2.8-4.2 3.7-1.6.9-3.5 1.3-5.4 1.3-3.2 0-6.1-1.3-8.3-3.6-.2-.2-.3-.3-.3-.4l-1-1.2-1.4.6c-22.6 8.6-32.4 24.3-36.4 33.3h-.1c-.4.3-.8.5-1.2.8-17 11.6-31.6 27.1-42.2 44.8q-2.7 4.5-5.1 9.3c-7.6 15.2-12.4 31.6-14.1 48.5-.3 2.7-.5 5.4-.6 8-.1 2.2-.2 4.5-.2 6.8s.1 4.6.2 6.8c.1 2.7.3 5.4.6 8 1.8 16.9 6.5 33.3 14.1 48.5q2.4 4.8 5.1 9.3c10.6 17.7 25.1 33.2 42.2 44.8 2.3 1.6 4.8 3.2 7.3 4.7 8.4 5 17.3 9.1 26.5 12.3 4 1.4 8.2 2.6 12.4 3.6 2.3.6 4.7 1.1 7.2 1.6 2.7.5 5.5 1 8.1 1.3 6.1.8 12.2 1.2 18.4 1.2 6.1 0 12.3-.4 18.3-1.2 2.7-.4 5.5-.8 8.2-1.3 2.4-.5 4.8-1 7.2-1.6 4.2-1 8.3-2.2 12.4-3.6 9.2-3.1 18.1-7.3 26.5-12.3 2.5-1.5 5-3.1 7.3-4.7 17-11.6 31.6-27.1 42.1-44.8q2.7-4.5 5.1-9.3c7.6-15.2 12.4-31.6 14.1-48.5.3-2.6.5-5.3.6-8 .1-2.2.2-4.5.2-6.8s-.1-4.6-.2-6.8c-.1-2.7-.3-5.3-.6-8-1.8-16.9-6.5-33.2-14.1-48.5q-2.4-4.8-5.1-9.3c-10.6-17.7-25.1-33.2-42.2-44.8-1.1-.8-2.4-1.6-3.8-2.5-6.7-7.1-11.1-15.2-13.1-19.4-1-2.1-2.8-3.7-4.9-4.4-.9-.3-1.9-.7-3-1.3q-.3-.15-.3-.6c1.7-11.6 18.3-26.6 24.7-32.1m-44.5 12.1c-1.2 8.3-8.4 14.6-16.8 14.6-.6 0-1.2 0-1.7-.1 12-16.1 13.3-36.8 12.9-47.8l4.2 1.8c2.5 9.9 3 20.5 1.4 31.5"></path><g fill="#fff" data-source="https://football-logos.cc"><path d="M492.5 402.4c-1.2 8.3-8.4 14.6-16.8 14.6-.6 0-1.2 0-1.7-.1 12-16.1 13.3-36.8 12.9-47.8l4.2 1.8c2.5 9.9 3 20.5 1.4 31.5M414.4 144.1s-1 .4-2.8 1.1c-.9-7.5-3.1-14.8-5.1-20.5-3.8-10.6-12.3-19-23-22.6-6.9-2.3-11.1-1.5-11.1-1.5 0 .2-.1.4-.1.6-1.7 12.1 7.1 23.1 19.1 24.5 2.2.3 3.7.3 3.7.3 6.1 7.3 7.6 15.4 7.7 21.5-8 1.5-18.8 1.9-28.1-3.3-17.3-9.7-12.1-37.5-6.8-45.9 4.9-7.8 2.9-14.7 2.9-14.7s43.6 18.8 43.6 60.5M470.9 144.1c-9.3 5.2-20.1 4.8-28.1 3.3.1-6.1 1.6-14.2 7.7-21.5 0 0 1.5-.1 3.7-.3 12.1-1.4 20.8-12.5 19.1-24.5 0-.2-.1-.4-.1-.6 0 0-4.2-.8-11.1 1.5-10.7 3.6-19.2 12-23 22.6-2 5.7-4.2 13-5.1 20.5-1.8-.6-2.8-1.1-2.8-1.1 0-41.7 43.7-60.5 43.7-60.5s-2 6.8 2.9 14.7c5.2 8.3 10.4 36.1-6.9 45.9M403.7 299.3c9.1 8.2 19.5 16.2 30.8 23.8-1.7-1.7-3.5-3.4-5.2-5.2-14.5-15.1-27-32.4-36.3-52.2-12.2-26-16-55.3 3-76.8-10.1-3-25.3-9.7-36.6-25.1V199c-.1 38.3 16.1 74.9 44.3 100.3"></path><path d="M439.2 308.4c20 20.9 57.4 50.7 121.4 73.9 12.2 4.4 23.6 8 33.5 10.7-40.5-17-129.5-61.3-168.1-134.4 36.5 48.4 97.1 77.3 143.8 93.3l.2-.4c-39.2-22.2-82.3-54.6-107.2-98.3 24.3 21.2 54.3 35.7 84.3 45.4 0 0-97.5-81.3-55.3-79.5 10 .4 27.6 13 43.2 25.9-10.8-14.5-22.9-28.8-36.5-42.1-17.1-16.8-34.3-25.3-50.9-25.3-18.9 0-32.8 11.3-39.3 18-.5.5-1 1.1-1.5 1.6-6.9 7.6-10.3 16.6-10.3 27.7 0 10.4 3.1 22.4 8.9 34.8 8.1 17.5 19.4 33.8 33.8 48.7M422.7 166.3c0-7.1 6.5-15.2 6.5-15.2l-6.5-7.5-6.5 7.5s6.5 8.1 6.5 15.2M488 445.4l-1 5.7-1.2 7.2-4.3 25.4c13.3.8 26.4 2.2 39.4 4.3 1.6.3 3.1.5 4.7.8v-27.2c-11.4-7.3-24.1-12.8-37.6-16.2m-13.2-2.5q-4.2-.6-8.4-.9c-2.9-.2-5.8-.3-8.8-.3s-5.9.1-8.8.3q-4.2.3-8.4.9c-2.2.3-4.3.6-6.5 1.1l.7 3.9 1.2 7.1 4.9 28.4c5.6-.2 11.3-.4 16.9-.4 5.7 0 11.3.1 16.9.4l4.9-28.4 1.2-7.1.7-3.9c-2.1-.4-4.3-.8-6.5-1.1m-45.4 15.5-1.2-7.2-1-5.7c-13.5 3.4-26.2 8.9-37.6 16.2v27.2c1.6-.3 3.2-.5 4.7-.8 13-2.1 26.2-3.6 39.4-4.3zm103.1 46.4c-1.7-3-3.6-5.9-5.5-8.7-.5-.1-.9-.2-1.4-.2-14.9-2.7-30-4.4-45.3-5.3-2.3-.1-4.6-.3-6.9-.3a416.33 416.33 0 0 0-31.6 0l-6.9.3c-15.3.9-30.4 2.6-45.3 5.3-.4.1-.9.2-1.3.2-2 2.8-3.8 5.7-5.5 8.7-6.5 11.2-11.3 23.5-14.1 36.5 29-6.7 58.7-10.1 89-10.1s60 3.4 89 10.1c-2.9-13-7.7-25.3-14.2-36.5M378.9 638.1c-8.5-13.6-14.5-28.9-17.6-45.2-.5-2.5-.9-4.9-1.2-7.4-.8-5.7-1.1-11.6-1.1-17.5s.4-11.8 1.1-17.5c.3-2.5.7-5 1.2-7.4 3.1-16.3 9.2-31.6 17.6-45.2 1.2-2 2.5-4 3.9-5.9v-25.6c-11.5 8.5-21.5 18.8-29.5 30.6q-2.85 4.2-5.4 8.7c-7.9 13.9-13.2 29.4-15.4 45.8-.3 2.5-.6 5-.8 7.5-.2 2.9-.3 5.9-.3 8.9s.1 6 .3 8.9c.2 2.5.4 5 .8 7.5 2.1 16.5 7.5 32 15.4 45.8q2.55 4.5 5.4 8.7c8.1 11.8 18 22.2 29.5 30.6V644c-1.4-1.9-2.7-3.9-3.9-5.9m15.5 9.8c-1.6-.3-3.1-.5-4.7-.8v27.2c11.4 7.3 24.1 12.8 37.6 16.2l1-5.7 1.2-7.2 4.3-25.4c-13.3-.7-26.4-2.2-39.4-4.3m86.3 40.2-1.2-7.1-4.9-28.4c-5.6.2-11.3.4-16.9.4-5.7 0-11.3-.1-16.9-.4l-4.9 28.4-1.2 7.1-.7 3.9c2.1.4 4.3.8 6.5 1q4.2.6 8.4.9c2.9.2 5.8.3 8.8.3s5.9-.1 8.8-.3c2.8-.2 5.7-.5 8.4-.9 2.2-.3 4.3-.6 6.5-1.1zm40.2-40.2c-13 2.1-26.2 3.6-39.4 4.3l4.3 25.4 1.2 7.2 1 5.7c13.5-3.4 26.2-8.9 37.6-16.2v-27.2c-1.5.3-3.1.6-4.7.8m-63.3-43.1c-30.3 0-60-3.4-89-10.1 2.8 13 7.6 25.3 14.2 36.5 1.7 3 3.6 5.9 5.5 8.7.5.1.9.2 1.4.2 14.9 2.7 30 4.4 45.3 5.3 2.3.1 4.6.3 6.9.3a416.33 416.33 0 0 0 31.6 0l6.9-.3c15.3-.9 30.4-2.6 45.3-5.3.4-.1.9-.2 1.3-.2 2-2.8 3.8-5.7 5.5-8.7 6.5-11.2 11.3-23.5 14.1-36.5-28.9 6.7-58.7 10.1-89 10.1m126-45.7c-.2-2.5-.4-5-.8-7.5-2.1-16.5-7.5-32-15.4-45.8q-2.55-4.5-5.4-8.7c-8-11.8-18-22.2-29.5-30.6V492c1.3 1.9 2.7 3.9 3.9 5.9 8.5 13.6 14.5 28.9 17.6 45.2.5 2.5.9 4.9 1.2 7.4.8 5.7 1.1 11.6 1.1 17.5s-.4 11.8-1.1 17.5c-.3 2.5-.7 5-1.2 7.4-3.1 16.3-9.2 31.6-17.6 45.2-1.2 2-2.5 4-3.9 5.9v25.6C544 661.1 554 650.8 562 639q2.85-4.2 5.4-8.7c7.9-13.9 13.2-29.3 15.4-45.8.3-2.5.6-5 .8-7.5.2-2.9.3-5.9.3-8.9q0-4.65-.3-9"></path><path d="M449.7 559.4c-.2-.4-.5-.8-.9-1.1s-.8-.5-1.3-.7-1-.2-1.6-.2-1.1.1-1.6.2-.9.4-1.3.7-.7.6-.9 1.1q-.3.6-.3 1.5c0 .9.1 1.1.4 1.5.2.4.5.8.9 1.1s.8.5 1.2.7.9.3 1.3.4l.9.3c.4-.1.9-.3 1.3-.5s.8-.5 1.1-.8.6-.7.8-1.1.3-.9.3-1.5-.1-1.1-.3-1.6m.5 12.1c-.3-.5-.7-.9-1.1-1.3q-.75-.6-1.5-.9c-.75-.3-1.1-.4-1.5-.5l-.9-.2c-.4.2-.9.4-1.3.6-.5.2-.9.6-1.3.9-.4.4-.7.8-.9 1.3s-.4 1.1-.4 1.8.1 1.3.4 1.8c.2.5.6 1 1 1.3.4.4.9.6 1.5.8s1.2.3 1.8.3c.7 0 1.3-.1 1.9-.3s1.1-.5 1.5-.8c.4-.4.8-.8 1-1.3s.4-1.1.4-1.8c-.1-.6-.3-1.2-.6-1.7m22-9.8c-.2-.8-.5-1.5-1-2.1-.4-.6-.9-1.1-1.5-1.4s-1.3-.5-2.1-.5-1.4.1-2 .4-1 .6-1.4 1-.7 1-.8 1.5c-.2.6-.3 1.2-.3 1.9s.1 1.3.3 1.9.5 1.1.8 1.5c.4.4.8.8 1.4 1s1.2.4 2 .4 1.5-.2 2.1-.5 1.1-.6 1.5-1c.5-.4.9-.9 1.3-1.5 0-.9-.1-1.8-.3-2.6m0 0c-.2-.8-.5-1.5-1-2.1-.4-.6-.9-1.1-1.5-1.4s-1.3-.5-2.1-.5-1.4.1-2 .4-1 .6-1.4 1-.7 1-.8 1.5c-.2.6-.3 1.2-.3 1.9s.1 1.3.3 1.9.5 1.1.8 1.5c.4.4.8.8 1.4 1s1.2.4 2 .4 1.5-.2 2.1-.5 1.1-.6 1.5-1c.5-.4.9-.9 1.3-1.5 0-.9-.1-1.8-.3-2.6m-22 9.8c-.3-.5-.7-.9-1.1-1.3q-.75-.6-1.5-.9c-.75-.3-1.1-.4-1.5-.5l-.9-.2c-.4.2-.9.4-1.3.6-.5.2-.9.6-1.3.9-.4.4-.7.8-.9 1.3s-.4 1.1-.4 1.8.1 1.3.4 1.8c.2.5.6 1 1 1.3.4.4.9.6 1.5.8s1.2.3 1.8.3c.7 0 1.3-.1 1.9-.3s1.1-.5 1.5-.8c.4-.4.8-.8 1-1.3s.4-1.1.4-1.8c-.1-.6-.3-1.2-.6-1.7m-7-8c.4.3.8.5 1.2.7s.9.3 1.3.4l.9.3c.4-.1.9-.3 1.3-.5s.8-.5 1.1-.8.6-.7.8-1.1.3-.9.3-1.5-.1-1.1-.3-1.5-.5-.8-.9-1.1-.8-.5-1.3-.7-1-.2-1.6-.2-1.1.1-1.6.2-.9.4-1.3.7-.7.6-.9 1.1q-.3.6-.3 1.5c0 .9.1 1.1.4 1.5.2.3.5.7.9 1M548 548.7c-29.4-7.1-59.6-10.6-90.4-10.6s-61 3.6-90.4 10.6c-1 6.3-1.5 12.7-1.5 19.3s.5 13 1.5 19.3c29.4 7.1 59.6 10.6 90.4 10.6s61-3.6 90.4-10.6c1-6.3 1.5-12.7 1.5-19.3s-.5-13-1.5-19.3m-115.2 32.1h-13V577h3.9v-16.9c-.2.2-.5.4-.8.6-.4.2-.8.4-1.2.5-.4.2-.8.3-1.3.4s-.8.2-1.1.2l-1.1-3.7c.6-.1 1.3-.3 2-.6s1.3-.6 1.8-.9c.2-.1.5-.3.8-.5s.5-.4.8-.7c.3-.2.5-.5.7-.7s.3-.5.4-.7h4.3v23h3.9v3.8zm22.4-4c-.5 1-1.1 1.8-2 2.5s-1.9 1.2-3.1 1.6-2.6.6-4.1.6-2.9-.2-4.1-.6-2.3-.9-3.1-1.6c-.9-.7-1.5-1.5-2-2.5s-.7-2-.7-3.2q0-1.2.3-2.1c.3-.9.5-1.2.8-1.6.3-.5.7-.9 1.1-1.2s.8-.6 1.2-.8.7-.4 1-.5.5-.2.7-.3c-.1 0-.3-.1-.5-.2-.3-.1-.5-.3-.9-.4-.3-.2-.6-.4-1-.8-.3-.3-.6-.7-.9-1.1s-.5-1-.7-1.5c-.2-.6-.3-1.3-.3-2 0-1.1.2-2.1.7-3s1.1-1.6 1.9-2.2 1.8-1.1 2.9-1.4 2.3-.5 3.6-.5 2.5.2 3.6.5 2.1.8 2.9 1.4 1.5 1.4 1.9 2.2c.5.9.7 1.9.7 3 0 .6-.1 1.1-.2 1.6s-.3.9-.5 1.2c-.2.4-.4.7-.7 1l-.8.8c-.6.5-1.4.9-2.2 1.2.2.1.5.2.9.4s.7.4 1.1.6.8.5 1.2.9.7.8 1.1 1.3c.3.5.6 1.1.8 1.7s.3 1.3.3 2.1c-.2.8-.4 1.9-.9 2.9m22.4-6c-.2 1.1-.5 2.1-.8 3.1-.3.9-.7 1.7-1.1 2.5-.4.7-.9 1.3-1.3 1.8-.5.5-1 .9-1.5 1.3s-1.1.8-1.8 1c-.7.3-1.4.5-2.1.7-.8.2-1.6.2-2.5.2s-1.7-.1-2.5-.2-1.5-.3-2.1-.6-1.2-.5-1.7-.8-1-.6-1.4-1l2.1-3.6 1.2.9s.9.5 1.4.6 1 .3 1.5.4 1 .1 1.4.1c.9 0 1.7-.1 2.4-.4s1.3-.7 1.9-1.3c.3-.3.6-.6.8-1 .3-.4.5-.9.7-1.4s.4-1.2.5-1.9.2-1.5.2-2.5c-.5.5-1 .9-1.7 1.3q-.9.45-2.1.9c-1.2.45-1.8.4-2.9.4s-2.2-.2-3.1-.6c-1-.4-1.8-.9-2.6-1.6-.7-.7-1.3-1.6-1.7-2.6s-.6-2.2-.6-3.5.2-2.5.6-3.6 1-2.1 1.9-2.9c.8-.8 1.8-1.5 3-2s2.6-.7 4.1-.7c1.1 0 2.1.1 2.9.4.9.3 1.6.6 2.2 1s1.2.8 1.6 1.3.8.9 1.1 1.3.6.8.8 1.4c.3.5.6 1.2.8 2s.4 1.7.6 2.7c.1 1 .2 2.2.2 3.5-.2 1-.3 2.2-.4 3.4m20.9 5.3c-.6 1.1-1.3 2.1-2.3 2.9s-2.1 1.4-3.3 1.8-2.5.6-3.9.6c-1.3 0-2.5-.2-3.6-.5-1-.3-2-.7-2.7-1.1-.8-.4-1.4-.8-1.9-1.3-.5-.4-.9-.8-1.1-1l2.6-3.4c.3.2.6.5 1 .9.4.3.9.7 1.5 1s1.2.6 1.8.8q1.05.3 2.1.3c1.05 0 1.4-.1 2.1-.3s1.2-.5 1.7-.9.9-.9 1.2-1.5.4-1.3.4-2.2c0-.8-.1-1.5-.4-2.1s-.7-1.1-1.2-1.5-1.1-.7-1.7-.9q-1.05-.3-2.1-.3c-1.05 0-1.4.1-1.9.2-.5.2-1 .3-1.3.5-.4.2-.8.4-1 .7l-3.1-1.2 2.4-13.4h15v4.1h-11.1l-1.1 6.1c.3-.1.6-.3.9-.4s.7-.2 1.2-.3 1-.1 1.7-.1c1.1 0 2.3.2 3.3.5 1.1.3 2.1.8 2.9 1.5q1.35 1.05 2.1 2.7c.75 1.65.8 2.4.8 3.9-.2 1.4-.5 2.7-1 3.9m-27.2-16.5c-.4-.6-.9-1.1-1.5-1.4s-1.3-.5-2.1-.5-1.4.1-2 .4-1 .6-1.4 1-.7 1-.8 1.5c-.2.6-.3 1.2-.3 1.9s.1 1.3.3 1.9.5 1.1.8 1.5c.4.4.8.8 1.4 1s1.2.4 2 .4 1.5-.2 2.1-.5 1.1-.6 1.5-1c.5-.4.9-.9 1.3-1.5 0-1-.1-1.8-.3-2.7-.3-.7-.6-1.4-1-2m-22.2 10.7q-.75-.6-1.5-.9c-.75-.3-1.1-.4-1.5-.5l-.9-.2c-.4.2-.9.4-1.3.6-.5.2-.9.6-1.3.9-.4.4-.7.8-.9 1.3s-.4 1.1-.4 1.8.1 1.3.4 1.8c.2.5.6 1 1 1.3.4.4.9.6 1.5.8s1.2.3 1.8.3c.7 0 1.3-.1 1.9-.3s1.1-.5 1.5-.8c.4-.4.8-.8 1-1.3s.4-1.1.4-1.8c0-.6-.2-1.2-.5-1.7-.4-.6-.7-1-1.2-1.3m-5.9-6.8c.4.3.8.5 1.2.7s.9.3 1.3.4l.9.3c.4-.1.9-.3 1.3-.5s.8-.5 1.1-.8.6-.7.8-1.1.3-.9.3-1.5-.1-1.1-.3-1.5-.5-.8-.9-1.1-.8-.5-1.3-.7-1-.2-1.6-.2-1.1.1-1.6.2-.9.4-1.3.7-.7.6-.9 1.1q-.3.6-.3 1.5c0 .9.1 1.1.4 1.5.2.3.5.7.9 1m6.5-4.1c-.2-.4-.5-.8-.9-1.1s-.8-.5-1.3-.7-1-.2-1.6-.2-1.1.1-1.6.2-.9.4-1.3.7-.7.6-.9 1.1q-.3.6-.3 1.5c0 .9.1 1.1.4 1.5.2.4.5.8.9 1.1s.8.5 1.2.7.9.3 1.3.4l.9.3c.4-.1.9-.3 1.3-.5s.8-.5 1.1-.8.6-.7.8-1.1.3-.9.3-1.5-.1-1.1-.3-1.6m.5 12.1c-.3-.5-.7-.9-1.1-1.3q-.75-.6-1.5-.9c-.75-.3-1.1-.4-1.5-.5l-.9-.2c-.4.2-.9.4-1.3.6-.5.2-.9.6-1.3.9-.4.4-.7.8-.9 1.3s-.4 1.1-.4 1.8.1 1.3.4 1.8c.2.5.6 1 1 1.3.4.4.9.6 1.5.8s1.2.3 1.8.3c.7 0 1.3-.1 1.9-.3s1.1-.5 1.5-.8c.4-.4.8-.8 1-1.3s.4-1.1.4-1.8c-.1-.6-.3-1.2-.6-1.7m0 0c-.3-.5-.7-.9-1.1-1.3q-.75-.6-1.5-.9c-.75-.3-1.1-.4-1.5-.5l-.9-.2c-.4.2-.9.4-1.3.6-.5.2-.9.6-1.3.9-.4.4-.7.8-.9 1.3s-.4 1.1-.4 1.8.1 1.3.4 1.8c.2.5.6 1 1 1.3.4.4.9.6 1.5.8s1.2.3 1.8.3c.7 0 1.3-.1 1.9-.3s1.1-.5 1.5-.8c.4-.4.8-.8 1-1.3s.4-1.1.4-1.8c-.1-.6-.3-1.2-.6-1.7m-.5-12.1c-.2-.4-.5-.8-.9-1.1s-.8-.5-1.3-.7-1-.2-1.6-.2-1.1.1-1.6.2-.9.4-1.3.7-.7.6-.9 1.1q-.3.6-.3 1.5c0 .9.1 1.1.4 1.5.2.4.5.8.9 1.1s.8.5 1.2.7.9.3 1.3.4l.9.3c.4-.1.9-.3 1.3-.5s.8-.5 1.1-.8.6-.7.8-1.1.3-.9.3-1.5-.1-1.1-.3-1.6"></path></g><g fill="#004a97" data-source="https://football-logos.cc"><path d="M326.7 792.3c-3.2 0-6.1-.5-8.6-1.4s-4.6-2.3-6.3-4.1-3-4-3.9-6.6-1.4-5.6-1.4-8.9c0-2.5.2-4.9.7-7.3s1.2-4.6 2.2-6.8c1-2.1 2.2-4.1 3.6-5.9 1.5-1.8 3.1-3.3 5.1-4.6 1.9-1.3 4.1-2.3 6.5-3s5-1.1 7.9-1.1c3.3 0 6.2.5 8.7 1.4s4.6 2.3 6.3 4.1 3 4 3.8 6.5c.9 2.6 1.3 5.4 1.3 8.6 0 2.3-.2 4.6-.7 6.9-.4 2.3-1.1 4.5-2 6.7-.9 2.1-2 4.1-3.5 6-1.4 1.9-3.1 3.5-5 4.9s-4.1 2.5-6.5 3.3c-2.4.9-5.2 1.3-8.2 1.3m.8-7.8c2.4 0 4.5-.6 6.4-1.7 1.9-1.2 3.4-2.7 4.7-4.7 1.3-1.9 2.2-4.2 2.9-6.7s1-5.2 1-7.9q0-2.7-.6-5.1c-.6-2.4-1-3-1.9-4.2s-2-2.1-3.4-2.8-3-1-5-1c-2.3 0-4.4.5-6.2 1.6s-3.4 2.5-4.7 4.4c-1.3 1.8-2.3 4-3 6.5s-1.1 5.2-1.1 8.1c0 2.1.2 4.1.7 5.7.5 1.7 1.1 3.1 2 4.3s2 2.1 3.4 2.7c1.4.5 3 .8 4.8.8M353.2 791.4l.8-6.9h5.9l4.5-34.1h-6l.8-6.9H381l-.8 6.9H374l-4.5 34.1H383l1.4-10.3h7.5l-2.3 17.2zM394.5 791.4l.9-6.9h5.9l4.4-34.1h-6l.8-6.9h21.7c6.9 0 12 1.7 15.4 5 1.6 1.6 2.9 3.5 3.9 6 1 2.4 1.5 5.5 1.5 9.1 0 2.3-.2 4.4-.6 6.5s-1 4.1-1.7 5.9q-1.05 2.85-2.7 5.1c-1.1 1.6-2.3 3-3.7 4.2q-3.9 3.45-8.7 4.8c-4.8 1.35-6.7 1.4-10.6 1.4h-20.5zm20.9-6.9q2.25 0 4.2-.3c1.2-.2 2.4-.5 3.4-.9s2-.9 2.8-1.5 1.7-1.4 2.4-2.2c.8-.9 1.5-1.9 2.1-3.1s1.1-2.5 1.5-3.8c.4-1.4.7-2.8.9-4.3s.3-3 .3-4.5c0-2.2-.3-4.1-.8-5.8s-1.2-3.1-2.1-4.1c-1-1.2-2.2-2.1-3.6-2.6-1.4-.6-3.2-.8-5.4-.8h-5.8l-4.4 34.1h4.5zM472.9 791.4l.9-6.9h5.6l1.9-14.5H462l-1.9 14.5h5.6l-.8 6.9h-21.1l.8-6.9h6l4.4-34.1h-6l.8-6.9h21.3l-.9 6.9h-5.6l-1.7 12.6h19.3l1.7-12.6h-5.7l.8-6.9h21.1l-.8 6.9h-5.9l-4.5 34.1h6l-.9 6.9zM525.5 791.4l.8-6.9h5.2l-1.7-8.3H515l-3.7 8.3h5.2l-.9 6.9h-17.8l.8-7h4.1l15.7-34h-5.6l.8-7h19.2l8.6 41h4.3l-.8 7zm0-39.7-7.9 18.1h11.3zM590.9 791.4l.8-6.9h5l3-32.5-16.2 39.4h-9.4l-6-39.4-5.5 32.5h5.2l-.8 6.9h-18.7l.8-6.9h5.4l6.1-34.1h-5.4l.8-6.9h19.3l5.4 35.4 14.7-35.4h19.8l-.9 7H609l-2.9 34h5.7l-.8 6.9zM311.2 848.1l.8-6.9h5.2l-1.7-8.3h-14.8l-3.7 8.3h5.2l-.9 6.9h-17.8l.8-7h4.1l15.7-34h-5.6l.8-7h19.2l8.6 41h4.3l-.8 7zm0-39.7-7.9 18.1h11.3zM338.7 848.1l.8-6.9h6l4.4-34.2h-8.5l-1 8H333l1.9-14.9h41.2l-1.8 14.9H367l1-8h-8.5l-4.5 34.2h6.1l-.8 6.9zM403.7 848.1l.9-6.9h5.6l1.9-14.5h-19.3l-1.9 14.5h5.6l-.8 6.9h-21.1l.8-6.9h6l4.4-34.1h-6l.8-6.9h21.3l-.9 6.9h-5.6l-1.7 12.6H413l1.7-12.6H409l.8-6.9H431l-.8 6.9h-5.9l-4.5 34.1h6l-.9 6.9zM429.5 848.1l.8-6.9h5.9l4.5-34.1h-6l.8-6.9h21.8l-.8 6.9h-6.2l-4.5 34.1h13.5l1.4-10.3h7.5l-2.3 17.2zM470.8 848.1l.9-6.9h6l4.3-34.1h-6l.9-6.9h37.2l-1.7 13.3h-7.3l.8-6.3h-14.4l-1.7 12.7h6.7l.6-4.1h6.5l-2 15.6H495l.7-4.6h-6.6l-1.8 14.5H503l1.1-8.6h7.4l-2 15.6h-38.7zM523.5 848.1l.8-6.9h6l4.4-34.2h-8.5l-1 8h-7.3l1.9-14.9H561l-1.8 14.9h-7.3l1-8h-8.5l-4.5 34.2h6.1l-.8 6.9zM559.4 848.1l.8-6.9h5.9l4.5-34.1h-5.9l.8-6.9H587l-.8 6.9h-6l-4.5 34.1h6l-.8 6.9zM627.6 839c-.9 1.1-2 2.3-3.2 3.4-1.2 1.2-2.6 2.3-4.3 3.2-1.6 1-3.5 1.7-5.6 2.4-2.1.6-4.4.9-7 .9-3.5 0-6.5-.6-9-1.7s-4.6-2.6-6.3-4.6c-1.6-1.9-2.9-4.2-3.7-6.8s-1.2-5.4-1.2-8.3c0-4.1.6-7.9 1.8-11.3 1.2-3.5 2.9-6.4 5-9 2.1-2.5 4.7-4.5 7.6-5.9s6.1-2.1 9.6-2.1c1.7 0 3.2.2 4.6.5 1.3.4 2.5.8 3.5 1.4s1.8 1.3 2.5 2c.7.8 1.2 1.5 1.6 2.3l.7-5.5h7.6l-2.3 18.1H622c0-1.3-.2-2.7-.5-4-.3-1.4-.8-2.6-1.6-3.7s-1.8-2-3-2.6c-1.3-.7-2.8-1-4.7-1-2.1 0-4.1.5-5.9 1.6-1.8 1-3.3 2.4-4.6 4.2s-2.3 3.8-3 6.2-1.1 4.9-1.1 7.6c0 2.5.3 4.6.9 6.4s1.4 3.3 2.5 4.5 2.3 2.1 3.7 2.6c1.4.6 3 .8 4.7.8 1.6 0 3-.2 4.4-.7s2.6-1 3.8-1.8c1.1-.7 2.2-1.5 3.1-2.4s1.7-1.8 2.3-2.6zM438.7 885.9l.3-2.1h3l-1.2-5.7h-8.9l-2.6 5.7h3l-.3 2.1h-7.8l.3-2.1h2.2L436 864h-3.1l.3-2.1h6.9l4.8 21.9h2.4l-.3 2.1zm-.6-21.4-5.3 11.6h7.6zM449.3 885.9l.3-2.1h3.2l2.6-19.9h-3.2l.3-2h17.3l-.9 6.5h-2.3l.6-4.5h-9l-1.2 8.9h5.1l.5-3.2h2.2l-1.1 8.6h-2.2l.4-3.4h-5.1l-1.1 8.9h3.4l-.3 2.1h-9.5zM489.8 881.1c-.4.5-.8 1.1-1.4 1.7-.5.6-1.2 1.2-1.9 1.7-.8.5-1.6.9-2.7 1.3-1 .3-2.2.5-3.5.5-1.4 0-2.7-.2-3.8-.7s-2.1-1.2-2.9-2c-.8-.9-1.4-2-1.8-3.2q-.6-1.95-.6-4.2c0-1.3.1-2.6.4-3.8s.6-2.4 1.1-3.5 1.1-2.1 1.8-3 1.5-1.6 2.4-2.3c.9-.6 1.8-1.1 2.9-1.5 1-.4 2.2-.5 3.3-.5q1.35 0 2.4.3c1.05.3 1.3.5 1.9.8.5.3 1 .7 1.3 1.2.4.4.6.9.8 1.4l.4-3.3h2.3l-1.1 8.4h-2.3c0-.6-.1-1.3-.2-2.1q-.3-1.2-.9-2.1c-.4-.7-1-1.2-1.8-1.7-.8-.4-1.8-.7-2.9-.7-.9 0-1.7.2-2.5.5s-1.5.7-2.1 1.3c-.7.5-1.2 1.2-1.7 1.9-.5.8-.9 1.6-1.3 2.5s-.6 1.8-.8 2.8-.3 2-.3 3c0 1.4.2 2.6.5 3.7.4 1 .8 1.9 1.4 2.6s1.3 1.2 2.1 1.5 1.7.5 2.6.5 1.7-.1 2.5-.4 1.4-.6 2-1.1c.6-.4 1.1-.9 1.6-1.4.4-.5.8-1 1.1-1.5z"></path></g><!-- source: https://football-logos.cc --></svg>