<svg xmlns="http://www.w3.org/2000/svg" viewBox="0.1 0.1 85.04 85.04"><!-- Source: https://football-logos.cc --><path fill="#fff" d="M85.143 42.621a42.52 42.52 0 0 1-42.522 42.522A42.52 42.52 0 0 1 .1 42.621 42.52 42.52 0 0 1 42.622.1a42.52 42.52 0 0 1 42.521 42.521" data-source="https://football-logos.cc"></path><g fill="#1d5ba4" data-source="https://football-logos.cc"><path d="M42.621 1.65c-10.944 0-21.232 4.263-28.971 12-7.737 7.74-12 18.027-12 28.971s4.263 21.232 12 28.971c7.739 7.74 18.027 12 28.971 12s21.232-4.26 28.971-12c7.738-7.738 12-18.027 12-28.97s-4.262-21.233-12-28.972c-7.739-7.737-18.027-12-28.971-12m0 1.729c21.639 0 39.242 17.603 39.242 39.242S64.26 81.865 42.621 81.865 3.379 64.26 3.379 42.62 20.982 3.379 42.621 3.379"></path><path d="M48.202 30.279v-1.275h-4.016s1.002 1.135 1.002 3.286v11.206a8.6 8.6 0 0 1-1.377.111q-.164-.002-.329-.007a14 14 0 0 0 .24-2.604c0-4.989-2.374-8.014-4.366-9.674a13.4 13.4 0 0 0-2.579-1.678l.003-2.947c1.103-1.078 3.32-2.675 6.825-2.675 3.352 0 6.382 1.885 7.88 4.955a15 15 0 0 0-3.283 1.302m24.028 27.64a1.5 1.5 0 0 0-.542-.106c-.22-.002-.41.048-.41.048l.135.099c.28.205 1.16 1.023.706 2.96-.3 1.27-1.934 3.632-6.031 3.643h-.002q-.385 0-.787-.033a10.3 10.3 0 0 1-2.394-.497q.29-.273.574-.556a30 30 0 0 0 1.62-1.756 6 6 0 0 1-1.58-.333 28 28 0 0 1-2.071 2.077c-1.454-.66-3.063-1.638-4.614-2.637-.621-.4-1.676-1.107-2.238-1.46-1.963-1.238-3.935-2.397-6.378-3.256V52.03c3.92.918 7.686 3.65 9.452 4.917.219.156.456.334.71.523 1.661 1.238 4.751 3.455 7.846 3.455 3.995 0 4.173-2.597 4.153-2.752 0 0-.073.087-.146.16-.225.217-.804.73-2.19.682a3.2 3.2 0 0 1-.806-.132c3.175-4.782 4.88-10.39 4.88-16.262 0-16.264-13.23-29.495-29.495-29.495S13.127 26.357 13.127 42.621s13.231 29.495 29.495 29.495c6.194 0 12.096-1.896 17.044-5.415a14 14 0 0 1-1.577-.63 27.94 27.94 0 0 1-15.466 4.652c-15.495 0-28.101-12.606-28.101-28.101S27.128 14.52 42.623 14.52s28.101 12.606 28.101 28.1a27.94 27.94 0 0 1-4.84 15.747c-1.106-.512-2.504-1.365-3.979-2.27a46 46 0 0 1-.762-.483c-2.18-1.415-3.785-2.274-5.067-2.714a5 5 0 0 0-.628-.165v-.098c6.817-.12 12.199-5.295 12.199-12.264 0-7.03-5.46-11.856-12.392-11.856q-.247 0-.487.007c-1.936-3.997-6.12-6.48-11.134-6.48-2.612 0-4.938.658-6.865 1.639v-1.226h-4.017s.991.906.991 3.057l-.002 3.024a13.6 13.6 0 0 0-3.148-.379c-3.19 0-6.389 1.154-8.774 3.164-1.96 1.651-4.296 4.67-4.296 9.673 0 4.962 2.41 7.976 4.433 9.63 1.652 1.353 3.719 2.328 5.85 2.802.295-.54.553-1.129.672-1.621a7 7 0 0 1-.914-.268c-1.133-.447-1.802-1.294-1.802-2.305 0-1.489 1.075-2.019 1.801-2.019 1.021 0 2.089.685 2.13 2.68.111 5.26-5.665 8.868-6.186 9.184q.775.897 1.629 1.72l.481-.258c1.964-1.073 6.531-3.65 13.112-3.608 2.064.014 3.916.31 5.583.766v-2.556a27 27 0 0 0-3.907-.294c-5.517-.035-10.049 1.627-12.83 3.064l-.037-.054c.728-.658 2.161-2.203 3.139-4.108.331 0 .722-.017 1.057-.044.128-.116.258-.265.373-.418a3.56 3.56 0 0 0 .63-1.46q-.662.151-1.36.204c.18-.601.295-1.22.314-1.844.047-1.638-.367-3.015-1.2-3.87-.712-.735-1.705-1.122-2.87-1.122-1.522 0-3.432 1.022-3.557 3.284-.01.203.027.657.104.847l-.072.038c-2.038-2.01-3.287-4.99-3.287-8.431 0-6.26 4.237-10.98 9.855-10.98 5.66 0 9.77 4.617 9.77 10.98q-.002 1.086-.16 2.106a10.5 10.5 0 0 1-3.49-1.99v-7.524a8.2 8.2 0 0 0-3.037-2.051v19.269c0 1.95-.995 3.096-.995 3.097h4.875s-.446-.556-.695-1.662a13.5 13.5 0 0 0 2.379-1.553 12 12 0 0 0 3.265-4.185 17.5 17.5 0 0 1-3.132-.467c-.633 1.49-1.547 2.776-2.675 3.775v-5.684a16.4 16.4 0 0 0 6.866 1.477c2.153 0 3.512-.4 4.596-.787 4.393-1.564 7.692-5.711 7.692-11.02q-.002-1.116-.18-2.153c-1.064-.065-2.646.155-3.339.375q.136.87.137 1.809c0 3.872-1.722 6.955-4.31 8.58v-9.216c1.98-1.545 3.878-2.556 7.126-2.556 4.932 0 8.852 4.015 8.852 9.86 0 5.865-4 10.2-9.265 10.2-2.658 0-4.717-.716-6.713-1.917v-2.984a14.3 14.3 0 0 1-3.027.655v11.312c0 1.952-1.002 3.098-1.002 3.098h4.992s-.577-.589-.788-1.551c1.308.576 2.996 1.619 4.133 2.355.518.333.974.653 1.414.937 3.388 2.194 6.489 4.138 11.04 4.138 2.998 0 4.899-.942 6.095-1.828 1.384-1.025 2.193-2.434 2.386-3.686.383-2.471-.968-3.135-1.243-3.245m-27.806 16.75q.132-.296.499-.321a.5.5 0 0 1 .487.245q.17.267.201.716.033.489-.132.775-.164.286-.459.305-.235.017-.447-.211-.214-.227-.245-.7-.036-.515.096-.809m1.284 4.275q-.195.328-.473.348-.317.02-.536-.287-.218-.309-.261-.953-.047-.694.124-1 .172-.306.482-.328.317-.022.543.266.223.288.268.949.047.676-.147 1.005m1.21-1.712a1.33 1.33 0 0 0-.666-.644 1.4 1.4 0 0 0-.398-.108l-.004-.057q.186-.053.35-.163a1.1 1.1 0 0 0 .457-.637q.06-.21.04-.47-.016-.254-.138-.474a.9.9 0 0 0-.349-.377 1.7 1.7 0 0 0-.565-.237 2.6 2.6 0 0 0-.777-.05q-.376.027-.684.133c-.308.106-.381.17-.529.295a1.2 1.2 0 0 0-.335.444 1.2 1.2 0 0 0-.09.576q.014.22.104.406t.228.325.315.229c.179.09.24.096.367.11l.004.056a1.5 1.5 0 0 0-.413.196 1.3 1.3 0 0 0-.335.327 1.5 1.5 0 0 0-.213.452 1.6 1.6 0 0 0-.055.586q.028.4.19.692.164.292.43.475c.266.183.383.205.62.248q.352.066.76.038.416-.029.768-.15.352-.122.594-.356t.368-.565q.124-.333.095-.757a1.4 1.4 0 0 0-.14-.543m-13.747-4.067a21 21 0 0 1-1.295.123q.054.075.131.237.076.164.129.305a5 5 0 0 0 .276-.042l.301-.058q.15-.03.275-.052c.125-.022.147-.026.188-.031l-.641 2.215q-.096.33-.202.647c-.106.317-.136.414-.2.603s-.122.36-.178.513l-.13.355q.162.03.316.074l.31.09.306.089q.15.044.301.104.145-.58.259-1.023c.114-.443.156-.581.236-.86l.173-.596.14-.479q.086-.298.185-.61c.099-.312.132-.412.199-.615l.196-.586q.093-.283.179-.514l-.132-.106q-.703.137-1.322.217m20.186 4.377a3 3 0 0 1-.054-.262l-.046-.262q-.56.185-1.109.335l-1.116.302-.013-.013q.54-.763.865-1.32.327-.555.487-.972c.16-.417.166-.517.182-.721q.022-.306-.044-.568a1.5 1.5 0 0 0-.203-.45 1.16 1.16 0 0 0-.407-.367 1.6 1.6 0 0 0-.655-.183q-.392-.034-.938.105-.698.179-1.027.574-.33.397-.362.861l.374.17q.18.086.378.195l.073-.045a2.4 2.4 0 0 1-.06-.363 1.4 1.4 0 0 1 .024-.408.9.9 0 0 1 .156-.36.58.58 0 0 1 .336-.217q.151-.037.309-.015c.158.022.207.057.307.127q.15.106.272.306.123.202.206.525.1.389.08.808a3.4 3.4 0 0 1-.181.906 7 7 0 0 1-.47 1.069q-.307.583-.774 1.291l.085.334q.423-.127.851-.235l.855-.219.888-.227q.435-.111.89-.212-.035-.109-.08-.232a2 2 0 0 1-.08-.258m-13.898-2.263q-.058.487-.273.737-.214.251-.506.216-.235-.027-.402-.29c-.167-.263-.15-.42-.112-.733q.06-.512.244-.778c.184-.266.306-.252.55-.224a.5.5 0 0 1 .434.332q.118.293.065.74m-.244 2.63q-.08.673-.331.96c-.251.288-.344.277-.528.255q-.318-.037-.475-.38-.155-.345-.08-.985.08-.69.305-.96c.225-.27.33-.258.534-.234q.317.037.485.361.166.324.09.983m1.019-3.51q-.196-.197-.513-.337c-.317-.14-.463-.157-.755-.192q-.373-.044-.696.005c-.323.049-.406.096-.574.191q-.252.144-.41.376c-.159.232-.172.338-.197.55q-.027.218.029.418a1.2 1.2 0 0 0 .43.644q.159.121.342.176l-.007.056q-.225.023-.442.118c-.217.095-.273.148-.388.258s-.213.245-.295.405a1.7 1.7 0 0 0-.162.567q-.045.397.06.715.108.315.335.545c.227.23.34.272.564.358q.334.13.74.178.413.048.783-.006a1.51 1.51 0 0 0 1.115-.729q.183-.305.233-.726.036-.308-.037-.56c-.073-.252-.119-.314-.211-.44s-.202-.232-.325-.315a1.4 1.4 0 0 0-.37-.179l.006-.058q.19-.016.374-.095.181-.077.325-.213.144-.135.24-.329.098-.194.128-.455.03-.252-.048-.491a1.1 1.1 0 0 0-.274-.435"></path><path d="M21.992 13.736q.254.392.566.544.313.153.65.177.338.027.684-.029.345-.053.654-.072.31-.02.566.046a.72.72 0 0 1 .426.328q.187.289.125.621c-.062.332-.2.421-.474.599q-.205.135-.408.182a.8.8 0 0 1-.385.022 1.06 1.06 0 0 1-.634-.331l-.13.084q.116.256.199.485.079.232.167.515.225.02.569-.091.343-.109.712-.35.412-.266.677-.589c.265-.323.3-.441.372-.68s.09-.481.055-.727a1.8 1.8 0 0 0-.276-.711q-.255-.393-.57-.542a1.8 1.8 0 0 0-.664-.175 3.2 3.2 0 0 0-.691.03q-.347.053-.664.074c-.317.021-.404.001-.576-.04a.7.7 0 0 1-.424-.315.7.7 0 0 1-.081-.561.86.86 0 0 1 .395-.519q.61-.396 1.212.053l.103-.068-.129-.446a4 4 0 0 1-.091-.375 1.8 1.8 0 0 0-.638.062 2.6 2.6 0 0 0-.706.332q-.308.198-.524.476a1.8 1.8 0 0 0-.308.599q-.092.323-.042.68c.05.357.128.475.283.712m-5.666 4.985q.43.448.885.946c.455.498.58.644.834.934q.379.435.64.739.26.306.295.364.123-.142.258-.273l.135-.131a1 1 0 0 1 .153-.124l-.179-.162a16 16 0 0 1-.282-.268 39 39 0 0 1-.994-1.006l-.659-.683a28 28 0 0 1-.654-.699q2.74.117 5.314.358.088-.109.218-.233.123-.12.252-.22l-.681-.707a115 115 0 0 1-.768-.799 55 55 0 0 1-.715-.77q-.356-.394-.757-.842-.399-.45-.886-1.013-.137.188-.237.285a2.3 2.3 0 0 1-.293.226q.07.048.242.21.174.162.404.394c.23.232.321.324.502.509q.274.276.552.564l.55.571.495.511q-1.347-.074-2.637-.159-1.29-.082-2.618-.175a2 2 0 0 1-.237.285q-.1.097-.292.227.21.205.489.471.278.264.67.67M36.693 5.92l-.149.055a1 1 0 0 1-.15.037 1 1 0 0 1-.156.015l-.158-.002q-.1.49-.221 1.059l-.248 1.152q-.129.587-.258 1.16l-.244 1.075q-.112.5-.21.898-.097.399-.16.625.112-.035.21-.053l.191-.03.19-.034q.091-.016.191-.018a19 19 0 0 1 .27-1.72q.207-.044.417-.084.21-.039.416-.075a25 25 0 0 1 1.036-.162q.223.385.431.772l.405.762q.165-.047.34-.077.172-.028.341-.06l.344-.057a4 4 0 0 1 .37-.047 19 19 0 0 1-.714-1.056 87 87 0 0 1-1.68-2.762zm-.346 1.66q.276.45.53.893.255.441.515.902l-1.473.252a34 34 0 0 1 .428-2.047m-4.273-.484q-.337.02-.889.203-.279.092-.564.209c-.285.117-.376.145-.557.205a5 5 0 0 1-.648.172q.196.495.378.99c.182.495.252.709.393 1.139l.352 1.056q.213.644.363 1.149.15.504.28.996.126-.059.28-.11.156-.05.35-.115l.35-.115q.154-.052.29-.08a24 24 0 0 1-.427-1.127 57 57 0 0 1-.397-1.156l.395-.133q.435-.144.77-.357.333-.216.535-.5c.202-.284.216-.41.244-.655a1.9 1.9 0 0 0-.104-.808q-.116-.35-.314-.559c-.198-.209-.305-.25-.514-.33a1.25 1.25 0 0 0-.566-.074m-.63.668q.17.004.323.088a.9.9 0 0 1 .285.261q.133.18.23.475.124.374.09.635c-.033.26-.078.32-.165.437a1 1 0 0 1-.325.283q-.191.108-.384.172-.18-.542-.356-1.084-.175-.54-.351-1.101a.3.3 0 0 1 .068-.032l.076-.027.18-.058a1 1 0 0 1 .33-.05m-18.141 16.04.912.636q.557.389.98.701c.423.312.558.419.824.628q.03-.058.081-.138.05-.08.155-.231.107-.15.28-.399l.463-.662q.322-.463.511-.726.187-.261.321-.44a.5.5 0 0 1-.115-.05q-.064-.034-.172-.11a2 2 0 0 1-.283-.238 15 15 0 0 1-.985 1.598 26 26 0 0 1-1.279-.867 33 33 0 0 0-.426-.303 23 23 0 0 1 1.123-1.48q-.117-.063-.181-.092c-.064-.029-.082-.042-.118-.067q-.066-.046-.122-.095a3 3 0 0 1-.155-.149q-.247.397-.48.758a41 41 0 0 1-.53.802l-.728-.514q-.36-.256-.709-.54.051-.074.18-.243.127-.17.294-.378l.34-.431q.174-.223.324-.406a3 3 0 0 1-.149-.074q-.064-.035-.172-.11a1.6 1.6 0 0 1-.263-.224 10 10 0 0 1-.339.536 47 47 0 0 1-.605.889q-.21.3-.43.586-.22.287-.436.583a40 40 0 0 1 1.889 1.25m.446 6.25q.037-.086.118-.253l.21-.437.353-.729q.245-.508.39-.797.143-.29.247-.484-.051-.007-.122-.031c-.07-.024-.108-.044-.187-.082a2 2 0 0 1-.316-.19q-.155.453-.337.883-.18.43-.382.85a20 20 0 0 1-.931-.423q-.236-.113-.47-.231a33 33 0 0 0-.47-.231 23 23 0 0 1 .875-1.639q-.125-.043-.194-.061a1 1 0 0 1-.126-.048 1 1 0 0 1-.137-.075 3 3 0 0 1-.177-.122 47 47 0 0 1-.748 1.7q-.405-.196-.8-.392c-.396-.196-.526-.27-.787-.42q.039-.081.139-.27.1-.187.23-.42l.268-.478.255-.453a2 2 0 0 1-.346-.131 1.5 1.5 0 0 1-.295-.179q-.055.155-.249.584t-.456.972q-.16.332-.332.65-.171.315-.338.643a40 40 0 0 1 2.064.934l1.001.483q.61.295 1.079.537t.912.488a3 3 0 0 1 .06-.148m-5.14 7.911q-.734-.033-1.294.186-.563.216-.942.615a2.8 2.8 0 0 0-.582.957q-.205.556-.232 1.209-.033.71.17 1.299.202.59.584 1.015.383.428.902.676.522.248 1.125.276.76.035 1.322-.186.563-.22.936-.62.375-.395.563-.935c.188-.54.195-.739.212-1.136.155-.288.316-.618.428-.813s.216-.409.326-.588c.087-.143.182-.304.27-.441-.1-.154-.172-.33-.254-.545-.093-.244-.182-.58-.203-.643-.026.078-.103.37-.145.493-.068.2-.139.446-.236.726-.078.223-.16.431-.256.662q-.15-.497-.406-.894a3 3 0 0 0-.604-.68q-.347-.286-.773-.447a2.9 2.9 0 0 0-.91-.186m-.23 1.332q.67.03 1.155.203.48.172.789.436.308.264.447.607.141.34.125.707-.015.345-.153.649-.135.306-.42.53-.283.224-.74.343-.452.12-1.107.09a4 4 0 0 1-.979-.162 2.6 2.6 0 0 1-.789-.383 1.8 1.8 0 0 1-.52-.584 1.4 1.4 0 0 1-.165-.756q.018-.392.191-.715.174-.325.479-.545c.305-.22.445-.256.73-.33q.426-.112.957-.09m2.088-7.983a40 40 0 0 1-1.809-.53 37 37 0 0 1-1.124-.37 5 5 0 0 1-.026.205 1.5 1.5 0 0 1-.104.386q-.04.1-.085.206a38 38 0 0 1 2.188.521q.553.15 1.054.318.498.17.857.414t.521.577q.165.332.038.805-.105.388-.263.658t-.452.407c-.294.137-.451.131-.764.12q-.47-.017-1.189-.21a55 55 0 0 1-1.333-.377 19 19 0 0 1-1.4-.48q-.026.165-.06.332a4 4 0 0 1-.173.648l-.115.316q.202.037.597.136a49 49 0 0 1 1.447.385q.196.058.408.115.215.057.462.128t.562.156q.561.152 1.001.071.44-.08.778-.336.335-.257.56-.666c.225-.41.27-.578.361-.915q.308-1.144-.129-1.897-.435-.753-1.808-1.123m63.322-1.795q-.637.235-1.135.406-.5.17-.985.32.03.058.066.145.038.086.101.259c.063.173.099.267.169.456l.282.759q.195.529.304.832.11.306.178.515a.6.6 0 0 1 .107-.066 2.4 2.4 0 0 1 .382-.142q.073-.018.162-.034a15 15 0 0 1-.75-1.718q.45-.194.949-.379.245-.09.492-.178.246-.087.491-.178.323.866.578 1.765a4 4 0 0 0 .177-.096 1 1 0 0 1 .123-.059q.076-.028.147-.046.075-.018.212-.044a42 42 0 0 1-.707-1.716q.42-.156.837-.306c.417-.15.558-.192.847-.275q.031.083.099.286.066.202.142.456c.076.254.105.345.16.525l.15.499q.08-.047.145-.08a2 2 0 0 1 .19-.079q.198-.075.332-.089-.072-.147-.247-.585-.175-.436-.385-1.002-.129-.345-.238-.689-.11-.344-.23-.69-.488.21-.978.409-.489.196-1.126.432zm-9.803-10.24q.14.127.269.265l.127.137q.067.072.122.155.06-.068.166-.176a23 23 0 0 1 .69-.681q.247-.237.607-.57l.695-.647q.18-.166.357-.325.174-.159.355-.313a106 106 0 0 1-.46 5.303q.108.092.23.223.116.126.216.257l.719-.668q.429-.401.813-.752.383-.35.783-.7a115 115 0 0 1 1.886-1.608 2.3 2.3 0 0 1-.28-.242 2.4 2.4 0 0 1-.221-.297 2.4 2.4 0 0 1-.214.237q-.165.172-.401.397l-.519.493q-.28.267-.575.54l-.58.54-.521.484a347 347 0 0 1 .434-5.247 2 2 0 0 1-.28-.243 2 2 0 0 1-.222-.296q-.21.206-.48.48-.27.272-.682.657-.456.424-.964.868c-.508.444-.655.567-.949.815q-.442.37-.752.626-.309.255-.369.288m-1.644-5.162q.433-.277.892-.55-.128.512-.265 1.003c-.137.491-.187.66-.284 1l-1.214-.876q.44-.299.871-.577m-3.385 1.392q.102.054.182.11.08.06.16.116.078.058.155.112.075.057.146.127.328-.258.684-.515.356-.255.733-.5a29 29 0 0 1 .699.486q.212.153.423.31l.416.316q-.119.43-.25.848-.131.42-.26.82.148.089.291.19c.143.102.19.137.283.205q.136.1.28.203t.292.232q.087-.524.256-1.248c.17-.724.238-.99.373-1.521q.202-.796.424-1.614l.418-1.535-.143-.067a1 1 0 0 1-.133-.082 1 1 0 0 1-.119-.1q-.053-.053-.108-.113-.42.27-.91.582l-1 .629c-.506.319-.674.422-1.01.629q-.498.308-.937.577a42 42 0 0 1-1.345.803m10.64 7.903q-.306.467-.39 1.018-.083.55.065 1.154.148.601.51 1.205.278.462.64.889.361.426.773.808.054-.052.202-.146c.148-.094.208-.129.324-.199l.231-.14.356-.208q.188-.109.357-.2c.169-.091.213-.114.301-.158q.133-.066.197-.085-.056-.062-.14-.177c-.085-.115-.135-.202-.236-.37q-.131-.216-.19-.338a2 2 0 0 1-.087-.201l-.352.25a15 15 0 0 1-1.106.689 2 2 0 0 1-.22.108.5.5 0 0 1-.134-.101 2 2 0 0 1-.158-.176 5 5 0 0 1-.294-.41 2 2 0 0 1-.286-.81 1.8 1.8 0 0 1 .088-.779q.135-.375.42-.705.288-.331.71-.584.552-.333 1.054-.425.503-.093.926-.009.423.085.75.322c.327.237.394.343.523.558q.291.484.3.937.01.452-.17.865l.059.098q.203-.075.41-.127c.207-.052.277-.071.422-.106q-.024-.502-.15-.955c-.126-.453-.231-.632-.445-.987a4.4 4.4 0 0 0-.86-1.047 3 3 0 0 0-1.054-.62 2.7 2.7 0 0 0-1.2-.109q-.634.081-1.3.481-.538.325-.846.79m10.135 18.365a1.7 1.7 0 0 0-.341-.58 1.6 1.6 0 0 0-.553-.398 1.8 1.8 0 0 0-.753-.143q-.467.004-.763.188c-.296.184-.364.273-.497.455q-.203.273-.342.593-.138.32-.287.592c-.15.272-.213.332-.343.453s-.297.183-.505.185q-.343.005-.59-.226c-.248-.23-.25-.394-.253-.72q-.004-.246.063-.442a.8.8 0 0 1 .19-.338 1.08 1.08 0 0 1 .617-.359l-.002-.155a6 6 0 0 1-.517-.092 13 13 0 0 1-.524-.133q-.137.181-.227.53-.09.348-.085.79.004.49.136.885.13.395.376.68.245.282.585.433.342.151.75.147.465-.005.763-.192.295-.187.501-.468.204-.28.345-.6.139-.321.291-.6.151-.28.343-.466a.68.68 0 0 1 .492-.19q.294-.003.518.231c.224.234.225.36.227.612q.008.727-.691.996l.001.122q.27.08.446.13c.176.05.24.075.365.123q.185-.239.29-.571.101-.332.097-.774a2.2 2.2 0 0 0-.123-.698M42.802 5.462q-.417 0-.7.022a7 7 0 0 1-.502.021q-.203 0-.367-.011a8 8 0 0 1-.303-.028q.034.53.049 1.059.017.527.017 1.205l.002 1.111q0 .678-.015 1.205a30 30 0 0 1-.049 1.036q.14-.018.303-.018h.736q.164 0 .303.016-.035-.507-.051-1.033a32 32 0 0 1-.018-1.206v-.336h.073l1.469 2.573q.187-.016.37-.016h.372l.369-.002q.18 0 .367.018-.452-.678-.9-1.37-.452-.69-.844-1.384.612-.155.94-.531.327-.377.326-.975 0-.368-.145-.633a1.3 1.3 0 0 0-.387-.445 1.3 1.3 0 0 0-.504-.21 3 3 0 0 0-.38-.05 7 7 0 0 0-.532-.017m-.573.467q.336 0 .576.033a.84.84 0 0 1 .393.143.65.65 0 0 1 .226.322q.075.214.075.573 0 .588-.285.879-.287.29-.827.29a1 1 0 0 1-.18-.015q0-1.112.022-2.225m36.35 29.432q.06.328.072.573a.84.84 0 0 1-.07.411.64.64 0 0 1-.277.279q-.195.111-.55.176-.577.107-.916-.122-.337-.229-.434-.76l-.012-.084q-.004-.044-.005-.095 1.094-.201 2.191-.378m-3.339 2.741q.599-.566 1.21-1.078.263.575.693.828c.43.253.625.218 1.016.145a1.3 1.3 0 0 0 .598-.255q.235-.189.367-.462.052-.118.084-.244.03-.127.034-.289a3 3 0 0 0-.02-.383 8 8 0 0 0-.08-.525 10 10 0 0 0-.147-.684 6 6 0 0 1-.166-.855 6 6 0 0 1-.026-.303 35 35 0 0 1-2.215.475l-1.094.202q-.667.12-1.19.202-.522.08-1.025.139.04.133.071.294l.066.362.067.361q.03.162.038.3c.33-.08.664-.16 1.01-.235q.514-.11 1.182-.233l.33-.062.012.073-2.266 1.905q.05.181.083.364l.067.365.066.362q.034.177.052.364.585-.564 1.183-1.133M58.01 9.303q.301.146.505.278a.9.9 0 0 1 .293.299q.087.165.062.389a1.9 1.9 0 0 1-.18.547q-.255.532-.64.669-.383.138-.87-.095l-.075-.041-.08-.052q.481-1.002.985-1.995m-2.788 4.357.33.16q.15.07.267.145a33 33 0 0 1 .91-2.048l.145-.302.066.032.205 2.954q.177.068.343.146.165.081.335.161c.17.08.224.108.332.16q.163.078.324.173-.112-.807-.219-1.623a26 26 0 0 1-.158-1.613q.619.124 1.077-.073t.715-.736q.16-.33.145-.633a1.3 1.3 0 0 0-.157-.57q-.064-.112-.148-.21a1 1 0 0 0-.214-.198q-.13-.099-.32-.21c-.19-.11-.286-.154-.473-.244q-.375-.18-.64-.284a5 5 0 0 1-.46-.199 5 5 0 0 1-.327-.17 8 8 0 0 1-.26-.157q-.202.493-.413.976a43 43 0 0 1-.508 1.094l-.481 1.002q-.293.612-.536 1.08-.244.47-.492.912.134.044.28.116zm-7.877-2.255.362.068q.161.03.293.073.023-.38.134-1.006.11-.629.275-1.504l.016.002q.29.705.565 1.41t.57 1.393q.178.016.352.05l.348.066.362.069q.183.034.415.095a9 9 0 0 1-.317-.655q-.194-.432-.416-.944-.223-.512-.447-1.046-.224-.532-.407-.975.198-.164.55-.441a56 56 0 0 1 1.96-1.48l-.257-.02a2.3 2.3 0 0 1-.454-.086 5 5 0 0 1-.219-.07q-.134.132-.423.39a75 75 0 0 1-1.392 1.192q-.385.323-.718.591l.145-.771q.111-.585.215-1.065.101-.48.188-.714-.139-.009-.302-.027c-.163-.018-.23-.031-.364-.056a5 5 0 0 1-.359-.082 7 7 0 0 1-.29-.083 35 35 0 0 1-.358 2.236l-.208 1.092a33 33 0 0 1-.481 2.189q.14.01.301.04z"></path></g><!-- source: https://football-logos.cc --></svg>