<svg xmlns="http://www.w3.org/2000/svg" width="292.119" height="342.327" viewBox="0 0 278.16 326.02"><!-- Source: https://football-logos.cc --><path fill="#fff" fill-rule="evenodd" d="m273.37 222.77-.1-.1-13.44-11.76-2.86-2.61c-2.71-2.72-6.89-6.04-14.07-5.8-1.19-.02-2.37.1-3.53.32 1.23-5.7 2.15-11.73 2.71-18.08.39-4.4.59-8.76.61-12.97v-1.67l-.09-3.44v.29L242.61.01H35.39v166.94l-.08 3.15v1.67c.03 4.21.23 8.57.62 12.97.56 6.34 1.48 12.36 2.7 18.05-1.12-.2-2.24-.31-3.37-.29-7.18-.23-11.36 3.09-14.07 5.8l-2.86 2.61-13.44 11.76-.1.1C.15 227.4-.3 231.91.13 234.88c1.23 8.44 11.96 14.69 13.04 15.27l6.29-4.94c4.44-1.73 7.02.71 7.02.71.44.26 1.94 1.48 2.87 6.41l.54 2.85c-3.49 3.02-5.98 5.17-5.98 5.17l2.12 3.09c6.19 9.02 8.57 11.81 12.6 16.34 26.87 30.25 61.47 46.24 100.06 46.24h.62c38.59 0 73.19-15.99 100.06-46.24 4.02-4.52 6.41-7.31 12.6-16.34l2.12-3.09s-2.41-2.09-5.83-5.05l.56-2.97c.93-4.93 2.43-6.15 2.86-6.41 0 0 2.57-2.43 7.02-.71l6.3 4.94c1.08-.58 11.81-6.82 13.04-15.27.43-2.97-.03-7.48-4.67-12.11M139 276.22h-.31c-58.59 0-81.71-59.02-81.71-59.02-9.73-22.88-8.27-50.11-8.27-50.11V13.32H229.3v153.77s1.46 27.23-8.26 50.11c0 0-23.45 59.02-82.03 59.02z" data-source="https://football-logos.cc"></path><path fill="#fff" fill-rule="evenodd" d="M221.03 217.2s-23.45 59.02-82.03 59.02h-.31c-58.59 0-81.71-59.02-81.71-59.02-9.73-22.88-8.27-50.11-8.27-50.11V13.32H229.3v153.77s1.46 27.23-8.26 50.11z"></path><path fill="#212c55" fill-rule="evenodd" d="M257.21 213.24s6.81 14.56-13.82 16.09l21.26 16.65s17.05-9.96 6.32-20.66l-13.76-12.09zm-236.42.16s-6.81 14.56 13.82 16.09l-21.26 16.65s-17.04-9.96-6.32-20.66l13.75-12.09z"></path><path fill="#212c55" fill-rule="evenodd" d="M114.79 289.16c-.16-.04-.48-.1-.97-.16-.23.77-.35 1.22-.38 1.36-.1.36-.25.93-.44 1.7l-1.19 4.55c2.8.73 4.22-.11 5-3.08.62-2.38-.07-3.86-2.02-4.37m0 0c-.16-.04-.48-.1-.97-.16-.23.77-.35 1.22-.38 1.36-.1.36-.25.93-.44 1.7l-1.19 4.55c2.8.73 4.22-.11 5-3.08.62-2.38-.07-3.86-2.02-4.37m0 0c-.16-.04-.48-.1-.97-.16-.23.77-.35 1.22-.38 1.36-.1.36-.25.93-.44 1.7l-1.19 4.55c2.8.73 4.22-.11 5-3.08.62-2.38-.07-3.86-2.02-4.37m20.56 2.35c-3.37 0-5.55 3.25-5.54 8.95 0 5.73 2.19 8.87 5.56 8.86 3.27 0 5.51-3.18 5.5-8.88 0-5.76-2.2-8.93-5.53-8.93zm0 0c-3.37 0-5.55 3.25-5.54 8.95 0 5.73 2.19 8.87 5.56 8.86 3.27 0 5.51-3.18 5.5-8.88 0-5.76-2.2-8.93-5.53-8.93zm-20.56-2.35c-.16-.04-.48-.1-.97-.16-.23.77-.35 1.22-.38 1.36-.1.36-.25.93-.44 1.7l-1.19 4.55c2.8.73 4.22-.11 5-3.08.62-2.38-.07-3.86-2.02-4.37m0 0c-.16-.04-.48-.1-.97-.16-.23.77-.35 1.22-.38 1.36-.1.36-.25.93-.44 1.7l-1.19 4.55c2.8.73 4.22-.11 5-3.08.62-2.38-.07-3.86-2.02-4.37m20.56 2.35c-3.37 0-5.55 3.25-5.54 8.95 0 5.73 2.19 8.87 5.56 8.86 3.27 0 5.51-3.18 5.5-8.88 0-5.76-2.2-8.93-5.53-8.93zm0 0c-3.37 0-5.55 3.25-5.54 8.95 0 5.73 2.19 8.87 5.56 8.86 3.27 0 5.51-3.18 5.5-8.88 0-5.76-2.2-8.93-5.53-8.93zm-20.56-2.35c-.16-.04-.48-.1-.97-.16-.23.77-.35 1.22-.38 1.36-.1.36-.25.93-.44 1.7l-1.19 4.55c2.8.73 4.22-.11 5-3.08.62-2.38-.07-3.86-2.02-4.37m0 0c-.16-.04-.48-.1-.97-.16-.23.77-.35 1.22-.38 1.36-.1.36-.25.93-.44 1.7l-1.19 4.55c2.8.73 4.22-.11 5-3.08.62-2.38-.07-3.86-2.02-4.37m20.56 2.35c-3.37 0-5.55 3.25-5.54 8.95 0 5.73 2.19 8.87 5.56 8.86 3.27 0 5.51-3.18 5.5-8.88 0-5.76-2.2-8.93-5.53-8.93zM206 269.82c-1.59-2.03-3.14-2.15-5.12-.61-.06.05-.25.16-.55.4.82 1.19 1.54 2.11 2.07 2.78l2.61 3.35s.06-.05.09-.07c2.34-1.82 2.65-3.59.9-5.85m0 0c-1.59-2.03-3.14-2.15-5.12-.61-.06.05-.25.16-.55.4.82 1.19 1.54 2.11 2.07 2.78l2.61 3.35s.06-.05.09-.07c2.34-1.82 2.65-3.59.9-5.85m-70.65 21.69c-3.37 0-5.55 3.25-5.54 8.95 0 5.73 2.19 8.87 5.56 8.86 3.27 0 5.51-3.18 5.5-8.88 0-5.76-2.2-8.93-5.53-8.93zm-20.56-2.35c-.16-.04-.48-.1-.97-.16-.23.77-.35 1.22-.38 1.36-.1.36-.25.93-.44 1.7l-1.19 4.55c2.8.73 4.22-.11 5-3.08.62-2.38-.07-3.86-2.02-4.37m0 0c-.16-.04-.48-.1-.97-.16-.23.77-.35 1.22-.38 1.36-.1.36-.25.93-.44 1.7l-1.19 4.55c2.8.73 4.22-.11 5-3.08.62-2.38-.07-3.86-2.02-4.37m20.56 2.35c-3.37 0-5.55 3.25-5.54 8.95 0 5.73 2.19 8.87 5.56 8.86 3.27 0 5.51-3.18 5.5-8.88 0-5.76-2.2-8.93-5.53-8.93zM206 269.82c-1.59-2.03-3.14-2.15-5.12-.61-.06.05-.25.16-.55.4.82 1.19 1.54 2.11 2.07 2.78l2.61 3.35s.06-.05.09-.07c2.34-1.82 2.65-3.59.9-5.85m0 0c-1.59-2.03-3.14-2.15-5.12-.61-.06.05-.25.16-.55.4.82 1.19 1.54 2.11 2.07 2.78l2.61 3.35s.06-.05.09-.07c2.34-1.82 2.65-3.59.9-5.85m-70.65 21.69c-3.37 0-5.55 3.25-5.54 8.95 0 5.73 2.19 8.87 5.56 8.86 3.27 0 5.51-3.18 5.5-8.88 0-5.76-2.2-8.93-5.53-8.93zm-20.56-2.35c-.16-.04-.48-.1-.97-.16-.23.77-.35 1.22-.38 1.36-.1.36-.25.93-.44 1.7l-1.19 4.55c2.8.73 4.22-.11 5-3.08.62-2.38-.07-3.86-2.02-4.37m0 0c-.16-.04-.48-.1-.97-.16-.23.77-.35 1.22-.38 1.36-.1.36-.25.93-.44 1.7l-1.19 4.55c2.8.73 4.22-.11 5-3.08.62-2.38-.07-3.86-2.02-4.37m20.56 2.35c-3.37 0-5.55 3.25-5.54 8.95 0 5.73 2.19 8.87 5.56 8.86 3.27 0 5.51-3.18 5.5-8.88 0-5.76-2.2-8.93-5.53-8.93zM206 269.82c-1.59-2.03-3.14-2.15-5.12-.61-.06.05-.25.16-.55.4.82 1.19 1.54 2.11 2.07 2.78l2.61 3.35s.06-.05.09-.07c2.34-1.82 2.65-3.59.9-5.85m0 0c-1.59-2.03-3.14-2.15-5.12-.61-.06.05-.25.16-.55.4.82 1.19 1.54 2.11 2.07 2.78l2.61 3.35s.06-.05.09-.07c2.34-1.82 2.65-3.59.9-5.85m-70.65 21.69c-3.37 0-5.55 3.25-5.54 8.95 0 5.73 2.19 8.87 5.56 8.86 3.27 0 5.51-3.18 5.5-8.88 0-5.76-2.2-8.93-5.53-8.93zm-20.56-2.35c-.16-.04-.48-.1-.97-.16-.23.77-.35 1.22-.38 1.36-.1.36-.25.93-.44 1.7l-1.19 4.55c2.8.73 4.22-.11 5-3.08.62-2.38-.07-3.86-2.02-4.37m0 0c-.16-.04-.48-.1-.97-.16-.23.77-.35 1.22-.38 1.36-.1.36-.25.93-.44 1.7l-1.19 4.55c2.8.73 4.22-.11 5-3.08.62-2.38-.07-3.86-2.02-4.37m20.56 2.35c-3.37 0-5.55 3.25-5.54 8.95 0 5.73 2.19 8.87 5.56 8.86 3.27 0 5.51-3.18 5.5-8.88 0-5.76-2.2-8.93-5.53-8.93zM206 269.82c-1.59-2.03-3.14-2.15-5.12-.61-.06.05-.25.16-.55.4.82 1.19 1.54 2.11 2.07 2.78l2.61 3.35s.06-.05.09-.07c2.34-1.82 2.65-3.59.9-5.85m0 0c-1.59-2.03-3.14-2.15-5.12-.61-.06.05-.25.16-.55.4.82 1.19 1.54 2.11 2.07 2.78l2.61 3.35s.06-.05.09-.07c2.34-1.82 2.65-3.59.9-5.85m-70.65 21.69c-3.37 0-5.55 3.25-5.54 8.95 0 5.73 2.19 8.87 5.56 8.86 3.27 0 5.51-3.18 5.5-8.88 0-5.76-2.2-8.93-5.53-8.93zm-20.56-2.35c-.16-.04-.48-.1-.97-.16-.23.77-.35 1.22-.38 1.36-.1.36-.25.93-.44 1.7l-1.19 4.55c2.8.73 4.22-.11 5-3.08.62-2.38-.07-3.86-2.02-4.37m105.92-52.14c5.4-8.44 8.17-14.95 8.7-16.24 4.41-10.37 7.26-22.62 8.48-36.41.37-4.25.57-8.5.59-12.61v-1.66c0-1.19-.02-2.23-.08-3.15V4.2H39.59v162.74c-.07.92-.08 1.96-.08 3.15v1.66c.02 4.12.23 8.37.6 12.61 1.21 13.72 4.04 25.91 8.4 36.25.35.87 3.11 7.62 8.72 16.45l-27.73 24c6.15 9.01 8.46 11.65 12.27 15.93 26.04 29.32 59.56 44.83 96.91 44.83h.62c37.36 0 70.87-15.5 96.91-44.83 3.81-4.28 6.11-6.92 12.27-15.93l-27.78-24.04zM56.97 217.21c-9.73-22.88-8.27-50.11-8.27-50.11V13.32h180.59v153.77s1.46 27.23-8.26 50.11c0 0-23.45 59.02-82.03 59.02h-.31c-58.59 0-81.71-59.02-81.71-59.02zm-6.6 53.04c-.78-.92-1.34-1.59-1.7-1.96-.47-.49-1.11-1.05-1.92-1.75 2.95-2.44 5.49-4.81 7.77-7.04 1.21-1.18 3.07-3.1 5.57-5.64-1.16-1.2-2.41-2.3-3.7-3.28.45-.36.89-.71 1.21-1.03.21-.19.47-.53.9-1.02 1.98 2.21 3.63 4.04 4.94 5.38 1.26 1.29 3.01 2.96 5.22 5.06-.5.41-.83.69-1.02.88-.33.33-.71.73-1.09 1.18-.95-1.33-2-2.59-3.17-3.78-1.3 1.12-2.36 2.15-3.17 2.95l-.91.88c-3.21 3.13-6.25 6.08-8.95 9.17zm26.84 11.86c-1.58 1.92-3.51 4.31-5.67 7.36-.74-.73-1.33-1.3-1.84-1.72-.52-.43-1.21-.92-2.09-1.52 1.08-1.1 2.1-2.22 3.07-3.4l3.48-4.23a89 89 0 0 0-2.95-2.54c-.57-.47-1.52-1.21-2.84-2.22l-3.48 4.23c-.97 1.19-1.89 2.38-2.76 3.66-.76-.75-1.37-1.34-1.9-1.77-.5-.41-1.2-.9-2.03-1.47 2.57-2.7 4.54-5.06 6.13-6.98.27-.33.52-.64.76-.93 1.93-2.35 4.12-5.07 6.44-8.3.79.81 1.38 1.42 1.8 1.76.55.45 1.26.92 2.14 1.48a56 56 0 0 0-3.27 3.68l-2.13 2.59c1.33 1.17 2.21 1.98 2.7 2.38.86.71 1.91 1.49 3.09 2.38l2.13-2.59c1.03-1.26 2-2.57 2.95-3.94.83.84 1.45 1.47 1.87 1.81.44.37 1.13.82 2.07 1.43-2.69 2.84-4.94 5.53-6.91 7.92-.24.28-.49.59-.76.93m20.84.26c-.16.29-.31.7-.54 1.24-1.25-.85-2.47-1.58-3.69-2.24-.53-.29-1.05-.57-1.57-.81-.78 1.32-1.52 2.64-2.22 3.93l-.77 1.44c1.34.66 3.14 1.52 5.37 2.59-.37.53-.63.95-.78 1.22-.13.24-.3.67-.57 1.29-1.73-1.1-3.44-2.13-5.12-3.08l-1.6 2.95c-.73 1.35-1.35 2.56-1.82 3.66 1.65.89 3.4 1.73 5.36 2.52-.32.49-.57.87-.76 1.23-.13.24-.31.7-.59 1.32-2.71-1.57-4.7-2.71-5.94-3.39-.94-.5-2.18-1.14-3.72-1.83 1.68-2.41 3.02-4.83 4.29-7.18.33-.62.67-1.24 1.01-1.86.2-.38.41-.76.61-1.14 1.46-2.7 2.89-5.39 4.08-8.27 2.23 1.31 3.76 2.21 4.6 2.66 1.29.7 3.03 1.57 5.12 2.6-.33.49-.59.87-.76 1.17zm23.23 12.08c-1.12 4.32-4.13 5.82-9.01 4.55-.32-.07-.64-.16-.97-.28l-1.05 4.05c-.13.47-.44 1.98-.87 4.51-.97-.35-1.77-.62-2.46-.8-.64-.17-1.49-.33-2.55-.51 1.38-3.99 2.25-7.34 2.96-10.05.78-3.01 1.61-6.44 2.32-10.25.8.31 1.47.54 2.02.69 1.53.4 3.19.63 4.89 1.08 4.12 1.07 5.71 3.19 4.71 7.03zm13.85 16.87c-6.59 0-10.24-3.75-10.26-10.59 0-7.14 4.06-11.21 10.72-11.21 6.46-.02 10.23 3.74 10.23 10.43 0 7.21-3.89 11.37-10.7 11.38zm23.24-16.11c.08.45.15.88.21 1.24.77 4.43 1.48 8.6 2.5 12.57-1.2.11-2.07.2-2.58.29-.67.12-1.49.32-2.53.59-.35-3.8-.86-7.24-1.4-10.39-.28-1.66-.82-4.28-1.51-7.78-1.64.28-3.25.68-4.8 1.2-.04-.59-.08-1.14-.16-1.59-.05-.28-.17-.69-.34-1.32 2.95-.38 5.37-.71 7.24-1.03 1.77-.3 4.15-.81 7.13-1.44.06.64.11 1.07.15 1.34.08.45.2 1 .36 1.56-1.63.03-3.25.19-4.89.47.18 1.71.43 3.17.63 4.29zm20.6 8.6c-.64.23-1.42.57-2.39 1-.98-3.69-2.04-7-3.1-10.01-.56-1.59-1.52-4.09-2.77-7.43-1.57.55-3.09 1.21-4.54 1.98-.14-.57-.27-1.11-.42-1.55-.09-.26-.29-.65-.55-1.24 2.84-.87 5.19-1.59 6.95-2.21 1.7-.59 3.96-1.48 6.8-2.6.16.62.28 1.04.37 1.3.15.44.36.95.61 1.48-1.6.3-3.18.73-4.75 1.27.46 1.67.94 3.06 1.32 4.13.16.44.29.85.42 1.19 1.48 4.24 2.88 8.24 4.53 11.98-1.15.32-2 .54-2.49.71zm17.01-8.17c-.94.51-2.14 1.2-3.56 2.13-1.12-2.72-2.42-5.16-3.71-7.51l-1.02-1.86c-.21-.38-.41-.75-.62-1.13-1.47-2.7-2.96-5.35-4.74-7.92 2.31-1.16 3.9-1.96 4.73-2.42 1.29-.71 2.96-1.69 4.97-2.9.23.54.41.97.57 1.27.17.3.42.65.75 1.13a45 45 0 0 0-5.42 2.76c.69 1.38 1.39 2.71 2.1 4l.78 1.43c1.29-.77 2.99-1.8 5.1-3.11.24.61.45 1.05.6 1.32.13.24.4.62.78 1.19-1.87.85-3.66 1.72-5.37 2.62l1.61 2.95c.74 1.34 1.41 2.51 2.08 3.52 1.65-.91 3.31-1.92 5.03-3.15.23.54.43.96.62 1.31.14.24.42.65.79 1.21-2.79 1.43-4.83 2.48-6.07 3.16m22.14-15.83c-.6.47-1.27 1.07-2.03 1.79-1.91-1.16-5.27-2.72-10.11-4.63l2.47 3.17c1.21 1.55 2.45 3.05 3.77 4.47-.86.55-1.54 1.01-2.01 1.38-.5.38-1.1.93-1.84 1.62-2.01-3.11-3.9-5.57-5.51-7.63-.22-.29-.45-.58-.66-.85-1.87-2.4-4.07-5.17-6.75-8.07.64-.42 1.22-.79 1.72-1.18 1.33-1.04 2.63-2.33 4.2-3.54 3.25-2.54 5.8-2.49 8.16.53 1.82 2.33 1.74 4.89-.17 6.69 4.37 2.01 8.09 3.47 11.2 4.56-1.09.73-1.93 1.3-2.44 1.7zm9.65-9.69c-1.22 1.39-2.6 2.4-3.96 2.98-1.15-1.45-2.24-2.76-3.24-3.97l.31-.34c2.29 1.39 4.13 1.26 5.66-.47 1.38-1.59 1.33-3.29-.08-4.53-1.36-1.2-2.7-.71-5.11.22-3.47 1.34-5.68 1.86-8.22-.37-2.96-2.6-3.21-6.23-.23-9.6 1.2-1.37 2.56-2.31 4.19-2.81.71 1.24 1.47 2.38 2.3 3.48l-.22.24c-2.18-.9-3.73-.72-4.98.7-1.28 1.45-1.12 3.08 0 4.08 1.36 1.19 2.73.43 5.5-.62 3.22-1.19 5.31-1.81 7.99.54 3.23 2.84 3.34 6.76.07 10.48zm-26.88-.91c-.06.05-.25.16-.55.4.82 1.19 1.54 2.11 2.07 2.78l2.61 3.35s.06-.05.09-.07c2.34-1.82 2.65-3.59.9-5.85-1.59-2.03-3.14-2.15-5.12-.61m-65.53 22.3c-3.37 0-5.55 3.25-5.54 8.95 0 5.73 2.19 8.87 5.56 8.86 3.27 0 5.51-3.18 5.5-8.88 0-5.76-2.2-8.93-5.53-8.93zm-20.56-2.35c-.16-.04-.48-.1-.97-.16-.23.77-.35 1.22-.38 1.36-.1.36-.25.93-.44 1.7l-1.19 4.55c2.8.73 4.22-.11 5-3.08.62-2.38-.07-3.86-2.02-4.37m0 0c-.16-.04-.48-.1-.97-.16-.23.77-.35 1.22-.38 1.36-.1.36-.25.93-.44 1.7l-1.19 4.55c2.8.73 4.22-.11 5-3.08.62-2.38-.07-3.86-2.02-4.37m20.56 2.35c-3.37 0-5.55 3.25-5.54 8.95 0 5.73 2.19 8.87 5.56 8.86 3.27 0 5.51-3.18 5.5-8.88 0-5.76-2.2-8.93-5.53-8.93zm70.65-21.69c-1.59-2.03-3.14-2.15-5.12-.61-.06.05-.25.16-.55.4.82 1.19 1.54 2.11 2.07 2.78l2.61 3.35s.06-.05.09-.07c2.34-1.82 2.65-3.59.9-5.85m0 0c-1.59-2.03-3.14-2.15-5.12-.61-.06.05-.25.16-.55.4.82 1.19 1.54 2.11 2.07 2.78l2.61 3.35s.06-.05.09-.07c2.34-1.82 2.65-3.59.9-5.85m-70.65 21.69c-3.37 0-5.55 3.25-5.54 8.95 0 5.73 2.19 8.87 5.56 8.86 3.27 0 5.51-3.18 5.5-8.88 0-5.76-2.2-8.93-5.53-8.93zm-20.56-2.35c-.16-.04-.48-.1-.97-.16-.23.77-.35 1.22-.38 1.36-.1.36-.25.93-.44 1.7l-1.19 4.55c2.8.73 4.22-.11 5-3.08.62-2.38-.07-3.86-2.02-4.37m0 0c-.16-.04-.48-.1-.97-.16-.23.77-.35 1.22-.38 1.36-.1.36-.25.93-.44 1.7l-1.19 4.55c2.8.73 4.22-.11 5-3.08.62-2.38-.07-3.86-2.02-4.37m20.56 2.35c-3.37 0-5.55 3.25-5.54 8.95 0 5.73 2.19 8.87 5.56 8.86 3.27 0 5.51-3.18 5.5-8.88 0-5.76-2.2-8.93-5.53-8.93zm70.65-21.69c-1.59-2.03-3.14-2.15-5.12-.61-.06.05-.25.16-.55.4.82 1.19 1.54 2.11 2.07 2.78l2.61 3.35s.06-.05.09-.07c2.34-1.82 2.65-3.59.9-5.85m0 0c-1.59-2.03-3.14-2.15-5.12-.61-.06.05-.25.16-.55.4.82 1.19 1.54 2.11 2.07 2.78l2.61 3.35s.06-.05.09-.07c2.34-1.82 2.65-3.59.9-5.85m-70.65 21.69c-3.37 0-5.55 3.25-5.54 8.95 0 5.73 2.19 8.87 5.56 8.86 3.27 0 5.51-3.18 5.5-8.88 0-5.76-2.2-8.93-5.53-8.93zm-20.56-2.35c-.16-.04-.48-.1-.97-.16-.23.77-.35 1.22-.38 1.36-.1.36-.25.93-.44 1.7l-1.19 4.55c2.8.73 4.22-.11 5-3.08.62-2.38-.07-3.86-2.02-4.37m0 0c-.16-.04-.48-.1-.97-.16-.23.77-.35 1.22-.38 1.36-.1.36-.25.93-.44 1.7l-1.19 4.55c2.8.73 4.22-.11 5-3.08.62-2.38-.07-3.86-2.02-4.37m20.56 2.35c-3.37 0-5.55 3.25-5.54 8.95 0 5.73 2.19 8.87 5.56 8.86 3.27 0 5.51-3.18 5.5-8.88 0-5.76-2.2-8.93-5.53-8.93zm70.65-21.69c-1.59-2.03-3.14-2.15-5.12-.61-.06.05-.25.16-.55.4.82 1.19 1.54 2.11 2.07 2.78l2.61 3.35s.06-.05.09-.07c2.34-1.82 2.65-3.59.9-5.85m0 0c-1.59-2.03-3.14-2.15-5.12-.61-.06.05-.25.16-.55.4.82 1.19 1.54 2.11 2.07 2.78l2.61 3.35s.06-.05.09-.07c2.34-1.82 2.65-3.59.9-5.85m-70.65 21.69c-3.37 0-5.55 3.25-5.54 8.95 0 5.73 2.19 8.87 5.56 8.86 3.27 0 5.51-3.18 5.5-8.88 0-5.76-2.2-8.93-5.53-8.93zm-20.56-2.35c-.16-.04-.48-.1-.97-.16-.23.77-.35 1.22-.38 1.36-.1.36-.25.93-.44 1.7l-1.19 4.55c2.8.73 4.22-.11 5-3.08.62-2.38-.07-3.86-2.02-4.37m0 0c-.16-.04-.48-.1-.97-.16-.23.77-.35 1.22-.38 1.36-.1.36-.25.93-.44 1.7l-1.19 4.55c2.8.73 4.22-.11 5-3.08.62-2.38-.07-3.86-2.02-4.37m20.56 2.35c-3.37 0-5.55 3.25-5.54 8.95 0 5.73 2.19 8.87 5.56 8.86 3.27 0 5.51-3.18 5.5-8.88 0-5.76-2.2-8.93-5.53-8.93zm70.65-21.69c-1.59-2.03-3.14-2.15-5.12-.61-.06.05-.25.16-.55.4.82 1.19 1.54 2.11 2.07 2.78l2.61 3.35s.06-.05.09-.07c2.34-1.82 2.65-3.59.9-5.85m0 0c-1.59-2.03-3.14-2.15-5.12-.61-.06.05-.25.16-.55.4.82 1.19 1.54 2.11 2.07 2.78l2.61 3.35s.06-.05.09-.07c2.34-1.82 2.65-3.59.9-5.85m-70.65 21.69c-3.37 0-5.55 3.25-5.54 8.95 0 5.73 2.19 8.87 5.56 8.86 3.27 0 5.51-3.18 5.5-8.88 0-5.76-2.2-8.93-5.53-8.93zm-20.56-2.35c-.16-.04-.48-.1-.97-.16-.23.77-.35 1.22-.38 1.36-.1.36-.25.93-.44 1.7l-1.19 4.55c2.8.73 4.22-.11 5-3.08.62-2.38-.07-3.86-2.02-4.37m0 0c-.16-.04-.48-.1-.97-.16-.23.77-.35 1.22-.38 1.36-.1.36-.25.93-.44 1.7l-1.19 4.55c2.8.73 4.22-.11 5-3.08.62-2.38-.07-3.86-2.02-4.37m20.56 2.35c-3.37 0-5.55 3.25-5.54 8.95 0 5.73 2.19 8.87 5.56 8.86 3.27 0 5.51-3.18 5.5-8.88 0-5.76-2.2-8.93-5.53-8.93zm0 0c-3.37 0-5.55 3.25-5.54 8.95 0 5.73 2.19 8.87 5.56 8.86 3.27 0 5.51-3.18 5.5-8.88 0-5.76-2.2-8.93-5.53-8.93zm-20.56-2.35c-.16-.04-.48-.1-.97-.16-.23.77-.35 1.22-.38 1.36-.1.36-.25.93-.44 1.7l-1.19 4.55c2.8.73 4.22-.11 5-3.08.62-2.38-.07-3.86-2.02-4.37m0 0c-.16-.04-.48-.1-.97-.16-.23.77-.35 1.22-.38 1.36-.1.36-.25.93-.44 1.7l-1.19 4.55c2.8.73 4.22-.11 5-3.08.62-2.38-.07-3.86-2.02-4.37m20.56 2.35c-3.37 0-5.55 3.25-5.54 8.95 0 5.73 2.19 8.87 5.56 8.86 3.27 0 5.51-3.18 5.5-8.88 0-5.76-2.2-8.93-5.53-8.93zm0 0c-3.37 0-5.55 3.25-5.54 8.95 0 5.73 2.19 8.87 5.56 8.86 3.27 0 5.51-3.18 5.5-8.88 0-5.76-2.2-8.93-5.53-8.93zm-20.56-2.35c-.16-.04-.48-.1-.97-.16-.23.77-.35 1.22-.38 1.36-.1.36-.25.93-.44 1.7l-1.19 4.55c2.8.73 4.22-.11 5-3.08.62-2.38-.07-3.86-2.02-4.37" data-source="https://football-logos.cc"></path><path fill="#212c55" d="M134.99 253.71c-.66-1.35-1.83-3.05-3.7-3.57v-.08c2.61-.87 4.04-3.02 4.04-6.06 0-4.36-2.64-6.76-7.45-6.76s-7.96 2.59-7.96 6.76c0 3.04 1.48 5.23 4.08 6.02v.12c-3.28.91-5.02 3.58-5.02 7.71 0 4.76 2.58 7.29 8.63 8.46.8.16 1.56.23 2.28.23 1.71 0 3.13-.45 4.19-1.32 1.45-1.19 2.21-3.19 2.21-5.76 0-1.96-.48-4.06-1.31-5.77zm-7.34-14.04c1.86 0 2.61 1.37 2.61 4.72 0 3.14-.86 4.67-2.61 4.67s-2.65-1.53-2.65-4.67.89-4.72 2.65-4.72m0 24.01c-1.97 0-2.82-1.82-2.82-6.07s.92-6.11 2.82-6.11 2.83 2 2.83 6.11c0 2.77-.49 6.07-2.83 6.07m21.66-14.9c-1.93 0-3.62.73-4.61 1.97.03-4.9.83-10.62 4.47-10.62 1.42 0 2.52.76 3.57 2.46l.05.09.37-.16v-.07c.07-1.18.22-2.44.48-4.1v-.09l-.07-.04c-1.41-.65-4.34-1.01-5.84-1.01-6.16 0-9.28 6.24-9.28 18.54 0 4.8 1.06 8.14 3.14 9.93 1.13.96 2.54 1.45 4.22 1.45.5 0 1.02-.04 1.56-.13 5.7-.9 8.47-4.18 8.47-10.04 0-5.04-2.5-8.17-6.51-8.17zm-1.97 15.73c-1.71 0-2.58-2.22-2.58-6.6 0-3.91.82-5.82 2.51-5.82.92 0 1.54.45 1.94 1.42.4.96.6 2.45.6 4.57 0 4.26-.84 6.42-2.48 6.42zm24.25-5.77c-2.54 3.69-7.52 5.73-14.81 6.06h-.23l.15-.16c.01-.02 1.35-1.55 1.82-5.26v-.06l.72-.25.04.07c.9 1.69 3.24 1.86 3.27 1.86 1.07-.04 1.97-.46 2.67-1.24 1.99-2.23 1.68-6.75 1.68-6.79-.51-3.79-3.22-3.54-5.63-3.31l-.39.03c-.42.03-.99.09-1.35.15l-.12.02.1-3.19h.13c.24 0 .51.02.78 0 3.04-.28 4.46-1.32 4.89-3.6.19-.97.13-2.3-.57-3.12-.46-.55-1.16-.81-2.06-.79-2.37.06-3.13 1.43-3.81 2.63-.17.31-.34.6-.52.85l-.05.07-.48-.26-.34-3.61.03-.03c1.59-1.9 5.49-2.19 5.66-2.19 1.99-.18 3.87.26 5.29 1.24 1.4.97 2.26 2.39 2.41 4.01.22 2.33-.55 3.36-3.55 4.78v.07c3.18-.16 4.69.77 5.56 3.4.7 2.11.79 5.63-1.27 8.62zm-55.14 4.64-.17-.06c-2.79-1.05-7.04-3.32-7.08-3.35l-.06-.03v-.07c.25-2.3.75-7.08.75-15.2 0-.59-.03-1.06-.07-1.67-.02-.28-.04-.6-.06-.97-.47.19-.69.24-.85.28-.24.05-.37.08-1.15.54l-.08.05-1.61-2.47.13-.04a71 71 0 0 1 2.56-.8c2.03-.61 3.49-1.06 6.05-2.43l.05-.03.8.44v.06c-.08 5.64-.06 9.36-.05 11.81v1.84c0 3.27.46 8.61.66 10.75.06.61.16 1.18.16 1.18l.03.18z"></path><g fill="#d1152f" data-source="https://football-logos.cc"><path fill-rule="evenodd" d="M252.95 222.7c3.77-3.96.15-10.64.15-10.64s-3.27-6.13-9.86-5.83c-1.61-.04-3.25.25-4.87.79-1.36 5.36-3.01 10.42-4.99 15.11h.01c-.28.7-2.59 6.34-7.23 14.06.55.48 1.41 1.22 2.48 2.15l15.98 13.79c1.98-13.54 9.57-10.23 9.57-10.23l-17.92-14.28c13.64-.52 16.68-4.93 16.68-4.93zm-227.9.16c-3.77-3.96-.15-10.64-.15-10.64s3.27-6.13 9.86-5.83c1.61-.04 3.25.25 4.87.79 1.36 5.36 3.01 10.42 4.99 15.11h-.01c.27.7 2.59 6.35 7.23 14.06-.55.48-1.41 1.22-2.48 2.15l-15.97 13.8c-1.98-13.54-9.57-10.23-9.57-10.23l17.92-14.28c-13.64-.52-16.68-4.93-16.68-4.93z"></path><path d="M122.25 100.73h33.33v130.3h-33.33z"></path><path fill-rule="evenodd" d="M104.03 29.52v21.96c0 3.47.46 6.54 1.85 9.49H93.02c1.39-2.94 1.85-6.02 1.85-9.49V29.52c-4.52.24-8.69 1.3-12.75 3.13l2.61-8.14h32.33l-3.48 7.22c-2.78-1.4-5.85-2.12-9.56-2.21zm75.71 31.45c.06-.44.12-.87.12-1.25 0-1.45-.64-2.61-1.8-4l-11.71-14.06v9.82c0 3.47.47 6.55 1.86 9.49h-12.86c1.39-2.94 1.85-6.02 1.85-9.49V34c0-3.47-.46-6.55-1.85-9.49h12.86c-1.39 2.94-1.86 6.02-1.86 9.49v7.03l11.13-12.62c1.1-1.26 1.68-2.36 1.68-3.47 0-.14-.06-.29-.06-.43h14.37c-3.41 2.12-6.08 4.04-7.82 5.92l-9.56 10.35 12.97 15.32c1.22 1.44 2.9 3.03 5.04 4.86h-14.37zm43.86-7.28-3.48 7.27h-24.34c1.39-2.94 1.85-6.02 1.85-9.49V33.99c0-3.47-.46-6.55-1.85-9.49h24.86l-4.11 7.13c-2.61-1.01-5.79-1.54-9.74-1.64v10.06h12.58l-4.7 6.6c-1.79-1.11-4.17-1.59-7.07-1.59h-.81v10.45c1.22.05 2.44.1 3.6.1 5.21 0 9.56-.58 13.21-1.93zM119.85 86.61l-.82 5.54c-2.64.99-5.44 1.5-8.45 1.5-3.35 0-6.22-.77-8.6-2.34-3.46-2.27-5.18-5.34-5.18-9.18 0-4.03 1.9-7.56 5.33-9.99 3.01-2.12 6.66-3.24 10.72-3.24 2.01 0 4.21.32 6.51.96v6.05c-2.42-2.08-4.95-3.14-7.67-3.14-4.99 0-8.53 3.3-8.53 8.49s3.68 8.61 9.2 8.61c3.09 0 5.4-1.03 7.48-3.27zm10.51.45c0 2.3.3 4.35 1.19 6.31h-8.27c.89-1.96 1.19-4 1.19-6.31V75.44c0-2.31-.3-4.35-1.19-6.31h8.27c-.89 1.96-1.19 4-1.19 6.31zm17.43-14.6v14.6c0 2.3.3 4.35 1.19 6.31h-8.27c.9-1.96 1.19-4 1.19-6.31v-14.6c-2.9.16-5.59.87-8.2 2.08l1.68-5.41h20.78l-2.24 4.8c-1.79-.93-3.76-1.41-6.15-1.48zm34.19-3.33a21 21 0 0 0-3.61 4.13l-5.21 7.79v6.02c0 2.3.3 4.35 1.19 6.31h-8.27c.89-1.96 1.19-4 1.19-6.31v-5.03l-6.22-8.87c-1-1.41-2.12-2.75-3.35-4.03h8.23c-.04.19-.04.39-.04.55 0 .61.15 1.15.41 1.54l4.21 6.24 3.51-5.79c.33-.58.52-1.19.52-1.8 0-.26-.04-.48-.07-.74h7.52zm-48.06-44.88c-10.49 0-18.99 8.3-18.99 18.54 0 12.38 8.5 18.54 18.99 18.54s18.99-6.5 18.99-18.54c0-10.24-8.5-18.54-18.99-18.54m-.03 32.35c-5.89 0-8.62-6.82-8.62-13.99s2.73-13.99 8.62-13.99 8.62 6.82 8.62 13.99-2.73 13.99-8.62 13.99m-43.27 192a91 91 0 0 1-7.56-7.52c-12.03-13.38-17.55-27.1-17.6-27.23l-.05-.12-.04-.1c-6.86-16.14-7.62-35.15-7.62-42.72 0-2.08.06-3.29.06-3.35V68.65h32.72l.08 179.95zm129.63-77.68c0 7.57-.75 26.58-7.62 42.72l-.04.1-.05.12c-.05.13-5.58 13.85-17.6 27.23a92 92 0 0 1-7.56 7.52l.09-179.95h32.71v98.91c.02.06.07 1.27.07 3.35M82.49 49.59c-.26 7.32-6.54 11.94-16.88 11.59-2.54-.09-5.59-.51-7.98-1.3l-.11-10.25c2.66 3.51 6.24 5.93 9.75 6.05h.28c3.28 0 5.38-2 5.47-4.32-.13-3.26-4.07-4.42-8.72-7.04-5.17-2.87-7.85-5.57-7.71-9.75.24-6.5 6.36-10.63 16.26-10.29 2.43.08 4.73.45 7.03 1.15l.13 9.11c-2.55-3.12-6.02-5.35-9.37-5.47-3.3-.11-5.22 1.74-5.3 3.86-.07 1.97 2.08 3.35 4.92 4.99 3.57 2.05 6.63 3.51 7.9 4.41 2.94 2.08 4.31 4.37 4.32 7.26z"></path></g><!-- source: https://football-logos.cc --></svg>