<svg xmlns="http://www.w3.org/2000/svg" width="300" height="250"><!-- Source: https://football-logos.cc --><defs data-source="https://football-logos.cc"><clipPath id="a"><path d="M370.69 126.07h78.363V47.711H370.69z"></path></clipPath><clipPath id="b"><path d="M370.69 126.07h78.359V47.707H370.69z"></path></clipPath></defs><g clip-path="url(#a)" transform="translate(-1428.847 -209.87)scale(3.85195)" data-source="https://football-logos.cc"><g clip-path="url(#b)"><path fill="#FFF" fill-rule="evenodd" d="M438.08 92.84q-.166.333-.348.715l-.226-.656c-.45 1.375-.848 2.074.12 3.441.477.668 1.411.965 1.766 1.02a.7.7 0 0 0 .043-.27c0-1.156-.832-2.64-1.355-4.25m-56.352.078-.043.133c-.34 1.066-1.348 3.008-1.348 4.039 0 .14.024.227.047.27 1.242-.204 2.547-1.47 2.36-2.813-.078-.55-.305-1.117-.477-1.648l-.23.656q-.16-.34-.309-.637m11.656-10.316a3.5 3.5 0 0 0-.48-1.574l-1.895.684.14-2.286c-.417-.168-1.09-.632-1.042-1.304l-.024-.02.028-.023q.016-.153.085-.313v-1.914c0-1.887 1.09-1.824 2.524-1.824h.203v-.465c0-1.707 3.902-2.082 4.977-2.258.402-.578 1.07-.847 1.742-.894a3.4 3.4 0 0 1 1.332-.45c-.453-1.168.011-2.445 1.836-3.257.386-1.168 1.543-1.692 2.668-1.668-.32-.864.043-1.868.937-2.082.543-.399 1.184-.348 1.809-.29.172-.8-.117-1.62.332-2.394a1 1 0 0 1-.016-.191c0-.489.309-.871.367-1.328.047-.395 1-4.266 1-4.266s.954 3.871 1.004 4.266c.059.457.367.84.367 1.328 0 .09-.011.172-.03.254.488.906.097 1.574.253 2.308.613-.058 1.336-.07 1.852.313.894.21 1.258 1.21.945 2.07 1.274-.035 2.57.625 2.77 2.133.613-.54 2.382 1.261 1.757 2.816a3.4 3.4 0 0 1 1.301.438c.672.047 1.336.316 1.742.89 1.204.192 4.98.578 4.98 2.262v.465h.2c1.328 0 2.524-.23 2.524 1.824v1.957c.023.078.043.152.05.227l.07.058-.062.055c.027.586-.387 1.027-.953 1.258l.012 2.277-1.825-.656a3.5 3.5 0 0 0-.476 1.582c1.45.355 2.031 1.797 1.996 3.379l.05.027c.044-.461.184-.836.407-1.102-.363-.418-.52-1.03-.52-1.832 0-1.148 1.204-1.273 2.047-1.312l.075-.004c.336-.617.918-.86 1.605-.86h.028c-.051-.464-.141-.992-.176-1.253 0 0 1.945.687 2.152.754.844.28 1.848-.032 2.926.808.91.711 1.582 1.688 2.355 2.547l-.593-.11c.543.75 1.07 1.52 1.601 2.274 0 0-.68-.207-1.414-.426.172.485.277 1.012.277 1.582-.004.305-.05.61-.113.907.813-.414 1.871-.422 2.887.007a382 382 0 0 1 1.762.805l-.477.27c.648.62 1.3 1.418 1.867 2.047l-1.07-.055c.535 1.14.937 2.426.941 3.73 1.082.844.825 1.64 1.684 2.426l.937.863-.918.383c.446.387 1.899 1.25 1.97 1.293 0 0-1.864.563-2.06.61-.226.054-.46.105-.695.101l.02.04-.227-.052a3 3 0 0 1-.738-.171l-.02-.004c-.828-.192-1.581-.457-2.16-.903a3.2 3.2 0 0 1-.328.692c-.383.609-.93 1.254-1.351 1.804.27 2.485 2.011 2.551 3.925 2.996l-1.328.938 1.11.074s-.7.844-1.067 1.281l1.094 1.262h-2.137c-.379.418-.562 1.68-.675 2.234h-3.122l-1.277.11-.144-.262-1.067-.066s-.09-1.008-.082-1.149c.094-1.386 1.133-2.191 2.239-2.422-1.286-1.14-2.497-1.3-3.508-2.129v5.372c0 2.386-.977 2.828-2.828 2.828q-.392 0-.696-.012v.488c0 1.996-.632 2.438-2.379 3.192-1.699.73-9.164 2.777-19.289 2.777s-17.59-2.047-19.289-2.777c-1.746-.754-2.378-1.196-2.378-3.192v-.488q-.3.012-.692.012c-1.555 0-2.828-.215-2.828-2.828v-5.372c-1.012.829-2.223.989-3.508 2.13 2.008.421 2.309 1.882 2.153 3.57l-1.067.066-.14.262-1.278-.11h-3.125c-.097-.488-.324-1.984-.719-2.285-.109.051-2.093.051-2.093.051l1.093-1.262-.878-1.058.988-.254-1.39-.98c.827-.196 1.718-.243 2.48-.626.797-.398 1.351-1.52 1.445-2.37-.898-1.177-1.434-1.77-1.676-2.5-.582.448-1.336.714-2.168.906-.254.09-.5.148-.758.175l-.222.051.02-.039c-.915.012-1.919-.457-2.759-.71.07-.044 1.528-.907 1.97-1.294l-.919-.383c1.125-1.031 1.172-.863 1.7-2.105.171-.407.421-.824.921-1.2.008-1.3.41-2.581.942-3.714l-1.07.054c.566-.628 1.218-1.425 1.867-2.046l-.477-.27s1.59-.73 1.762-.805c1.246-.523 2.191-.484 2.87-.093a4 4 0 0 1-.093-.82 4.5 4.5 0 0 1 .278-1.583c-.735.219-1.418.426-1.418.426.53-.754 1.062-1.523 1.605-2.273l-.598.109c1.746-1.937 2.282-3.203 5.145-3.34.367-.02 1.855-.617 2.293-.77-.035.262-.125.79-.18 1.255h.028c.687 0 1.273.242 1.605.859l.074.004c.844.039 2.047.164 2.047 1.312 0 .813-.152 1.434-.523 1.852.05.078.101.164.152.266.133.261.211.562.25.824l.098-.055.043-.023c-.457-.239.164-2.848 1.918-3.344"></path><path fill="#a68a26" fill-rule="evenodd" d="M427.84 78.613c-1.223 1.168-2.281 2.39-2.281 4.207v.52h.14c.153 0 .372.011.512.066.246.094.86.508 1.145.976.27.442.207 1.481.195 2.012.219.324 1.898.938 2.383 1.258.168.113.504.375.687.375.219 0 .535-.23.535-.57 0-.383-.273-.578-.394-.578-.309 0-.606.187-.93.187-.422 0-.605-.266-.605-.703 0-.383.234-1.379.824-1.094.309.149.527.356.898.356.121 0 .45-.051.547-.141 0-.445-.418-.734-.828-.734-.933 0-1.16.004-1.398-.891a4 4 0 0 1-.137-.777c0-.606 1.313-.438 1.695-.54.39-.109.172-.82 1.215-.82.27 0 .567.028.824-.062.114-.125.032-.645.012-.797 0 0 .7.25.91.32.215.07.496.047.723.07.535.055 1.515.258 1.957.606.246.188.441.434.648.664 0 0-.582-.105-.879-.14 1.036.667 1.36 1.066 2.067 2.074 0 0-.758-.227-1.031-.274.625.867 1.113 1.797 1.109 2.895 0 .37-.188 1.191-.188 1.191l-.043-.105c.208 1.199.215 2.129-.312 3.242 0 0-.254-.723-.348-1.004a1 1 0 0 0-.039-.102 20 20 0 0 1-.398 1.36c-.274.8-.774 2.293-.84 2.773-.066.457-.008 1.324.742 2.38.73 1.026 2.129 1.37 2.531 1.37.309 0 .758-.332.758-1.094 0-1.222-.992-3.039-1.39-4.285a8 8 0 0 1-.375-2.031c-.082-1.797 1.203-2.598 2.703-2.2.25.067.757.302.757.302l-.265.148c.683.223 1.062.664 1.531 1.18l-.555-.028c.891 1.473 1.645 3.29 1.512 5.043l.078.04c1.113.632.86 1.398 1.508 2.19.086.106.375.372.375.372s-.324.137-.399.152a1 1 0 0 1-.265.031.5.5 0 0 1-.113-.011c.394.726.687 1.058 1.382 1.5 0 0-.558.168-.808.16-.598-.016-1.16-.316-1.645-.645l.16.317s-.441-.102-.496-.125c-.914-.434-1.53-1.598-1.53-2.582 0-.371.23-.785.44-1.082-.05-1-.144-1.953-.39-2.938-.277-1.12-1.453-2.457-1.926-2.511-.402-.047-.52.195-.57.695-.09.957 1.73 4.227 1.953 5.617.117.734.242 2.027.164 2.488-.09.54-.469.985-.79 1.407v-.383c-.296.48-.706.867-1.108 1.258.09.386.105.773.167 1.257.11.813 1.055 2.157 1.836 2.551.262.13.887.278.887.278s-.375.265-.398.285c-.344.304-.266.761.16.933.031.016.347.102.347.102s-.203.25-.226.27c-.094.093-.223.167-.36.156.098.23.297.422.461.609h-.605l-.035.016c-.695.343-.918 1.547-1.051 2.218h-2.492l-.781.067-.102-.192-.82-.05s-.024-.223-.02-.32c.07-1.04.934-1.65 1.914-1.723.184-.016.348-.016.465-.008.043-.258.121-.508.172-.766-.418-.504-1.32-1.266-1.906-1.488a7.8 7.8 0 0 1-2.438-1.485c-.597-.539-1-1.59-1.21-2.37-.81-.067-1.626-.192-2.333-.618.118.516.418.684.84.973 0 0-.37.168-.468.18a1.4 1.4 0 0 1-.516-.024c.062.168.238.531.238.531s-.316.027-.363.04c-.703.16-1.938 1.304-1.918 2.058.004.035.055.316.055.316l-4.21-.23s.238-.535.425-.84c.645-1.07 1.262-1.101 2.422-1.046.364-.27.559-.403.75-.817-1.183-1.015-2.812-2.851-2.812-4.453 0-.668.281-1.77 2.168-1.77a11.2 11.2 0 0 1 2.21.227 5 5 0 0 1-.722-.789c-.066-.09-1.102-1.523-.727-1.934-.238.11-.296.461-.363.68l-.265-.328c-.461-.5-.797-.09-1.262.238 0 0 .098-.52.117-.574a1 1 0 0 1 .078-.16c-.34-.012-1-.035-1.265.23l-.149.157-.469-.32v7.75c0 2.718-.136 5.257-2.425 7.12-.72.59-1.524 1.059-2.32 1.536-1.614.968-4.821.78-6.708.996-.488.054-1.304.273-1.75.707l-.511.02c.187-.282.777-.954 2.218-1.118 1.782-.203 5.047-.043 6.551-.941 1.485-.895 3.192-1.848 3.871-3.551.684-1.703.684-3.18.684-4.77V95.59h-30.574v5.394c0 2.649.097 5.04 2.281 6.82.703.575 1.496 1.032 2.273 1.5 1.5.9 4.77.739 6.551.942 1.453.164 2.04.848 2.219 1.121l-.531-.027c-.45-.438-1.149-.637-1.735-.703-1.886-.215-5.093-.028-6.707-.996-2.773-1.668-4.265-2.688-4.656-6.274-.09-.8-.09-1.582-.09-2.383v-7.75l-.468.32-.145-.156c-.266-.265-.926-.242-1.27-.23a.6.6 0 0 1 .079.16c.02.055.12.574.12.574-.464-.328-.8-.738-1.261-.238a19 19 0 0 0-.27.328c-.066-.219-.125-.57-.359-.68.375.41-.66 1.844-.73 1.934-.22.305-.48.574-.72.79a11 11 0 0 1 2.208-.227c1.89 0 2.172 1.101 2.172 1.77 0 1.6-1.633 3.437-2.817 4.452.196.414.391.547.75.817 1.16-.055 1.782-.024 2.426 1.047.184.304.426.84.426.84l-4.266.214s.055-.281.055-.316c.023-.754-1.21-1.899-1.914-2.059-.047-.011-.367-.039-.367-.039s.176-.363.242-.531a1.5 1.5 0 0 1-.52.023c-.097-.011-.464-.18-.464-.18.418-.288.722-.456.835-.972-.703.426-1.523.55-2.328.617-.214.781-.613 1.832-1.214 2.371a7.8 7.8 0 0 1-2.434 1.485c-.586.222-1.488.984-1.906 1.488.05.258.129.508.172.766a3 3 0 0 1 .465.008c.98.074 1.84.683 1.91 1.722.008.098-.016.32-.016.32l-.82.051-.106.192-.777-.067h-2.492c-.137-.671-.356-1.875-1.051-2.218l-.035-.016h-.606c.164-.188.364-.379.461-.61a.47.47 0 0 1-.363-.156c-.02-.02-.223-.27-.223-.27s.313-.085.348-.1c.422-.173.5-.63.16-.934-.023-.02-.402-.285-.402-.285s.625-.149.887-.278c.785-.394 1.726-1.738 1.835-2.55.067-.485.079-.872.172-1.258-.406-.391-.816-.778-1.113-1.258.004.203.004.383.004.383-.324-.422-.7-.868-.79-1.407-.077-.46.048-1.754.165-2.488.219-1.39 2.04-4.66 1.95-5.617-.048-.5-.169-.742-.571-.696-.469.055-1.649 1.391-1.926 2.512-.242.985-.336 1.938-.39 2.938.214.297.445.71.445 1.082 0 .984-.621 2.148-1.535 2.582a9 9 0 0 1-.493.125l.157-.317c-.485.328-1.043.63-1.645.645-.246.008-.805-.16-.805-.16.692-.442.989-.774 1.38-1.5a.5.5 0 0 1-.114.011 1.2 1.2 0 0 1-.266-.03c-.07-.017-.398-.153-.398-.153s.293-.266.379-.371c.648-.793.39-1.559 1.508-2.192l.074-.039c-.129-1.754.625-3.57 1.515-5.043l-.558.028c.469-.516.851-.958 1.531-1.18l-.27-.13s.512-.234.762-.3c1.496-.398 2.781.402 2.699 2.2a7.7 7.7 0 0 1-.371 2.03c-.402 1.247-1.39 3.063-1.39 4.286 0 .761.449 1.093.753 1.093.406 0 1.805-.343 2.535-1.37.747-1.055.805-1.923.743-2.38-.067-.48-.567-1.972-.84-2.773a18 18 0 0 1-.399-1.36c-.015.036-.03.067-.043.102a92 92 0 0 1-.347 1.004c-.524-1.113-.52-2.043-.309-3.242l-.047.105s-.183-.82-.183-1.191c-.004-1.098.484-2.027 1.105-2.895-.273.047-1.031.274-1.031.274.71-1.008 1.035-1.406 2.066-2.074-.293.035-.875.14-.875.14.207-.23.403-.476.645-.664.445-.347 1.422-.55 1.96-.605.223-.024.505 0 .72-.07.21-.07.914-.32.914-.32-.02.152-.106.671.008.796.261.09.554.063.824.063 1.043 0 .824.71 1.215.82.382.101 1.695-.067 1.695.539 0 .121-.055.465-.137.777-.238.895-.465.89-1.398.89-.41 0-.824.29-.824.735.093.09.425.14.542.14.372 0 .59-.206.899-.355.59-.285.824.711.824 1.094 0 .438-.183.703-.605.703-.32 0-.618-.187-.93-.187-.117 0-.39.195-.39.578 0 .34.312.57.53.57.184 0 .524-.261.692-.375.48-.32 2.164-.933 2.383-1.258-.012-.53-.078-1.57.191-2.011.285-.469.899-.883 1.145-.977.144-.054.36-.066.511-.066h.141v-.52c0-1.816-1.055-3.039-2.277-4.207l-.211-.199c-.117-.105-.25-.219-.375-.324.351-.305 1.851-.246 2.094-.246.812 0 3.273.3 4.386.3.438 0 1.715-.03 2.23-.484h19.665c.52.453 1.797.485 2.234.485 1.114 0 3.57-.301 4.383-.301.836 0 1.574.004 1.867.12a.9.9 0 0 1 .23.126c-.128.11-.261.223-.378.328"></path><path fill="none" stroke="#a68a26" stroke-miterlimit="3.864" stroke-width=".012" d="M427.849 78.603c-1.222 1.168-2.281 2.39-2.281 4.207v.52h.14c.153 0 .372.011.512.066.246.094.86.508 1.145.977.27.441.207 1.48.195 2.011.219.325 1.899.938 2.383 1.258.168.113.504.375.687.375.219 0 .535-.23.535-.57 0-.383-.273-.578-.394-.578-.309 0-.605.187-.93.187-.422 0-.605-.265-.605-.703 0-.383.234-1.379.824-1.094.309.149.528.356.899.356.12 0 .449-.051.546-.141 0-.445-.418-.734-.828-.734-.933 0-1.16.004-1.398-.891a4 4 0 0 1-.137-.777c0-.606 1.313-.438 1.695-.54.391-.109.172-.82 1.215-.82.27 0 .566.028.824-.062.114-.125.032-.645.012-.797 0 0 .7.25.91.32.215.07.496.047.723.07.535.056 1.516.259 1.957.606.246.188.441.434.649.664 0 0-.583-.105-.88-.14 1.036.668 1.36 1.066 2.067 2.074 0 0-.758-.227-1.031-.274.625.868 1.113 1.797 1.109 2.895 0 .371-.187 1.191-.187 1.191l-.043-.105c.207 1.199.215 2.129-.313 3.242 0 0-.254-.722-.347-1.004a1 1 0 0 0-.04-.101 20 20 0 0 1-.398 1.359c-.273.8-.773 2.293-.84 2.774-.066.457-.007 1.324.742 2.378.73 1.028 2.13 1.372 2.532 1.372.308 0 .757-.332.757-1.094 0-1.223-.992-3.04-1.39-4.285a7.9 7.9 0 0 1-.375-2.032c-.082-1.797 1.203-2.597 2.703-2.199.25.067.757.3.757.3l-.265.15c.684.222 1.062.663 1.531 1.179l-.554-.027c.89 1.472 1.644 3.289 1.511 5.043l.078.039c1.114.633.86 1.398 1.508 2.191.086.106.375.371.375.371s-.324.137-.398.153a1 1 0 0 1-.266.03.5.5 0 0 1-.113-.011c.394.727.687 1.059 1.382 1.5 0 0-.558.168-.808.16-.597-.015-1.16-.316-1.644-.644l.16.316s-.442-.101-.496-.125c-.914-.433-1.532-1.597-1.532-2.582 0-.371.23-.785.442-1.082-.051-1-.145-1.953-.391-2.937-.277-1.121-1.453-2.457-1.926-2.512-.402-.047-.52.195-.57.695-.09.957 1.73 4.227 1.953 5.618.117.734.242 2.027.164 2.488-.09.539-.469.984-.789 1.406V99.9c-.297.48-.707.867-1.11 1.258.09.387.106.773.169 1.258.109.812 1.054 2.156 1.836 2.55.261.13.886.278.886.278s-.375.265-.398.285c-.344.305-.266.762.16.934.031.015.348.101.348.101s-.203.25-.227.27c-.094.093-.222.168-.36.156.098.23.298.422.462.61h-.606l-.035.015c-.695.344-.918 1.547-1.05 2.219h-2.493l-.781.066-.102-.191-.82-.051s-.023-.223-.02-.32c.07-1.04.934-1.649 1.915-1.723.183-.016.347-.016.465-.008.042-.258.12-.508.171-.766-.418-.503-1.32-1.265-1.906-1.488a7.9 7.9 0 0 1-2.437-1.484c-.598-.54-1-1.59-1.211-2.371-.809-.067-1.625-.192-2.332-.618.117.516.418.684.84.973 0 0-.372.168-.47.18a1.4 1.4 0 0 1-.515-.024c.063.168.238.532.238.532s-.316.027-.363.039c-.703.16-1.937 1.304-1.918 2.058.004.035.055.317.055.317l-4.262-.215s.238-.535.426-.84c.644-1.07 1.262-1.102 2.422-1.047.363-.27.558-.402.75-.816-1.184-1.016-2.813-2.852-2.813-4.453 0-.668.281-1.77 2.168-1.77.883 0 1.653.113 2.211.227a5 5 0 0 1-.722-.79c-.067-.09-1.102-1.523-.727-1.933-.238.11-.297.46-.363.68 0 0-.246-.305-.266-.328-.461-.5-.797-.09-1.262.238 0 0 .098-.52.117-.574a.7.7 0 0 1 .079-.16c-.34-.012-1-.036-1.266.23l-.148.156-.47-.32v7.75c0 2.719-.136 5.258-2.425 7.12-.719.59-1.523 1.06-2.32 1.536-1.614.969-4.82.781-6.707.996-.489.055-1.305.274-1.75.707l-.512.02c.187-.282.777-.953 2.219-1.117 1.78-.204 5.047-.043 6.55-.942 1.485-.894 3.192-1.847 3.871-3.55.684-1.704.684-3.18.684-4.77v-5.395h-30.575v5.395c0 2.648.098 5.039 2.281 6.82.703.574 1.496 1.031 2.274 1.5 1.5.899 4.77.738 6.55.942 1.454.164 2.04.847 2.22 1.12l-.532-.027c-.45-.437-1.148-.636-1.734-.703-1.887-.215-5.094-.027-6.707-.996-2.774-1.668-4.266-2.687-4.657-6.273-.09-.801-.09-1.582-.09-2.383v-7.75l-.468.32-.145-.156c-.265-.266-.926-.242-1.27-.23.04.054.063.113.079.16.02.054.12.574.12.574-.464-.328-.8-.739-1.261-.239-.023.024-.27.329-.27.329-.066-.22-.124-.57-.359-.68.375.41-.66 1.844-.73 1.933a5 5 0 0 1-.719.79 11 11 0 0 1 2.207-.227c1.89 0 2.172 1.102 2.172 1.77 0 1.601-1.633 3.437-2.816 4.453.195.414.39.546.75.816 1.16-.055 1.78-.024 2.425 1.047.184.304.426.84.426.84l-4.265.214s.054-.281.054-.316c.024-.754-1.21-1.898-1.914-2.059-.047-.011-.367-.039-.367-.039s.176-.363.242-.531a1.5 1.5 0 0 1-.52.024c-.097-.012-.464-.18-.464-.18.418-.29.722-.457.836-.973-.703.426-1.524.551-2.328.618-.215.78-.614 1.832-1.215 2.37a7.8 7.8 0 0 1-2.434 1.485c-.586.223-1.488.984-1.906 1.488.05.258.129.508.172.766.117-.008.281-.008.465.008.98.074 1.84.683 1.91 1.722.007.098-.016.32-.016.32l-.82.051-.105.192-.778-.067h-2.492c-.137-.671-.356-1.875-1.051-2.218l-.035-.016h-.605c.164-.187.363-.379.46-.61-.14.012-.27-.062-.363-.156-.02-.02-.222-.27-.222-.27s.312-.085.347-.1c.422-.172.5-.63.16-.934-.023-.02-.402-.285-.402-.285s.625-.149.887-.278c.785-.394 1.726-1.738 1.836-2.55.066-.485.078-.872.172-1.258-.407-.391-.817-.778-1.114-1.258.004.203.004.383.004.383-.324-.422-.699-.868-.789-1.406-.078-.461.047-1.754.164-2.489.219-1.39 2.04-4.66 1.95-5.617-.047-.5-.168-.742-.571-.695-.469.054-1.648 1.39-1.926 2.511-.242.985-.336 1.938-.39 2.938.215.297.445.71.445 1.082 0 .984-.621 2.148-1.535 2.582-.055.023-.492.125-.492.125l.156-.316c-.484.328-1.043.628-1.645.644-.246.008-.804-.16-.804-.16.691-.442.988-.774 1.379-1.5a.5.5 0 0 1-.114.012c-.109 0-.203-.016-.265-.032-.07-.015-.399-.152-.399-.152s.293-.266.38-.371c.648-.793.39-1.559 1.507-2.191l.074-.04c-.129-1.753.625-3.57 1.516-5.043l-.559.028c.469-.516.852-.957 1.532-1.18l-.266-.148s.512-.235.762-.301c1.496-.399 2.78.402 2.699 2.199a7.7 7.7 0 0 1-.371 2.031c-.403 1.246-1.391 3.063-1.391 4.286 0 .761.45 1.093.754 1.093.406 0 1.805-.343 2.535-1.37.746-1.056.805-1.923.743-2.38-.067-.48-.567-1.972-.84-2.773a18 18 0 0 1-.399-1.36c-.015.036-.031.067-.043.102a105 105 0 0 1-.347 1.004c-.524-1.113-.52-2.043-.309-3.242l-.047.105s-.183-.82-.183-1.191c-.004-1.098.484-2.028 1.105-2.895-.273.047-1.031.274-1.031.274.71-1.008 1.035-1.407 2.066-2.075-.293.036-.875.141-.875.141.207-.23.403-.476.645-.664.445-.348 1.422-.551 1.96-.605.223-.024.505 0 .72-.071.21-.07.913-.32.913-.32-.02.152-.105.672.008.797.262.09.555.062.824.062 1.043 0 .825.711 1.215.82.383.102 1.695-.066 1.695.54 0 .12-.054.465-.136.777-.238.895-.465.89-1.399.89-.41 0-.824.29-.824.735.094.09.426.14.543.14.371 0 .59-.206.899-.355.59-.285.824.711.824 1.094 0 .437-.184.703-.606.703-.32 0-.617-.187-.93-.187-.117 0-.39.195-.39.578 0 .34.313.57.531.57.184 0 .524-.262.692-.375.48-.32 2.164-.934 2.383-1.258-.012-.531-.079-1.57.19-2.012.286-.468.9-.882 1.145-.976.145-.055.36-.067.512-.067h.14v-.52c0-1.815-1.054-3.038-2.277-4.206l-.21-.2a17 17 0 0 0-.375-.324c.351-.304 1.851-.246 2.093-.246.813 0 3.274.301 4.387.301.438 0 1.715-.031 2.23-.484h19.665c.519.453 1.796.484 2.234.484 1.113 0 3.57-.3 4.383-.3.836 0 1.574.003 1.867.12.109.043.183.086.23.125a18 18 0 0 0-.379.329z"></path><path fill="#211e1e" d="M403.69 71.418c-.559-.238-1.152-.605-1.504-1.02-.683-.792-.668-1.18-.36-1.851.231-.508.864-.953 1.684-1.242l.004-.047c.16-1.238 1.422-1.586 2.52-1.348.117.027.27.094.437.176.38.187 1.145.656 1.489.723.3-.051.379-.118.394-.454.012-.293-.273-.578-.555-.812-.382-.004-.742-.035-1.093-.25-.489-.29-.664-.871-.453-1.234.152-.258.296-.336.53-.329.15-.226.49-.285.825-.3.184-.012.36.03.543.047.7.066 1-.47.937-1.13-.035-.39-.039-1.027.06-1.39.058-.223.194-.422.358-.582-.085-.098-.148-.203-.148-.297 0-.27.313-.867.36-1.226.042-.36.19-.958.19-.958s.15.598.196.958c.043.359.36.957.36 1.226 0 .102-.079.215-.172.32.152.157.277.348.336.559.093.363.093 1 .054 1.39-.062.66.239 1.196.942 1.13.18-.016.359-.06.543-.047.336.015.675.074.824.3.23-.007.375.07.527.329.215.363.035.945-.449 1.234-.352.215-.715.246-1.094.25-.281.234-.57.52-.555.812.016.336.094.403.391.454.344-.067 1.113-.536 1.488-.723a2.3 2.3 0 0 1 .442-.176c1.098-.238 2.355.11 2.515 1.348l.008.047c.817.289 1.454.734 1.684 1.242.309.672.32 1.058-.36 1.851-.355.415-.949.782-1.507 1.02l.441.043c.477-.484 1.266-.75 1.926-.707.664.043 1.117.238 1.422.465.164 0 .32.011.457.035.43.062.879.36 1.008.789 1.625.246 3.808.645 4.453 1.125.121.09.246.219.246.395v1.28h1.016c.875 0 1.71-.374 1.71 1.009v2.113a.46.46 0 0 1 .024.363c-.074.266-.68.426-1.016.496l.102 1.7-1.332-.481q.1-.137.21-.274l.75.28-.06-1.048q.154-.152.313-.304l.293-.278c.262-.05.45-.156.426-.273h-.047v-.055a1 1 0 0 0-.23-.125c-.293-.117-1.032-.12-1.868-.12-.812 0-3.269.3-4.382.3-.555 0-2.457-.047-2.457-.945q0-.118.03-.211v-.114l-.042.043c-.344.317-.73.543-1.145.735h-.43c.051-.024.188-.082.356-.156.516-.239.875-.461 1.262-.86v-.113a2.94 2.94 0 0 1-1.86.656c-1.32 0-1.863-.64-2.21-1.394a1 1 0 0 1-.094-.278 1 1 0 0 0-.188.578c.012.555.34 1.184.766 1.567h-.238a2.8 2.8 0 0 1-.524-.785l.07.781h-.882l-.32-2.453a4.81 4.81 0 0 1-4.137 2.348 4.81 4.81 0 0 1-4.117-2.32l-.32 2.425h-.884l.094-1.02c-.117.383-.34.735-.61 1.024h-.238c.422-.383.754-1.012.766-1.566a1 1 0 0 0-.187-.579 1.5 1.5 0 0 1-.094.278c-.348.754-.895 1.394-2.215 1.394a2.95 2.95 0 0 1-1.86-.656v.113c.387.399.75.621 1.266.86.164.074.301.132.352.156h-.426c-.414-.191-.805-.418-1.144-.734l-.047-.043v.113a.6.6 0 0 1 .035.21c0 .9-1.903.946-2.457.946-1.114 0-3.574-.3-4.387-.3-.242 0-1.742-.06-2.094.238v.062h-.054c-.075.188.363.258.425.27l.301.285q.157.147.309.3l-.063 1.047.766-.277.21.274-1.335.48.105-1.715a7 7 0 0 1-.496-.117c-.476-.156-.676-.457-.496-.723v-2.117c0-.492.13-1.02.695-1.05.34-.02.676.042 1.012.042h1.016v-1.28c0-.595 1.597-.93 1.957-1.009.535-.12 1.43-.308 2.746-.507.125-.434.578-.73 1.004-.793q.21-.036.46-.036c.305-.226.759-.421 1.423-.464.66-.043 1.445.222 1.921.707"></path><path fill="none" stroke="#211e1e" stroke-miterlimit="3.864" stroke-width=".012" d="M403.699 71.428c-.558-.238-1.152-.605-1.504-1.02-.683-.792-.668-1.18-.36-1.851.231-.508.864-.953 1.684-1.242l.004-.047c.16-1.239 1.422-1.586 2.52-1.348.117.028.27.094.437.176.38.187 1.145.656 1.488.722.301-.05.38-.117.395-.453.012-.293-.273-.578-.555-.812-.382-.004-.742-.035-1.093-.25-.488-.289-.664-.871-.453-1.235.152-.257.296-.335.53-.328.15-.226.489-.285.825-.3.184-.012.36.031.543.046.7.067 1-.468.937-1.128-.035-.391-.039-1.028.059-1.391.059-.223.195-.422.36-.582-.087-.098-.149-.203-.149-.297 0-.27.312-.867.36-1.227.043-.359.19-.957.19-.957s.15.598.196.957c.043.36.36.957.36 1.227 0 .102-.079.215-.172.32.152.157.277.348.336.559.093.363.093 1 .055 1.39-.063.66.238 1.196.94 1.13.18-.016.36-.059.544-.047.336.015.676.074.824.3.23-.007.375.07.527.328.215.364.035.946-.449 1.235-.351.215-.715.246-1.094.25-.281.234-.57.52-.554.812.015.336.093.403.39.453.344-.066 1.114-.535 1.489-.722.168-.082.324-.149.441-.176 1.098-.238 2.355.11 2.516 1.348l.007.047c.817.289 1.453.734 1.684 1.242.308.672.32 1.058-.36 1.851-.355.414-.949.782-1.507 1.02l.441.043c.477-.485 1.266-.75 1.926-.707.664.043 1.117.238 1.422.465.164 0 .32.012.457.035.43.063.879.36 1.007.789 1.625.246 3.809.645 4.454 1.125.12.09.246.219.246.395v1.28h1.016c.875 0 1.71-.374 1.71 1.008v2.114a.46.46 0 0 1 .024.363c-.074.266-.68.426-1.016.496l.102 1.7-1.332-.481q.1-.137.21-.274l.766.278-.066-1.047q.154-.153.313-.305l.293-.277c.261-.05.449-.156.425-.273h-.047V78.1a.8.8 0 0 0-.23-.125c-.293-.117-1.032-.121-1.867-.121-.813 0-3.27.3-4.383.3-.555 0-2.457-.046-2.457-.945q.001-.117.031-.21v-.114l-.043.043a4.3 4.3 0 0 1-1.145.735h-.429c.05-.024.187-.083.355-.157.516-.238.875-.46 1.262-.86v-.113a2.94 2.94 0 0 1-1.86.657c-1.32 0-1.863-.641-2.21-1.395a1 1 0 0 1-.094-.277 1 1 0 0 0-.188.578c.012.555.34 1.184.766 1.567h-.238a2.8 2.8 0 0 1-.524-.786l.07.782h-.882l-.32-2.454a4.81 4.81 0 0 1-4.137 2.348 4.81 4.81 0 0 1-4.118-2.32l-.32 2.426h-.883l.094-1.02c-.117.383-.34.734-.609 1.024h-.238c.422-.383.754-1.012.765-1.567a1 1 0 0 0-.187-.578 1.5 1.5 0 0 1-.094.277c-.347.754-.894 1.395-2.215 1.395-.668 0-1.343-.23-1.86-.656v.113c.388.398.75.62 1.267.86l.351.155h-.426c-.414-.191-.805-.418-1.144-.734l-.047-.043v.113q.035.094.035.211c0 .899-1.902.945-2.457.945-1.113 0-3.574-.3-4.387-.3-.242 0-1.742-.059-2.094.238v.062h-.054c-.074.188.363.258.426.27l.3.285q.157.148.309.301l-.063 1.047.766-.278q.105.137.211.274l-1.336.48.106-1.715a7 7 0 0 1-.497-.117c-.476-.156-.675-.457-.496-.722v-2.118c0-.492.13-1.019.696-1.05.34-.02.675.043 1.011.043h1.016v-1.282c0-.593 1.598-.93 1.957-1.007a38 38 0 0 1 2.746-.508c.125-.434.578-.73 1.004-.793q.21-.035.46-.035c.306-.227.759-.422 1.423-.465.66-.043 1.445.222 1.922.707z"></path><path fill="#211e1e" d="M424.29 91.234c.102.023.25.078.406.2.281.218.535.573.442.667-.098.094-.285-.23-.535-.355a1.8 1.8 0 0 0-.399-.133v1.418l.316-.219h1.098l.367.25c.543-.414 1.614-.273 2.25-.215l-.168.2c.22-.024.414.082.575.218l.015-.023c.395-.547 1.227-.324 1.785-.203 0 0-.324.293-.394.34-.2.125-.406.128-.61.218.274 1.051 1.207 2.13 2.118 2.715l-.168.352s-.32-.114-.856-.223a10.5 10.5 0 0 0-2.152-.227c-1.617 0-1.777.872-1.777 1.38 0 1.535 1.738 3.39 2.894 4.335 0 0-.094.25-.172.399-.226.43-.547.652-.933.933-.426-.027-1.266-.039-1.622.16-.277.157-.574.653-.738.965l.492.024c.02-.09.118-.446.309-.703.094-.125.535-.325.535-.188s-.223.285-.379.473c-.125.148-.11.355-.097.437l.44.024a5 5 0 0 1 .325-.649c.067-.098.535-.285.567-.16.03.125-.25.285-.375.473a1.1 1.1 0 0 0-.141.351l1.539.078c.07-.914 1.273-2.047 2.094-2.308-.13-.313-.188-.664-.262-.996 0 0 .453.308.516.34a.7.7 0 0 0 .156.05c-.39-.437-.387-1.097-.445-1.656 0 0 .511.453.738.59.71.43 1.605.531 2.422.566.18.778.582 1.934 1.16 2.453a7.5 7.5 0 0 0 2.316 1.41c.688.262 1.72 1.145 2.184 1.754 0 0-.062.356-.137.622-.066.242-.109.671-.109.671-.984-.113-2.168.09-2.324 1.258l.375.024c.008-.102.043-.274.164-.477.187-.324.469-.512.562-.45.098.063-.125.388-.218.575a3.4 3.4 0 0 0-.16.441l.042.086.414-.035a2.8 2.8 0 0 1 .247-.617c.16-.262.347-.356.472-.324.125.03-.062.324-.187.574-.07.137-.11.266-.133.355h1.918c.18-.77.418-1.793 1.195-2.18l.043-.019c-.148-.277-.195-.617-.258-.926l.153.075a.92.92 0 0 1 .066-.97 2.8 2.8 0 0 1-1.223-.925c-.546-.75-.98-1.445-1.058-2.031-.18-1.344-.063-1.438-.895-2.516 1.055.063 1.13.028 1.957-.59l-.043.29c.203-.348.442-.868.442-.868s.117.164.195.286c.219-.56-.008-2.102-.09-2.618-.238-1.492-2.066-4.539-1.957-5.714.047-.489.211-1.145 1.008-1.051.727.086 1.973 1.644 2.262 2.808.261 1.055.355 2.078.41 3.157-.192.242-.453.652-.453.957 0 .804.34 1.437.93 1.953-.044-.25-.106-.625-.106-.625s.531.488.723.629c.347.253.906.597 1.414.68-.336-.364-1.035-1.25-.797-1.567.133-.176.262-.113.406-.086-.644-.867-.336-1.613-1.629-2.14 0 0 .067-.493.028-1.036-.11-1.566-.97-3.476-1.914-4.68l.367.016c-.567-.457-1.043-.457-1.746-.512l.55-.312c-1.238-.301-2.222.332-2.152 1.816.059 1.27.41 2.156.89 3.297.301.715.872 2.156.872 3.04 0 .905-.559 1.488-1.149 1.488-.492 0-2.027-.38-2.851-1.54-.805-1.132-.89-2.105-.813-2.66.075-.527.594-2.07.856-2.844.27-.78.586-2.12.586-2.12s.312.343.386.449c.059.085.133.207.184.34.125-.84-.008-2.012-.277-2.817-.09-.27-.684-1.23-.684-1.23s.879.636.973.714c.043.04.093.086.14.137-.02-1.258-.789-2.336-1.562-3.262l.902.047c-.59-.703-1.379-1.137-2.156-1.61 0 0 .496-.14.594-.16q.082-.018.183-.03c-.468-.227-1.347-.344-1.894-.376-.266-.015-.488-.093-.735-.183l-.004.05c-.062.739-.707.633-1.273.633-.488 0-.45.102-.664.418-.457.668-1.144.328-1.832.563-.004.246.14.957.3 1.164.22.082.552.098.821.098.629 0 1.219.46 1.219 1.125 0 .41-.637.535-.938.535-.57 0-.992-.403-1.097-.41-.031.015-.23.398-.23.754 0 .292.07.308.21.308.317 0 .61-.187.93-.187.398 0 .785.441.785.972 0 .578-.515.961-.926.961-.398 0-.812-.418-1.168-.594-.496-.25-1.793-.714-2.175-1.144-.051-.059-.122-.152-.122-.27 0-.43.079-1.476-.132-1.824-.235-.383-.774-.746-.95-.812-.101-.04-.312-.043-.464-.043v.312c.117.02.324.063.55.14.356.13.825.642.73.735-.093.094-.51-.148-.73-.281-.195-.121-.484-.16-.55-.168v.348c.148.05.468.164.644.258.227.125.543.48.543.574 0 .097-.187.136-.281.031-.098-.102-.422-.195-.578-.29a1 1 0 0 0-.328-.116v1.02c.257.05.511.476.671.695.118.16.18.324.227.515l.016.059c.675.23 1.172.804 1.632 1.328l-.23.105c.371.211.45.524.531.914l.012.055c.687-.09.926.152 1.305.637 0 0-1.336.449-1.813.656-.2.09-2.004.86-2.289.574-.36-.363.3-1-1.262-1.656v.367c.125.032.313.094.469.188.254.16.379.418.379.511 0 .098-.191.067-.348-.093-.156-.157-.187-.176-.375-.219a2 2 0 0 1-.152-.035"></path><path fill="none" stroke="#211e1e" stroke-miterlimit="3.864" stroke-width=".012" d="M424.299 91.228c.102.024.25.078.406.2.282.218.535.574.442.667-.098.094-.285-.23-.535-.355-.141-.07-.293-.11-.399-.133v1.418l.317-.219h1.097l.368.25c.542-.414 1.613-.273 2.25-.215l-.169.2c.219-.024.415.082.575.218l.015-.023c.395-.547 1.227-.324 1.785-.203 0 0-.324.293-.394.34-.2.125-.406.129-.61.218.274 1.051 1.207 2.13 2.118 2.715l-.168.352s-.32-.114-.856-.223a10.5 10.5 0 0 0-2.152-.227c-1.617 0-1.777.872-1.777 1.38 0 1.534 1.738 3.39 2.894 4.335 0 0-.094.25-.172.399-.226.43-.547.652-.933.933-.426-.027-1.266-.039-1.622.16-.277.157-.574.653-.738.965l.492.024c.02-.09.118-.445.309-.703.094-.125.535-.324.535-.188s-.223.285-.379.473c-.125.148-.11.355-.097.437l.44.024c.063-.145.204-.465.325-.648.067-.098.535-.286.567-.16s-.25.284-.375.472a1.1 1.1 0 0 0-.141.351l1.539.078c.07-.914 1.273-2.046 2.094-2.308-.13-.312-.188-.664-.262-.996 0 0 .453.309.516.34a.7.7 0 0 0 .156.05c-.39-.437-.387-1.097-.445-1.656 0 0 .511.453.738.59.71.43 1.605.531 2.422.566.18.778.582 1.934 1.16 2.453a7.5 7.5 0 0 0 2.316 1.41c.688.262 1.719 1.145 2.184 1.755 0 0-.063.355-.137.62-.066.243-.11.673-.11.673-.984-.114-2.167.09-2.323 1.257l.375.024c.007-.101.043-.273.164-.476.187-.325.468-.512.562-.45.098.063-.125.387-.219.574a3 3 0 0 0-.16.442l.043.086.414-.035c.032-.114.121-.41.246-.618.16-.261.348-.355.473-.324s-.063.324-.188.574a1.8 1.8 0 0 0-.132.356h1.918c.18-.77.418-1.793 1.195-2.18l.043-.02c-.148-.277-.195-.617-.258-.925l.153.074a.92.92 0 0 1 .066-.968 2.8 2.8 0 0 1-1.223-.926c-.547-.75-.98-1.445-1.058-2.032-.18-1.343-.063-1.437-.895-2.515 1.055.062 1.129.027 1.957-.59l-.043.289c.203-.347.442-.867.442-.867s.117.164.195.285c.219-.558-.008-2.101-.09-2.617-.238-1.492-2.066-4.54-1.957-5.715.047-.488.21-1.144 1.008-1.05.726.085 1.972 1.644 2.262 2.808.261 1.055.355 2.078.41 3.156-.192.242-.453.653-.453.957 0 .805.34 1.438.93 1.953-.044-.25-.106-.625-.106-.625s.531.489.722.629c.348.254.907.598 1.415.68-.336-.364-1.035-1.25-.797-1.567.132-.176.261-.113.406-.086-.645-.867-.336-1.613-1.629-2.14 0 0 .066-.493.027-1.035-.11-1.567-.968-3.477-1.914-4.68l.367.015c-.566-.457-1.042-.457-1.746-.511l.551-.313c-1.238-.3-2.222.332-2.152 1.816.058 1.27.41 2.157.89 3.297.301.715.872 2.157.872 3.04 0 .906-.56 1.488-1.149 1.488-.492 0-2.027-.379-2.851-1.54-.805-1.132-.891-2.105-.813-2.66.074-.527.594-2.07.856-2.843.269-.782.586-2.121.586-2.121s.312.343.386.449c.059.086.133.207.184.34.125-.84-.008-2.012-.278-2.817-.09-.27-.683-1.23-.683-1.23s.879.636.972.715c.044.039.094.085.141.136-.02-1.258-.789-2.336-1.562-3.262l.902.047c-.59-.703-1.379-1.136-2.156-1.609 0 0 .496-.14.594-.16q.083-.02.183-.031c-.469-.227-1.347-.344-1.894-.375-.266-.016-.489-.094-.735-.184l-.004.05c-.062.74-.707.634-1.273.634-.489 0-.45.101-.664.418-.457.667-1.145.328-1.832.562-.004.246.14.957.3 1.164.219.082.551.098.82.098.63 0 1.22.46 1.22 1.125 0 .41-.637.535-.938.535-.57 0-.992-.403-1.098-.41-.031.015-.23.398-.23.754 0 .293.07.308.21.308.317 0 .61-.187.93-.187.399 0 .786.441.786.972 0 .578-.516.961-.926.961-.399 0-.813-.418-1.168-.593-.496-.25-1.793-.715-2.176-1.145-.05-.059-.121-.152-.121-.27 0-.43.078-1.476-.133-1.824-.234-.383-.773-.746-.95-.812-.1-.04-.312-.043-.464-.043v.312c.117.02.324.063.55.141.356.129.825.64.731.734s-.511-.148-.73-.28c-.195-.122-.484-.16-.551-.169v.348c.149.05.469.164.645.258.226.125.543.48.543.574 0 .097-.188.137-.282.031-.097-.102-.421-.195-.578-.289a1 1 0 0 0-.328-.117v1.02c.258.05.512.476.672.695.117.16.18.324.227.515l.015.059c.676.23 1.172.805 1.633 1.328l-.23.105c.37.211.449.524.53.915l.012.054c.688-.09.926.153 1.305.637 0 0-1.336.45-1.812.656-.2.09-2.004.86-2.29.574-.359-.363.301-1-1.261-1.656v.367c.125.032.312.094.469.188.253.16.378.418.378.512 0 .097-.191.066-.347-.094-.156-.156-.188-.176-.375-.219q-.094-.017-.153-.035z"></path><path fill="#211e1e" d="M395.48 91.234a1 1 0 0 0-.406.2c-.285.218-.535.573-.442.667s.282-.23.535-.355c.137-.07.29-.11.399-.133v1.418l-.32-.219h-1.098l-.367.25c-.543-.414-1.613-.273-2.25-.215l.172.2c-.219-.024-.414.082-.578.218l-.016-.023c-.395-.547-1.227-.324-1.781-.203 0 0 .324.293.394.34.196.125.403.128.606.218-.274 1.051-1.207 2.13-2.117 2.715l.171.352s.32-.114.852-.223a10.6 10.6 0 0 1 2.152-.227c1.618 0 1.778.872 1.778 1.38 0 1.535-1.739 3.39-2.89 4.335 0 0 .093.25.167.399.227.43.547.652.934.933.425-.027 1.27-.039 1.62.16.282.157.575.653.74.965l-.49.024c-.023-.09-.116-.446-.308-.703-.098-.125-.535-.325-.535-.188s.219.285.375.473c.125.148.113.355.102.437l-.446.024a4 4 0 0 0-.324-.649c-.062-.098-.535-.285-.566-.16-.032.125.254.285.379.473.078.117.117.261.14.351l-1.539.078c-.07-.914-1.277-2.047-2.094-2.308.13-.313.184-.664.258-.996 0 0-.45.308-.516.34a.7.7 0 0 1-.152.05c.39-.437.387-1.097.442-1.656 0 0-.508.453-.735.59-.715.43-1.605.531-2.422.566-.183.778-.582 1.934-1.164 2.453a7.5 7.5 0 0 1-2.312 1.41c-.692.262-1.72 1.145-2.188 1.754 0 0 .067.356.14.622.063.242.106.671.106.671.989-.113 2.168.09 2.324 1.258l-.37.024a1.2 1.2 0 0 0-.165-.477c-.187-.324-.472-.512-.566-.45-.094.063.125.388.219.575.066.129.129.324.164.441l-.047.086-.41-.035a2.8 2.8 0 0 0-.25-.617c-.157-.262-.344-.356-.473-.324-.125.03.066.324.191.574.067.137.11.266.133.355h-1.922c-.175-.77-.418-1.793-1.195-2.18l-.04-.019c.15-.277.196-.617.255-.926l-.149.075a.92.92 0 0 0-.07-.97c.48-.19.918-.503 1.227-.925.547-.75.98-1.445 1.058-2.031.18-1.344.059-1.438.895-2.516-1.055.063-1.13.028-1.957-.59 0 0 .015.13.039.29-.203-.348-.441-.868-.441-.868s-.118.164-.192.286c-.223-.56.008-2.102.09-2.618.238-1.492 2.066-4.539 1.953-5.714-.047-.489-.21-1.145-1.004-1.051-.73.086-1.972 1.644-2.262 2.808-.261 1.055-.355 2.078-.41 3.157.188.242.45.652.45.957 0 .804-.336 1.437-.926 1.953l.105-.625s-.531.488-.726.629c-.344.253-.903.597-1.41.68.335-.364 1.03-1.25.792-1.567-.129-.176-.257-.113-.402-.086.64-.867.336-1.613 1.625-2.14 0 0-.066-.493-.027-1.036.11-1.566.972-3.476 1.918-4.68l-.367.016c.566-.457 1.039-.457 1.746-.512l-.555-.312c1.238-.301 2.223.332 2.156 1.816-.058 1.27-.414 2.156-.89 3.297-.301.715-.875 2.156-.875 3.04 0 .905.562 1.488 1.148 1.488.492 0 2.027-.38 2.855-1.54.805-1.132.887-2.105.809-2.66-.074-.527-.59-2.07-.855-2.844-.266-.78-.586-2.12-.586-2.12s-.313.343-.383.449a1.7 1.7 0 0 0-.188.34c-.12-.84.012-2.012.282-2.817.09-.27.68-1.23.68-1.23s-.88.636-.97.714a4 4 0 0 0-.144.137c.02-1.258.793-2.336 1.562-3.262l-.902.047c.594-.703 1.383-1.137 2.16-1.61 0 0-.5-.14-.597-.16a2 2 0 0 0-.184-.03c.469-.227 1.352-.344 1.898-.376.266-.015.485-.093.735-.183v.05c.062.739.707.633 1.273.633.492 0 .45.102.668.418.453.668 1.145.328 1.832.563.004.246-.14.957-.305 1.164-.218.082-.55.098-.82.098-.625 0-1.219.46-1.219 1.125 0 .41.641.535.938.535.574 0 .996-.403 1.101-.41.028.015.231.398.231.754 0 .292-.074.308-.215.308-.316 0-.61-.187-.93-.187-.398 0-.785.441-.785.972 0 .578.516.961.926.961.398 0 .813-.418 1.168-.594.5-.25 1.793-.714 2.18-1.144a.42.42 0 0 0 .117-.27c0-.43-.074-1.476.137-1.824.234-.383.77-.746.949-.812.097-.04.308-.043.465-.043v.312c-.121.02-.325.063-.551.14-.356.13-.828.642-.734.735.097.094.515-.148.734-.281.191-.121.48-.16.55-.168v.348c-.148.05-.472.164-.644.258-.23.125-.543.48-.543.574 0 .097.188.136.281.031.094-.102.418-.195.575-.29a1 1 0 0 1 .332-.116v1.02c-.258.05-.512.476-.676.695-.117.16-.18.324-.227.515l-.011.059c-.676.23-1.176.804-1.637 1.328l.234.105c-.37.211-.453.524-.535.914l-.008.055c-.687-.09-.93.152-1.305.637 0 0 1.336.449 1.81.656.202.09 2.003.86 2.288.574.36-.363-.3-1 1.262-1.656v.367a2 2 0 0 0-.469.188c-.25.16-.375.418-.375.511 0 .098.188.067.344-.093.16-.157.191-.176.379-.219q.088-.017.152-.035"></path><path fill="none" stroke="#211e1e" stroke-miterlimit="3.864" stroke-width=".012" d="M395.474 91.228a1 1 0 0 0-.406.2c-.285.218-.535.574-.442.667s.282-.23.536-.355c.136-.07.289-.11.398-.133v1.418l-.32-.219h-1.098l-.367.25c-.543-.414-1.613-.273-2.25-.215l.172.2c-.219-.024-.414.082-.578.218l-.016-.023c-.394-.547-1.226-.324-1.781-.203 0 0 .324.293.394.34.196.125.403.129.606.218-.274 1.051-1.207 2.13-2.117 2.715l.172.352s.32-.114.851-.223a10.6 10.6 0 0 1 2.153-.227c1.617 0 1.777.872 1.777 1.38 0 1.534-1.738 3.39-2.891 4.335 0 0 .094.25.168.399.227.43.547.652.934.933.425-.027 1.269-.039 1.62.16.282.157.575.653.739.965l-.488.024c-.024-.09-.118-.445-.309-.703-.097-.125-.535-.324-.535-.188s.219.285.375.473c.125.148.113.355.101.437l-.445.024a4 4 0 0 0-.324-.648c-.063-.098-.535-.286-.567-.16s.254.284.38.472c.077.117.117.261.14.351l-1.539.078c-.07-.914-1.278-2.046-2.094-2.308.13-.312.184-.664.258-.996 0 0-.45.309-.516.34a.7.7 0 0 1-.152.05c.39-.437.387-1.097.442-1.656 0 0-.508.453-.735.59-.715.43-1.605.531-2.422.566-.183.778-.582 1.934-1.164 2.453a7.5 7.5 0 0 1-2.312 1.41c-.692.262-1.719 1.145-2.188 1.755 0 0 .066.355.14.62.063.243.106.673.106.673.988-.114 2.168.09 2.324 1.257l-.37.024a1.2 1.2 0 0 0-.165-.476c-.187-.325-.472-.512-.566-.45s.125.387.219.574c.066.13.129.325.164.442l-.047.086-.41-.035a2.8 2.8 0 0 0-.25-.618c-.157-.261-.344-.355-.473-.324-.125.031.066.324.191.574a2 2 0 0 1 .133.356h-1.922c-.176-.77-.418-1.793-1.195-2.18l-.039-.02c.148-.277.195-.617.254-.925l-.149.074a.92.92 0 0 0-.07-.968c.48-.192.918-.504 1.227-.926.546-.75.98-1.445 1.058-2.032.18-1.343.059-1.437.895-2.515-1.055.062-1.129.027-1.957-.59 0 0 .015.129.039.289-.203-.347-.442-.867-.442-.867s-.117.164-.191.285c-.223-.558.008-2.101.09-2.617.238-1.492 2.066-4.54 1.953-5.715-.047-.488-.211-1.144-1.004-1.05-.73.085-1.973 1.644-2.262 2.808-.261 1.055-.355 2.078-.41 3.156.188.242.45.653.45.957 0 .805-.337 1.438-.926 1.953l.105-.625s-.531.489-.727.629c-.343.254-.902.598-1.41.68.336-.364 1.032-1.25.793-1.567-.129-.176-.258-.113-.402-.086.64-.867.336-1.613 1.625-2.14 0 0-.066-.493-.028-1.035.11-1.567.973-3.477 1.919-4.68l-.368.015c.567-.457 1.04-.457 1.746-.511l-.554-.313c1.238-.3 2.222.332 2.156 1.816-.059 1.27-.414 2.157-.89 3.297-.301.715-.876 2.157-.876 3.04 0 .906.563 1.488 1.149 1.488.492 0 2.027-.379 2.855-1.54.805-1.132.887-2.105.809-2.66-.074-.527-.59-2.07-.856-2.843-.265-.782-.585-2.121-.585-2.121s-.313.343-.383.449a1.7 1.7 0 0 0-.188.34c-.12-.84.012-2.012.281-2.817.09-.27.68-1.23.68-1.23s-.879.636-.969.715a4 4 0 0 0-.144.136c.02-1.258.793-2.336 1.562-3.262l-.902.047c.594-.703 1.383-1.136 2.16-1.609 0 0-.5-.14-.597-.16a2 2 0 0 0-.184-.031c.469-.227 1.352-.344 1.898-.375.266-.016.485-.094.735-.184v.05c.062.74.707.634 1.273.634.492 0 .45.101.668.418.453.667 1.145.328 1.832.562.004.246-.14.957-.304 1.164-.219.082-.551.098-.82.098-.626 0-1.22.46-1.22 1.125 0 .41.641.535.938.535.574 0 .996-.403 1.102-.41.027.015.23.398.23.754 0 .293-.074.308-.215.308-.316 0-.609-.187-.93-.187-.398 0-.785.441-.785.972 0 .578.516.961.926.961.399 0 .813-.418 1.168-.593.5-.25 1.793-.715 2.18-1.145a.42.42 0 0 0 .117-.27c0-.43-.074-1.476.137-1.824.234-.383.77-.746.949-.812.097-.04.308-.043.465-.043v.312a3.5 3.5 0 0 0-.551.141c-.356.129-.828.64-.734.734.097.094.515-.148.734-.28.191-.122.48-.16.55-.169v.348a5 5 0 0 0-.644.258c-.23.125-.543.48-.543.574 0 .097.188.137.281.031.094-.102.418-.195.575-.289a1 1 0 0 1 .332-.117v1.02c-.258.05-.512.476-.676.695-.117.16-.18.324-.227.515l-.011.059c-.676.23-1.176.805-1.637 1.328l.234.105c-.37.211-.453.524-.535.915l-.008.054c-.687-.09-.93.153-1.304.637 0 0 1.336.45 1.808.656.203.09 2.004.86 2.29.574.359-.363-.301-1 1.261-1.656v.367a1.9 1.9 0 0 0-.469.188c-.25.16-.375.418-.375.512 0 .097.188.066.344-.094.16-.156.191-.176.379-.219q.088-.017.152-.035z"></path><path fill="#211e1e" d="M407.91 111.37c-.187-.281-.781-.945-2.21-1.11-1.782-.203-5.052-.042-6.552-.94-.777-.47-1.57-.927-2.273-1.5-2.184-1.782-2.281-4.173-2.281-6.821v-5.395h1.16v4.891c0 3.64.309 4.379 1.277 5.812.97 1.434 3.645 2.403 5.157 2.52 1.511.117 2.984.078 4.882.621 1.672.477 2.262 1.676 2.38 1.957h.859c.117-.281.71-1.48 2.378-1.957 1.903-.543 3.375-.504 4.887-.621s4.184-1.086 5.153-2.52 1.28-2.171 1.28-5.812v-4.887l1.157.004V101c0 2.648-.094 5.039-2.277 6.82-.707.574-1.497 1.031-2.274 1.5-1.504.899-4.77.738-6.55.942-1.434.164-2.024.828-2.215 1.109l.515-.02c3.543-.148 7.133-.582 9.985-1.039v-1.609q.2-.136.394-.277v1.824c2.192-.363 3.906-.735 4.758-.985.86-.253 2.262-.902 2.816-1.757-.086-.63-.445-1.164-1.437-1.164-1.203 0-1.676.3-2.738.703-.602.226-1.688.437-2.372.484q.224-.238.41-.488c.118-.008.301-.027.516-.055 1.617-.226 2.465-1.035 4.184-1.035 1.476 0 1.851 1.02 1.851 1.902v3.797c.215.031.68.082 1.512.082 1.375 0 1.621-.113 1.621-1.621v-5.156c-.754.582-2.285.52-2.965.449-1.996-.203-4.906-.559-5.66-.648q.046-.197.086-.395l.262.035c-.094.192-.164.352-.164.352l4.261.215-.015-.086c.445.05.875.097 1.27.136.562.06 2.44.165 2.882-.593l.024.011c-.114-.687-.758-.761-1.372-.902-.656-.152-1.73-.34-1.902-.371.156-.137.32-.258.48-.355.325.074.989.222 1.512.343l.086.02v-1.914q.195.06.395.101v1.91c.664.18 1.21.457 1.21 1.395v5.453c0 1.836-.5 2.012-2.011 2.012-.781 0-1.254-.043-1.512-.074v1.367c0 1.543-.3 1.758-1.883 2.441-1.574.676-8.921 2.711-18.969 2.711-10.043 0-17.39-2.035-18.965-2.71-1.585-.684-1.886-.9-1.886-2.442v-1.367c-.254.03-.73.074-1.508.074-1.328 0-2.016-.043-2.016-2.012v-5.453c0-.938.547-1.215 1.215-1.395v-1.91q.199-.041.39-.101v1.914l.087-.02c.523-.12 1.187-.27 1.515-.343.14.09.29.195.434.316-.344.074-1.281.277-1.86.41-.609.14-1.257.215-1.37.902l.027-.011c.441.758 2.316.652 2.879.593.394-.039.828-.085 1.27-.14l-.017.09 4.266-.215s-.086-.188-.191-.406l.273-.04q.048.242.102.465c-.93.11-3.754.442-5.66.637-1.735.18-2.575-.156-2.965-.46v5.167c0 1.508.246 1.621 1.62 1.621.829 0 1.294-.05 1.509-.082v-3.797c0-.883.375-1.902 1.851-1.902 1.719 0 2.567.809 4.184 1.035.207.027.383.043.504.055q.177.234.382.445a66 66 0 0 1-.94-.113 6.8 6.8 0 0 1-1.392-.328c-1.058-.403-1.535-.703-2.738-.703-.988 0-1.347.53-1.437 1.16q.034.042.082.11c.66.82 1.754 1.363 2.734 1.652.852.25 2.566.62 4.762.984v-1.836q.187.142.39.277v1.622c2.852.457 6.434.89 9.973 1.039"></path><path fill="none" stroke="#211e1e" stroke-miterlimit="3.864" stroke-width=".012" d="M407.924 111.378c-.187-.281-.781-.945-2.211-1.11-1.781-.202-5.05-.042-6.55-.94-.778-.47-1.571-.926-2.274-1.5-2.184-1.782-2.281-4.173-2.281-6.821v-5.394h1.16v4.89c0 3.64.308 4.379 1.277 5.813.969 1.433 3.645 2.402 5.156 2.519 1.512.117 2.985.078 4.883.621 1.672.477 2.262 1.676 2.379 1.957h.86c.117-.281.71-1.48 2.378-1.957 1.903-.543 3.375-.504 4.887-.621s4.184-1.086 5.153-2.52 1.28-2.171 1.28-5.812v-4.887l1.157.004v5.387c0 2.649-.094 5.039-2.277 6.82-.707.575-1.496 1.032-2.274 1.5-1.504.899-4.77.739-6.55.942-1.434.164-2.024.828-2.216 1.109l.516-.02c3.543-.148 7.133-.581 9.985-1.038v-1.61q.2-.136.394-.277v1.824c2.192-.363 3.906-.734 4.758-.984.86-.254 2.262-.903 2.816-1.758-.085-.63-.445-1.164-1.437-1.164-1.203 0-1.676.3-2.738.703-.602.227-1.688.437-2.371.484.148-.16.285-.32.41-.488a9 9 0 0 0 .515-.055c1.618-.226 2.465-1.035 4.184-1.035 1.476 0 1.851 1.02 1.851 1.903v3.797c.215.03.68.082 1.512.082 1.375 0 1.621-.114 1.621-1.622v-5.156c-.754.582-2.285.52-2.965.45-1.996-.204-4.906-.56-5.66-.65.032-.132.059-.26.086-.394l.262.035a11 11 0 0 0-.164.352l4.262.215-.016-.086c.445.05.875.098 1.27.137.562.058 2.441.164 2.882-.594l.024.012c-.113-.688-.758-.762-1.371-.903-.656-.152-1.73-.34-1.903-.37a3.5 3.5 0 0 1 .48-.356c.325.074.99.222 1.513.344l.086.019v-1.914a5 5 0 0 0 .394.102v1.91c.664.18 1.211.457 1.211 1.394v5.453c0 1.836-.5 2.012-2.012 2.012-.781 0-1.254-.043-1.511-.074v1.367c0 1.543-.301 1.758-1.883 2.441-1.574.676-8.922 2.711-18.969 2.711-10.043 0-17.39-2.035-18.965-2.71-1.586-.684-1.887-.9-1.887-2.442v-1.367c-.254.031-.73.074-1.507.074-1.329 0-2.016-.043-2.016-2.012v-5.453c0-.937.547-1.215 1.215-1.394v-1.91a5 5 0 0 0 .39-.102v1.914l.086-.02c.524-.12 1.188-.269 1.516-.343a4 4 0 0 1 .434.316 179 179 0 0 0-1.86.41c-.61.141-1.258.215-1.371.903l.028-.012c.44.758 2.316.652 2.878.594.395-.04.829-.086 1.27-.141l-.016.09 4.266-.215s-.086-.187-.191-.406l.273-.04q.047.241.102.466c-.93.109-3.754.441-5.66.636-1.735.18-2.575-.156-2.966-.46v5.167c0 1.508.247 1.622 1.622 1.622.828 0 1.293-.051 1.507-.082v-3.797c0-.883.375-1.903 1.852-1.903 1.719 0 2.567.809 4.184 1.035.207.028.382.043.503.055q.178.235.383.445a64 64 0 0 1-.941-.113 6.8 6.8 0 0 1-1.391-.328c-1.058-.402-1.535-.703-2.738-.703-.988 0-1.348.531-1.438 1.16q.035.042.083.11c.66.82 1.753 1.363 2.734 1.652.852.25 2.567.62 4.762.984v-1.836q.187.142.39.278v1.62c2.852.458 6.434.891 9.973 1.04z"></path><path fill="#eb172b" d="M430.34 108.09c-.715.758-1.762 1.27-2.727 1.55-2.277.673-10.504 2.157-17.734 2.157-7.226 0-15.453-1.484-17.73-2.156-.8-.235-2.02-.79-2.73-1.531v5.308c0 1.324.144 1.434 1.648 2.078 1.516.653 8.809 2.684 18.812 2.684s17.297-2.031 18.812-2.684c1.508-.644 1.649-.754 1.649-2.078"></path><path fill="none" stroke="#211e1e" stroke-miterlimit="3.864" stroke-width=".012" d="M430.349 108.078c-.715.758-1.762 1.27-2.726 1.55-2.278.673-10.504 2.157-17.735 2.157-7.226 0-15.453-1.484-17.73-2.156-.801-.234-2.02-.79-2.731-1.531v5.308c0 1.324.145 1.434 1.649 2.078 1.515.653 8.808 2.684 18.812 2.684s17.297-2.031 18.813-2.684c1.507-.644 1.648-.754 1.648-2.078z"></path><path fill="#FFF" d="m390.57 112.95.121.043q-.075.563.07.879c.098.21.25.351.446.422q.293.099.468-.024a.63.63 0 0 0 .243-.304.5.5 0 0 0-.012-.387q-.055-.118-.262-.348l-.222-.246q-.335-.364-.422-.64a.9.9 0 0 1 .02-.602q.117-.345.44-.566.33-.224.786-.067.234.082.422.235.194.152.222.164.071.022.114-.012a.5.5 0 0 0 .085-.102l.125.043-.351 1.024-.117-.043a1.6 1.6 0 0 0-.09-.715.69.69 0 0 0-.43-.434q-.216-.076-.387.012c-.17.088-.187.149-.23.274q-.075.223 0 .37.081.155.402.508l.258.286c.113.125.2.253.25.375q.141.347.012.73a1.12 1.12 0 0 1-.485.582q-.361.227-.918.04a1.6 1.6 0 0 1-.25-.118 1.2 1.2 0 0 1-.23-.172l-.074-.062q-.023-.019-.051-.032a.1.1 0 0 0-.043-.023q-.064-.024-.105.012a.5.5 0 0 0-.082.105l-.125-.043"></path><path fill="#FFF" d="m394.54 111.86-.031.125q-.257-.052-.36 0-.106.06-.171.336l-.403 1.613q-.092.37-.062.586.045.41.449.508.502.128.781-.242.154-.2.254-.61l.367-1.472q.064-.26.004-.38c-.043-.077-.144-.148-.304-.202l.027-.121.957.238-.031.121q-.223-.008-.305.043-.082.048-.14.277l-.383 1.543c-.102.41-.27.707-.504.883q-.353.271-.922.125-.75-.187-.902-.75-.076-.301.023-.719l.402-1.613q.072-.27.02-.36-.042-.086-.266-.171l.031-.121"></path><path fill="#FFF" d="M395.2 115.36q.247.035.336-.047a.5.5 0 0 0 .121-.277l.406-2.317a7 7 0 0 0-.195-.34.23.23 0 0 0-.121-.078l.023-.125.934.164 1.148 2.332.024.004.257-1.457q.04-.25-.019-.367-.065-.123-.305-.187l.02-.125.949.168-.02.125a.65.65 0 0 0-.296.05q-.082.055-.121.278l-.508 2.883-.121-.02-1.477-2.96-.031-.005-.34 1.922q-.035.223 0 .328.063.167.332.227l-.02.125-1-.176"></path><path fill="#FFF" fill-rule="evenodd" d="M398.14 115.88q.168.011.25-.02c.09-.039.148-.12.164-.253l.344-2.43q.024-.188-.086-.281a.7.7 0 0 0-.238-.094l.015-.125 1.356.191q.82.114 1.183.66.329.5.223 1.243-.094.667-.55 1.078c-.348.305-.77.422-1.278.351l-1.398-.195zm1.152.047q.035.075.18.094a.81.81 0 0 0 .691-.215q.295-.275.418-1.153.076-.52-.008-.914-.136-.636-.66-.71-.175-.025-.238.05-.04.047-.062.2l-.34 2.421a.43.43 0 0 0 .02.227"></path><path fill="#FFF" d="m401.11 116.43.008-.125q.195.007.277-.04.128-.07.145-.28l.168-2.399c.012-.148-.028-.246-.11-.304q-.068-.052-.261-.075l.008-.129 2.57.18-.07 1-.11-.008q-.047-.481-.242-.676-.189-.19-.73-.226c-.137-.012-.223 0-.262.027q-.059.045-.07.184l-.078 1.148q.38.03.527-.117c.098-.098.18-.29.246-.567l.113.008-.117 1.676-.113-.008q-.018-.427-.153-.61-.135-.18-.515-.21l-.086 1.2q-.012.157.059.222.068.06.296.078c.286.02.52-.027.711-.137q.282-.165.528-.656l.12.008-.25 1.02"></path><path fill="#FFF" fill-rule="evenodd" d="M403.87 116.54c.152 0 .258-.023.313-.078q.088-.076.101-.352l.117-2.195c.008-.191-.015-.32-.078-.383q-.065-.058-.289-.093l.004-.125 1.438.074q.45.023.718.14.527.239.496.79-.018.404-.3.62a1 1 0 0 1-.446.204l.825 1.46q.033.06.074.079a.3.3 0 0 0 .101.027l-.004.121-.914-.047-.847-1.601-.118-.008-.05.972c-.008.176.011.293.058.36q.076.093.309.117l-.004.125-1.512-.078zm1.832-1.629q.2-.122.223-.59a1.3 1.3 0 0 0-.047-.46c-.074-.192-.223-.298-.442-.31q-.177-.006-.238.04-.058.048-.062.16l-.067 1.262q.44.016.633-.102"></path><path fill="#FFF" d="M406.88 116.69a.6.6 0 0 0 .262-.05q.135-.078.14-.294l.043-2.406q.002-.216-.125-.293-.071-.051-.265-.066l.004-.125 1.562.027-.004.125c-.18.004-.304.031-.363.082q-.093.072-.098.367l-.043 2.348q0 .165.075.218.076.06.304.06.404.007.68-.185c.276-.192.348-.382.488-.765l.13.004-.2 1.125-2.594-.047"></path><path fill="#FFF" fill-rule="evenodd" d="m411.29 115.66-.445-1.14h-.04l-.382 1.156zm-1.66 1.078a.33.33 0 0 0 .258-.168q.064-.093.175-.422l.946-2.738h.125l1.043 2.594c.117.289.207.476.261.562a.26.26 0 0 0 .239.117l.004.125-1.45.028-.003-.125c.144-.012.242-.028.285-.047q.071-.036.066-.164a.7.7 0 0 0-.035-.176 3 3 0 0 0-.063-.168l-.12-.3-1.005.019q-.093.299-.117.386a1 1 0 0 0-.055.282q0 .105.13.152.076.028.23.027l.004.125-.914.016"></path><path fill="#FFF" d="M412.63 116.69q.246-.023.316-.121a.5.5 0 0 0 .055-.297l-.121-2.352a6 6 0 0 0-.27-.28.24.24 0 0 0-.132-.056l-.008-.125.945-.05 1.644 2.011h.024l-.078-1.476q-.013-.25-.102-.356-.088-.1-.336-.113l-.008-.125.961-.05.008.124q-.208.051-.277.121-.066.07-.055.297l.156 2.922-.125.008-2.105-2.55h-.031l.101 1.949q.01.227.074.32.1.148.375.144l.008.125-1.011.055"></path><path fill="#FFF" fill-rule="evenodd" d="M415.62 116.54a.6.6 0 0 0 .238-.07c.086-.055.121-.149.114-.282l-.172-2.445q-.012-.194-.14-.258a.6.6 0 0 0-.255-.043l-.008-.129 1.363-.093q.825-.06 1.293.402.429.417.48 1.168c.032.45-.073.836-.32 1.168q-.41.556-1.171.61l-1.41.097zm1.137-.191q.052.065.199.054.394-.028.629-.355c.235-.327.21-.625.172-1.215a2.7 2.7 0 0 0-.203-.894q-.263-.592-.79-.555-.175.014-.222.098a.44.44 0 0 0-.02.21l.172 2.442a.5.5 0 0 0 .063.215m4.033-1.409-.582-1.078-.04.004-.237 1.195zm-1.516 1.27a.33.33 0 0 0 .235-.196c.035-.07.074-.215.125-.437l.605-2.836.121-.016 1.352 2.445q.228.417.328.528a.26.26 0 0 0 .25.09l.02.125-1.434.199-.02-.125q.219-.037.278-.078.064-.044.047-.168a.6.6 0 0 0-.059-.172 2 2 0 0 0-.082-.16l-.152-.282-.996.141q-.059.305-.075.399-.03.197-.019.285.017.103.152.136.078.013.23-.004l.016.125-.902.125"></path><path fill="#FFF" d="M422.35 115.22a.34.34 0 0 1 .242-.168.35.35 0 0 1 .285.074q.13.102.16.274.03.17-.058.312a.35.35 0 0 1-.242.168.37.37 0 0 1-.285-.074.46.46 0 0 1-.102-.586m.76.4a.6.6 0 0 0 .258-.113q.105-.101.058-.313l-.5-2.351c-.027-.141-.09-.227-.18-.258a.64.64 0 0 0-.28-.004l-.028-.125 2.48-.528.212.98-.11.024q-.177-.433-.406-.574c-.156-.094-.402-.105-.75-.031q-.194.04-.234.101-.042.059-.012.192l.238 1.125q.358-.07.442-.27.092-.197.074-.593l.113-.024.348 1.645-.114.023c-.082-.258-.183-.433-.3-.535s-.293-.129-.528-.078l.243 1.133q.045.227.18.261.129.036.37-.023l.028.125-1.575.336m2.113-1.105a.35.35 0 0 1 .234-.18.35.35 0 0 1 .29.059q.136.094.171.266a.42.42 0 0 1-.039.316.36.36 0 0 1-.234.176.35.35 0 0 1-.29-.059.43.43 0 0 1-.171-.265.43.43 0 0 1 .039-.313m2.04-3.32q.305.03.336.02a.14.14 0 0 0 .11-.106.34.34 0 0 0 .023-.164l.117-.035.32 1.117-.11.031a2.8 2.8 0 0 0-.48-.484q-.41-.3-.797-.188-.43.122-.496.59c-.039.309.008.7.141 1.164.098.34.215.614.348.813.254.375.558.511.922.406.218-.063.406-.188.554-.379q.133-.17.278-.492l.164.078q-.166.386-.313.582-.27.346-.687.465a1.53 1.53 0 0 1-1.188-.113q-.609-.329-.832-1.114-.222-.78.094-1.394.298-.573.918-.754c.18-.05.37-.067.578-.043m1.63 2.25a.34.34 0 0 1 .207-.207.34.34 0 0 1 .293.027q.148.076.207.239.061.162-.004.32a.352.352 0 0 1-.5.18.43.43 0 0 1-.207-.243.42.42 0 0 1 .004-.316"></path><path fill="#a68a26" d="M433.71 83.988s-.328-.574-.66-.715c-.328-.144-.715-.215-.762-.094-.047.118.281.575.281.575s.2-.07.48 0c.286.07.661.234.661.234"></path><path fill="none" stroke="#a68a26" stroke-miterlimit="3.864" stroke-width=".012" d="M433.699 83.978s-.328-.574-.66-.715c-.328-.144-.715-.215-.762-.093-.047.116.281.574.281.574s.2-.07.48 0c.286.07.661.234.661.234z"></path><path fill="#FFF" d="M440.14 101c.129-.281.293-.637.352-.8-.207.097-.41.152-.637.171.133.223.222.426.285.629"></path><path fill="none" stroke="#a68a26" stroke-miterlimit="3.864" stroke-width=".012" d="M440.149 101.003c.129-.281.293-.637.352-.8a1.8 1.8 0 0 1-.637.171c.133.223.223.426.285.629z"></path><path fill="#a68a26" d="M386.06 83.988s.332-.574.66-.715c.332-.144.719-.215.766-.094.047.118-.285.575-.285.575s-.196-.07-.48 0c-.282.07-.661.234-.661.234"></path><path fill="none" stroke="#211e1e" stroke-miterlimit="3.864" stroke-width=".012" d="M386.049 83.978s.332-.574.66-.715c.332-.144.719-.215.766-.093.047.116-.285.574-.285.574s-.196-.07-.48 0c-.282.07-.661.234-.661.234z"></path><path fill="#FFF" d="M379.63 101a15 15 0 0 1-.355-.8c.207.097.41.152.64.171a2.7 2.7 0 0 0-.285.629"></path><path fill="none" stroke="#a68a26" stroke-miterlimit="3.864" stroke-width=".012" d="M379.624 101.003a15 15 0 0 1-.355-.8c.207.097.41.152.64.171a2.7 2.7 0 0 0-.285.629z"></path><path fill="#eb172b" d="M412.69 109.45c-1.684.48-2.27 1.695-2.383 1.96h-.426V95.607l14.13.004v4.886c0 3.641-.313 4.38-1.282 5.813-.969 1.434-3.64 2.402-5.152 2.52s-2.985.078-4.887.62"></path><path fill="none" stroke="#eb172b" stroke-miterlimit="3.864" stroke-width=".012" d="M412.699 109.453c-1.683.48-2.27 1.695-2.383 1.961h-.426V95.609l14.13.004v4.887c0 3.64-.313 4.379-1.282 5.813-.969 1.433-3.64 2.402-5.152 2.519s-2.984.078-4.887.621z"></path><path fill="#a68a26" d="M409.88 97.855v-.227c.254-.007.645-.023.852-.066.316-.07.765-.07.87 0 .106.066.317.137.317.137s.418-.07.625-.07c.211 0 .664.14.664.14s.422-.242.703-.277c.278-.035 2.785.027 5.82.695 2.403.523 3.801 1.117 4.278 1.34v.387c-.578-.239-2.125-.836-4.356-1.375-2.87-.692-5.304-.72-5.746-.692-.445.024-.879.176-1.324.176s-.898-.098-1.336-.176c-.152-.027-.601-.02-.992-.008a10 10 0 0 0-.375.016m0 .91v-.719c.46-.023 1.078-.05 1.332-.007.45.082.914.18 1.371.18.45 0 .887-.15 1.336-.176.422-.028 2.836 0 5.688.687 2.324.563 3.898 1.188 4.402 1.398v.368q.001.253-.004.488c-.512-.266-1.95-.942-4.3-1.524-2.993-.746-5.442-.746-5.778-.796-.188-.028-.375-.106-.559-.16-.734-.215-1.418-.016-2.117.214-.094.032-.898.043-1.371.047m10.082 1.297v8.164c-.23.094-.465.176-.695.246V99.89q-.47-.11-.961-.203-.626-.11-1.153-.2v9.368c-.23.016-.46.027-.695.043v-9.52a36 36 0 0 0-2.113-.273v9.985q-.34.05-.695.125V99.039l-.372-.153s-.246.172-.488.172c-.246 0-.695-.137-.695-.137l-.352.317-.21-.02v10.758c-.29.196-.516.41-.692.61V99.188c-.129 0-.25 0-.356.011a10 10 0 0 0-.605.07v-.308c.496 0 1.29-.008 1.434-.055.418-.14.836-.261 1.277-.3.57-.047.828.18 1.308.254.336.05 2.774.05 5.758.789 2.489.62 3.942 1.34 4.348 1.558l.01.57c-.23-.11-.656-.308-1.223-.539v5.242l-.047.063c-.168.25-.39.488-.648.71v-6.28a24 24 0 0 0-2.117-.676"></path><path fill="none" stroke="#a68a26" stroke-miterlimit="3.864" stroke-width=".012" d="M409.874 97.853v-.226c.254-.008.645-.024.852-.067.316-.07.765-.07.87 0 .106.067.317.137.317.137s.418-.07.625-.07c.211 0 .664.14.664.14s.422-.242.703-.277c.278-.035 2.785.027 5.82.695 2.403.524 3.801 1.117 4.278 1.34v.387c-.578-.239-2.125-.836-4.356-1.376-2.87-.69-5.305-.718-5.746-.69-.445.023-.879.175-1.324.175s-.899-.097-1.336-.176c-.152-.027-.602-.02-.992-.007-.133.004-.262.007-.375.015z"></path><path fill="none" stroke="#a68a26" stroke-miterlimit="3.864" stroke-width=".012" d="M409.874 98.753v-.719c.461-.023 1.078-.05 1.332-.007.45.082.914.18 1.371.18.45 0 .887-.15 1.336-.176.422-.028 2.836 0 5.688.687 2.324.563 3.898 1.188 4.402 1.398v.368q.001.253-.004.488c-.512-.266-1.95-.941-4.301-1.523-2.992-.747-5.441-.747-5.777-.797-.188-.028-.375-.106-.559-.16-.734-.215-1.418-.016-2.117.214-.094.032-.898.043-1.371.047z"></path><path fill="none" stroke="#a68a26" stroke-miterlimit="3.864" stroke-width=".012" d="M419.974 100.053v8.164a8 8 0 0 1-.695.246v-8.582a22 22 0 0 0-.961-.203q-.626-.11-1.153-.2v9.368q-.344.02-.695.043v-9.52a36 36 0 0 0-2.113-.273v9.984a13 13 0 0 0-.695.125V99.03l-.372-.153s-.246.172-.488.172c-.246 0-.695-.136-.695-.136l-.352.316-.21-.02v10.758a3.7 3.7 0 0 0-.692.61V99.178c-.129 0-.25 0-.355.012a10 10 0 0 0-.606.07v-.309c.496 0 1.289-.007 1.434-.054.418-.14.836-.262 1.277-.3.57-.048.828.179 1.309.253.336.05 2.773.05 5.757.789 2.489.621 3.942 1.34 4.348 1.559l-.008.336a23 23 0 0 0-1.222-.54v5.243l-.047.063c-.168.25-.391.487-.649.71v-6.281a24 24 0 0 0-2.117-.676z"></path><path fill="#eb172b" d="M401.53 108.73a9.8 9.8 0 0 1-2.773-.996v-12.13h2.773zm5.598.73-.051-.015a14 14 0 0 0-2.723-.485V95.605l2.774-.003"></path><path fill="none" stroke="#eb172b" stroke-miterlimit="3.864" stroke-width=".012" d="M401.524 108.728a9.8 9.8 0 0 1-2.773-.996V95.603h2.773zm5.6.725-.05-.015a13.8 13.8 0 0 0-2.723-.485V95.598l2.773-.004z"></path><path fill="#a68a26" d="M395.95 107.49c-.3-.035-.707-.082-.941-.113a6.8 6.8 0 0 1-1.391-.328c-1.059-.403-1.535-.704-2.738-.704-.989 0-1.348.532-1.438 1.16q.036.044.082.11c.66.82 1.754 1.363 2.735 1.652.851.25 2.566.622 4.761.985v-1.836s-.3-.219-.605-.516c-.301-.3-.465-.41-.465-.41"></path><path fill="none" stroke="#a68a26" stroke-miterlimit="3.864" stroke-width=".012" d="M395.949 107.478c-.3-.035-.707-.082-.941-.113a6.8 6.8 0 0 1-1.391-.328c-1.058-.403-1.535-.703-2.738-.703-.988 0-1.348.53-1.438 1.16.024.027.051.066.082.109.66.82 1.754 1.363 2.735 1.653.851.25 2.566.62 4.762.984v-1.836s-.301-.219-.606-.516c-.3-.3-.465-.41-.465-.41z"></path><path fill="#a68a26" fill-rule="evenodd" d="M390.13 104.65a1.7 1.7 0 0 0-.32-.797 6.4 6.4 0 0 0-.664-.73c-.344.074-1.282.277-1.86.41-.61.14-1.258.215-1.37.902l.026-.012c.442.758 2.317.653 2.88.594a56 56 0 0 0 1.269-.14s.047-.141.039-.227"></path><path fill="none" stroke="#a68a26" stroke-miterlimit="3.864" stroke-width=".012" d="M390.124 104.653a1.7 1.7 0 0 0-.32-.797 6.3 6.3 0 0 0-.664-.73 179 179 0 0 0-1.86.41c-.609.14-1.257.215-1.37.902l.027-.011c.441.757 2.316.652 2.879.593.394-.039.828-.086 1.269-.14 0 0 .047-.141.039-.227z"></path><path fill="#eb172b" fill-rule="evenodd" d="m387.12 101.25-.004.605v1.31l.086-.02c.523-.122 1.187-.27 1.515-.344 0 0-.347-.176-.496-.215-.148-.043-.367-.04-.367-.04l.242-.53s-.367.02-.601-.004c-.235-.024-.383-.153-.383-.153s.34-.18.547-.41c.203-.226.289-.562.289-.562s-.219.148-.406.218-.422.145-.422.145"></path><path fill="none" stroke="#eb172b" stroke-miterlimit="3.864" stroke-width=".012" d="m387.124 101.253-.004.606v1.308l.086-.02c.523-.12 1.188-.269 1.516-.343 0 0-.348-.176-.496-.215-.149-.043-.368-.039-.368-.039l.242-.531s-.367.02-.601-.004-.383-.153-.383-.153.34-.18.547-.41c.203-.226.289-.562.289-.562s-.219.148-.406.219a10 10 0 0 1-.422.144z"></path><path fill="#a68a26" d="M423.81 107.49c.305-.035.707-.082.941-.113a6.7 6.7 0 0 0 1.391-.328c1.063-.403 1.535-.704 2.738-.704.993 0 1.352.532 1.438 1.16q-.03.044-.082.11c-.656.82-1.754 1.363-2.735 1.652-.851.25-2.566.622-4.757.985v-1.836s.296-.219.601-.516c.305-.3.465-.41.465-.41"></path><path fill="none" stroke="#a68a26" stroke-miterlimit="3.864" stroke-width=".012" d="M423.824 107.478c.305-.035.707-.082.942-.113a6.7 6.7 0 0 0 1.39-.328c1.063-.403 1.535-.703 2.738-.703.992 0 1.352.53 1.438 1.16-.02.027-.047.066-.082.109-.656.82-1.754 1.363-2.735 1.653-.851.25-2.566.62-4.758.984v-1.836s.297-.219.602-.516c.305-.3.465-.41.465-.41z"></path><path fill="#a68a26" fill-rule="evenodd" d="M429.63 104.65c.008-.086.066-.445.32-.797.258-.351.664-.73.664-.73.344.074 1.282.277 1.86.41.613.14 1.258.215 1.37.902l-.023-.012c-.44.758-2.32.653-2.882.594a58 58 0 0 1-1.27-.14s-.043-.141-.039-.227"></path><path fill="none" stroke="#a68a26" stroke-miterlimit="3.864" stroke-width=".012" d="M429.624 104.653c.008-.086.067-.445.32-.797.258-.351.664-.73.664-.73.344.074 1.282.277 1.86.41.613.14 1.258.215 1.37.902l-.023-.011c-.441.757-2.32.652-2.882.593-.395-.039-.824-.086-1.27-.14 0 0-.043-.141-.039-.227z"></path><path fill="#eb172b" fill-rule="evenodd" d="M432.65 101.25v1.914l-.086-.02c-.523-.12-1.187-.269-1.512-.343 0 0 .348-.176.496-.215.145-.043.364-.04.364-.04l-.239-.53s.368.02.602-.004.383-.153.383-.153-.344-.18-.547-.41c-.207-.226-.293-.562-.293-.562s.223.148.41.218c.188.07.422.145.422.145"></path><path fill="none" stroke="#eb172b" stroke-miterlimit="3.864" stroke-width=".012" d="M432.649 101.253v1.914l-.086-.02c-.523-.12-1.187-.269-1.512-.343 0 0 .348-.176.496-.215.145-.043.364-.039.364-.039l-.239-.531s.368.02.602-.004.383-.153.383-.153-.344-.18-.547-.41a1.5 1.5 0 0 1-.293-.562s.222.148.41.219c.188.07.422.144.422.144z"></path><path fill="#eb172b" d="M424.8 105.98c-.32.691-.621 1.063-.621 1.063.121-.009.3-.028.516-.055 1.617-.227 2.464-1.035 4.183-1.035 1.477 0 1.852 1.02 1.852 1.902v3.797c.215.031.68.082 1.511.082 1.375 0 1.622-.113 1.622-1.621v-5.157c-.754.583-2.286.52-2.965.45-1.996-.203-4.906-.559-5.66-.649 0 0-.114.528-.438 1.223"></path><path fill="none" stroke="#211e1e" stroke-miterlimit="3.864" stroke-width=".012" d="M424.799 105.978c-.32.692-.621 1.063-.621 1.063.121-.008.3-.028.516-.055 1.617-.227 2.465-1.035 4.183-1.035 1.477 0 1.852 1.02 1.852 1.902v3.797c.215.031.68.082 1.511.082 1.375 0 1.621-.113 1.621-1.621v-5.156c-.754.582-2.285.52-2.965.449-1.996-.203-4.906-.559-5.66-.648 0 0-.113.527-.437 1.222z"></path><path fill="#eb172b" d="M394.96 105.98c.324.691.621 1.063.621 1.063a9 9 0 0 1-.516-.055c-1.617-.227-2.464-1.035-4.183-1.035-1.477 0-1.852 1.02-1.852 1.902v3.797c-.215.031-.68.082-1.508.082-1.375 0-1.62-.113-1.62-1.621v-5.157c.75.583 2.28.52 2.964.45 1.996-.203 4.906-.559 5.66-.649 0 0 .114.528.434 1.223"></path><path fill="none" stroke="#211e1e" stroke-miterlimit="3.864" stroke-width=".012" d="M394.974 105.978c.324.692.621 1.063.621 1.063a9 9 0 0 1-.515-.055c-1.618-.227-2.465-1.035-4.184-1.035-1.476 0-1.851 1.02-1.851 1.902v3.797c-.215.031-.68.082-1.508.082-1.375 0-1.621-.113-1.621-1.621v-5.156c.75.582 2.28.52 2.964.449 1.996-.203 4.907-.559 5.66-.648 0 0 .114.527.434 1.222z"></path><path fill="#eb172b" d="M395.76 89.633v-7.562c0-.516-.29-1.376-.547-1.891-.258-.512-.668-1.098-.668-1.098h15.344l.04 13.75h-.923v-6.574h-1.855v6.574h-2.149v-6.574h-1.855v6.574h-2.145v-6.574h-1.855v6.574h-3.18v-1.355l-.218-.742"></path><path fill="none" stroke="#eb172b" stroke-miterlimit="3.864" stroke-width=".012" d="M395.749 89.628v-7.562c0-.516-.289-1.375-.547-1.891-.258-.512-.668-1.098-.668-1.098h15.344l.039 13.75h-.922v-6.574h-1.855v6.574h-2.149v-6.574h-1.855v6.574h-2.145v-6.574h-1.855v6.574h-3.18v-1.355l-.219-.742z"></path><path fill="#a68a26" stroke="#a68a26" stroke-miterlimit="3.864" stroke-width=".012" d="M397.799 86.028h12.098v-.465h-12.098z"></path><path fill="#a68a26" d="M409.88 84.867v.465h-12.098l8.32-3.074 3.778 1.43"></path><path fill="none" stroke="#a68a26" stroke-miterlimit="3.864" stroke-width=".012" d="M409.874 84.878v.465h-12.098l8.32-3.074 3.778 1.43z"></path><path fill="#d1bf7f" d="M402.98 87.875a4.1 4.1 0 0 1-1.82.762V86.19h1.82zm-6.535-3.285a4.092 4.092 0 0 1 7.765-1.809l-7.343 2.711h.75v.7h1.359v2.183a4.09 4.09 0 0 1-2.531-3.785"></path><path fill="none" stroke="#d1bf7f" stroke-miterlimit="3.864" stroke-width=".012" d="M402.974 87.878a4.1 4.1 0 0 1-1.82.762v-2.445h1.82zm-6.525-3.3a4.09 4.09 0 0 1 4.09-4.094 4.09 4.09 0 0 1 3.676 2.285l-7.344 2.712h.75v.699h1.36v2.183a4.09 4.09 0 0 1-2.532-3.785z"></path><path fill="#FFF" d="M394.2 90.43v-3.742a.1.1 0 0 0-.055.05c-.187.352-.406.438-.511.864-.024.086-.055.277-.055.277-.567.133-.887.43-1.285.836l-.04.043.696.32c-.777.168-1.098.102-1.262.914-.027.133-.066.461-.066.461-.285-.086-.653-.195-.926-.027.875.305 2.25.965 3.117 1.082q-.001-.013.004-.031c.086-.5.18-.805.383-1.047"></path><path fill="none" stroke="#a68a26" stroke-miterlimit="3.864" stroke-width=".012" d="M394.199 90.428v-3.742a.1.1 0 0 0-.055.05c-.187.352-.406.438-.512.864a4 4 0 0 0-.054.277c-.566.133-.887.43-1.285.836l-.04.043.696.32c-.778.168-1.098.102-1.262.915-.027.132-.066.46-.066.46-.285-.085-.653-.195-.926-.027.875.305 2.25.965 3.117 1.082q-.001-.013.004-.031c.086-.5.18-.805.383-1.047z"></path><path fill="#FFF" d="M425.56 86.688v3.742c.207.242.297.547.387 1.047v.031c.87-.117 2.242-.777 3.12-1.082-.273-.168-.644-.058-.929.028 0 0-.035-.328-.062-.461-.168-.813-.485-.746-1.266-.914l.7-.32-.044-.044c-.398-.406-.718-.703-1.28-.836 0 0-.036-.19-.056-.277-.105-.426-.328-.512-.511-.863a.14.14 0 0 0-.059-.05"></path><path fill="none" stroke="#a68a26" stroke-miterlimit="3.864" stroke-width=".012" d="M425.574 86.678v3.742c.207.242.297.547.387 1.047v.031c.87-.117 2.242-.777 3.12-1.082-.273-.168-.644-.058-.929.028 0 0-.035-.328-.062-.461-.168-.813-.485-.746-1.266-.914l.699-.32-.043-.043c-.398-.407-.719-.704-1.281-.837 0 0-.035-.191-.055-.277-.105-.426-.328-.511-.512-.863a.15.15 0 0 0-.058-.051z"></path><path fill="#211e1e" d="M409.89 79.082h-15.344s.41.586.668 1.098c.258.515.547 1.375.547 1.89v7.563s-.242.047-.617.207-.543.293-.543.293V82.82c0-2.062-1.266-3.468-2.696-4.765h35.961c-1.43 1.297-2.691 2.703-2.691 4.765v7.313s-.172-.133-.543-.293c-.375-.16-.617-.207-.617-.207V82.07c0-.515.289-1.375.543-1.89.258-.512.668-1.098.668-1.098"></path><path fill="none" stroke="#211e1e" stroke-miterlimit="3.864" stroke-width=".012" d="M409.899 79.078h-15.344s.41.586.668 1.097c.258.516.547 1.375.547 1.891v7.563s-.242.047-.617.207-.543.293-.543.293v-7.313c0-2.062-1.266-3.469-2.695-4.765h35.96c-1.43 1.297-2.692 2.703-2.692 4.765v7.313s-.172-.133-.543-.293c-.375-.16-.617-.207-.617-.207v-7.563c0-.515.289-1.375.543-1.89.258-.512.668-1.098.668-1.098z"></path><path fill="#FFF" d="M423.81 92.832v-1.355l.215-.743v-1.113l-.012-2.473V82.07c0-.515.29-1.375.543-1.89.258-.512.668-1.098.668-1.098h-15.336v13.75"></path><path fill="none" stroke="#FFF" stroke-miterlimit="3.864" stroke-width=".012" d="M423.799 92.828v-1.355l.215-.743v-1.113l-.012-2.472v-5.079c0-.515.29-1.375.543-1.89.258-.512.668-1.098.668-1.098h-15.336v13.75z"></path><path fill="#eb172b" stroke="#eb172b" stroke-miterlimit="3.864" stroke-width=".012" d="M418.399 92.828h2.774V79.066h-2.774zm-5.6 0h2.774V79.066h-2.774z"></path><path fill="#a68a26" d="M425.7 76.469v-.113c-.36-.625-3.555-1.086-3.95-1.156-.359-.06-1.01-.172-1.902-.297v1.714c.391-.226 1.008-.246 1.348-.246.57 0 1.758.403 2.406.567.254.062.438.097.535.097.422 0 1.598.063 1.598-.566"></path><path fill="none" stroke="#211e1e" stroke-miterlimit="3.864" stroke-width=".012" d="M425.699 76.478v-.113c-.36-.625-3.555-1.086-3.95-1.156-.359-.06-1.011-.172-1.902-.297v1.715c.391-.227 1.008-.247 1.348-.247.57 0 1.758.403 2.406.567.254.062.438.097.535.097.422 0 1.598.063 1.598-.566z"></path><path fill="#eb172b" d="M426.03 75.172v1.125a.4.4 0 0 1 .035.172c0 .933-1.293.894-1.926.894-.328 0-1.125-.246-1.457-.34-.609-.167-1.195-.324-1.484-.324-.305 0-1.379.012-1.379.5 0 .567 1.805.618 2.129.618 1.113 0 3.57-.301 4.383-.301.297 0 1.48-.07 2.097.195v-1.86c0-.28-.03-.702-.386-.722-.332-.02-.664.043-.996.043"></path><path fill="none" stroke="#211e1e" stroke-miterlimit="3.864" stroke-width=".012" d="M426.024 75.178v1.125a.4.4 0 0 1 .035.172c0 .934-1.293.895-1.926.895-.328 0-1.125-.247-1.457-.34-.609-.169-1.195-.325-1.484-.325-.305 0-1.379.012-1.379.5 0 .567 1.805.618 2.129.618 1.113 0 3.57-.301 4.383-.301.297 0 1.48-.07 2.098.195v-1.86c0-.28-.032-.703-.387-.722-.332-.02-.664.043-.996.043z"></path><path fill="#eb172b" d="M393.73 76.297v-1.125h-1.016c-.156 0-1-.09-1.14-.02-.11.055-.238.25-.238.7v1.86a1 1 0 0 1 .105-.052c.426-.168 1.52-.144 1.988-.144.813 0 3.274.3 4.387.3.324 0 2.129-.05 2.129-.617 0-.488-1.078-.5-1.383-.5-.516 0-1.715.403-2.328.555-.242.063-.469.11-.613.11-.633 0-1.922.038-1.922-.895q.001-.089.031-.172"></path><path fill="none" stroke="#211e1e" stroke-miterlimit="3.864" stroke-width=".012" d="M393.724 76.303v-1.125h-1.015c-.157 0-1-.09-1.141-.02-.11.055-.238.25-.238.7v1.859a1 1 0 0 1 .105-.05c.426-.169 1.52-.145 1.988-.145.813 0 3.274.3 4.387.3.324 0 2.129-.05 2.129-.617 0-.488-1.078-.5-1.383-.5-.515 0-1.715.403-2.328.555-.242.063-.469.11-.613.11-.633 0-1.922.039-1.922-.895q.001-.089.031-.172z"></path><path fill="#a68a26" d="M394.06 76.355v.113h-.031c0 .63 1.176.567 1.594.567.277 0 1.09-.246 1.37-.325.587-.164 1.227-.34 1.571-.34s.957.02 1.348.247v-1.715c-.887.125-1.543.238-1.903.297-.394.07-3.586.531-3.949 1.156"></path><path fill="none" stroke="#211e1e" stroke-miterlimit="3.864" stroke-width=".012" d="M394.074 76.353v.113h-.031c0 .63 1.176.567 1.594.567.277 0 1.09-.246 1.37-.324.586-.164 1.227-.34 1.571-.34s.957.02 1.348.246V74.9c-.887.125-1.543.238-1.903.297-.394.07-3.586.531-3.949 1.156z"></path><path fill="#eb172b" d="M425.7 75.926v-2.363c0-.274-1.523-.653-1.7-.688-.741-.168-2.183-.465-4.5-.746-2.32-.282-4.82-.63-9.62-.63-4.792 0-7.296.348-9.616.629-.645.078-5.196.64-6.09 1.3-.102.079-.113.122-.113.134v2.363c.937-.664 3.418-.965 3.894-1.047a73 73 0 0 1 11.926-1.016c5.832 0 10.68.801 11.926 1.016.477.082 2.957.383 3.895 1.047"></path><path fill="none" stroke="#211e1e" stroke-miterlimit="3.864" stroke-width=".012" d="M425.699 75.928v-2.363c0-.274-1.523-.653-1.7-.688-.742-.168-2.183-.465-4.5-.746-2.32-.281-4.824-.629-9.62-.629-4.793 0-7.297.348-9.617.629-.645.078-5.195.64-6.09 1.301-.102.078-.113.121-.113.133v2.363c.937-.664 3.418-.965 3.894-1.047 1.25-.215 6.094-1.016 11.926-1.016s10.68.801 11.926 1.016c.476.082 2.957.383 3.894 1.047z"></path><path fill="#eb172b" d="M392.68 79.383c-.2-.231-.36-.383-.36-.383l-.066 1.047.765-.277s-.133-.16-.34-.387"></path><path fill="none" stroke="#211e1e" stroke-miterlimit="3.864" stroke-width=".012" d="M392.674 79.378a11 11 0 0 0-.36-.383l-.066 1.047.766-.277s-.133-.16-.34-.387z"></path><path fill="#eb172b" d="M427.09 79.383c.2-.231.36-.383.36-.383l.066 1.047-.765-.277s.133-.16.34-.387"></path><path fill="none" stroke="#211e1e" stroke-miterlimit="3.864" stroke-width=".012" d="M427.099 79.378a8 8 0 0 1 .36-.383l.066 1.047-.766-.277s.133-.16.34-.387z"></path><path fill="#eb172b" d="m417.91 77.652.352-.156c.535-.25.902-.477 1.308-.906l.008-.11c-.523.453-1.219.7-1.914.7-1.32 0-1.863-.641-2.21-1.395a1 1 0 0 1-.095-.277 1 1 0 0 0-.187.578c.012.554.34 1.183.766 1.566"></path><path fill="none" stroke="#eb172b" stroke-miterlimit="3.864" stroke-width=".012" d="m417.924 77.653.352-.156c.535-.25.902-.477 1.308-.906l.008-.11c-.523.453-1.219.7-1.914.7-1.32 0-1.863-.641-2.211-1.395a1 1 0 0 1-.094-.278 1 1 0 0 0-.187.579c.012.555.34 1.183.765 1.566z"></path><path fill="#eb172b" d="m401.86 77.652-.352-.156c-.535-.25-.906-.477-1.308-.906l-.012-.11c.524.453 1.223.7 1.914.7 1.32 0 1.867-.641 2.215-1.395q.059-.13.094-.277a1 1 0 0 1 .187.578c-.011.554-.344 1.183-.765 1.566"></path><path fill="none" stroke="#eb172b" stroke-miterlimit="3.864" stroke-width=".012" d="M401.849 77.653c-.05-.023-.187-.082-.351-.156-.535-.25-.907-.477-1.31-.906l-.011-.11c.524.453 1.223.7 1.914.7 1.32 0 1.867-.641 2.215-1.395q.058-.13.094-.278a1 1 0 0 1 .187.579c-.011.555-.343 1.183-.765 1.566z"></path><path fill="#FFF" d="M403.69 67.246q.072-.024.148-.047c.122-.125.524-.48 1.32-.594a3.2 3.2 0 0 1 1.15.043c.605.137.757.25 1.276.207a11 11 0 0 1-.644-.328c-.223-.12-.707-.398-.942-.449-.988-.215-2.144.059-2.308 1.168"></path><path fill="none" stroke="#211e1e" stroke-miterlimit="3.864" stroke-width=".012" d="m403.699 67.253.149-.047c.12-.125.523-.48 1.32-.593.48-.067.851-.024 1.148.042.606.137.758.25 1.278.208-.2-.09-.426-.211-.645-.329-.222-.12-.707-.398-.941-.449-.989-.215-2.145.059-2.309 1.168z"></path><path fill="#eb172b" d="M403.02 71.48a2.5 2.5 0 0 0-1.687-.559c-.387.028-.79.118-1.133.305.468.031.957.145 1.28.371l.063.047c.465-.055.954-.113 1.477-.164"></path><path fill="none" stroke="#211e1e" stroke-miterlimit="3.864" stroke-width=".012" d="M403.024 71.478a2.5 2.5 0 0 0-1.687-.558c-.387.027-.79.117-1.133.304.469.031.957.145 1.281.371l.063.047c.465-.054.953-.113 1.476-.164z"></path><path fill="#FFF" d="M399.97 71.375a1.6 1.6 0 0 0-.437.516q.332-.044.695-.086l1.055-.13c-.247-.136-.512-.202-.805-.25a3.4 3.4 0 0 0-.508-.05"></path><path fill="none" stroke="#211e1e" stroke-miterlimit="3.864" stroke-width=".012" d="M399.974 71.378a1.6 1.6 0 0 0-.437.516q.332-.044.695-.086l1.055-.13c-.246-.136-.512-.202-.805-.25a3.4 3.4 0 0 0-.508-.05z"></path><path fill="#FFF" d="M399.33 71.918a1.6 1.6 0 0 1 .371-.531c-.453.035-.883.203-1.07.633.222-.036.457-.067.699-.102"></path><path fill="none" stroke="#211e1e" stroke-miterlimit="3.864" stroke-width=".012" d="M399.324 71.928a1.7 1.7 0 0 1 .371-.531c-.453.035-.882.203-1.07.632q.335-.05.699-.101z"></path><path fill="#FFF" d="M421.13 72.016c-.187-.426-.617-.594-1.066-.629.21.207.32.414.367.531z"></path><path fill="none" stroke="#211e1e" stroke-miterlimit="3.864" stroke-width=".012" d="M421.124 72.003c-.187-.426-.617-.594-1.066-.629.21.207.32.414.367.531q.317.044.699.098z"></path><path fill="#FFF" d="M420.23 71.891a1.5 1.5 0 0 0-.437-.516 3.4 3.4 0 0 0-.508.051c-.29.047-.559.113-.805.25l1.059.13c.132.015.375.046.691.085"></path><path fill="none" stroke="#211e1e" stroke-miterlimit="3.864" stroke-width=".012" d="M420.224 71.878a1.5 1.5 0 0 0-.437-.516 3.5 3.5 0 0 0-.508.051c-.29.047-.559.114-.805.25l1.059.129z"></path><path fill="#eb172b" d="m418.22 71.645.063-.047c.328-.226.816-.34 1.28-.371-.34-.187-.745-.277-1.128-.305-.563-.035-1.238.172-1.688.559.52.05 1.008.11 1.473.164"></path><path fill="none" stroke="#211e1e" stroke-miterlimit="3.864" stroke-width=".012" d="m418.224 71.653.063-.047c.328-.226.816-.34 1.28-.371-.34-.187-.745-.277-1.128-.305-.563-.035-1.238.172-1.688.559.52.05 1.008.11 1.473.164z"></path><path fill="#FFF" d="M403.09 74.527a74 74 0 0 0-2.848.332V76.3c.461.461 1.246.707 1.86.707 1.238 0 1.73-.585 2.058-1.293.059-.125.094-.25.114-.382-.426-.473-1.118-.754-1.133-.762a.07.07 0 0 1-.05-.043"></path><path fill="none" stroke="#211e1e" stroke-miterlimit="3.864" stroke-width=".012" d="M403.099 74.528a74 74 0 0 0-2.848.332v1.442c.461.46 1.246.707 1.86.707 1.238 0 1.73-.586 2.058-1.293.059-.125.094-.25.114-.383-.426-.473-1.118-.754-1.133-.762a.07.07 0 0 1-.051-.043z"></path><path fill="#eb172b" d="m404.08 74.434-.687.066a3.4 3.4 0 0 1 .886.602 1.4 1.4 0 0 0-.144-.566c-.024-.055-.047-.086-.051-.098"></path><path fill="none" stroke="#eb172b" stroke-miterlimit="3.864" stroke-width=".012" d="M404.074 74.428c-.23.024-.461.043-.687.067.297.14.625.347.886.601a1.4 1.4 0 0 0-.144-.566c-.024-.055-.047-.086-.051-.098z"></path><path fill="#FFF" d="m404.88 74.375-.605.047c.14.25.195.558.171.855.149.18.258.375.301.586"></path><path fill="none" stroke="#211e1e" stroke-miterlimit="3.864" stroke-width=".012" d="m404.874 74.378-.605.047c.14.25.195.559.172.855.148.18.257.375.3.586z"></path><path fill="#FFF" d="M416.68 74.527a.07.07 0 0 1-.047.043c-.015.008-.707.289-1.133.762q.026.197.11.383c.328.707.82 1.292 2.058 1.292.614 0 1.403-.246 1.86-.707v-1.44c-.8-.11-1.76-.228-2.85-.334"></path><path fill="none" stroke="#211e1e" stroke-miterlimit="3.864" stroke-width=".012" d="M416.674 74.528a.08.08 0 0 1-.047.043c-.015.008-.707.289-1.133.762a1.3 1.3 0 0 0 .11.383c.328.707.82 1.293 2.058 1.293.614 0 1.403-.247 1.86-.707V74.86a72 72 0 0 0-2.848-.332z"></path><path fill="#eb172b" d="M415.68 74.438a1.45 1.45 0 0 0-.2.664c.262-.254.595-.46.887-.601a32 32 0 0 0-.687-.063"></path><path fill="none" stroke="#eb172b" stroke-miterlimit="3.864" stroke-width=".012" d="M415.674 74.428a1 1 0 0 0-.055.098 1.45 1.45 0 0 0-.144.566c.262-.254.594-.46.887-.601a31 31 0 0 0-.688-.063z"></path><path fill="#FFF" d="M415.07 75.691a1.4 1.4 0 0 1 .25-.414 1.5 1.5 0 0 1 .168-.856q-.264-.022-.535-.039"></path><path fill="none" stroke="#211e1e" stroke-miterlimit="3.864" stroke-width=".012" d="M415.074 75.678a1.4 1.4 0 0 1 .25-.414 1.5 1.5 0 0 1 .168-.855 23 23 0 0 0-.535-.04z"></path><path fill="#eb172b" d="M411.71 65.543h-.047c-.383 0-.867.16-.867.688 0 .363.277.539.601.585-.093-.093-.136-.234-.148-.453-.012-.297.195-.578.461-.82"></path><path fill="none" stroke="#211e1e" stroke-miterlimit="3.864" stroke-width=".012" d="M411.699 65.553h-.047c-.383 0-.867.16-.867.688 0 .363.277.538.602.585-.094-.093-.137-.234-.149-.453-.012-.297.196-.578.461-.82z"></path><path fill="#eb172b" d="M410.25 60.605c.406.781.043 1.594.07 2.41.016.54.547.969.918 1.02.387.054 1.043-.168 1.438-.254l.11-.024c-.204-.168-.657-.175-.884-.144-.332.043-.55.086-.879-.078-.492-.25-.543-.813-.507-1.203.035-.387.035-.997-.051-1.329a1.1 1.1 0 0 0-.215-.398"></path><path fill="none" stroke="#211e1e" stroke-miterlimit="3.864" stroke-width=".012" d="M410.249 60.603c.406.781.043 1.594.07 2.41.016.54.547.969.918 1.02.387.055 1.043-.168 1.438-.254l.11-.024c-.204-.168-.657-.175-.884-.144-.332.043-.55.086-.878-.078-.493-.25-.543-.813-.508-1.203.035-.387.035-.996-.051-1.328a1.1 1.1 0 0 0-.215-.399z"></path><path fill="#FFF" d="M412.2 65.367c.27-.016.531-.07.781-.219.426-.258.543-.742.39-1.004-.097-.164-.171-.234-.312-.242.078.254.133.653-.082.899-.203.238-.515.382-.777.566"></path><path fill="none" stroke="#211e1e" stroke-miterlimit="3.864" stroke-width=".012" d="M412.199 65.378c.27-.015.531-.07.781-.219.426-.257.543-.742.391-1.004-.098-.164-.172-.234-.312-.242.078.254.132.653-.083.899-.203.238-.515.383-.777.566z"></path><path fill="#eb172b" d="M411.64 68.23c.063-.227.285-.367.504-.445.574-.196 1.68-.114 3.043.199 1.355.316 2.016.777 2.18 1.05.183.301.324.637.347.919.364-.524.305-.828.07-1.336-.203-.446-.788-.871-1.578-1.149-.035.012-.085 0-.105-.039-.059-.015-.113-.035-.176-.05-.031.011-.066.003-.093-.032a7 7 0 0 0-.516-.113 6.3 6.3 0 0 0-2.899.145c-.66.195-.94.636-.968.761.062.04.125.067.191.09"></path><path fill="none" stroke="#211e1e" stroke-miterlimit="3.864" stroke-width=".012" d="M411.649 68.228c.063-.226.285-.367.504-.445.574-.195 1.68-.113 3.043.199 1.356.316 2.015.777 2.18 1.05.183.302.324.638.347.919.364-.524.305-.828.07-1.336-.202-.445-.788-.871-1.577-1.149-.035.012-.086 0-.106-.039-.058-.015-.113-.035-.176-.05-.031.011-.066.004-.093-.032a7 7 0 0 0-.516-.113 6.3 6.3 0 0 0-2.899.145c-.66.195-.941.636-.968.761a1 1 0 0 0 .191.09z"></path><path fill="#FFF" d="M415.69 71.387a5.5 5.5 0 0 0 1.21-.61c-.07-.011-.16-.027-.26-.038-.704-.086-1.59-.059-2.266.168q.075.193.14.394.62.04 1.176.086"></path><path fill="none" stroke="#211e1e" stroke-miterlimit="3.864" stroke-width=".012" d="M415.699 71.378a5.5 5.5 0 0 0 1.211-.61c-.07-.011-.16-.027-.262-.038-.703-.086-1.59-.059-2.266.168q.076.194.141.394.62.04 1.176.086z"></path><path fill="#FFF" d="M411.81 66.98c-.445.066-1.191-.055-1.191-.75 0-.687.648-.855 1.039-.855h.246c.195-.149.394-.278.554-.38.157-.1.293-.199.387-.304.16-.188.117-.54.035-.777-.05.007-.11.02-.175.03-.43.095-1.067.317-1.497.259-.437-.059-1.046-.543-1.066-1.184-.016-.586.148-1.23.129-1.727a1.6 1.6 0 0 0-.168-.597v7.215c.406.02.805.086 1.18.199.047-.207.382-.688 1.086-.895a6.5 6.5 0 0 1 3.175-.11c-.574-.37-1.425-.433-2.047-.292-.75.172-.824.3-1.687.168"></path><path fill="none" stroke="#211e1e" stroke-miterlimit="3.864" stroke-width=".012" d="M411.824 66.978c-.445.067-1.191-.055-1.191-.75 0-.687.648-.855 1.039-.855h.246c.195-.149.394-.278.554-.38a2 2 0 0 0 .387-.304c.16-.187.117-.54.035-.777q-.075.012-.176.03c-.43.095-1.066.317-1.496.259-.437-.059-1.046-.543-1.066-1.184-.015-.586.149-1.23.129-1.726a1.6 1.6 0 0 0-.168-.598v7.215a5 5 0 0 1 1.18.199c.047-.207.382-.688 1.086-.895a6.5 6.5 0 0 1 3.176-.109c-.575-.371-1.426-.434-2.047-.293-.75.172-.825.3-1.688.168z"></path><path fill="#FFF" d="M416.08 67.246c-.164-1.11-1.324-1.383-2.309-1.168-.238.05-.722.328-.941.45-.219.116-.45.237-.648.327.52.043.675-.07 1.277-.207a3.2 3.2 0 0 1 1.152-.043c.797.114 1.2.47 1.317.594z"></path><path fill="none" stroke="#211e1e" stroke-miterlimit="3.864" stroke-width=".012" d="M416.074 67.253c-.164-1.11-1.324-1.383-2.308-1.168-.239.05-.723.328-.942.45-.219.117-.45.238-.648.327.519.043.675-.07 1.277-.207.297-.066.672-.109 1.152-.042.797.113 1.2.468 1.317.593z"></path><path fill="#eb172b" d="M408.06 65.543c.266.242.473.523.457.82-.008.22-.055.36-.145.453.32-.046.602-.222.602-.586 0-.527-.488-.687-.871-.687"></path><path fill="none" stroke="#211e1e" stroke-miterlimit="3.864" stroke-width=".012" d="M408.074 65.553c.266.242.473.524.457.82-.007.219-.055.36-.144.453.32-.046.601-.222.601-.585 0-.528-.488-.688-.871-.688z"></path><path fill="#eb172b" d="M409.52 60.605a1.1 1.1 0 0 0-.21.398c-.09.332-.09.942-.056 1.329.04.39-.015.953-.504 1.203-.328.164-.55.12-.878.078-.23-.031-.68-.024-.887.144l.113.024c.39.086 1.05.308 1.438.254.367-.051.898-.48.918-1.02.023-.816-.336-1.629.066-2.41"></path><path fill="none" stroke="#211e1e" stroke-miterlimit="3.864" stroke-width=".012" d="M409.524 60.603a1.1 1.1 0 0 0-.211.399c-.09.332-.09.94-.055 1.328.04.39-.015.953-.504 1.203-.328.164-.55.12-.879.078-.23-.031-.68-.024-.886.144l.113.024c.39.086 1.051.309 1.437.254.368-.051.899-.48.918-1.02.024-.816-.335-1.629.067-2.41z"></path><path fill="#FFF" d="M407.57 65.367c-.262-.184-.57-.328-.777-.566-.211-.247-.16-.645-.078-.899-.141.008-.22.078-.313.242-.152.262-.04.746.39 1.004.25.149.512.203.778.219"></path><path fill="none" stroke="#211e1e" stroke-miterlimit="3.864" stroke-width=".012" d="M407.574 65.378c-.262-.183-.57-.328-.777-.566-.211-.246-.16-.645-.078-.899-.141.008-.22.078-.313.242-.152.262-.039.747.39 1.004.25.149.512.203.778.219z"></path><path fill="#FFF" d="M405.44 70.922c-.684-.238-1.594-.273-2.309-.184q-.159.02-.265.04c.476.328.996.53 1.215.609q.579-.048 1.222-.09c.04-.125.086-.254.137-.375"></path><path fill="none" stroke="#211e1e" stroke-miterlimit="3.864" stroke-width=".012" d="M405.449 70.928c-.683-.238-1.594-.273-2.308-.183-.106.011-.196.027-.266.038.476.329.996.532 1.215.61q.579-.048 1.222-.09c.04-.125.086-.254.137-.375z"></path><path fill="#eb172b" d="m408.32 68.176-.008-.035c-.027-.125-.312-.567-.969-.762a6.3 6.3 0 0 0-2.898-.144q-.27.047-.516.113c-.027.035-.066.043-.097.031l-.176.05c-.02.04-.067.052-.106.04-.789.277-1.375.703-1.578 1.148-.23.508-.289.813.07 1.336.024-.281.165-.617.348-.918.164-.273.828-.734 2.184-1.05 1.36-.313 2.465-.395 3.039-.2.226.078.453.227.512.461z"></path><path fill="none" stroke="#211e1e" stroke-miterlimit="3.864" stroke-width=".012" d="m408.324 68.178-.008-.035c-.027-.125-.312-.566-.968-.762a6.3 6.3 0 0 0-2.899-.144 6 6 0 0 0-.515.113c-.028.035-.067.043-.098.031-.059.015-.117.035-.176.051-.02.039-.066.05-.105.039-.79.277-1.375.703-1.579 1.148-.23.508-.289.813.07 1.336.024-.281.165-.617.348-.918.164-.273.828-.734 2.184-1.05 1.36-.313 2.465-.395 3.039-.2.226.078.453.227.511.461z"></path><path fill="#FFF" d="M407.96 66.98c-.863.133-.937.004-1.687-.168-.626-.14-1.477-.078-2.047.293q.094-.022.195-.04a6.5 6.5 0 0 1 2.977.15c.703.206 1.043.687 1.085.89.39-.105.8-.175 1.22-.195v-7.3a1.6 1.6 0 0 0-.218.683c-.016.496.148 1.14.129 1.726-.02.641-.63 1.125-1.063 1.184-.43.059-1.07-.164-1.5-.258-.066-.012-.121-.023-.176-.031-.082.238-.125.59.035.777.094.106.23.203.391.305.156.102.36.23.55.379h.247c.395 0 1.04.168 1.04.855 0 .696-.747.817-1.188.75"></path><path fill="none" stroke="#211e1e" stroke-miterlimit="3.864" stroke-width=".012" d="M407.949 66.978c-.863.133-.937.004-1.687-.168-.625-.14-1.477-.078-2.047.293a6.509 6.509 0 0 1 3.172.11c.703.207 1.043.687 1.085.89a5.8 5.8 0 0 1 1.23-.195v-7.301a1.6 1.6 0 0 0-.218.684c-.015.496.149 1.14.129 1.726-.02.64-.629 1.125-1.062 1.184-.43.058-1.07-.164-1.5-.258-.067-.012-.121-.024-.176-.031-.082.238-.125.59.035.777.094.106.23.203.39.305.157.101.36.23.551.379h.246c.395 0 1.04.168 1.04.855 0 .695-.747.817-1.188.75z"></path><path fill="#FFF" d="m403.78 68.477-.035-.078.074-.012c.02.02.047.059.09.102.855.863 2.984 1.172 4.027.558-.039.098-.09.215-.148.32-.125.223-.946.758-2.32.415-.704-.18-1.317-.618-1.66-1.254"></path><path fill="none" stroke="#211e1e" stroke-miterlimit="3.864" stroke-width=".012" d="m403.774 68.478-.035-.078.074-.012c.02.02.047.059.09.102.855.863 2.984 1.172 4.027.558-.039.098-.09.215-.148.32-.125.223-.946.759-2.32.415-.704-.18-1.317-.618-1.66-1.254z"></path><path fill="#FFF" d="M405.89 70.035a4 4 0 0 1-.465-.09c-1.277-.324-1.754-1.265-1.848-1.48-.636.25-.953.511-1.043.656-.25.414-.378.836-.296 1.082l.07.086c.11.129.234.242.367.351a5.2 5.2 0 0 1 1.52-.105c.707.047 1.171.184 1.308.23.11-.25.235-.507.387-.73"></path><path fill="none" stroke="#211e1e" stroke-miterlimit="3.864" stroke-width=".012" d="M405.899 70.028a4 4 0 0 1-.465-.09c-1.277-.324-1.754-1.265-1.847-1.48-.637.25-.954.512-1.043.656-.25.414-.38.836-.297 1.082l.07.086c.11.129.234.242.367.352a5.2 5.2 0 0 1 1.52-.106c.707.047 1.172.184 1.308.23.11-.25.235-.507.387-.73z"></path><path fill="#FFF" d="M415.64 68.277a9 9 0 0 0-.492-.125c-.305-.07-3.012-.687-3.332.09q-.011.024-.016.055c.508.214.973.535 1.375.906.957.015 2.04-.309 2.555-.836l.043-.043"></path><path fill="none" stroke="#211e1e" stroke-miterlimit="3.864" stroke-width=".012" d="M415.649 68.278a9 9 0 0 0-.492-.125c-.305-.07-3.012-.687-3.332.09a.3.3 0 0 0-.016.055c.508.215.973.535 1.375.906.957.015 2.04-.309 2.555-.836l.043-.043z"></path><path fill="#FFF" d="M416.18 68.461c-.094.223-.57 1.164-1.84 1.484q-.221.054-.426.082c.157.227.278.473.391.723a5.6 5.6 0 0 1 1.262-.215 5.2 5.2 0 0 1 1.52.106 3 3 0 0 0 .37-.352l.07-.086c.083-.246-.05-.668-.3-1.082-.086-.144-.418-.41-1.047-.66"></path><path fill="none" stroke="#211e1e" stroke-miterlimit="3.864" stroke-width=".012" d="M416.174 68.453c-.094.222-.57 1.164-1.84 1.484a5 5 0 0 1-.425.082c.156.227.277.473.39.723a5.6 5.6 0 0 1 1.262-.215 5.2 5.2 0 0 1 1.52.106c.132-.11.261-.223.37-.352l.07-.086c.083-.246-.05-.668-.3-1.082-.086-.144-.418-.41-1.047-.66z"></path><path fill="#FFF" d="M415.95 68.383c-.016.023-.05.059-.094.105-.574.582-1.73.915-2.742.88-.484-.02-.945-.122-1.285-.32.039.097.09.214.148.32.13.222.95.757 2.32.413.704-.18 1.317-.617 1.66-1.253q.042-.075.06-.122"></path><path fill="none" stroke="#211e1e" stroke-miterlimit="3.864" stroke-width=".012" d="M415.949 68.378c-.015.024-.05.059-.094.106-.574.582-1.73.914-2.742.879-.484-.02-.945-.122-1.285-.321.039.098.09.215.148.32.13.223.95.758 2.32.415.704-.18 1.317-.618 1.66-1.254q.042-.076.06-.121z"></path><path fill="#FFF" fill-rule="evenodd" d="M412.88 70.012c-.441-.082-.758-.258-.93-.418l-.922 1.586q.588.007 1.13.02l1.14-.657a4 4 0 0 0-.418-.531m-5.96.008c-.15.16-.282.336-.4.52l1.16.66c.356-.012.724-.016 1.11-.02l-.941-1.629a1.87 1.87 0 0 1-.93.469m6.702 4.277c-.215-.016-.437-.023-.66-.035l.535.309q.066-.137.125-.274m-1.449-.066c-.39-.016-.785-.024-1.187-.032l1.105 1.918a4.1 4.1 0 0 0 1.207-1.207l-1.05-.609a.2.2 0 0 1-.075-.07m-1.648-.043-.418.004v2.562a4 4 0 0 0 1.644-.441l-1.223-2.121zm-.813.004h-.426l-.011.027-1.211 2.094c.5.258 1.058.41 1.648.441zm-.879.007a55 55 0 0 0-1.164.028.2.2 0 0 1-.066.054l-1.086.63c.312.48.726.894 1.207 1.206zm-1.973.059-.667.035q.059.142.128.278zm-.707-3.004q.369-.018.758-.031l-.59-.344a4 4 0 0 0-.168.375m3.086-.082h.473V68.7a4.05 4.05 0 0 0-1.648.438zm.868 0 .472.004 1.172-2.04a4 4 0 0 0-1.644-.437zm2.796.05c.262.013.516.02.762.032a5 5 0 0 0-.168-.375"></path><path fill="none" stroke="#211e1e" stroke-miterlimit="3.864" stroke-width=".012" d="M412.874 70.003c-.441-.082-.758-.258-.93-.418l-.922 1.586q.588.007 1.13.02l1.14-.657a4 4 0 0 0-.418-.531zm-5.95.025a3.7 3.7 0 0 0-.398.52l1.16.66q.531-.016 1.109-.02l-.941-1.629a1.87 1.87 0 0 1-.93.469zm6.7 4.275c-.215-.015-.437-.023-.66-.035l.535.309a9 9 0 0 0 .125-.274zm-1.45-.075q-.585-.02-1.187-.031l1.105 1.918a4.1 4.1 0 0 0 1.207-1.207l-1.05-.61a.2.2 0 0 1-.075-.07zm-1.65-.05-.418.004v2.563a4 4 0 0 0 1.645-.442l-1.223-2.121zm-.8 0h-.426l-.011.028-1.211 2.093c.5.258 1.058.41 1.648.442zm-.9.025c-.394.004-.785.015-1.164.027a.3.3 0 0 1-.066.055l-1.086.629a4.1 4.1 0 0 0 1.207 1.207zm-1.975.05-.668.035q.058.142.129.278zm-.7-3q.367-.018.758-.031l-.59-.344a4 4 0 0 0-.168.375zm3.1-.075h.473v-2.472a4.05 4.05 0 0 0-1.649.437zm.85 0 .473.004 1.172-2.039a4 4 0 0 0-1.645-.437zm2.8.05q.393.016.762.031a5 5 0 0 0-.168-.375z"></path><path fill="#FFF" d="M395.43 73.215q.153.03.172.023.042-.006.055-.054.017-.047.011-.094l.063-.016.156.641-.055.016a1.6 1.6 0 0 0-.242-.29q-.21-.181-.402-.136-.225.058-.254.316c-.024.172 0 .395.066.66q.072.293.172.47.194.332.469.26a.5.5 0 0 0 .285-.194q.065-.09.14-.266l.083.05q-.084.213-.16.313a.6.6 0 0 1-.348.242.75.75 0 0 1-.606-.105q-.31-.206-.421-.656-.111-.446.054-.782a.7.7 0 0 1 .469-.394.7.7 0 0 1 .293-.004"></path><path fill="#FFF" fill-rule="evenodd" d="M397.29 74.328a2.4 2.4 0 0 0-.055-.531q-.082-.44-.234-.645-.147-.204-.328-.168-.251.048-.274.442-.008.205.055.523.06.324.149.512.165.351.417.305.247-.053.27-.438m-.027-1.277q.283.233.367.672.086.435-.09.757a.72.72 0 0 1-.504.38.72.72 0 0 1-.637-.184 1.1 1.1 0 0 1-.34-.633c-.054-.293-.027-.543.083-.758a.7.7 0 0 1 .511-.394.7.7 0 0 1 .61.16"></path><path fill="#FFF" d="M397.73 74.57q.124-.024.148-.082a.3.3 0 0 0 .012-.168l-.21-1.32a2 2 0 0 0-.152-.148.14.14 0 0 0-.07-.024l-.012-.07.472-.074.954 1.054.011-.004-.133-.828q-.022-.141-.074-.195-.046-.052-.176-.047l-.011-.07.48-.074.012.07c-.066.023-.113.05-.133.078q-.028.045-.008.172l.262 1.64-.063.008-1.218-1.332-.016.004.176 1.09a.44.44 0 0 0 .054.18q.06.074.2.062l.011.07-.504.079"></path><path fill="#FFF" d="m399.11 73.762.066-.008c.067.2.149.344.246.422q.142.125.301.098.152-.024.2-.13a.4.4 0 0 0 .035-.214.32.32 0 0 0-.102-.195 1 1 0 0 0-.2-.106l-.17-.068a1.1 1.1 0 0 1-.347-.215.6.6 0 0 1-.136-.308.7.7 0 0 1 .054-.403.41.41 0 0 1 .332-.23.6.6 0 0 1 .246.008c.082.02.125.027.137.023q.036-.007.047-.031a.2.2 0 0 0 .012-.074l.066-.012.098.605-.063.012a.9.9 0 0 0-.215-.34.34.34 0 0 0-.297-.109.22.22 0 0 0-.168.105.3.3 0 0 0-.035.2q.018.129.094.187.072.053.3.153l.184.078a.6.6 0 0 1 .387.488.66.66 0 0 1-.07.418c-.07.14-.2.223-.399.254q-.066.013-.136.008a.6.6 0 0 1-.145-.028l-.047-.011q-.016-.005-.03-.004c-.009-.004-.02-.004-.024 0q-.037 0-.043.03a.2.2 0 0 0-.012.075l-.066.012"></path><path fill="#FFF" d="m400.24 74.254-.008-.07a.3.3 0 0 0 .133-.047q.059-.05.047-.172l-.145-1.356q-.012-.123-.082-.16a.26.26 0 0 0-.137-.02l-.008-.07 1.293-.136.06.566-.056.004q-.071-.266-.183-.355-.115-.089-.383-.059-.105.011-.129.039-.028.029-.016.11l.067.648q.192-.018.25-.113.058-.1.07-.34l.059-.004.097.945-.058.008q-.046-.24-.133-.328-.084-.088-.273-.07l.07.68c.004.058.023.097.047.116.027.02.082.024.156.016a.56.56 0 0 0 .34-.14c.082-.079.148-.22.2-.415l.062-.007-.028.593"></path><path fill="#FFF" d="M402.47 72.125q.151.047.168.047a.08.08 0 0 0 .062-.047.2.2 0 0 0 .024-.09l.062-.008.07.657-.058.007a1.6 1.6 0 0 0-.2-.32q-.182-.21-.382-.191-.222.025-.293.277-.07.253-.027.664.031.3.11.488.139.353.425.325a.5.5 0 0 0 .309-.157q.076-.076.175-.242l.074.063q-.11.194-.203.289a.6.6 0 0 1-.379.187.73.73 0 0 1-.582-.187c-.183-.164-.293-.403-.324-.707q-.051-.46.16-.766a.68.68 0 0 1 .809-.289m.41-.078 1.356-.098.043.567-.067.008q-.052-.305-.21-.399a.5.5 0 0 0-.259-.047l.106 1.48c.008.102.027.173.058.204s.09.043.184.039l.004.07-.8.055-.005-.07c.086-.008.145-.028.168-.063.027-.039.04-.105.031-.21l-.1-1.48a.5.5 0 0 0-.246.082q-.152.122-.152.426l-.066.004"></path><path fill="#FFF" fill-rule="evenodd" d="m404.95 73.148-.258-.637h-.02l-.156.668zm-.8.652q.08-.015.124-.101.029-.06.074-.242l.391-1.579.063-.003.605 1.445q.105.242.152.312c.032.043.07.067.121.059l.008.07-.73.051-.004-.07a.4.4 0 0 0 .14-.031c.024-.016.032-.047.032-.094a1 1 0 0 0-.027-.102l-.036-.094-.07-.164-.504.036q-.04.17-.05.222a.7.7 0 0 0-.016.16q0 .06.07.082a.3.3 0 0 0 .117.008l.004.074-.46.032"></path><path fill="#FFF" d="m405.32 71.883 1.352-.094.043.567-.063.004c-.039-.204-.11-.332-.21-.399a.5.5 0 0 0-.259-.047l.102 1.48q.011.158.059.204c.03.031.093.047.183.039l.004.07-.8.059-.005-.074c.086-.004.145-.028.172-.063q.037-.053.028-.207l-.1-1.483a.46.46 0 0 0-.25.086q-.153.117-.153.422l-.066.004"></path><path fill="#FFF" d="M406.75 73.645a.3.3 0 0 0 .137-.035q.063-.045.062-.172l-.05-1.363q0-.123-.07-.164a.3.3 0 0 0-.141-.028l-.004-.07.789-.027.004.07c-.07.004-.122.016-.145.035q-.063.045-.062.172l.05 1.363q.001.119.055.157c.04.027.09.035.16.035l.004.07-.789.027"></path><path fill="#FFF" fill-rule="evenodd" d="M408.63 73.246a2.3 2.3 0 0 0 .04-.535q-.006-.447-.122-.676c-.07-.152-.172-.227-.293-.223q-.257.006-.344.387a2.3 2.3 0 0 0-.039.527q.006.328.059.532c.066.25.183.37.355.37q.252-.006.344-.382m.195-1.262c.16.184.239.426.246.723q.006.444-.222.73a.69.69 0 0 1-.559.286.71.71 0 0 1-.598-.293 1.1 1.1 0 0 1-.222-.68c-.004-.297.062-.54.21-.734a.7.7 0 0 1 .575-.297.7.7 0 0 1 .57.265"></path><path fill="#FFF" d="M409.41 73.648v-.07c.066-.004.113-.012.14-.032q.064-.046.063-.164l.028-1.367q0-.123-.063-.164a.3.3 0 0 0-.137-.039v-.07l1.301.023-.008.57-.055-.003q-.04-.27-.14-.375c-.067-.067-.192-.106-.375-.106-.067-.004-.114.008-.133.024q-.026.03-.027.105l-.012.652q.192.006.262-.082t.109-.328h.059l-.016.953h-.059q-.017-.24-.093-.34-.072-.099-.266-.105l-.012.684q0 .088.036.125.035.03.152.03a.55.55 0 0 0 .355-.097c.09-.066.176-.195.246-.387h.067l-.106.586"></path><path fill="#FFF" d="M410.73 73.59a.6.6 0 0 0 .125-.035.35.35 0 0 0 .113-.113l.407-.618-.434-.828a.6.6 0 0 0-.082-.125.17.17 0 0 0-.094-.043v-.07l.781.012v.074a.5.5 0 0 0-.148.02q-.035.01-.035.07.001.023.008.047l.023.054.215.43c.125-.215.203-.344.227-.395a.25.25 0 0 0 .039-.12c.004-.044-.016-.07-.051-.087a.5.5 0 0 0-.11-.02v-.07l.563.012v.07q-.151.017-.238.122c-.087.105-.188.27-.38.593l.4.805q.077.154.113.195a.2.2 0 0 0 .101.047l-.004.075-.765-.016v-.07a.6.6 0 0 0 .132-.016q.05-.018.051-.07a.2.2 0 0 0-.012-.055.3.3 0 0 0-.035-.09l-.218-.46-.086.14a3 3 0 0 0-.153.254.5.5 0 0 0-.07.172q0 .074.078.101.041.019.106.02l-.004.07-.563-.008"></path><path fill="#FFF" d="M413.37 71.852q.14.07.156.07c.031 0 .051-.011.07-.039s.032-.054.036-.086l.062.004-.023.66-.055-.004a1.7 1.7 0 0 0-.156-.343q-.147-.236-.352-.242c-.148-.004-.261.074-.328.234q-.106.241-.117.652-.012.303.035.5.094.37.379.38a.5.5 0 0 0 .328-.11q.09-.066.207-.215l.067.07a1.6 1.6 0 0 1-.243.258.6.6 0 0 1-.402.133.73.73 0 0 1-.55-.266q-.24-.282-.223-.746.015-.463.265-.738a.695.695 0 0 1 .844-.172"></path><path fill="#FFF" d="m413.63 73.738.004-.07q.095 0 .14-.024.065-.042.075-.16l.094-1.363q.01-.124-.055-.172c-.024-.02-.067-.031-.133-.043l.008-.07 1.297.09-.04.57-.058-.004q-.022-.277-.117-.383c-.066-.074-.187-.113-.367-.129q-.104-.005-.133.02-.03.022-.035.105l-.047.649q.195.016.266-.067.075-.086.128-.324l.055.004-.066.953-.055-.004c-.004-.164-.031-.277-.074-.348q-.07-.099-.262-.117l-.047.684q-.007.088.028.125.036.034.148.039a.55.55 0 0 0 .36-.078q.146-.094.269-.375l.062.004-.132.578"></path><path fill="#FFF" d="M414.96 73.754a.26.26 0 0 0 .137-.02c.047-.027.07-.082.078-.164l.094-1.359c.008-.082-.012-.14-.051-.172a.3.3 0 0 0-.133-.043l.004-.07.789.055-.008.07q-.135 0-.188.035-.045.042-.058.207l-.094 1.328q-.005.094.031.13.036.03.153.038a.52.52 0 0 0 .347-.086q.147-.104.27-.422l.066.004-.136.633-1.305-.09"></path><path fill="#FFF" d="M416.29 73.82a.3.3 0 0 0 .133-.016q.075-.039.086-.16l.144-1.36q.012-.12-.047-.171a.3.3 0 0 0-.132-.047l.008-.07.785.082-.008.07q-.141-.008-.188.031-.051.038-.066.203l-.14 1.325c-.009.062.003.105.027.129s.07.035.148.043a.5.5 0 0 0 .352-.075q.146-.093.28-.41l.067.008-.156.625-1.3-.137"></path><path fill="#FFF" d="m417.59 74.039.008-.074a.3.3 0 0 0 .14-.016q.066-.039.079-.16l.144-1.356q.012-.124-.047-.171a.3.3 0 0 0-.132-.047l.008-.074 1.293.136-.06.567-.054-.004c-.011-.188-.047-.313-.11-.387q-.088-.111-.359-.14-.103-.012-.136.011-.028.023-.04.106l-.066.648q.194.024.27-.059c.05-.054.097-.164.137-.32l.058.008-.101.95-.055-.009a.75.75 0 0 0-.063-.347q-.065-.107-.257-.125l-.07.68q-.013.088.023.124c.036.036.07.04.148.047a.56.56 0 0 0 .36-.066c.097-.063.195-.184.285-.367l.062.007-.152.575"></path><path fill="#FFF" d="M418.92 74.086q.122.017.168-.031a.3.3 0 0 0 .062-.16l.208-1.317a2 2 0 0 0-.098-.187.12.12 0 0 0-.063-.043l.012-.07.473.074.582 1.293.008.004.133-.829a.4.4 0 0 0-.008-.21q-.035-.068-.157-.098l.012-.07.48.074-.011.07q-.106.005-.149.04-.04.03-.062.155l-.258 1.64-.062-.007-.747-1.644-.015-.004-.172 1.094c-.012.085-.016.148 0 .187.02.059.078.102.168.121l-.012.07-.504-.082"></path><path fill="#FFF" d="m420.66 72.504 1.344.21-.086.563-.066-.011q.016-.305-.114-.434a.5.5 0 0 0-.242-.105l-.23 1.468q-.029.153.008.211.036.055.171.079l-.011.07-.793-.125.011-.07q.128.017.18-.024.051-.047.078-.2l.23-1.464a.46.46 0 0 0-.261.024c-.117.054-.2.183-.242.378l-.067-.011"></path><path fill="#FFF" d="M421.66 74.508q.095.018.14 0 .075-.03.102-.152l.258-1.34c.016-.082.008-.145-.031-.18a.4.4 0 0 0-.133-.058l.016-.07.773.152-.016.07a.4.4 0 0 0-.148 0q-.07.031-.098.156l-.258 1.34q-.022.117.02.164a.3.3 0 0 0 .148.07l-.011.07-.774-.152"></path><path fill="#FFF" fill-rule="evenodd" d="m423.3 74.227-.086-.684-.02-.003-.324.601zm-.945.422a.18.18 0 0 0 .148-.067c.027-.03.07-.105.133-.214l.789-1.422.059.011.214 1.551q.034.264.063.34.024.082.101.094l-.011.07-.719-.14.016-.07q.106.014.144.003.04-.012.051-.082a.4.4 0 0 0 .004-.101l-.012-.102-.023-.18-.496-.093q-.082.153-.106.203a.5.5 0 0 0-.058.148q-.012.061.047.098a.3.3 0 0 0 .109.039l-.016.07-.449-.086"></path><path fill="#FFF" d="m423.75 75.012.016-.07a.3.3 0 0 0 .144 0q.07-.026.098-.145l.332-1.324c.02-.078.012-.14-.024-.176a.3.3 0 0 0-.125-.066l.02-.07 1.262.316-.137.55-.055-.011q.025-.275-.05-.399c-.076-.124-.165-.144-.34-.187q-.101-.028-.137-.008c-.02.016-.04.047-.05.098l-.161.633q.189.052.277-.02c.088-.072.117-.148.18-.297l.055.016-.23.922-.056-.012q.037-.24-.015-.352-.047-.117-.234-.164l-.165.664q-.02.089.004.13c.02.027.067.046.141.066q.21.053.367-.016c.106-.047.215-.152.332-.324l.059.016-.23.546m-18.408-6.129c.39-.363.848-.668 1.344-.887l-.02-.07c-.32-.777-3.027-.16-3.332-.09-.23.05-.433.117-.625.176l.04.039c.523.531 1.624.855 2.593.832"></path><path fill="none" stroke="#211e1e" stroke-miterlimit="3.864" stroke-width=".012" d="M406.624 69.203a4.9 4.9 0 0 1 1.344-.887q-.007-.035-.02-.07c-.32-.778-3.027-.16-3.332-.09-.23.051-.433.117-.625.176l.04.039c.523.531 1.624.855 2.593.832z"></path></g></g><!-- source: https://football-logos.cc --></svg>