<svg xmlns="http://www.w3.org/2000/svg" xml:space="preserve" version="1.0" viewBox="0 0 390.95 396.2"><!-- Source: https://football-logos.cc --><path fill="#FFF" d="M334.139 223.035c-10.038-18.247-13.649-36.761-13.657-54.223-.012-22.491 6.094-43.173 12.253-58.165 3.074-7.494 6.151-13.563 8.44-17.722a127 127 0 0 1 2.741-4.75c.325-.533.576-.931.74-1.189q.124-.193.18-.279l.04-.063 4.279-6.452-7.032-3.239c-7.029-3.241-12.679-8.156-17.276-13.91-6.892-8.609-11.256-19.092-13.78-27.388a104 104 0 0 1-2.581-10.255 77 77 0 0 1-.517-2.91c-.051-.331-.086-.578-.108-.732l-.024-.186-.868-7.127-7.034 1.425c-15.665 3.167-29.226 4.398-40.854 4.398-21.617-.005-36.559-4.238-46.024-8.315-4.731-2.042-8.093-4.051-10.218-5.495a34 34 0 0 1-2.275-1.676 16 16 0 0 1-.54-.461v.001L195.489 0l-4.559 4.322c-.253.164-17.216 15.901-59.06 15.947-11.627 0-25.188-1.231-40.855-4.398l-7.035-1.423-.865 7.125-.007.061c-.12.97-1.696 11.962-6.874 24.064-2.58 6.054-6.049 12.369-10.563 17.883-4.52 5.523-10.033 10.235-16.842 13.374l-7.032 3.239 4.279 6.452.04.063c1.212 1.748 24.45 38.523 24.352 82.105-.007 17.462-3.619 35.976-13.655 54.223-8.952 16.26-13 31.859-13.001 45.871-.014 16.058 5.375 30.033 14.599 39.96 9.193 9.941 22.208 15.695 36.502 15.67 5.922 0 12.054-.972 18.236-2.959 10.926-3.52 18.615-6.827 24.488-9.092 5.92-2.292 9.703-3.384 13.539-3.378 3.515.002 7.674.892 14.159 3.641 6.452 2.734 15.02 7.276 26.846 14.048l3.295 1.886 3.295-1.885c11.826-6.772 20.393-11.315 26.845-14.05 6.484-2.748 10.643-3.639 14.159-3.641 3.836-.005 7.617 1.086 13.54 3.377 5.873 2.265 13.563 5.573 24.485 9.092 6.185 1.992 12.318 2.962 18.237 2.962 14.293.024 27.309-5.73 36.502-15.671 9.223-9.927 14.613-23.904 14.6-39.961-.002-14.01-4.048-29.611-12.999-45.868z" data-source="https://football-logos.cc"></path><path fill="#B48D00" d="M331.989 224.219c-10.262-18.649-13.957-37.608-13.962-55.406-.006-22.936 6.198-43.904 12.437-59.098 3.117-7.595 6.235-13.745 8.561-17.973a130 130 0 0 1 2.795-4.843c.333-.548.593-.961.766-1.232.173-.27.245-.377.243-.379l2.696-4.064-4.428-2.039c-14.844-6.799-23.899-20.938-29.139-33.721-2.616-6.364-4.271-12.324-5.257-16.66a92 92 0 0 1-1.027-5.136 52 52 0 0 1-.273-1.799l-.546-4.489-4.43.897c-15.815 3.198-29.541 4.446-41.342 4.447-21.967-.002-37.27-4.319-47.033-8.533-4.881-2.109-8.377-4.195-10.617-5.719a36 36 0 0 1-2.432-1.797c-.253-.205-.433-.36-.538-.453l-.104-.094-2.883-2.753-2.881 2.753c-.552.465-18.189 16.569-60.725 16.597-11.801 0-25.527-1.25-41.34-4.447l-4.431-.896-.546 4.487s-.013.118-.058.425c-.325 2.293-2.159 13.483-7.526 25.574C72.596 60.001 63.775 72.8 49.856 79.185l-4.428 2.039 2.693 4.064c.002.001.072.109.245.379 2.622 4.05 24.613 40.142 24.559 83.146-.006 17.798-3.699 36.757-13.961 55.407-8.782 15.955-12.695 31.151-12.697 44.686-.008 15.517 5.179 28.854 13.942 38.289 8.745 9.445 21.057 14.9 34.703 14.885 5.653 0 11.53-.926 17.483-2.84 10.82-3.486 18.412-6.753 24.355-9.047 5.973-2.309 10.091-3.545 14.425-3.54 3.959 0 8.474 1.016 15.119 3.834 6.625 2.81 15.247 7.388 27.107 14.179l2.074 1.188 2.076-1.188c11.86-6.79 20.482-11.368 27.107-14.177 6.645-2.818 11.159-3.834 15.119-3.835 4.332-.003 8.452 1.232 14.423 3.54 5.943 2.293 13.535 5.559 24.355 9.045 5.955 1.919 11.833 2.843 17.483 2.842 13.645.017 25.956-5.44 34.702-14.885 8.763-9.435 13.949-22.771 13.942-38.29 0-13.535-3.912-28.733-12.693-44.687"></path><path fill="#FFF" d="M56.424 283.147c-1.166-4.365-1.798-9.127-1.801-14.241 0-11.917 3.451-25.741 11.661-40.657a119.5 119.5 0 0 0 10.357-25.219h79.879c.019.218.032.438.054.654zM192.158 314.355c-9.293-5.221-16.519-8.977-22.599-11.561-7.19-3.055-12.911-4.501-18.384-4.5-6.019.002-11.287 1.732-17.435 4.103-6.178 2.387-13.441 5.513-23.905 8.885-5.176 1.664-10.183 2.44-14.923 2.44a41.3 41.3 0 0 1-9.791-1.174l96.382-76.419a38.8 38.8 0 0 0 10.655 2.43z"></path><path fill="#DC161B" d="M192.158 160.63c-18.916 1.591-33.992 16.633-35.638 35.531H78.367c2.048-9.314 2.916-18.497 2.914-27.348-.046-33.49-12.239-62.295-19.971-77.23h130.849v69.047z"></path><path fill="#FFF" d="M58.68 83.912C73.1 75.18 81.65 60.96 86.724 48.64a115.3 115.3 0 0 0 6.388-21.35c14.566 2.699 27.451 3.791 38.757 3.791 36.603.023 56.607-11.506 63.607-16.577 7 5.071 27.004 16.601 63.606 16.577 11.306 0 24.189-1.092 38.758-3.791a115.4 115.4 0 0 0 6.388 21.35c5.074 12.321 13.625 26.54 28.044 35.272zM312.584 196.161h-78.151a41 41 0 0 0-.204-1.834l80.515-63.838c-2.976 11.556-5.054 24.542-5.072 38.324-.003 8.851.864 18.034 2.912 27.348M208.3 162.644a39 39 0 0 0-9.506-2.013V91.583h99.068z"></path><path fill="#DC161B" d="M324.616 301.511c-7.217 7.754-17.139 12.198-28.577 12.213-4.741 0-9.748-.773-14.922-2.44-10.466-3.372-17.728-6.5-23.906-8.885-6.149-2.371-11.417-4.101-17.434-4.103-5.475-.001-11.195 1.446-18.384 4.5-6.08 2.583-13.306 6.34-22.6 11.561v-75.795c18.915-1.594 33.991-16.636 35.639-35.531h79.878a119.5 119.5 0 0 0 10.357 25.221l.001-.001c8.209 14.915 11.659 28.738 11.658 40.655-.006 13.678-4.511 24.841-11.71 32.605M218.822 63.425h-4.934v-6.936c0-2.48 2.5-3.615 2.5-3.615V42.202h-1.906v3.455h-7.54c-3.204 0-2.939-3.11-2.939-3.11v-4.365h-23.002v4.021h-17.605c-.997 0-.879 1.045-.879 1.045h-3.76c-1.418 0-1.418-1.188-1.418-1.188v-1.803h.328v-.684h-3.865v.706h.368v1.771c0 1.564-1.359 1.654-1.359 1.654l-12.858 1.436h-13.142c-1.979 0-1.886-1.892-1.886-1.892v-3.386h.271v-.922h-4.502v.921h.302v3.373c0 2.314-2.032 2.015-2.032 2.015h-4.449v.324s-1.542 1.658-1.542 6.31 1.542 6.209 1.542 6.209v.438h3.308v1.211h-3.308c0 3.812-2.922 3.673-2.922 3.673h-6.716v.587h-4.155v-.577h-.772v3.597h.796v-.619h4.138v.619h2.974v1.963h.556a4.393 4.393 0 0 0 4.095 5.987 4.395 4.395 0 0 0 4.394-4.396c0-.562-.109-1.097-.301-1.591h12.279c1.218 3.43 4.481 5.892 8.326 5.892s7.11-2.462 8.329-5.892h3.644c1.218 3.43 4.482 5.892 8.325 5.892 3.848 0 7.111-2.462 8.329-5.892h3.946c1.217 3.43 4.479 5.892 8.326 5.892 3.846 0 7.111-2.462 8.329-5.892h6.703c0 .959-.915 1.625-.915 1.625v.626h6.323v-.625c-.719-.506-.876-1.625-.876-1.625h2.814a4.4 4.4 0 0 0-.293 1.567 4.395 4.395 0 0 0 8.789 0 4.4 4.4 0 0 0-.292-1.567h4.391c.825 0 .719-.729.719-.729v-1.693c.829 0 .693-.94.693-.94h4.343v.329h.583v-2.895h-.593v.368zm-30.788-3.676s-1.859-6.003-10.042-6.045c-8.189.042-10.043 6.045-10.043 6.045h-.265s-1.863-6.003-10.048-6.045c-8.186.042-10.046 6.045-10.046 6.045h-.27s-1.863-6.003-10.045-6.045c-8.189.042-10.046 6.045-10.046 6.045l-6.677.003v-1.261h5.742c.272-.709.477-1.071.477-1.071s2.311-5.104 10.504-5.139c8.182.035 10.045 4.91 10.045 4.91h.27s1.86-4.872 10.049-4.91c8.183.039 10.045 4.851 10.045 4.851h.265s1.854-4.812 10.043-4.851c8.186.039 10.442 5.139 10.442 5.139s.444.765.787 2.321zm8.936 8.91h-3.126v-2.343h3.126zm0-3.322h-3.126V63h3.126zm0-3.392h-3.126v-2.336h3.126zm1.638-12.79h-1.384v9.461h-3.669v-9.451h-3.213s-2.21.142-2.21-2.057v-2.537s.108-1.873 2.21-1.873c2.099 0 8.267.027 8.267.027s2.22 0 2.22 1.873v2.509c-.001.002-.028 2.048-2.221 2.048M281.762 63.046v.365h-4.938l-.002.125V50.125c-3.879 0-3.893-3.865-3.893-3.865h-43.303c0 3.878-3.873 3.865-3.873 3.865v13.286h-4.801v-.365h-.594v2.895h.583v-.334h4.343s-.103.75.468.908v2.45h4.229c-.001.054-.008.105-.008.16a5.82 5.82 0 0 0 5.823 5.823 5.827 5.827 0 0 0 5.829-5.823c0-.054-.007-.106-.008-.16h3.905c-.001.054-.008.105-.008.16a5.82 5.82 0 0 0 5.823 5.823 5.824 5.824 0 0 0 5.826-5.823c0-.054-.007-.106-.008-.16h3.922c-.001.054-.008.105-.008.16a5.82 5.82 0 0 0 5.822 5.823 5.82 5.82 0 0 0 5.823-5.823c0-.054-.007-.106-.008-.16h4.115v-2.428c.727-.067.607-.929.607-.929h4.344v.334h.583v-2.895h-.593z"></path><path fill="#FFF" d="m240.96 253.672 3.071-11.911-1.465.016-.126.113a27 27 0 0 1-2.501 1.995c-.75.527-2.992 1.687-6.63 3.417l-.376.179.746 1.892.428-.192q1.881-.841 2.924-1.257.524-.208.824-.306c.099-.034.181-.058.236-.07.054-.015.06-.009.062-.015.118.006.106.022.112.023.007.004.05.079.049.265.01.302-.362 2.227-1.104 5.504l-2.267 8.671c-.488 1.826-.998 2.976-1.345 3.324-.228.262-.774.536-1.653.702-.956.199-1.798.393-2.54.595l-.231.061-.667 1.996.728-.112c2.018-.316 3.875-.473 5.591-.473 1.155-.001 3.259.157 6.264.477l.339.036.739-1.894-.53-.099a20 20 0 0 0-1.895-.253c-.805-.071-1.339-.215-1.415-.28-.156-.106-.143-.118-.153-.195-.005-.204.104-.792.346-1.647zM264.301 243.316c-1.023-.894-2.36-1.333-3.925-1.331-2.119-.003-3.955.703-5.423 2.083-1.472 1.377-2.23 3.081-2.226 5.003-.001 1.759.688 3.47 2.021 5.098-2.322 1.435-3.819 2.457-4.547 3.139-.957.881-1.674 1.8-2.139 2.765-.458.954-.696 1.911-.696 2.856-.003 1.417.58 2.75 1.692 3.906 1.143 1.205 2.811 1.79 4.895 1.79h.023c2.565.004 4.792-.864 6.586-2.57 1.784-1.689 2.723-3.654 2.718-5.818-.004-2.144-1.134-4.334-3.286-6.602 1.906-1.047 3.404-2.232 4.478-3.573.905-1.119 1.386-2.312 1.384-3.537.006-1.232-.54-2.339-1.555-3.209m-5.921 8.499c-1.351-1.522-1.976-2.906-1.973-4.128.004-.954.327-1.726 1.004-2.413.686-.674 1.464-.996 2.435-1 .813.002 1.437.251 1.97.764.531.528.768 1.096.773 1.807 0 .586-.243 1.269-.802 2.037-.495.691-1.645 1.698-3.407 2.933m-1.291 14.025c-.743.433-1.479.644-2.25.644-1.07-.004-1.918-.345-2.643-1.061-.714-.717-1.058-1.544-1.063-2.59.001-1.113.347-2.192 1.069-3.29.667-1.008 2.027-2.275 4.065-3.73 1.315 1.46 2.182 2.617 2.587 3.428.448.886.659 1.684.659 2.391-.001.785-.219 1.574-.668 2.38-.447.799-1.032 1.401-1.756 1.828M287.257 242.496l-.956.026q-3.281.087-6.747.088c-3.395.001-5.838-.123-7.291-.35l-.415-.065-.091.411c-.202.917-.573 2.232-1.101 3.929q-.415 1.3-.508 1.601l-.183.583h1.989l.112-.287c.449-1.195.888-1.921 1.046-2.016.143-.131.705-.285 1.61-.276h6.977l-2.148 2.656c-4.959 6.094-8.145 10.417-9.579 13.043-.998 1.816-1.525 3.426-1.528 4.857-.003.625.197 1.199.593 1.647.388.443.911.703 1.474.697h.027c.605 0 1.168-.289 1.531-.796.415-.561.632-1.519.844-3.023.191-1.434.463-2.538.788-3.288.705-1.649 2.095-4.032 4.168-7.1 1.169-1.759 4.113-5.632 8.796-11.585zM300.888 244.35c-1.309-1.564-3.056-2.371-5.103-2.364-2.398-.006-4.436.916-5.975 2.714-1.774 2.042-2.658 4.58-2.654 7.534-.001 2.163.504 3.891 1.582 5.13 1.062 1.222 2.511 1.85 4.22 1.844q1.334-.002 2.611-.512a8.6 8.6 0 0 0 1.327-.673c-.617 1.665-1.368 3.023-2.242 4.082a11.5 11.5 0 0 1-3.998 3.096c-1.561.739-3.473 1.164-5.758 1.253l-.352.013-.434 2.168.557-.009h.234c3.333 0 6.335-.743 8.971-2.236 2.7-1.529 4.878-3.731 6.519-6.576s2.466-5.864 2.466-9.039c.002-2.687-.635-4.848-1.971-6.425m-2.599 5.479c0 1.341-.174 3.064-.537 5.16q-.997.824-1.833 1.233c-.592.297-1.113.429-1.581.429-.69-.007-1.253-.331-1.805-1.146-.508-.75-.816-2.225-.81-4.349-.003-2.591.425-4.511 1.22-5.771.6-.936 1.291-1.333 2.24-1.345.867.009 1.542.381 2.171 1.256.592.831.939 2.352.935 4.533M71.361 301.577c1.366.876 4.347 2.274 6.266.76 1.017-.811 1.24-2.135.173-3.492-.972-1.225-2.282-1.303-3.936-.947l-.408.089c-2.234.478-4.913.834-6.674-1.396-1.86-2.348-1.765-5.537 1.306-7.97a8.4 8.4 0 0 1 1.999-1.171c.551-.228.93-.4 1.254-.519.719.753 1.664 1.666 2.995 2.911l-.747.828c-1.515-1.035-3.366-1.968-4.917-.747-1.001.794-1.064 2.166-.275 3.16.832 1.038 2.068 1.038 3.802.655l.59-.129c2.494-.556 4.881-.719 6.81 1.717 2.022 2.559 1.571 5.965-1.466 8.374a8.8 8.8 0 0 1-2.394 1.316q-1.132.38-1.637.468c-.91-.821-2.053-1.75-3.392-2.956zM79.238 281.629l-.56.583c-.638.675-.583.865.328 1.537l7.39 5.525.042-.034-4.452-10.902 1.372-1.083 9.993 6.515.036-.026a198 198 0 0 0-3.517-7.913c-.686-1.392-.921-1.575-1.849-1.012l-.81.509-.643-.815 4.684-3.705.64.814c-.962 1.035-1.091 1.234-.305 3.59.11.352 2.394 6.328 5.375 13.321l-1.512 1.194-9.565-6.172-.042.024 4.065 10.532-1.507 1.194-11.958-8.31c-1.893-1.317-2.313-1.117-3.313-.53l-.643-.818 6.111-4.828zM104.665 276.781c1.78 2.252 2.055 2.27 3.507 1.33l.636.807-6.342 5.019-.643-.812c1.25-1.187 1.292-1.459-.487-3.705l-5.434-6.875c-1.778-2.247-2.046-2.267-3.501-1.324l-.64-.815 6.346-5.021.639.815c-1.252 1.194-1.292 1.465.489 3.712zM121.792 268.888l-1.681 1.333-15.021-4.095-.041.031 3.034 3.831c1.726 2.192 2.71 3.271 3.303 3.852.673.654 1.415.499 2.759-.451l.643.807-4.881 3.858-.64-.805c.83-.733 1.105-1.421.626-2.229-.428-.709-1.255-1.914-2.986-4.098l-3.031-3.832c-1.214-1.547-1.469-1.778-2.324-2.053-.643-.207-1.244.03-2 .53l-.64-.812 4.327-3.427 13.355 3.488.042-.034-2.211-2.796c-1.73-2.182-2.709-3.264-3.3-3.848-.678-.655-1.418-.506-2.764.461l-.634-.817 4.99-3.95.642.818c-.945.808-1.222 1.506-.747 2.307.437.712 1.262 1.914 2.987 4.106zM119.338 248.597c2.411-1.907 4.801-2.986 7.182-2.673 1.664.217 3.646 1.144 5.063 2.945 4.101 5.174 2.162 10.328-2.361 13.905l-5.056 4.004-.64-.814c1.327-1.259 1.37-1.531-.407-3.773l-5.431-6.868c-1.781-2.253-2.053-2.273-3.425-1.392l-.643-.808zm7.122 10.98c1.468 1.859 2.18 1.859 3.122 1.12 1.682-1.33 1.817-4.663-1.096-8.334-3.539-4.485-6.661-4.041-8.325-2.722-.451.354-.657.615-.729.809-.066.115.298.611.705 1.129zM146.611 237.752c3.522 4.452 2.872 9.508-.894 12.484-3.95 3.132-8.939 2.1-11.969-1.734-2.666-3.373-3.631-8.941 1.05-12.642 3.588-2.834 8.55-2.231 11.813 1.892m-9.781 7.16c2.981 3.771 6.482 5.463 8.408 3.943 1.681-1.333 1.233-3.787-1.744-7.56-3.308-4.18-6.547-5.378-8.232-4.038-1.504 1.188-1.316 4.01 1.568 7.655M165.098 234.637l-1.688 1.331-15.021-4.096-.034.03 3.027 3.832c1.733 2.188 2.716 3.274 3.3 3.851.678.656 1.421.509 2.765-.454l.64.811-4.878 3.857-.636-.811c.824-.723 1.101-1.412.622-2.229-.431-.699-1.259-1.907-2.98-4.092l-3.034-3.834c-1.22-1.541-1.474-1.778-2.324-2.057-.64-.2-1.245.041-2.002.533l-.643-.811 4.33-3.421 13.352 3.478.042-.023-2.21-2.797c-1.727-2.185-2.71-3.271-3.296-3.844-.67-.655-1.418-.513-2.762.451l-.64-.815 4.997-3.946.639.808c-.948.811-1.227 1.513-.748 2.314.435.709 1.259 1.921 2.989 4.102zM238.505 170.497c1.778 2.25 2.057 2.267 3.801 1.096l.635.813-6.851 5.417-.648-.808c1.469-1.367 1.517-1.635-.261-3.886l-7.207-9.118-.339.263c-1.313 1.037-1.643 1.707-1.663 2.33.014.497.204 1.226.869 2.59l-.811.653c-1.313-1.811-2.334-3.342-3.125-4.437l.597-.475c.675.243.896.131 1.438-.285l7.805-6.186c.516-.402.509-.604.509-1.247l.61-.48c.716.855 2.206 2.555 3.53 4.014l-.815.746c-1.283-1.015-1.92-1.389-2.504-1.512-.628-.11-1.368.275-2.308 1.015l-.474.375zM253.15 153.06c3.522 4.453 2.864 9.509-.892 12.483-3.956 3.13-8.941 2.099-11.975-1.734-2.664-3.378-3.623-8.94 1.052-12.645 3.583-2.831 8.551-2.227 11.815 1.896m-9.778 7.156c2.972 3.773 6.48 5.466 8.401 3.948 1.689-1.332 1.242-3.783-1.741-7.559-3.311-4.182-6.545-5.381-8.238-4.047-1.504 1.195-1.307 4.02 1.578 7.658M254.565 142.534l-.567.573c-.638.677-.576.875.326 1.539l7.39 5.526.044-.032-4.445-10.896 1.368-1.084 9.989 6.515.044-.032a208 208 0 0 0-3.519-7.911c-.686-1.389-.93-1.571-1.853-1.011l-.807.507-.645-.813 4.689-3.7.638.812c-.97 1.029-1.089 1.234-.313 3.594.119.35 2.402 6.327 5.375 13.313l-1.507 1.192-9.568-6.174-.041.031 4.068 10.527-1.509 1.192-11.964-8.312c-1.887-1.31-2.307-1.111-3.302-.524l-.641-.813 6.1-4.83zM289.555 135.773l-1.683 1.33-15.021-4.097-.034.036 3.027 3.829c1.731 2.188 2.71 3.269 3.298 3.846.678.657 1.424.511 2.769-.451l.638.813-4.873 3.856-.651-.813c.834-.72 1.113-1.418.631-2.224-.435-.704-1.259-1.911-2.983-4.099l-3.033-3.833c-1.218-1.541-1.466-1.776-2.329-2.055-.634-.202-1.245.039-1.995.536l-.642-.813 4.323-3.423 13.359 3.484.041-.034-2.209-2.791c-1.731-2.188-2.719-3.269-3.302-3.853-.669-.65-1.415-.507-2.759.451l-.645-.806 4.995-3.953.651.813c-.953.816-1.235 1.511-.76 2.321.442.703 1.259 1.91 2.996 4.096zM294.852 119.196l1.331-1.054c1.686-1.333 1.645-1.505.668-3.137l.862-.683 3.662 4.622-.862.679c-1.5-1.488-1.652-1.564-3.345-.234l-1.331 1.053 2.291 2.898c1.771 2.248 2.042 2.264 3.76 1.118l.641.818-6.549 5.172-.645-.813c1.194-1.144 1.249-1.415-.533-3.663l-5.432-6.875c-1.782-2.249-2.056-2.269-3.454-1.37l-.638-.813 9.46-7.484c.298.337 1.595 1.787 2.969 3.303l-.818.749c-1.031-.908-1.709-1.318-2.287-1.401-.59-.111-1.344.274-2.379 1.099l-.913.729c-.353.277-.397.306.211 1.078zM309.68 104.085c-2.64-2.042-4.385-1.748-5.771-.65-2.353 1.859-1.66 5.709.716 8.71 3.019 3.826 6.732 4.893 8.747 3.295 1.7-1.349 1.765-3.285.946-6.369l.974-.537c.72 1.429 1.676 3.593 1.964 4.647-.383.535-1.795 2.369-3.104 3.405-5.267 4.168-10.152 2.272-12.802-1.084-3.404-4.309-2.569-9.774 1.95-13.354 1.633-1.282 3.271-1.906 3.926-2.212 1.052 1.018 1.856 1.876 3.206 3.342z"></path><circle cx="195.477" cy="199.596" r="35.49" fill="#FFF"></circle><path fill="#B48D00" d="M215.488 176.221c.926 1.895 1.917 4.151 2.595 6.206-4.507-1.501-9.004-2.378-13.332-2.85-.03-2.115-.188-7.332-1.12-11.896a32.7 32.7 0 0 1 9.557 4.156c.3.529 1.249 2.223 2.3 4.384M213.436 227.194a32.7 32.7 0 0 1-9.868 4.33c.953-4.476 1.191-9.597 1.252-11.775 4.317-.475 8.8-1.354 13.294-2.853-.665 2.032-1.619 4.236-2.508 6.088a80 80 0 0 1-2.17 4.21M220.907 209.789a33 33 0 0 1-1.364 3.268c-.157.324-.285.57-.386.76-8.109 3.039-16.345 3.864-23.681 3.863-7.335.001-15.574-.824-23.683-3.865-.524-.983-1.902-3.819-2.833-7.665 9.134 2.019 18.335 2.544 26.515 2.545 8.181-.001 17.383-.526 26.518-2.546a35 35 0 0 1-1.086 3.64M175.346 222.984c-.889-1.853-1.842-4.057-2.507-6.089 4.495 1.499 8.978 2.379 13.295 2.854.062 2.178.299 7.299 1.252 11.774a32.7 32.7 0 0 1-9.869-4.33 80 80 0 0 1-2.171-4.209M222.894 198.845c0 1.589-.136 3.117-.357 4.555-9.223 2.168-18.657 2.739-27.061 2.738-8.403.001-17.836-.57-27.058-2.738a30 30 0 0 1-.361-4.554q0-1.401.153-2.853c9.274-2.183 18.792-2.772 27.266-2.772s17.991.589 27.265 2.771c.102.966.152 1.92.153 2.853"></path><path fill="#B48D00" d="M195.477 190.662c-8.286.002-17.607.547-26.829 2.602a24.7 24.7 0 0 1 3.118-7.735c8.12-3.047 16.366-3.875 23.711-3.874 7.344-.001 15.592.827 23.712 3.875a24.7 24.7 0 0 1 3.116 7.735c-9.223-2.057-18.544-2.601-26.828-2.603M177.768 171.836a32.7 32.7 0 0 1 9.554-4.154c-.931 4.564-1.089 9.78-1.119 11.896-4.328.471-8.824 1.349-13.332 2.85.677-2.055 1.669-4.311 2.596-6.207a81 81 0 0 1 2.301-4.385M200.887 167.113c1.033 4.235 1.261 9.838 1.304 12.23a89 89 0 0 0-6.713-.246c-2.161 0-4.41.072-6.716.246.043-2.393.271-7.995 1.307-12.23 1.76-.291 3.565-.45 5.409-.45s3.648.159 5.409.45"></path><path fill="#B48D00" d="M162.545 199.595c0-9.098 3.685-17.322 9.645-23.286.235-.235.481-.461.723-.689-1.201 2.513-2.472 5.542-3.088 8.179h-.001v-.001c-3.24 5.095-4.326 10.358-4.324 15.048.013 9.059 3.956 16.039 4.279 16.614.592 2.561 1.779 5.465 2.916 7.905-.168-.161-.341-.317-.505-.482-5.961-5.965-9.645-14.19-9.645-23.288M190.145 232.091c-.668-2.647-1.049-5.852-1.246-8.459a86 86 0 0 1-.2-3.646 89 89 0 0 0 6.777.252c2.18 0 4.451-.075 6.777-.253a85 85 0 0 1-.199 3.648c-.198 2.606-.578 5.812-1.246 8.458-1.736.283-3.516.436-5.332.436s-3.595-.152-5.331-.436M218.763 222.882c-.164.164-.337.32-.504.48 1.136-2.439 2.323-5.341 2.915-7.902.32-.568 4.266-7.552 4.278-16.615.003-4.69-1.083-9.953-4.323-15.046-.617-2.638-1.889-5.666-3.09-8.179.243.229.488.454.724.689 5.962 5.963 9.645 14.188 9.645 23.286-.001 9.098-3.683 17.323-9.645 23.287" data-source="https://football-logos.cc"></path><path fill="#FFF" d="m177.175 113.979-4.068.052c-2.481.002-10.027 2.403-10.033 2.404-5.737 1.719-15.693 6.056-17.348 6.782 2.64.459 5.62 2.078 5.653 2.084.002 0 .369.197.532.29.21.124 1.266.708 1.641 1.988.773.417 1.393.779 1.892 1.099l5.728-6.589c2.36-1.228 10.385-3.781 10.394-3.786 2.332-.193 2.825-.807 2.832-1.295a.8.8 0 0 0-.143-.444c.01-.714.898-.862.9-.864 2.464-.529 2.742-1.047 2.767-1.088-.01-.648-.745-.632-.747-.633M104.089 120.586c.388-.366 1.099-.771 1.736-1.085-1.253-.044-1.734-.419-1.79-.469-.46-.46-.893-.517-1.117-.52-.101 0-.142.011-.152.013l-1.234.234c-2.987.412-3.889 1.505-4.18 2.113l3.459.302q.297.05.613.048c1.148.007 2.404-.491 2.656-.627z"></path><path fill="#FFF" d="M147.753 136.716a10 10 0 0 1-.972-.052c-.887.312-2.23.371-3.579.377a43 43 0 0 1-3.751-.171q-.42.016-.83.016c-7.019-.006-12.058-3.385-12.108-3.415-.026-.038-2.675-1.804-2.709-4.72h.962c-.014 1.694 1.278 3.079 1.945 3.649.21.182.34.272.344.276.013 0 1.201.803 3.253 1.617 2.06.816 4.96 1.63 8.313 1.63a20 20 0 0 0 .848-.018 1 1 0 0 1 .095.009l.036.004.226.02a43.238 43.238 0 0 0 3.376.142c1.357.006 2.771-.104 3.341-.352l.126-.053.134.021c.001-.002.286.049.959.057q.238.002.512.003c2.088.004 5.854-.162 7.682-.762l.109-.034.113.017c.001-.001 1.042.157 2.299.314.669.084 1.4.168 2.069.229a54.482 54.482 0 0 1-1.994-1.909c-.001 0-.737-.898-1.055-1.148-.175-.023-.252-.067-.452-.125a19 19 0 0 1-.485-.17l-.173.561c-1.623-.505-5.446-.961-8.808-1.27a236 236 0 0 0-4.879-.396q.167.161.341.34c.718.768 1.505 1.715 1.532 2.801.017.787-.554 1.517-1.58 1.871l-.335-.902c.821-.332.934-.62.951-.968.027-.538-.583-1.448-1.262-2.133a12.4 12.4 0 0 0-1.34-1.199l-1.281-.961 1.598.096c.023.006 8.799.531 13.491 1.381-.066-.048-.149-.123-.194-.412-.007-.285.257-.473.353-.486.114-.038.185-.038.263-.039.159.001.445-.039.756-.041q.087.001.181.007a4 4 0 0 0-.208-.184c-.516-.432-1.457-1.058-3.055-1.907l-.199-.106-.046-.22c-.195-.967-1.05-1.474-1.233-1.574-.139-.079-.51-.279-.509-.279-.001 0-.987-.525-2.297-1.052-1.307-.53-2.945-1.045-4.127-1.041q-.27 0-.5.036l-.145-.952a4.3 4.3 0 0 1 1.066-.024l-.039-.026c-3.97-2.635-13.686-5.897-13.915-5.907h-.002c-2.744-.627-7.155-2.93-7.162-2.932-4.907-2.644-9.04-3.208-9.045-3.208a7 7 0 0 0-1.318-.115c-2.79.001-5.92 1.286-5.925 1.288-2.897 1.177-4.389 3.328-4.395 3.335-.46.665-.86 2.189-.963 2.598l.509-.097c.015-.002.105-.022.251-.024.315-.001.902.101 1.444.648.001-.001.005.007.06.037.053.031.142.075.275.121.265.091.707.189 1.382.189q.437.001 1.017-.064v.001l.004-.001.051.476.002.006a5.88 5.88 0 0 0-.347.139c-.221.095-.513.229-.817.38-.585.289-1.236.663-1.527.937-.039.083-.066.044-.079.078-.023.017-.044.028-.069.042a3 3 0 0 1-.2.093 7.854 7.854 0 0 1-1.758.509c.072.09.145.165.216.21.208.121.854.911 1.429 1.652.29.373.567.736.778 1.007.207.243.276.388.384.454 1.657 1.988 1.825 3.616 1.825 4.202 0 .155-.011.233-.01.233-.138.472-.195 1.002-.195 1.553 0 2.904 1.607 6.387 1.608 6.393 4.474 9.535 12.861 11.769 19.7 11.766a35 35 0 0 0 5.542-.457l-4.389 11.83-.118-.114v-.001c-.004.021-.646.622-.672 1.167q-.002.093.036.186l-.197.284c.021-.015-.339.263-.378.686-.081.07-.229.203-.292.351-.027.07-.139.352-.14.66 0 .087.009.179.037.27l-1.027 1.325-.005-.008c-.075-.11-.242-.103-.248-.11l-.262.033-.543.073-.171.09-.069.196-.175.079-.325.06-.696.065-1.18.125c.007-.001-.65-.024-1.171-.024-.319.003-.556 0-.645.044-.767.101-1.04.602-1.044.612.004.005-.446.45-.532.623-.503.389-.643.916-.641 1.369 0 .535.188.976.208 1.02l.001.003.104-.046a.7.7 0 0 1-.05-.262c-.005-.413.375-.834.777-1.142.358-.281.761-.473.83-.498a.74.74 0 0 0 .359.087 1 1 0 0 0 .168-.018c-.012.02-.4.528-.453.692a1.6 1.6 0 0 0-.472 1.162c0 .683.356 1.253.358 1.259l.098-.059a.7.7 0 0 1-.09-.349c-.002-.405.328-.85.675-1.185.173-.167.351-.309.488-.408q.104-.076.172-.115c.032-.021.048-.025.054-.03a.7.7 0 0 0 .258.046c.554-.004 1.014-.571 1.02-.574l2.441-.798q.029.074.092.126l-.463.204c-.004.005-1.581.437-1.719.57-.703.335-.806.899-.806.907-.001.001-.306.625-.323.771a1.6 1.6 0 0 0-.281.902c.002.736.481 1.339.59 1.467l.019.023h.001l.001.002.086-.074a.73.73 0 0 1-.166-.481c-.001-.394.253-.854.521-1.21.133-.179.27-.332.375-.44a3 3 0 0 1 .17-.158.6.6 0 0 0 .128.013c.619-.008 1.026-.757 1.031-.758l.515-.281c.035.425.165.766.193.828l.003.009h.001v.001l.104-.044a.7.7 0 0 1-.052-.263c-.002-.36.286-.719.625-1.008l1.08-.589a.8.8 0 0 0 .256.049 1 1 0 0 0 .172-.018c-.007.016-.397.528-.449.691a1.6 1.6 0 0 0-.474 1.166c0 .635.307 1.171.351 1.245l.004.007v.001l.099-.057-.001-.003a.7.7 0 0 1-.088-.343c-.001-.405.329-.85.679-1.187a5 5 0 0 1 .488-.411 4 4 0 0 1 .222-.143l.004-.004v-.001a.7.7 0 0 0 .259.051c.554-.006 1.011-.568 1.016-.571l2.361-.774c.044.03.092.045.142.058.012.014.019.03.034.042l-.464.207c-.004.006-1.58.431-1.722.571-.702.33-.807.894-.809.904.003-.004-.301.621-.32.764a1.56 1.56 0 0 0-.28.905c.001.792.554 1.431.605 1.491l.003.003.001.002.087-.075-.002-.002-.005-.005a.73.73 0 0 1-.159-.474c-.002-.394.253-.854.52-1.21.134-.179.269-.331.375-.438a2 2 0 0 1 .17-.154l-.001-.001a.6.6 0 0 0 .125.011c.621-.008 1.029-.758 1.035-.76l1.782-.97c.104.215.181.456.181.715a1.4 1.4 0 0 1-.012.189v.003l.083.011c0-.001.05-.32.05-.738 0-.106-.005-.222-.014-.338l.811-.442.598.019.045.001.042-.022c.003-.008.092-.058.223-.136h.054c.144-.013.396-.166.402-.167l.156-.167.077-.116q.063-.048.125-.098l.041.064.109.099c.019.01.09.03.16.032.032-.002.065-.004.093-.025.056-.04.182-.155.213-.181l.122-.08 1.763.417c-.001.011.216.355.475.363a.28.28 0 0 0 .21-.107c.106.083.876.763.878 1.604a2 2 0 0 1-.013.194v.001l.083.013c0-.001.053-.323.053-.747-.001-.499-.072-1.141-.399-1.566-.033-.122-.306-.594-.308-.603 0 .006-.154-.474-.578-.535-.009-.014-.036-.01-.075-.013-.226.001-.831.14-.833.14l-.578-.044-.353-.016-.174-.037-.084-.091-.014-.133-.092-.099-.183-.023.048-.733-.007-.026s-.119-.445-.119-1.063c0-.401.05-.868.214-1.322-.007.017.417-.791.617-1.333l.639-2.307 3.492-8.756c-.001.005.185-.419.388-.851.102-.214.208-.433.295-.598.043-.081.082-.151.111-.197a.3.3 0 0 1 .033-.046v-.001l.001-.001h-.001a.64.64 0 0 0 .247-.292l2.902-.815 2.051-3.862c1.412-1.408 1.594-2.9 1.592-3.558 0-.219-.02-.347-.02-.35.31-.839.799-1.864 1.361-2.939a57 57 0 0 1-2.9.054m-35.075-18.508c-1.015 0-1.841-.702-1.841-1.571 0-.872.826-1.578 1.841-1.578 1.014 0 1.837.706 1.837 1.578 0 .869-.823 1.571-1.837 1.571m23.131 42.358c-.122.133-.626.66-.647 1.139a.5.5 0 0 0 .035.183l-.198.283c.02-.014-.337.266-.376.687-.082.071-.231.204-.295.349-.025.073-.139.353-.139.658 0 .089.009.182.037.274l-1.026 1.326-.005-.008c-.079-.109-.244-.1-.249-.107l-.258.031-.546.066-.176.098-.064.192-.176.077-.325.06-.476.047-.273-.013-.16-.042-.091-.09-.017-.139-.093-.096-.181-.021.047-.73-.005-.027a4.5 4.5 0 0 1-.119-1.058c0-.402.051-.872.216-1.327-.007.017.415-.789.614-1.335l.64-2.303 3.493-8.759c-.001.004.185-.418.388-.848.1-.215.208-.432.294-.597.043-.081.082-.151.112-.197a.3.3 0 0 1 .031-.044l.003-.003v-.001a.6.6 0 0 0 .117-.098c1.844-.413 2.98-.813 2.982-.814l.854-.254.269.544.112.234.194.412zM337.699 343.533l22.197-35.524-15.282 7.837s-.122.062-.424.211c-2.122 1.046-12.116 5.84-29.177 11.876-3.821 1.359-12.041 3.628-19.228 5.879-3.617 1.136-6.989 2.266-9.665 3.392-1.349.573-2.51 1.118-3.616 1.836a8.8 8.8 0 0 0-1.489 1.208l-.241-.279-.029.026h-.001a6.4 6.4 0 0 0-.766.785 7 7 0 0 0-1.189 2.106 8.3 8.3 0 0 0-.455 2.783c.019 1.023.151 1.956.349 2.83-20.438 3.566-49.2 6.348-75.443 6.818a42 42 0 0 1 3.201-3.823 41.5 41.5 0 0 1 5.672-4.967q.187.209.392.419c2.028 2.101 5.465 4.216 10.399 4.216h.062c1.404 0 2.921-.163 4.557-.524l2.68-.591-1.501-2.296c-.033-.048-.489-.745-1.306-1.726 2.274 1.438 5.28 2.511 9.088 2.511h.067c1.415 0 2.936-.141 4.566-.449l2.697-.513-1.436-2.341c-.02-.031-.234-.379-.624-.929 2.073 1.204 4.753 2.054 8.107 2.054h.086q1.123 0 2.335-.121l2.736-.275-.773-1.548c2.177 1.507 5.157 2.642 9.034 2.642h.091q1.118 0 2.322-.121l2.737-.274-1.229-2.458c-.021-.039-.241-.479-.649-1.153q.562.051 1.157.056h.033c2.958-.001 6.431-.997 10.071-3.674l2.213-1.622-2.3-1.495c-.147-.063-4.979-3.316-10.75-3.388a21 21 0 0 0 2.023-3.052l1.325-2.399-2.712-.393c-.066-.009-1.193-.171-2.873-.171-2.087.005-5.032.234-7.89 1.427-.868.356-1.728.834-2.544 1.417a20.4 20.4 0 0 0 1.516-4.55l.58-2.68-2.712.406c-.087.015-1.984.3-4.406 1.204-1.599.604-3.443 1.481-5.133 2.783.464-1.193.859-2.5 1.152-3.948l.555-2.688-2.709.433c-.087.014-2.235.359-4.968 1.407-2.724 1.058-6.076 2.8-8.458 5.842-.263.335-.506.694-.739 1.063a20.7 20.7 0 0 0 .294-3.603q.002-1.268-.139-2.652l-.28-2.728-2.452 1.226c-.093.05-2.813 1.404-5.616 3.94-1.292 1.176-2.634 2.637-3.704 4.368q-.319-1.336-.866-2.771l-.979-2.561-2.051 1.822c-.068.063-1.647 1.468-3.266 3.738-1.603 2.274-3.314 5.438-3.331 9.146a11 11 0 0 0 .764 4.023 45 45 0 0 0-5.049 4.608 48 48 0 0 0-5.981 7.8l-.86.002c-.281 0-.568-.004-.851-.004a48 48 0 0 0-5.979-7.798 45 45 0 0 0-5.049-4.608c.528-1.35.767-2.716.763-4.023-.016-3.708-1.727-6.873-3.331-9.146-1.618-2.271-3.198-3.675-3.266-3.738l-2.051-1.822-.979 2.561c-.366.957-.651 1.88-.866 2.771-1.07-1.731-2.412-3.192-3.704-4.368-2.804-2.536-5.523-3.89-5.616-3.94l-2.453-1.226-.28 2.728a26 26 0 0 0-.139 2.652 20.7 20.7 0 0 0 .295 3.603 13 13 0 0 0-.739-1.063c-2.382-3.042-5.734-4.785-8.458-5.842-2.732-1.048-4.881-1.393-4.968-1.407l-2.708-.433.554 2.688a24 24 0 0 0 1.152 3.948c-1.689-1.301-3.534-2.179-5.133-2.783-2.421-.904-4.319-1.189-4.406-1.204l-2.713-.406.58 2.68a20.4 20.4 0 0 0 1.516 4.55 12.7 12.7 0 0 0-2.544-1.417c-2.858-1.193-5.802-1.422-7.89-1.427-1.679 0-2.807.162-2.873.171l-2.712.393 1.326 2.399a20.6 20.6 0 0 0 2.023 3.052c-5.771.072-10.603 3.325-10.75 3.388l-2.3 1.495 2.213 1.622c3.641 2.677 7.115 3.673 10.072 3.674h.033q.595-.005 1.157-.056c-.408.674-.629 1.114-.649 1.153l-1.229 2.458 2.737.274q1.204.121 2.322.121h.091c3.877 0 6.857-1.135 9.035-2.642l-.773 1.548 2.736.275q1.212.121 2.335.121h.086c3.354 0 6.034-.85 8.107-2.054-.389.55-.604.898-.624.929l-1.436 2.341 2.697.513c1.63.308 3.152.449 4.567.449h.067c3.809 0 6.815-1.073 9.089-2.511-.817.981-1.273 1.678-1.306 1.726l-1.501 2.296 2.679.591c1.636.361 3.153.524 4.557.524h.062c4.935 0 8.372-2.115 10.399-4.216q.205-.21.392-.419a41.5 41.5 0 0 1 5.672 4.967 42 42 0 0 1 3.197 3.817c-22.705-.407-47.283-2.532-66.748-5.414a340 340 0 0 1-8.705-1.399c.199-.874.332-1.807.35-2.83a8.3 8.3 0 0 0-.455-2.78 6.94 6.94 0 0 0-1.544-2.506 6 6 0 0 0-.41-.387l-.004-.003-.245.282c-1.058-1.069-1.965-1.528-3.006-2.094-1.918-.976-4.272-1.864-6.986-2.802-4.051-1.39-8.833-2.814-13.245-4.121-4.394-1.301-8.458-2.5-10.781-3.326-9.751-3.449-17.193-6.492-22.177-8.662a199 199 0 0 1-5.612-2.543q-.935-.445-1.39-.671c-.303-.15-.423-.212-.425-.212l-15.278-7.832 9.098 14.562 13.096 20.959L0 346.721l21.743 7.811c.012.003 4.71 1.691 10.912 3.948s13.897 5.077 19.834 7.323c3.405 1.289 7.211 2.762 11.093 4.281.017 1.167.104 2.324.28 3.462l-.007.062-.347 3.965 2.814.75q.191.16.368.309c1.673 1.232 3.514 2.02 5.998 2.953 8.552 3.112 24.485 6.673 45.819 9.579 21.295 2.886 47.829 5.037 76.963 5.037 35.518-.001 67.163-3.194 90.178-7.025 11.516-1.919 20.857-3.992 27.556-5.951 3.36-.988 6.042-1.929 8.156-2.916 1.065-.502 1.986-.998 2.889-1.676q.175-.149.365-.306l2.818-.75-.347-3.968q-.003-.032-.007-.063a25 25 0 0 0 .277-3.459c3.883-1.521 7.69-2.993 11.095-4.282 5.937-2.246 13.632-5.067 19.834-7.322a2877 2877 0 0 1 10.911-3.949l21.755-7.812zm-101.352-4.998.059.118-.147-.116q.043 0 .088-.002m-13.836 2.578q.26.414.586.862-.501-.36-1.042-.696c.152-.055.301-.112.456-.166m-67.967-2.46.059-.118q.044 0 .089.002zm13.31 3.322q.325-.448.586-.862.23.082.456.166a17 17 0 0 0-1.042.696"></path><path fill="#B48D00" d="M187.582 348.587a44.3 44.3 0 0 0-6.154-5.417c3.988-7.749-4.931-15.684-4.931-15.684-2.33 6.102-1.011 10.343.778 13.005a45 45 0 0 0-3.427-1.762c1.978-9.692-10.152-15.763-10.152-15.763-.689 6.762 1.493 10.929 3.976 13.444a50 50 0 0 0-5.704-1.337c-.614-10.269-14.463-12.486-14.463-12.486 1.412 6.832 4.888 10.145 8.082 11.752a62 62 0 0 0-6.062-.061c-1.636-7.834-12.544-9.472-12.544-9.472 1.212 5.606 4 8.471 6.662 9.935a82 82 0 0 0-4.81.708c-3.268-8.211-15.223-6.489-15.223-6.489 2.888 5.227 6.557 7.117 9.601 7.671-.838.202-1.689.423-2.547.652-6.417-5.872-16.407.622-16.407.622 7.292 5.346 12.999 3.003 15.595 1.302l.018.064c-2.832 2.594-4.426 5.78-4.426 5.78 9.143.928 12.851-4.161 14.174-6.917a79 79 0 0 1 5.093-.722c-3.72 2.676-5.855 6.939-5.855 6.939 9.608.981 13.216-4.687 14.358-7.309q3.737.081 7.055.578c-6.05 2.033-10.082 8.604-10.082 8.604 10.974 2.085 15.641-4.152 17.164-6.998a43.5 43.5 0 0 1 5.773 2.237c-5.474 1.502-9.288 7.326-9.288 7.326 8.161 1.803 12.431-1.857 14.366-4.476a42 42 0 0 1 7.365 6.181 43.5 43.5 0 0 1 3.959 4.848q1.692.023 3.367.032a46.6 46.6 0 0 0-5.311-6.787M205.384 350.494a42.2 42.2 0 0 1 7.365-6.181c1.935 2.619 6.206 6.279 14.366 4.476 0 0-3.814-5.824-9.289-7.326a43.5 43.5 0 0 1 5.774-2.237c1.522 2.846 6.19 9.083 17.164 6.998 0 0-4.033-6.571-10.082-8.604q3.316-.496 7.054-.578c1.143 2.623 4.75 8.291 14.359 7.309 0 0-2.136-4.263-5.856-6.939a78 78 0 0 1 5.093.722c1.324 2.755 5.033 7.845 14.175 6.917 0 0-1.594-3.186-4.426-5.78l.018-.064c2.597 1.701 8.303 4.043 15.596-1.302 0 0-9.991-6.494-16.407-.622-.858-.229-1.709-.451-2.547-.652 3.044-.554 6.713-2.444 9.602-7.671 0 0-11.955-1.722-15.223 6.489a82 82 0 0 0-4.81-.708c2.662-1.464 5.45-4.328 6.662-9.935 0 0-10.908 1.638-12.544 9.472q-1.231-.046-2.425-.046a62 62 0 0 0-3.637.107c3.194-1.607 6.67-4.92 8.082-11.752 0 0-13.85 2.217-14.463 12.486a51 51 0 0 0-5.705 1.337c2.483-2.515 4.666-6.682 3.977-13.444 0 0-12.13 6.071-10.153 15.763a45 45 0 0 0-3.427 1.762c1.788-2.662 3.107-6.903.777-13.005 0 0-8.918 7.935-4.93 15.684a44.3 44.3 0 0 0-6.155 5.417 46.4 46.4 0 0 0-5.314 6.793q1.675-.011 3.369-.036c1.091-1.551 2.4-3.2 3.96-4.85"></path><path fill="#B48D00" d="m333.003 345.955 19.424-31.086-6.582 3.378c-.001 0-.617.316-1.886.918-3.809 1.807-13.327 6.104-28.044 11.311-4.011 1.422-12.184 3.673-19.321 5.91-3.578 1.124-6.903 2.243-9.424 3.304-1.264.535-2.323 1.044-3.185 1.606-.433.288-.825.582-1.193.993a3.4 3.4 0 0 0-.541.826c-.526.785-.714 1.712-.706 2.556.012 1.444.43 2.921.965 4.36-6.902 1.295-14.917 2.511-23.528 3.552-19.736 2.406-42.764 3.994-63.512 3.994-24.866.001-53.007-2.285-74.832-5.516a325 325 0 0 1-12.21-2.03c.536-1.438.954-2.916.966-4.36.007-.842-.18-1.765-.704-2.549a3.4 3.4 0 0 0-.542-.833c-.689-.749-1.463-1.191-2.438-1.705-3.353-1.704-9.244-3.571-15.283-5.4-6.01-1.812-12.118-3.542-15.398-4.705-9.813-3.472-17.315-6.54-22.354-8.733a199 199 0 0 1-5.692-2.579c-1.269-.602-1.884-.919-1.886-.919l-6.577-3.37 3.914 6.267 15.505 24.811-44.633 2.673 9.353 3.365c.01.005 4.713 1.693 10.922 3.953 6.207 2.258 13.908 5.081 19.866 7.335 3.785 1.432 8.057 3.088 12.376 4.784a26 26 0 0 0-.061 1.643c0 1.599.156 3.164.477 4.672.353 1.381 1.104 1.958 1.775 2.512 1.314.977 3.049 1.756 5.429 2.641 8.25 3.012 24.141 6.582 45.36 9.465 21.2 2.875 47.642 5.017 76.668 5.019 35.386-.001 66.926-3.185 89.82-6.996 11.448-1.909 20.727-3.969 27.3-5.893 3.291-.967 5.899-1.889 7.844-2.797.976-.459 1.787-.905 2.493-1.438.675-.553 1.424-1.131 1.776-2.513a22.4 22.4 0 0 0 .476-4.67 25 25 0 0 0-.061-1.642 1099 1099 0 0 1 12.378-4.785c5.959-2.253 13.659-5.077 19.866-7.334 6.208-2.26 10.912-3.948 10.923-3.953l9.371-3.366z"></path><path fill="#DC161B" d="M80.882 341.377c.04-.04.079-.089.12-.12.383-.314.744-.445 1.094-.547.7-.189 1.435-.232 2.312-.236 2.881.005 7.238.622 11.465 1.227.93.134 1.853.269 2.75.396a168 168 0 0 0-5.5-1.817c-7.062-2.216-15.164-4.437-19.458-5.956-10.921-3.864-19.026-7.238-24.114-9.494l15.49 24.788-31.691 1.898c6.451 2.343 15.018 5.478 21.54 7.945 3.543 1.34 7.502 2.874 11.526 4.45 1.669-7.748 6.556-15.851 14.466-22.534M357.59 351.518l-31.691-1.898 15.491-24.79c-5.088 2.257-13.193 5.631-24.114 9.495-3.533 1.25-9.601 2.961-15.584 4.767-3.319.997-6.627 2.037-9.378 3.007.897-.128 1.821-.262 2.751-.396 4.227-.605 8.583-1.222 11.464-1.227.654.001 1.238.031 1.779.12.538.103 1.049.205 1.626.661.034.026.065.067.099.099 7.923 6.686 12.818 14.798 14.49 22.557a1068 1068 0 0 1 11.527-4.451c6.523-2.468 15.088-5.602 21.54-7.944"></path><path fill="#DC161B" d="M93.901 346.708c3.187.926 7.067 1.845 11.48 2.732.51-1.295.883-2.587.943-3.487a12 12 0 0 1-.337.005c-2.313-.007-6.327-.623-10.552-1.227-3.421-.496-6.957-.981-9.485-1.141.193.124.403.252.653.386 1.536.837 4.064 1.798 7.298 2.732M304.979 343.591c-2.527.161-6.06.646-9.478 1.14-4.225.604-8.238 1.22-10.552 1.227q-.173 0-.336-.004c.06.899.433 2.189.942 3.484 7.454-1.498 13.368-3.082 16.979-4.614a15 15 0 0 0 2.445-1.233"></path><path fill="#DC161B" d="M319.8 372.859c-.446.318-1.644.973-3.313 1.599-7.083 2.753-22.83 6.428-43.957 9.333-21.152 2.918-47.792 5.119-77.06 5.119-35.077 0-66.38-3.162-88.981-6.928-11.295-1.88-20.425-3.915-26.704-5.756-3.135-.916-5.564-1.792-7.114-2.521-.732-.34-1.266-.655-1.534-.853a17.6 17.6 0 0 1-.273-3.146c-.023-6.826 3.668-15.395 11.254-22.596 1.332 1.104 3.033 1.917 5.19 2.778 8.744 3.392 25.301 6.506 45.042 8.883 19.71 2.36 42.466 3.908 63.118 3.91 25.174-.001 53.474-2.302 75.578-5.571 11.057-1.639 20.55-3.511 27.412-5.501 3.438-1.002 6.21-2.015 8.306-3.146.767-.42 1.451-.85 2.057-1.352 7.584 7.2 11.276 15.77 11.252 22.595.001 1.1-.093 2.155-.273 3.153"></path><path fill="#FFF" d="M93.993 360.356c.132.233.202.503.202.822q.001.282-.075.612c-.104.435-.307 1.094-.61 1.958l-.123.351 1.318.309.101-.278c.519-1.406.889-2.339 1.098-2.787.208-.451.471-.924.78-1.424l.217-.35-.386-.142c-.301-.11-.663-.263-1.079-.451-.743-.347-1.395-.593-1.958-.721a6.7 6.7 0 0 0-1.562-.191 5.7 5.7 0 0 0-1.591.224 6.2 6.2 0 0 0-2.596 1.464c-.737.695-1.225 1.467-1.424 2.315a4 4 0 0 0-.09 1.304q.061.683.338 1.387c.144.356.486.95 1.042 1.84.555.897.904 1.52 1.032 1.822.195.473.301.872.333 1.189q.016.151.015.299 0 .329-.074.644c-.211.891-.795 1.604-1.84 2.181a4.4 4.4 0 0 1-2.161.573q-.529.001-1.08-.127a2.4 2.4 0 0 1-.94-.45 2 2 0 0 1-.558-.704c-.104-.229-.173-.649-.172-1.235-.013-.532-.037-.876-.176-1.158a1.25 1.25 0 0 0-1.14-.719c-.29-.001-.57.103-.818.279a1.74 1.74 0 0 0-.674 1.053 2 2 0 0 0-.058.494c.001.688.32 1.381.896 2.075.731.886 1.749 1.483 3.013 1.776a8.2 8.2 0 0 0 3.834-.005c1.277-.311 2.335-.849 3.152-1.617.809-.763 1.342-1.647 1.577-2.644q.098-.427.099-.876 0-.656-.208-1.365c-.236-.814-.817-1.923-1.746-3.394-.491-.789-.78-1.388-.863-1.73a2.2 2.2 0 0 1-.068-.544q0-.282.072-.588c.179-.746.632-1.336 1.427-1.817.554-.331 1.108-.489 1.684-.491q.367 0 .752.092c.54.13.869.37 1.088.745M103.761 373.466a8 8 0 0 1-1.688.849c-.257.095-.446.132-.512.129l-.009-.001a.4.4 0 0 1 .01-.063c.036-.207.246-.792.608-1.657q1.007-2.422 1.956-4.231l1.859-3.557-1.592.025-.097.107-.261.283a8.59 8.59 0 0 0-2.306-.335q-.681 0-1.262.142-1.553.405-3.085 1.559a11.7 11.7 0 0 0-2.611 2.731c-.718 1.045-1.184 2.047-1.372 3.009a4.2 4.2 0 0 0-.086.835c0 .487.098.937.296 1.336.231.5.702.826 1.276.93a2.7 2.7 0 0 0 .517.048c.468 0 .968-.109 1.503-.315q1.075-.41 2.02-.997l-.218.418c-.117.216-.2.41-.237.598a1 1 0 0 0-.022.227.85.85 0 0 0 .165.517c.159.213.402.326.672.379q.272.051.556.052.265 0 .544-.043a7.6 7.6 0 0 0 1.813-.549c.354-.156 1.079-.576 2.23-1.278l.271-.166-.635-1.179zm-1.654-6.343-1.689 3.472c-.536 1.103-1.172 1.864-1.908 2.334-.623.389-1.151.562-1.574.561q-.147 0-.271-.024c-.223-.05-.344-.142-.457-.36a1.1 1.1 0 0 1-.09-.485q-.001-.259.07-.611c.202-1.052.644-2.054 1.329-3.024.684-.979 1.341-1.592 1.914-1.866.395-.19.81-.281 1.258-.281q.325-.001.674.067.313.057.744.217M110.899 374.291c-.816.562-1.608 1.006-2.368 1.316-.309.125-.545.18-.65.177h-.012q0-.028.008-.071h.001c.065-.214.626-1.584 1.653-4.015l2.195-5.19c.784-1.87 1.337-3.123 1.641-3.735.3-.602.594-.954.767-1.045a.6.6 0 0 1 .331-.073q.121 0 .284.027c.332.058.691.148 1.073.284.468.166.835.28 1.138.329q.207.036.415.038c.274 0 .534-.058.755-.19a1.21 1.21 0 0 0 .6-1.048 1.2 1.2 0 0 0-.296-.771c-.251-.291-.607-.454-1.026-.53a6 6 0 0 0-1.052-.09 6.4 6.4 0 0 0-2.367.46 6.3 6.3 0 0 0-2.831 2.198c-.497.687-1.154 1.988-2.015 3.962l-2.355 5.426c-.905 2.091-1.416 3.468-1.549 4.228a2 2 0 0 0-.031.362c-.001.267.061.521.191.74.175.303.482.52.84.574q.183.03.385.03c.629-.001 1.36-.212 2.232-.605a13.3 13.3 0 0 0 2.803-1.711l.24-.193-.723-1.076z"></path><path fill="#FFF" d="m122.563 373.366 2.055-4.746-2.528-.364-.103.236-2.187 5.104c-.398.915-1.065 1.687-2.023 2.324-.885.594-1.558.861-1.902.853a1 1 0 0 1-.103-.006c-.025-.006-.058-.014-.122-.104a.34.34 0 0 1-.052-.26c.018-.177.472-1.387 1.33-3.383.963-2.255 1.489-3.652 1.595-4.335q.025-.168.025-.323c0-.235-.047-.453-.163-.64a.97.97 0 0 0-.714-.453 1.6 1.6 0 0 0-.275-.019c-.407.001-.87.11-1.422.308-.708.251-1.699.813-3.017 1.687l-.332.218.974 1.038.237-.167c.726-.509 1.243-.824 1.48-.922.185-.082.329-.116.417-.125l-.003.023c-.039.305-.511 1.547-1.388 3.527q-1.05 2.358-1.342 3.174a5.7 5.7 0 0 0-.291 1.134 2.5 2.5 0 0 0-.036.419c0 .297.06.567.199.793.201.314.536.5.904.554.127.017.252.025.384.025.548 0 1.16-.146 1.846-.42a12.6 12.6 0 0 0 2.355-1.251 5 5 0 0 0-.174.75 2 2 0 0 0-.024.324 1.5 1.5 0 0 0 .238.851c.205.309.527.52.894.566q.109.015.233.017c1.02-.018 2.365-.783 4.245-2.229l.245-.191-.72-1.095-.285.213c-.904.678-1.527 1.106-1.784 1.224a.8.8 0 0 1-.322.095l-.022-.001-.02-.022c-.002-.006-.013-.019-.013-.082a1 1 0 0 1 .006-.079c.028-.242.613-1.737 1.705-4.24M132.706 364.579c.253-.333.473-.442.729-.446a.5.5 0 0 1 .093.008c.214.021.468.084.762.176.697.215 1.186.342 1.516.386.105.01.201.018.3.018.31 0 .594-.068.833-.215a1.18 1.18 0 0 0 .546-.864c.004-.052.009-.102.009-.158a1.14 1.14 0 0 0-.376-.849c-.296-.279-.717-.402-1.243-.469a4 4 0 0 0-.528-.034c-.744 0-1.526.185-2.351.531a6.7 6.7 0 0 0-2.603 1.937c-.704.859-1.336 2.114-1.918 3.773l-2.359 6.689c-.365 1.051-.586 1.887-.666 2.524a3 3 0 0 0-.025.417 2.7 2.7 0 0 0 .594 1.738c.479.599 1.188.953 2.048 1.053q.243.027.491.028c.875 0 1.783-.27 2.717-.787 1.129-.624 2.115-1.606 2.967-2.919.855-1.322 1.376-2.725 1.553-4.195a7 7 0 0 0 .049-.793c0-.661-.114-1.223-.375-1.675a2.1 2.1 0 0 0-1.619-1.071 3 3 0 0 0-.331-.019q-.763.001-1.692.361a7 7 0 0 0-1.441.782l1.212-3.338c.517-1.429.914-2.327 1.108-2.589m-.38 6.422-.039.333c.247.036.375.126.505.359.144.287.224.639.224 1.062q0 .225-.03.475c-.175 1.448-.711 2.869-1.621 4.26-.845 1.292-1.653 1.842-2.356 1.834q-.088 0-.172-.009c-.308-.042-.541-.178-.759-.466a1.3 1.3 0 0 1-.258-.789q0-.097.014-.203c.147-1.2.542-2.4 1.198-3.595.663-1.214 1.305-2.01 1.878-2.399.544-.378.981-.536 1.271-.536h.008a1 1 0 0 1 .097.005zM149.971 379.229c-.998.813-1.765 1.264-1.984 1.347a.3.3 0 0 1-.006-.046l.001-.025c.039-.529.655-2.382 1.841-5.374.729-1.861 1.099-2.839 1.144-3.228.001-.036.003-.063.003-.1a.94.94 0 0 0-.276-.68c-.22-.214-.512-.307-.834-.334a1.4 1.4 0 0 0-.195-.01c-.547.001-1.16.172-1.857.49a7.5 7.5 0 0 0-1.104.647c.192-.19.32-.438.344-.712.003-.042.006-.079.006-.12a1.16 1.16 0 0 0-.283-.745 1.25 1.25 0 0 0-.848-.438c-.042-.009-.089-.006-.117-.007-.471.005-.952.238-1.513.637a16.4 16.4 0 0 0-2.232 1.968l.213-.614c.165-.49.252-.764.278-.954.003-.034.003-.049.003-.076a.7.7 0 0 0-.215-.497.87.87 0 0 0-.562-.241 1.3 1.3 0 0 0-.182-.01c-.519.002-1.151.183-1.953.517-.914.38-1.841.989-2.788 1.818l-.229.199.742 1.032.278-.223c.766-.627 1.301-1.017 1.538-1.143.173-.096.313-.144.385-.161a8 8 0 0 1-.171.606 120 120 0 0 1-1.643 4.766l-1.412 3.813 2.634.269.086-.252.842-2.465c.554-1.653.956-2.706 1.171-3.103.214-.405.591-.9 1.12-1.464.532-.561 1.005-.964 1.4-1.2q.59-.364 1.549-.589c.574-.132.971-.249 1.258-.398-.396.294-.806.632-1.238 1.03l-.267.245 1.016.943.226-.187c.817-.676 1.362-1.08 1.536-1.167.131-.068.239-.103.324-.115q-.024.147-.103.341c-1.671 4.132-2.556 6.707-2.666 7.898a2 2 0 0 0-.007.172 1.4 1.4 0 0 0 .281.881c.214.284.559.451.936.477q.067.004.143.005c.413-.002.87-.143 1.407-.388.628-.296 1.563-.943 2.861-1.968l.275-.219-.904-1.047zM152.986 366.767q.005-.068.006-.132a1.27 1.27 0 0 0-.282-.811 1.25 1.25 0 0 0-.863-.45 1.532 1.532 0 0 0-1.203.428 1.76 1.76 0 0 0-.576 1.322c-.001.304.089.6.275.834.212.263.524.428.868.455.043.001.073.005.119.005h.005c.384 0 .755-.167 1.061-.457.344-.311.553-.73.59-1.194M155.801 377.897l1.38-4.047 2.71.191.478-1.567-2.692-.193 1.271-3.792-2.92.883-.055.165-.853 2.555-2.102-.15-.52 1.566 2.114.156-1.58 4.688c-.425 1.278-.669 2.235-.719 2.917a4 4 0 0 0-.012.305c0 .43.073.791.268 1.078.219.334.59.535.997.552.039.001.079.005.129.005.45-.002.976-.142 1.607-.401.718-.294 2.05-1.083 4.065-2.391l.296-.193-.85-1.184-.27.188q-1.032.719-2.149 1.271c-.516.253-.908.364-1.071.359l-.03-.001c-.117-.013-.139-.034-.16-.058s-.047-.067-.049-.207q0-.033.004-.082c.028-.441.264-1.337.713-2.613M180.621 373.014c-.487-.377-1.149-.553-1.966-.583q-.118-.006-.22-.005c-1.04-.002-1.957.313-2.686.948-.77.661-1.199 1.499-1.23 2.447l-.001.122c0 1.008.465 2.034 1.33 3.073.624.74 1.022 1.274 1.17 1.549.141.259.205.5.205.725v.057c-.009.252-.096.507-.282.789-.175.262-.403.45-.711.578a2.6 2.6 0 0 1-.961.171l-.152-.003c-.359-.014-.586-.104-.737-.245-.18-.162-.233-.288-.236-.465v-.015c.003-.079.009-.162.022-.263a4 4 0 0 0 .041-.375v-.038a1.1 1.1 0 0 0-.334-.785 1.24 1.24 0 0 0-.844-.366q-.02-.003-.041-.001h-.015a1.3 1.3 0 0 0-.914.371 1.35 1.35 0 0 0-.348.591l-.778-1.064-.275.237a8.4 8.4 0 0 1-1.561 1.076 2 2 0 0 1-.494.203l-.002-.045q0-.009.002-.025c.01-.208.137-.817.374-1.722.44-1.696.889-3.179 1.351-4.462l1.346-3.786-1.572.252-.08.118-.22.316a9 9 0 0 0-.668-.071q-.295-.015-.563-.015c-.899 0-1.679.124-2.334.39-.987.41-1.93 1.069-2.833 1.969q-1.352 1.358-2.211 3.065c-.566 1.137-.887 2.193-.938 3.173q-.01.137-.009.272c0 .714.165 1.343.511 1.851.307.458.813.723 1.398.742.043.002.081.003.126.003.58-.001 1.188-.193 1.833-.548q1.01-.555 1.863-1.267l-.156.441a2.3 2.3 0 0 0-.15.624c-.004.022-.003.055-.003.076a.89.89 0 0 0 .247.647c.187.187.442.264.716.28q.076.002.151.003.465-.002.942-.146a7.4 7.4 0 0 0 1.72-.803c.33-.196.983-.71 2.032-1.566l.223-.182a1.5 1.5 0 0 0-.057.354l-.001.083c-.005.678.284 1.292.813 1.767.581.519 1.425.767 2.506.807l.239.003h.008c1.193 0 2.227-.333 3.05-1.004.872-.708 1.356-1.615 1.391-2.633l.002-.117c-.002-1.014-.502-2.043-1.43-3.099-.67-.765-1.08-1.326-1.212-1.604a1.9 1.9 0 0 1-.19-.822l.001-.064c.013-.338.124-.573.343-.784.221-.204.434-.289.685-.292l.039.003c.254.005.592.208.974.754.23.326.401.529.593.661.175.121.386.177.6.186h.025l.021-.001.01.001c.311.003.611-.114.84-.325.239-.217.391-.517.401-.841v-.054c.004-.504-.277-.952-.729-1.292m-17.496 8.141c-.104-.147-.185-.431-.183-.857q0-.11.008-.233c.059-1.066.353-2.125.897-3.176.544-1.067 1.105-1.766 1.637-2.114.495-.327 1.046-.484 1.687-.486q.099 0 .2.004c.208.015.468.052.768.117l-1.194 3.677c-.376 1.156-.905 2.006-1.566 2.565-.652.552-1.217.793-1.676.791l-.082-.001a.6.6 0 0 1-.496-.287m5.452.584h-.004l.005-.001zM200.254 368.397l-.158.001-4.494-.021-.073-.001c-2.673-.001-4.783.739-6.239 2.256-1.449 1.5-2.194 3.239-2.201 5.157v.058c0 .868.15 1.585.481 2.146.229.409.633.685 1.095.682.306.003.605-.1.826-.311.212-.19.355-.462.352-.753-.001-.29-.107-.575-.285-.908-.25-.491-.407-.872-.468-1.105a3.3 3.3 0 0 1-.093-.83l.001-.065c.004-.819.242-1.586.741-2.335.493-.745 1.178-1.351 2.071-1.825a5.9 5.9 0 0 1 2.385-.677 436 436 0 0 1-1.968 7.458c-.676 2.481-1.231 4.141-1.628 4.918-.11.23-.233.382-.361.476-.066.062-.703.301-1.713.571l-.181.048-.409 1.381.504-.057q2.495-.286 4.367-.286h.121c.967.007 2.388.114 4.26.334.858.099 1.574.159 2.16.159h.009c1.111 0 2.059-.289 2.78-.906.713-.597 1.101-1.356 1.101-2.197v-.039c-.002-.389-.106-.749-.345-1.024a1.19 1.19 0 0 0-.925-.434 1.16 1.16 0 0 0-.814.326 1.05 1.05 0 0 0-.346.755c-.004.039.001.05-.001.05 0 .226.043.455.114.691.116.309.159.523.156.579-.006.133-.049.235-.234.39-.167.132-.377.205-.7.207l-.032.001c-.232-.001-.773-.091-1.548-.272-1.535-.343-2.836-.52-3.917-.529a7 7 0 0 0-1.548.194c.724-1.586 1.42-3.621 2.097-6.114l2.424.012c.487.003.841.025 1.039.066q.11.018.143.035l.002-.005q.076.091.098.136l.009.003c-.002.205-.029.52-.07.922l-.037.367 1.318.008.049-.279c.222-1.255.477-2.404.756-3.451l.111-.419-1.464-.007-.048.28c-.07.468-.234.709-.275.716-.029.042-.521.145-1.276.133h-.126l-2.276-.012 1.311-5.113h1.655c1.881.005 3.043.089 3.181.161.167.079.204.116.222.373a7 7 0 0 1-.107 1.008l-.063.386 1.377.007.044-.286c.092-.588.318-1.611.672-3.059l.134-.551-.547.148c-.662.179-1.74.273-3.196.272M208.722 379.187l1.021-4.158 2.714-.047.333-1.606-2.691.046.928-3.89-2.831 1.14-.041.169-.622 2.625-2.107.034-.381 1.609 2.119-.034-1.161 4.809c-.309 1.281-.463 2.249-.465 2.927l.001.058c.017.562.116 1.01.38 1.34.244.303.62.469 1.017.464l.015.001c.489-.01 1.041-.202 1.704-.547.687-.363 1.946-1.266 3.84-2.74l.277-.215-.949-1.12-.254.219a16 16 0 0 1-2.028 1.458c-.53.323-.924.462-1.059.453h-.034c-.099-.004-.106-.016-.137-.043-.019-.014-.068-.089-.072-.291l-.067-.022.066.001c-.001-.452.156-1.36.484-2.64M230.247 368.697l.396-1.464-.532.11c-.638.13-1.594.244-2.855.337-1.35.088-2.212.162-2.616.224a8 8 0 0 0-1.167.266l-.172.052-.432 1.467.572-.146a10.5 10.5 0 0 1 1.704-.31 463 463 0 0 1-1.224 6.102c-.739 3.442-1.177 5.418-1.3 5.872-.126.463-.26.773-.328.853a.5.5 0 0 1-.169.141c-.44.233-1.135.456-2.066.644l-.225.044-.255 1.42.493-.111c.89-.202 1.889-.326 2.979-.376q.691-.031 1.284-.031.421 0 .789.018.81.037 1.287.037c.179 0 .321-.003.434-.01l.238-.017.367-1.321-.474.034q-.383.028-.721.028-.669-.001-1.186-.105c.839-4.296 1.361-6.94 1.576-7.912.66-3.03 1.091-4.772 1.201-4.989.104-.196.231-.335.381-.433.206-.134.841-.301 1.798-.4zM241.69 379.353q-.557.487-1.106 1.059c-.395.428-.739.648-.868.696a1 1 0 0 1-.029-.182q-.006-.054-.005-.133c-.002-.565.196-1.708.6-3.358.47-1.941.755-3.195.86-3.792.045-.296.068-.563.068-.811 0-.06 0-.12-.003-.188-.033-.46-.164-.855-.45-1.142a1.33 1.33 0 0 0-.955-.375 1 1 0 0 0-.124.006c-.569.036-1.182.337-1.893.846a17.7 17.7 0 0 0-2.456 2.143l.234-1.51c.028-.18.044-.314.046-.433l-.001-.061a.69.69 0 0 0-.333-.528.93.93 0 0 0-.53-.144q-.061 0-.119.006c-.543.038-1.136.275-1.807.683-.688.423-1.54 1.198-2.597 2.347l-.229.248.989.897.223-.278a7.8 7.8 0 0 1 1.366-1.35c.144-.12.262-.185.331-.217v.021c0 .063-.011.181-.031.343l-.839 5.03a81 81 0 0 1-.702 3.795l-.09.431 2.647-.175.807-4.884c.165-1.025.408-1.756.679-2.182a7.9 7.9 0 0 1 1.849-1.955c.494-.385.9-.56 1.126-.567.022-.001.031-.003.047-.003.073 0 .092.013.099.015l.007.034v.026c.004.147-.101.808-.312 1.85-.719 2.96-1.08 4.863-1.083 5.798q0 .087.005.173c.043.575.156 1.025.437 1.349.236.275.591.43.967.425l.095-.001c.471-.035.952-.274 1.505-.679q1.282-.926 2.42-2.371l.167-.212-.75-.917zM253.455 378.348c-.783.727-1.33 1.191-1.573 1.364a.9.9 0 0 1-.37.156h-.020999999999999998v.008a.4.4 0 0 1-.041-.166 1 1 0 0 1-.005-.144c0-.308.056-.872.164-1.661l1.146-8.039c.313-2.14.519-3.427.612-3.793.145-.613.336-.996.462-1.105a.9.9 0 0 1 .572-.257c.063-.008.165-.012.294-.012q.323 0 .877.033c.38.019.685.032.926.032.139 0 .255-.003.359-.015.377-.026.721-.169.965-.426a1.18 1.18 0 0 0 .317-.944 1.22 1.22 0 0 0-.509-.903 1.48 1.48 0 0 0-.895-.273q-.097 0-.196.009c-.71.064-1.45.297-2.212.688q-1.156.601-2.01 1.574a7.3 7.3 0 0 0-1.329 2.248c-.301.801-.564 1.986-.812 3.578a8 8 0 0 0-.358-.01q-.145.001-.25.009c-.969.092-1.937.606-2.945 1.497-1.02.907-1.879 2.223-2.599 3.933q-.936 2.224-.937 3.99 0 .275.024.542c.071.829.297 1.483.719 1.938.357.395.826.615 1.326.615h.015q.058 0 .142-.003c.646-.063 1.298-.352 1.993-.831.488-.345 1.028-.861 1.629-1.551l-.063.33a4 4 0 0 0-.088.72q0 .07.006.123a.85.85 0 0 0 .37.612c.169.133.398.202.632.2q.04 0 .109-.002c.569-.056 1.191-.365 1.959-.893.572-.394 1.381-1.133 2.467-2.225l.223-.224-.846-.952zm-3.519-5.946-.318 2.339c-.244 1.714-.474 2.816-.644 3.188a5.1 5.1 0 0 1-1.342 1.771c-.407.336-.756.495-1.02.516l-.069.002c-.162-.002-.322-.066-.52-.258-.201-.198-.321-.461-.358-.846a5 5 0 0 1-.024-.517q-.002-1.222.48-2.859c.39-1.331.847-2.219 1.289-2.652.473-.467.952-.699 1.44-.743q.069-.008.184-.007.323-.004.902.066"></path><path fill="#FFF" d="M266.363 376.842c-.698.889-1.19 1.458-1.412 1.649a.8.8 0 0 1-.299.174l-.001-.001c-.001.001-.007.001-.033-.022-.003-.002-.029-.024-.042-.144a1 1 0 0 1-.006-.103c-.002-.475.186-1.988.563-4.433l.763-5.116-2.538.296-.036.255-.804 5.496c-.15.981-.594 1.895-1.355 2.767-.758.86-1.376 1.282-1.695 1.324-.029 0-.034.002-.034 0-.028-.001-.065-.005-.144-.07-.064-.062-.094-.115-.116-.242l-.001-.046c-.001-.364.137-1.576.422-3.557.295-2.028.449-3.407.449-4.195q.001-.233-.02-.407c-.043-.363-.147-.673-.385-.894a.94.94 0 0 0-.667-.263q-.066 0-.134.009c-.466.053-.969.303-1.567.71-.619.431-1.432 1.225-2.487 2.409l-.263.294 1.206.762.189-.223c.575-.684.993-1.123 1.194-1.271.156-.125.288-.197.372-.231l.002.021q.007.051.008.162c.001.506-.147 1.731-.439 3.604-.271 1.706-.436 2.831-.484 3.417a5.623 5.623 0 0 0 .007 1.169c.062.477.194.858.468 1.124.227.211.525.316.828.316h.012q.082.002.185-.009c.645-.081 1.317-.405 2.047-.955a12.7 12.7 0 0 0 1.957-1.814l-.003.218q0 .3.031.551c.044.442.208.827.508 1.083a1.28 1.28 0 0 0 .999.319c1.054-.156 2.202-1.267 3.768-3.292l.187-.248-.979-.873zM275.002 367.676c-.378-.195-.825-.286-1.328-.286q-.342 0-.716.055c-1.119.153-2.038.634-2.688 1.437-.536.658-.818 1.394-.817 2.167q0 .227.033.457c.145 1.036.792 2.006 1.874 2.916.739.621 1.223 1.076 1.42 1.321.196.248.303.487.334.729q.013.093.013.181c0 .194-.046.409-.149.646a1.5 1.5 0 0 1-.597.69q-.428.272-1.072.366a2 2 0 0 1-.245.017 1 1 0 0 1-.532-.132c-.2-.13-.278-.253-.309-.441a4 4 0 0 1-.024-.258 2.3 2.3 0 0 0-.024-.375 1.07 1.07 0 0 0-.48-.749 1.23 1.23 0 0 0-.89-.212 1.28 1.28 0 0 0-.887.533 1.34 1.34 0 0 0-.255.806q0 .115.018.228c.095.706.49 1.299 1.127 1.683.458.29 1.04.424 1.719.424q.414 0 .883-.066c1.29-.176 2.334-.703 3.073-1.564.611-.721.94-1.521.939-2.363q-.001-.235-.033-.473c-.141-1.04-.827-2-1.965-2.917-.794-.634-1.303-1.113-1.472-1.362a1.9 1.9 0 0 1-.359-1.048 1 1 0 0 1 .214-.626c.194-.252.396-.37.662-.409a.4.4 0 0 1 .089-.009c.236-.004.588.16 1.006.579.28.273.477.449.703.548a1.2 1.2 0 0 0 .61.077c.343-.044.635-.224.831-.48a1.22 1.22 0 0 0 .251-.889c-.073-.523-.434-.938-.957-1.201M283.697 373.554a15.4 15.4 0 0 1-1.796 1.733c-.475.394-.852.591-.991.603a1 1 0 0 1-.075.008.17.17 0 0 1-.105-.032c-.01-.006-.068-.08-.097-.264a4.4 4.4 0 0 1-.043-.692c0-.5.043-1.177.134-2.02l.416-4.262 2.683-.432.104-1.64-2.665.429.361-3.982-2.637 1.531-.015.173-.242 2.689-2.085.333-.14 1.645 2.086-.335-.455 4.932a20 20 0 0 0-.103 1.888c0 .441.024.811.076 1.12.093.553.246.991.568 1.287.223.205.519.325.831.325h.011q.119 0 .247-.02c.478-.079.995-.35 1.604-.785.632-.456 1.746-1.53 3.41-3.264l.241-.253-1.103-.967zM296.369 360.224c.203.138.441.215.683.215h.007q.129 0 .263-.025c.431-.087.78-.373 1.013-.771.168-.295.262-.613.262-.939q0-.185-.038-.374a1.28 1.28 0 0 0-.539-.83 1.2 1.2 0 0 0-.676-.208q-.144.002-.283.03a1.53 1.53 0 0 0-1.027.743 1.7 1.7 0 0 0-.248.896q.002.204.044.408c.066.349.255.66.539.855M299.231 371.136a18 18 0 0 1-1.098 1.446q-.214.244-.349.357a1 1 0 0 1-.063.049.3.3 0 0 1-.027-.076c-.032-.142-.055-.462-.053-.91 0-.969.094-2.56.281-4.753.13-1.516.197-2.519.198-3.041a2 2 0 0 0-.023-.38.94.94 0 0 0-.499-.672 1.1 1.1 0 0 0-.518-.118c-.119 0-.241.017-.364.041-.586.12-1.187.475-1.832 1.048a7 7 0 0 0-.677.702 1.153 1.153 0 0 0 .032-.54 1.16 1.16 0 0 0-.509-.753 1.2 1.2 0 0 0-.939-.188c-.496.104-.923.475-1.389 1.063a16.3 16.3 0 0 0-1.593 2.512l.035-.648c.01-.26.015-.465.015-.625 0-.162-.002-.269-.02-.373a.66.66 0 0 0-.379-.494.7.7 0 0 0-.38-.09q-.102 0-.2.019c-.55.109-1.153.477-1.916 1.079q-1.16.941-2.17 2.529l-.163.255 1.001.787.204-.295c.559-.815.963-1.337 1.157-1.524a1.7 1.7 0 0 1 .324-.259c.003.047.008.145.007.268l-.003.36a118 118 0 0 1-.246 5.035l-.296 4.061 2.612-.478.012-.267.116-2.607c.073-1.74.171-2.858.267-3.304q.135-.675.667-1.724c.349-.682.694-1.203 1.004-1.539.318-.345.75-.68 1.325-.995.361-.203.637-.372.855-.533-.247.344-.494.714-.745 1.137l-.186.312 1.245.607.164-.242c.592-.886.998-1.426 1.142-1.565.099-.091.193-.155.271-.194q.009.086.009.191 0 .084-.004.173-.417 4.332-.417 6.548c.001.778.038 1.36.125 1.772.076.39.261.724.561.932.208.145.457.222.718.222q.149 0 .31-.032c.444-.096.885-.376 1.38-.81.518-.462 1.226-1.353 2.174-2.71l.2-.288-1.17-.742zM310.788 368.096l-.194.309a7.8 7.8 0 0 1-1.188 1.471 1.8 1.8 0 0 1-.418.337q-.008-.022-.021-.068c-.048-.199-.098-.815-.126-1.758a57 57 0 0 1-.04-2.14q0-1.355.07-2.519l.217-4.015-1.439.682-.046.138-.12.366a8 8 0 0 0-.66.124c-1.116.267-2.004.655-2.669 1.18-.833.67-1.552 1.575-2.16 2.691a12 12 0 0 0-1.25 3.566 9.6 9.6 0 0 0-.175 1.78q0 .824.174 1.537c.185.802.546 1.449 1.083 1.888.296.244.661.378 1.05.378h.013q.234 0 .48-.057c.603-.149 1.176-.516 1.731-1.082a11.7 11.7 0 0 0 1.432-1.746l-.024.468a2.4 2.4 0 0 0 .028.646c.061.248.199.484.433.616a.85.85 0 0 0 .446.113q.16-.002.322-.038c.356-.09.691-.24 1.016-.455.479-.311.951-.731 1.42-1.249.263-.289.742-.966 1.508-2.086l.179-.264zm-4.325-4.784-.105 3.866c-.027 1.219-.294 2.177-.767 2.907-.497.755-.994 1.146-1.458 1.253a.631.631 0 0 1-.571-.133c-.161-.125-.347-.45-.472-.997a7.3 7.3 0 0 1-.198-1.707q0-.774.153-1.593c.224-1.175.568-2.008.978-2.493.422-.497.968-.821 1.671-.995.21-.047.466-.086.769-.108" data-source="https://football-logos.cc"></path><!-- source: https://football-logos.cc --></svg>