<svg xmlns="http://www.w3.org/2000/svg" version="1.0" viewBox="0 0 56.69 56.69"><!-- Source: https://football-logos.cc --><path d="M403.346 532.362c0 15.656-12.69 28.346-28.346 28.346-15.655 0-28.346-12.69-28.346-28.346 0-15.654 12.69-28.345 28.346-28.345 15.655 0 28.346 12.69 28.346 28.345" style="fill:#fff;fill-opacity:1;fill-rule:nonzero;stroke:none" transform="translate(-346.654 -504.017)" data-source="https://football-logos.cc"></path><path d="M375 548.424c-8.901 0-16.116-7.215-16.116-16.115 0-8.901 7.215-16.117 16.115-16.117 8.903 0 16.117 7.216 16.117 16.117s-7.214 16.115-16.117 16.115m0-33.545c-9.626 0-17.43 7.804-17.43 17.43s7.804 17.429 17.43 17.429 17.429-7.803 17.429-17.43c0-9.625-7.803-17.429-17.43-17.429" style="fill:#d3d3d3;fill-opacity:1;fill-rule:nonzero;stroke:none" transform="translate(-346.654 -504.017)"></path><path d="M28.344.781c-15.197 0-27.5 12.304-27.5 27.5s12.303 27.532 27.5 27.532c15.195 0 27.531-12.335 27.531-27.532S43.539.781 28.344.781m0 1.031c14.622 0 26.469 11.846 26.469 26.47 0 14.622-11.847 26.5-26.47 26.5S1.876 42.903 1.876 28.281c0-14.624 11.846-26.47 26.469-26.47m-.313 1.22c-2.26.086-3.936 1.372-3.843 3.78.073 1.936 1.726 3.117 3.937 3.032.847-.032 1.704-.262 2.531-.531-.024-.142-.047-.634-.062-1.032-.023-.607-.009-1.392.031-1.594-.124.025-.32.045-.781.063-.395.015-.594.015-.719 0 .016.18.087.6.125 1.625.011.275.023.504 0 .656-.15.11-.704.206-1.031.219-1.48.056-2.38-1.055-2.438-2.562-.076-1.992 1.12-3.018 2.313-3.063.875-.034 1.481.322 1.906.875h.156a7 7 0 0 1 .219-.969c-.706-.334-1.372-.536-2.344-.5m-6.593 1.062c-.197.08-.416.186-.72.281-.303.094-.573.143-.78.188.304.78.557 1.484.875 2.5l.375 1.218c.317 1.015.525 1.717.718 2.531.197-.08.416-.186.719-.28.304-.095.573-.143.781-.188-.304-.78-.526-1.486-.843-2.5l-.407-1.219c-.317-1.014-.525-1.717-.718-2.531m14.406.125c-1.448 1.809-3.856 4.609-4.625 5.469.178.037.353.046.5.093.146.048.265.122.406.188.374-.569.774-1.12 1.219-1.656.324.093.616.179.937.28.394.128.797.272 1.188.407.033.688.035 1.387.031 2.063.262.063.525.105.781.187.257.082.526.201.813.313-.226-1.697-.412-4.784-.532-7.094a3 3 0 0 1-.374-.094c-.12-.038-.23-.1-.344-.156M17.156 5.25c-.107.114-.195.228-.312.313-.1.073-.25.13-.375.187.3.709 1.118 3.139 1.656 4.719-1.017-.811-3.426-2.387-4.062-2.969-.115.118-.211.216-.344.313a3 3 0 0 1-.438.25c.3.873 1.025 3.218 1.5 4.843l-.031.031a177 177 0 0 1-3.844-3.156 7 7 0 0 1-.594.5c-.21.153-.444.297-.687.438.357.246 4.096 3.053 5.406 4.156a4 4 0 0 1 .375-.312c.133-.096.294-.17.438-.25-.459-1.321-1.015-3.44-1.406-4.75h.03c1.382.922 2.722 1.856 3.97 2.874.121-.111.241-.247.375-.343.132-.097.262-.17.406-.25-.733-2.06-1.844-5.85-2.063-6.594m18.125.719c.068.8.124 1.62.157 2.437l-1.688-.562c.5-.647.994-1.27 1.531-1.875m6.5.812c-.272.365-.6.857-1.125 1.532-1.19 1.527-2.792 3.374-3 3.562.132.066.26.13.375.219.114.088.209.195.313.312.194-.295.505-.707 1.437-1.906.439-.561.922-1.2 1.375-1.75.224 2.125.374 4.195.469 6.219.11.048.238.105.344.187.107.083.193.177.281.281 1.552-1.992 2.338-2.977 4.156-5.062-.131-.067-.262-.13-.375-.219a2.3 2.3 0 0 1-.312-.312c-.21.378-1.792 2.403-2.719 3.594-.189-2.06-.366-4.083-.531-6.126-.131-.066-.262-.13-.375-.218a2.2 2.2 0 0 1-.313-.313m-13.437 3.844c-9.752 0-17.656 7.905-17.656 17.656s7.904 17.657 17.656 17.657C38.094 45.938 46 38.032 46 28.28s-7.906-17.656-17.656-17.656m0 .781c4.56 0 8.71 1.784 11.75 4.719l.031 24.281a16.84 16.84 0 0 1-11.781 4.782A16.85 16.85 0 0 1 16.656 40.5V16.094a16.86 16.86 0 0 1 11.688-4.688M43.5 40.563c-.437.099-1.083.5-1.5.906-1.252 1.218-1.759 2.916-.156 4.562 1.095 1.126 2.742 1.22 4.125-.125.488-.476.815-.994.968-1.468a2.7 2.7 0 0 1-.374-.626l-.126.032a2.2 2.2 0 0 1-.624 1.5c-.685.667-1.9.883-3.094-.344-1.231-1.263-1.043-2.504-.407-3.125.424-.412.905-.548 1.563-.469l.063-.093c-.18-.22-.325-.48-.438-.75m-28.906.593a150 150 0 0 1-5.844 2.188c.12.106.222.183.313.281q.133.147.25.313a16 16 0 0 1 1.624-.72c.204.208.395.38.594.594.244.263.482.545.719.813-.275.535-.578 1.05-.875 1.563.17.16.373.328.531.5.158.17.268.355.438.562.566-1.386 1.776-3.817 2.687-5.625-.085-.068-.176-.107-.25-.187-.072-.08-.126-.19-.187-.282m-1.156 1.094c-.295.636-.638 1.271-.97 1.906l-1.03-1.125c.657-.28 1.331-.548 2-.781m2.812.781c-.049.117-.087.21-.156.313-.07.103-.16.192-.25.281.447.231 1.074.57 1.344.75-.045.11-.23.364-.407.625l-1.156 1.719a33 33 0 0 1-1.344 1.875c.161.089.367.19.594.343.228.154.39.322.531.438.369-.634.729-1.197 1.25-1.969l1.157-1.718c.177-.263.328-.507.406-.594.276.187.847.637 1.187.937.05-.117.086-.24.157-.343.07-.105.159-.192.25-.282-.6-.375-.926-.58-1.782-1.156-.854-.578-1.168-.775-1.781-1.219m22.719 1.157c-.146.111-.331.259-.563.406-.233.145-.43.23-.593.312.43.594.786 1.118 1.28 1.907l.594.968c.495.79.81 1.354 1.157 2 .146-.111.33-.26.562-.406q.35-.218.594-.344a32 32 0 0 1-1.281-1.906l-.594-.937a31 31 0 0 1-1.156-2m-1.813 1.218c-.65.278-.974.411-1.937.782-.962.37-1.317.5-2.032.75.068.106.111.196.157.312.044.116.073.249.093.375.446-.234 1.073-.54 1.376-.656.065.099.167.362.28.656l.75 1.938c.335.869.566 1.486.782 2.187a7.816 7.816 0 0 1 1.25-.5c-.31-.665-.542-1.255-.875-2.125l-.75-1.937c-.113-.295-.224-.572-.25-.688.31-.119.999-.33 1.438-.437-.068-.108-.143-.196-.188-.313a1.7 1.7 0 0 1-.094-.344m-17.062.219c-.187.711-.391 1.305-.688 2.188l-.343 1.062c-.297.883-.532 1.51-.813 2.188.179.043.396.067.656.156.26.087.457.206.625.281.186-.709.39-1.336.688-2.219l.156-.437c.408.12.794.242 1.188.375.402.135.788.262 1.187.406l-.125.469a30 30 0 0 1-.812 2.156c.178.042.396.1.656.188.26.087.456.176.625.25.185-.709.39-1.336.687-2.22l.344-1.062a31 31 0 0 1 .813-2.156c-.18-.044-.397-.1-.657-.187-.26-.088-.456-.176-.625-.25-.183.701-.392 1.313-.687 2.187-.302-.093-.629-.187-1.188-.375-.56-.188-.922-.34-1.187-.437.294-.876.503-1.455.781-2.126a8 8 0 0 1-.656-.187c-.26-.088-.457-.176-.625-.25m12.812 1.313c-.217.058-.912.193-1.718.312-.487.07-.982.094-1.47.156.156.718.274 1.36.407 2.282l.156 1.124c.135.922.226 1.55.282 2.282.178-.043.377-.085 1.718-.282.758-.109 1.172-.153 1.469-.187-.03-.097-.068-.17-.094-.344a2 2 0 0 1-.031-.375c-.623.167-1.226.284-1.844.375-.063-.327-.137-.685-.187-1.031-.052-.353-.106-.685-.157-1.031A24 24 0 0 1 33.313 50c-.05-.17-.049-.224-.062-.312-.016-.109-.037-.18-.031-.376-.62.127-1.13.193-1.844.313-.089-.6-.172-1.175-.219-1.781a46 46 0 0 1 1.875-.188c-.033-.12-.068-.17-.093-.343a2.4 2.4 0 0 1-.032-.376m-7.062.343c.002.734-.034 1.352-.094 2.282l-.062 1.124c-.06.93-.123 1.586-.22 2.313.183-.005.398-.024 1.75.063.764.05 1.172.096 1.47.124-.01-.1-.043-.17-.032-.343.012-.174.039-.26.063-.375-.644.034-1.284.039-1.907 0 .02-.432.055-1.074.094-1.688l.063-1.125c.06-.93.12-1.586.218-2.312-.183.005-.414.017-.687 0a8 8 0 0 1-.656-.063" style="fill:#1d59af;fill-opacity:1;fill-rule:nonzero;stroke:none"></path><path d="M50.5 25.313a3 3 0 0 0-.562.03c-.062.049.03.188.03.188.615.57.824 1.955.75 2.5-.032.243-.016.345.094.5.109.155.596.426.75.469s.374.062.438-.094c.066-.152.197-.507.156-1.406-.043-.964-.504-1.653-.812-1.937-.193-.18-.538-.237-.844-.25m-1.125.218c-.085.002-.182.033-.344.125-.321.185-1.75 1.141-1.656 2.938 0 0 .212-1.266 2.094-1.907 0 0 .515-.087.375-.468-.13-.36-.19-.467-.282-.594a.2.2 0 0 0-.187-.094m2.438.125c-.009.026 0 .063 0 .063s.606.726.687 1.718c.068.865-.07 1.354-.156 1.532-.091.172-.051.345.125.406.237.088.794.184.906-.281.12-.482.306-2.274-1.5-3.438-.042-.029-.054-.025-.062 0m-1.907 1.313a.4.4 0 0 0-.187.031c-.284.109-1.237.433-1.813 1.188-.52.676-.466 1.452.125 2 0 0-.144-.834 1.969-1.844 0 0 .36-.085.375-.407.015-.285-.078-.564-.125-.718-.034-.116-.166-.234-.344-.25m.375 1.75a.4.4 0 0 0-.156.031c-.24.11-.566.248-.719.469-.152.22-.04.435.157.562.2.133 2.852 1.908 3.593-.093 0 0-.941.551-2.625-.907a.45.45 0 0 0-.25-.062m-1.375 1.031a.3.3 0 0 0-.156.031c-.232.124-.406.438-.406.438s-.188.197.031.375c.143.118 1.613 1.642 3.719.281 0 0-1.205.446-2.969-1a.4.4 0 0 0-.219-.125" style="fill:#9e8b4f;fill-opacity:1;fill-rule:evenodd;stroke:none"></path><path d="m374.022 535.625-.497-.118s.62-.25.939.052c0 0-.054-.528.276-1.153v.32c-.27.697-.104 1.292-.104 1.292-1.273-.907-1.76.47-1.76.47-.43 1.67 1.2 1.823 1.2 1.823-.241-.473 0-1.026.406-1.026.398 0 .64.397.64 1.105 0 .719 0 1.584-.967 1.584-.96 0-1.441-.784-1.441-.784s-.08.946-1.367.946c-1.285 0-1.521-1.825-1.04-2.06.481-.238.64.715.64.715.805-.476 1.203-2.06.323-2.615-.884-.556-1.762.476-1.762.476-.166-1.824-2.416-2.143-2.416-2.143l3.453 8.874s2.33-.708 5.215-.708c2.892 0 5.296.79 5.296.79l3.294-8.796c-2.086-.237-2.168 1.983-2.168 1.983s-.883-1.267-1.924-.556c-1.045.715-.146 2.43-.146 2.43.504-1.482 1.512-.374 1.428.42-.077.792-1.056 1.451-1.757 1.307-.784-.155-1.023-.703-1.023-.703s-.315.498-1.313.377c-.63-.075-.882-.981-.882-1.454 0-.476.078-1.275.565-1.27.695.01.444 1.078.444 1.078s1.582-.616 1-1.892c-.561-1.226-1.766-.293-1.766-.293q.067-.202.083-.394h.299v-.24a.77.77 0 0 1 .555-.028l-.567-3.29-.067-.406s.22-.542 1.88-1.63l.67-.385c.487.141 1.135-.055 1.135-.055 1.9.421 2.103-.59 2.103-.59.403.258 1.296-.091 1.296-.091 1.21-.607-.374-1.158-.374-1.158.806.073.517-.405.517-.405 1.931-.662-.288-1.544-.288-1.544 2.19-.35 1.125-1.453 1.125-1.453.489-.735-.952-.808-.952-.808.115-1.673-2.649-.975-2.649-.975.23-.22-.231-.404-.231-.404-1.573.06-.749-.938-.749-.938-.145-.827-1.296-.643-1.296-.643.317-.46-.606-.478-.606-.478.375-.423-1.105-.449-1.105-.449 0-.478-.133-.618-.133-.618-.144-.589-1.584-.625-1.584-.625-.461-.184-.75.11-.75.11-.663-.036-.893.368-.893.368-1.18.165-1.21.717-1.21.717-.69.11-.69.588-.69.588-3.285.313-2.16 2.151-2.16 2.151-.318-.349-.577 0-.577 0-2.304-.275-1.354 1.765-1.354 1.765-1.584-.055-1.901.956-1.901.956-.375.864.691 1.287.691 1.287-1.44.387-.403 1.14-.403 1.14-1.498.919.375 1.434.375 1.434.411 1.327 2.451.814 3.438.478l1.651.368.437.256 1.538.819-.02.79-.516 3.458c-.02-.004.393.114.496.451" style="fill:#d3d3d3;fill-opacity:1;fill-rule:nonzero;stroke:none" transform="translate(-346.654 -504.017)"></path><path d="m377.096 534.784-.569-3.29-.066-.405s.22-.542 1.88-1.63l2.449-1.41-2.011.064-1.486.96-.523.256h-.613l.787-1.92-1.574-.191-.174 1.6-.524.511-.175-.256-.437-2.048-.874.063.35 1.73-.612.255-.437-.192.437.192s-2.534-1.024-3.409-1.087c-.873-.064-.087.767-.087.767l2.01.449.437.256 1.538.818.27.88-.512 3.507s.263-.023.457.143c0 0-.155-1.455 1.385-2.395 0 0 1.552.76 1.552 2.434 0 0 .193-.179.53-.061" style="fill:#9b5c0e;fill-opacity:1;fill-rule:nonzero;stroke:none" transform="translate(-346.654 -504.017)"></path><path d="M374.557 527.84s-.893.441-1.612-.11c0 0-.116.772-1.729.57 0 0 0 .533-.893.33 0 0-3.428 1.49-3.975-.275 0 0-1.872-.515-.374-1.433 0 0-1.037-.754.403-1.14 0 0-1.066-.423-.692-1.287 0 0 .318-1.012 1.901-.956 0 0-.95-2.041 1.355-1.765 0 0 .258-.35.576 0 0 0-1.124-1.839 2.16-2.15 0 0 0-.479.692-.59 0 0 .028-.55 1.209-.716 0 0 .23-.405.893-.369 0 0 .289-.293.75-.11 0 0 1.44.037 1.583.625 0 0 .836.02.836.497 0 0 .778.147.403.57 0 0 .922.018.605.478 0 0 1.152-.184 1.297.643 0 0 1.181.276.748.938 0 0 .462.183.231.404 0 0 2.765-.698 2.65.975 0 0 1.44.074.952.809 0 0 1.065 1.103-1.124 1.452 0 0 2.218.883.287 1.545 0 0 .289.477-.518.403 0 0 1.585.553.374 1.16 0 0-.892.348-1.295.091 0 0-.202 1.01-2.103.59 0 0-1.442.44-1.643-.461 0 0-1.239.478-1.844-.386 0 0-1.296.643-2.103-.332" style="fill:#006838;fill-opacity:1;fill-rule:nonzero;stroke:none" transform="translate(-346.654 -504.017)"></path><path d="M374.557 527.84s-.893.441-1.612-.11c0 0-.116.772-1.729.57 0 0 0 .533-.893.33 0 0-3.428 1.49-3.975-.275 0 0-1.872-.515-.374-1.433 0 0-1.037-.754.403-1.14 0 0-1.066-.423-.692-1.287 0 0 .318-1.012 1.901-.956 0 0-.95-2.041 1.355-1.765 0 0 .258-.35.576 0 0 0-1.124-1.839 2.16-2.15 0 0 0-.479.692-.59 0 0 .028-.55 1.209-.716 0 0 .23-.405.893-.369 0 0 .289-.293.75-.11 0 0 1.44.037 1.583.625 0 0 .836.02.836.497 0 0 .778.147.403.57 0 0 .922.018.605.478 0 0 1.152-.184 1.297.643 0 0 1.181.276.748.938 0 0 .462.183.231.404 0 0 2.765-.698 2.65.975 0 0 1.44.074.952.809 0 0 1.065 1.103-1.124 1.452 0 0 2.218.883.287 1.545 0 0 .289.477-.518.403 0 0 1.585.553.374 1.16 0 0-.892.348-1.295.091 0 0-.202 1.01-2.103.59 0 0-1.442.44-1.643-.461 0 0-1.239.478-1.844-.386 0 0-1.296.643-2.103-.332z" style="fill:none;stroke:#006838;stroke-width:.10038509;stroke-linecap:butt;stroke-linejoin:miter;stroke-miterlimit:4;stroke-dasharray:none;stroke-opacity:1" transform="translate(-346.654 -504.017)" data-source="https://football-logos.cc"></path><path d="M366.522 523.722s-1.499.788-.536 1.782c0 0 .183.162.39.278 0 0-.785.21-.722.637 0 0 .118.28.32.503 0 0-1.472.799.374 1.433 0 0 .474 1.786 3.975.24 0 0 .715.309.893-.295 0 0 1.031.075 1.41-.194 0 0-.994.063-1.625-.22 0 0-.22.441-1.12.236 0 0-2.854.142-2.744-.852 0 0-.726-.284-.221-1.166 0 0-.441-.695-.173-.836 0 0-1.215-.49-.221-1.546M371.52 522.715s-.609.63-.334 1.18c0 0 .078.648.59.785 0 0 1.002-.019 1.296.236 0 0 .217 0 .158.315 0 0-.253.955.037 1.122a.2.2 0 0 0 .04.017c.354.097.551.55 1.239.452 0 0-1.415-.727-.983-1.376 0 0-.197-.687-.059-.747 0 0-2.121-.373-1.965-.765 0 0-.471-.453-.019-1.219M377.929 521.48s.338.885-.358 1.244c0 0-.61.126-.715.337 0 0-.106.504-.484.673 0 0-.38.21-.38.274 0 0 .232-.169.464-.169 0 0 .4-.526.59-.695 0 0 .42-.147.61-.147 0 0 .653-.484.273-1.517M379.615 524.78s.506.212.548.422c0 0 .252.611.126.821 0 0-.483.485-.358.696 0 0 .126.463.864.357 0 0 .611-.189.632.064l.041.358s.169-.422.022-.632c0 0-.358-.126-.695-.043 0 0-.78 0-.358-.694 0 0 .295-.695.23-.99 0 0-.188-.252-.483-.295 0 0-1.474-.569-1.369-.779 0 0 .211.527.8.716M372.436 520.493s.661-.203.916-.026c0 0 .534.23.534.408 0 0-.101.331.026.56l.102.432-.23-.33s-.05-.535-.178-.662c0 0-.381-.255-.56-.255-.177 0-.025-.075-.025-.075s-.585.05-.687.127c0 0-.764-.077-.84-.51 0 0 .586.383.942.331" style="fill:#123d0f;fill-opacity:1;fill-rule:nonzero;stroke:none" transform="translate(-346.654 -504.017)"></path><path d="M369.485 521.689s-.764-1.298 1.068-1.832c0 0 .925-.265 1.124-.234 0 0 .014-.368.692-.588 0 0 .01-.476 1.209-.717 0 0 .996-.013 1.225.394l.56.382s.711.026.787 0l-.813.102-.636-.407s-.79-.306-1.298-.102c0 0-.611.178-.865.433 0 0-.509.381-.611.559 0 0-1.272.356-1.272.534 0 0-1.069.128-.916 1.298zM376.66 528.172s.483.843 1.844.386c0 0 .27.817 1.643.46 0 0 1.663.452 2.103-.59 0 0 1.568.161 1.737-.607 0 0 .023-.279-.816-.643 0 0 .486.058.561-.222l-.043-.181s.96-.303.731-.812c0 0-.458-.66-1.095-.737 0 0 .993.661.713 1.018 0 0-.406.254-.789.28 0 0 0 .177-.229.229 0 0-.355.61-.33.686 0 0 .151.611-.865.586 0 0-.306.636-1.502.661 0 0-1.46-.102-1.544-.573 0 0-.796.243-1.407.09 0 0-.15.167-.712-.03" style="fill:#123d0f;fill-opacity:1;fill-rule:nonzero;stroke:none" transform="translate(-346.654 -504.017)"></path><path d="m369.942 528.814 1.496.388 2.005 1.06.259.904-.391 2.84.729-2.745-.367-1.193-.5-.39h-.152l-1.425-.686zM372.924 529.073l.611-.256-.147-.82.241.013.04.417.054.349-.026.107zM376.596 528.252l-.725 1.208.63.014.364.013.241-.094.45-.364.324-.294-.06.005-.481.313-.56.28-.452-.007-.148-.027h-.004l.018-.053z" style="fill:#7a4d15;fill-opacity:1;fill-rule:nonzero;stroke:none" transform="translate(-346.654 -504.017)"></path><path d="m375.93 529.354-.792 1.046-.153.996.409-.97.459-.613.383-.382" style="fill:#7a4d15;fill-opacity:1;fill-rule:nonzero;stroke:none" transform="translate(-346.654 -504.017)"></path><path d="m369.896 542.733-3.453-8.873s2.25.318 2.416 2.142c0 0 .877-1.032 1.761-.476.88.555.482 2.139-.321 2.615 0 0-.16-.953-.64-.715-.482.235-.246 2.06 1.039 2.06 1.286 0 1.366-1.11 1.366-1.11s.482.948 1.442.948c.965 0 .965-.865.965-1.583 0-.71-.24-1.106-.637-1.106-.407 0-.649.553-.407 1.026 0 0-1.63-.153-1.2-1.821 0 0 .487-1.378 1.76-.472 0 0-.4-1.43 1.047-2.457 0 0 1.604 1.108 1.125 2.536 0 0 1.205-.933 1.766.292.58 1.277-1 1.893-1 1.893s.251-1.068-.444-1.078c-.488-.006-.565.794-.565 1.269 0 .473.25 1.379.882 1.454 1 .121 1.444-.818 1.444-.818s.108.988.892 1.145c.7.143 1.678-.515 1.757-1.308.084-.794-.925-1.903-1.427-.419 0 0-.9-1.717.145-2.43 1.04-.711 1.923.555 1.923.555s.083-2.219 2.169-1.983l-3.293 8.796s-2.406-.79-5.297-.79c-2.884 0-5.215.708-5.215.708" style="fill:#9e8b4f;fill-opacity:1;fill-rule:nonzero;stroke:none" transform="translate(-346.654 -504.017)"></path><path d="M6.219 25.313c-.306.013-.682.07-.875.25-.309.284-.769.973-.813 1.937-.04.899.09 1.254.157 1.406.064.156.314.137.468.094s.612-.314.719-.469c.11-.155.16-.257.125-.5-.073-.545.136-1.93.75-2.5 0 0 .093-.14.031-.187 0 0-.257-.045-.562-.032m.968.218c-.03.018-.04.061-.062.094-.092.127-.153.235-.281.594-.14.38.375.468.375.468 1.882.64 2.094 1.907 2.093 1.907.093-1.797-1.334-2.753-1.656-2.938-.242-.138-.378-.177-.468-.125m-2.375.125a3.19 3.19 0 0 0-1.468 3.438c.11.465.637.369.875.281.175-.06.215-.234.125-.406-.086-.178-.224-.667-.157-1.532.082-.992.688-1.718.688-1.718s.023-.12-.062-.063m1.97 1.313c-.178.016-.311.134-.344.25-.047.154-.14.433-.125.718.014.322.374.407.375.407 2.113 1.01 2 1.843 2 1.843.59-.547.644-1.323.124-2-.575-.754-1.56-1.078-1.843-1.187a.4.4 0 0 0-.188-.031m-.376 1.75c-.147-.006-.219.062-.218.062-1.685 1.458-2.657.907-2.657.907.742 2.001 3.394.226 3.594.093.197-.127.31-.342.156-.562-.152-.221-.446-.359-.687-.469-.061-.027-.139-.03-.188-.031m1.407 1.031c-.133.02-.25.125-.25.125-1.766 1.446-2.97 1-2.97 1 2.106 1.36 3.576-.163 3.72-.281a.26.26 0 0 0 .062-.375s-.205-.314-.437-.438c-.05-.024-.081-.038-.125-.031" style="fill:#9e8b4f;fill-opacity:1;fill-rule:evenodd;stroke:none"></path><path d="M25.031 39.813c-.54.1-.986.16-1.5.187.042.056.12.175.157.281.186-.021.493-.084.593-.093l-.375 1.25c-.144.49-.326.997-.406 1.218.12.025.259.03.375.063.116.034.23.082.344.125.155-.612.236-.934.375-1.407l.062-.25c.131-.446.307-.966.438-1.312zm7.063 0a1.7 1.7 0 0 0-.532.062c-.528.14-.757.463-.78.813.142.062.259.107.406.187h.062c-.066-.23-.084-.693.25-.781.23-.061.496.046.625.531.156.587-.047 1.231-.75 2.313l.031.187c.323-.095.644-.196.969-.281.338-.09.69-.169 1.031-.25-.03-.097-.068-.183-.093-.282-.027-.098-.042-.182-.063-.28-.416.142-.858.257-1.281.374v-.031c.812-1.159.947-1.608.843-2-.068-.257-.268-.536-.718-.562m-5.188.374c-.66-.068-1.093.33-1.156.938-.06.58.312.92.781.969.344.035.526-.084.657-.219v.031c-.115.886-.545 1.226-.907 1.188a.7.7 0 0 1-.437-.219l-.032.031q.058.145.094.282c.069.062.232.112.344.124.878.09 1.536-.546 1.656-1.718.088-.856-.322-1.338-1-1.407m2.344.063c-.517.04-.734.208-.875.5.115.093.247.182.344.281h.062c.01-.305.092-.572.375-.593.219-.018.407.131.438.53.031.41-.106.66-.469.688-.042.003-.079.001-.125 0l.031.219c.07-.01.144.005.219 0 .325-.026.532.225.563.625.03.39-.171.665-.47.688-.292.023-.467-.224-.53-.5h-.063c-.074.14-.184.296-.281.437.163.181.466.32.968.281.586-.045 1.14-.458 1.094-1.031-.04-.528-.309-.657-.812-.687l-.032-.032c.395-.169.623-.419.594-.781-.03-.395-.31-.681-1.031-.625m-2.312.156c.236.025.37.24.312.813-.05.48-.265.646-.469.625-.222-.023-.367-.219-.312-.75.046-.454.218-.713.468-.688" style="fill:#9e8b4f;fill-opacity:1;fill-rule:nonzero;stroke:none" data-source="https://football-logos.cc"></path><!-- source: https://football-logos.cc --></svg>